<?xml version="1.0" encoding="UTF-8" standalone="no"?>
<!DOCTYPE svg PUBLIC "-//W3C//DTD SVG 1.1//EN" "http://www.w3.org/Graphics/SVG/1.1/DTD/svg11.dtd">
<svg width="100%" height="100%" viewBox="0 0 1500 200" version="1.1" xmlns="http://www.w3.org/2000/svg" xmlns:xlink="http://www.w3.org/1999/xlink" xml:space="preserve" xmlns:serif="http://www.serif.com/" style="fill-rule:evenodd;clip-rule:evenodd;stroke-linejoin:round;stroke-miterlimit:2;">
    <g transform="matrix(0.707107,-0.707107,0.433496,0.433496,-362.477,413.833)">
        <rect x="77.424" y="-169.219" width="575.324" height="81.559" style="fill:rgb(255,83,56);"/>
    </g>
    <g transform="matrix(0.707107,-0.707107,0.433496,0.433496,-222.477,413.833)">
        <rect x="77.424" y="-169.219" width="575.324" height="81.559" style="fill:rgb(255,83,56);"/>
    </g>
    <g transform="matrix(0.707107,-0.707107,0.433496,0.433496,-82.4768,413.833)">
        <rect x="77.424" y="-169.219" width="575.324" height="81.559" style="fill:rgb(255,83,56);"/>
    </g>
    <g transform="matrix(0.707107,-0.707107,0.433496,0.433496,57.5232,413.833)">
        <rect x="77.424" y="-169.219" width="575.324" height="81.559" style="fill:rgb(255,83,56);"/>
    </g>
    <g transform="matrix(0.707107,-0.707107,0.433496,0.433496,197.523,413.833)">
        <rect x="77.424" y="-169.219" width="575.324" height="81.559" style="fill:rgb(255,83,56);"/>
    </g>
    <g transform="matrix(0.707107,-0.707107,0.433496,0.433496,337.523,413.833)">
        <rect x="77.424" y="-169.219" width="575.324" height="81.559" style="fill:rgb(255,83,56);"/>
    </g>
    <g transform="matrix(0.707107,-0.707107,0.433496,0.433496,477.523,413.833)">
        <rect x="77.424" y="-169.219" width="575.324" height="81.559" style="fill:rgb(255,83,56);"/>
    </g>
    <g transform="matrix(0.707107,-0.707107,0.433496,0.433496,617.523,413.833)">
        <rect x="77.424" y="-169.219" width="575.324" height="81.559" style="fill:rgb(255,83,56);"/>
    </g>
    <g transform="matrix(0.707107,-0.707107,0.433496,0.433496,757.523,413.833)">
        <rect x="77.424" y="-169.219" width="575.324" height="81.559" style="fill:rgb(255,83,56);"/>
    </g>
    <g transform="matrix(0.707107,-0.707107,0.433496,0.433496,897.523,413.833)">
        <rect x="77.424" y="-169.219" width="575.324" height="81.559" style="fill:rgb(255,83,56);"/>
    </g>
    <g transform="matrix(0.707107,-0.707107,0.433496,0.433496,1037.52,413.833)">
        <rect x="77.424" y="-169.219" width="575.324" height="81.559" style="fill:rgb(255,83,56);"/>
    </g>
    <g transform="matrix(0.707107,-0.707107,0.433496,0.433496,1177.52,413.833)">
        <rect x="77.424" y="-169.219" width="575.324" height="81.559" style="fill:rgb(255,83,56);"/>
    </g>
    <g transform="matrix(0.707107,-0.707107,0.433496,0.433496,1317.52,413.833)">
        <rect x="77.424" y="-169.219" width="575.324" height="81.559" style="fill:rgb(255,83,56);"/>
    </g>
    <g transform="matrix(0.707107,-0.707107,0.433496,0.433496,1457.52,413.833)">
        <rect x="77.424" y="-169.219" width="575.324" height="81.559" style="fill:rgb(255,83,56);"/>
    </g>
</svg>
