<?xml version="1.0" encoding="UTF-8" standalone="no"?>
<!DOCTYPE svg PUBLIC "-//W3C//DTD SVG 1.1//EN" "http://www.w3.org/Graphics/SVG/1.1/DTD/svg11.dtd">
<svg width="100%" height="100%" viewBox="0 0 3473 2363" version="1.1" xmlns="http://www.w3.org/2000/svg" xmlns:xlink="http://www.w3.org/1999/xlink" xml:space="preserve" xmlns:serif="http://www.serif.com/" style="fill-rule:evenodd;clip-rule:evenodd;stroke-linejoin:round;stroke-miterlimit:1.5;">
    <g transform="matrix(0.733085,-0.0515739,0.0515739,0.733085,278.231,288.06)">
        <rect x="1235.3" y="799.652" width="192.86" height="192.86" style="fill:rgb(255,247,132);"/>
    </g>
    <g transform="matrix(0.734897,-1.38778e-17,1.38778e-17,0.734897,1150.13,688.856)">
        <rect x="1235.3" y="799.652" width="192.86" height="192.86" style="fill:rgb(255,247,132);"/>
    </g>
    <g transform="matrix(2.08507,0,0,1.95841,-10271.4,-4383.18)">
        <rect x="5011.56" y="2508" width="71.026" height="177.446" style="fill:rgb(140,140,140);"/>
    </g>
    <g transform="matrix(2.08507,0,0,1.46881,-10086.9,-3068.38)">
        <rect x="5011.56" y="2508" width="71.026" height="177.446" style="fill:rgb(220,220,220);"/>
    </g>
    <g transform="matrix(2.08507,0,0,1.95841,-7878.01,-3911.81)">
        <rect x="5011.56" y="2508" width="71.026" height="177.446" style="fill:rgb(68,68,68);"/>
    </g>
    <g transform="matrix(2.08507,0,0,0.244801,-7691.27,689.985)">
        <rect x="5011.56" y="2508" width="71.026" height="177.446" style="fill:rgb(140,140,140);"/>
    </g>
    <g transform="matrix(2.08507,0,0,0.244801,-7504.53,689.985)">
        <rect x="5011.56" y="2508" width="71.026" height="177.446" style="fill:rgb(220,220,220);"/>
    </g>
    <g transform="matrix(1,0,0,1,2057.23,-833.17)">
        <g transform="matrix(62.5,0,0,62.5,514.188,2295.13)">
            <path d="M0.503,-0.183C0.503,-0.261 0.455,-0.337 0.38,-0.363C0.445,-0.388 0.487,-0.455 0.487,-0.524C0.487,-0.642 0.398,-0.709 0.285,-0.709C0.172,-0.709 0.081,-0.642 0.081,-0.524C0.081,-0.455 0.123,-0.388 0.188,-0.363C0.113,-0.337 0.065,-0.261 0.065,-0.183C0.065,-0.057 0.165,0.013 0.283,0.013C0.401,0.013 0.503,-0.057 0.503,-0.183ZM0.435,-0.526C0.435,-0.435 0.371,-0.385 0.285,-0.385C0.199,-0.385 0.133,-0.435 0.133,-0.526C0.133,-0.615 0.199,-0.664 0.283,-0.664C0.367,-0.664 0.435,-0.615 0.435,-0.526ZM0.451,-0.186C0.451,-0.087 0.379,-0.033 0.285,-0.033C0.191,-0.033 0.117,-0.087 0.117,-0.186C0.117,-0.285 0.189,-0.341 0.283,-0.341C0.377,-0.341 0.451,-0.285 0.451,-0.186Z" style="fill:rgb(68,68,68);fill-rule:nonzero;"/>
        </g>
        <g transform="matrix(62.5,0,0,62.5,549.687,2295.13)">
            <path d="M0.507,-0.348C0.507,-0.457 0.497,-0.584 0.425,-0.653C0.393,-0.684 0.348,-0.709 0.284,-0.709C0.22,-0.709 0.175,-0.684 0.143,-0.653C0.071,-0.584 0.061,-0.457 0.061,-0.348C0.061,-0.239 0.071,-0.112 0.143,-0.043C0.175,-0.012 0.22,0.013 0.284,0.013C0.348,0.013 0.393,-0.012 0.425,-0.043C0.497,-0.112 0.507,-0.239 0.507,-0.348ZM0.456,-0.348C0.456,-0.258 0.454,-0.136 0.391,-0.075C0.366,-0.051 0.333,-0.035 0.284,-0.035C0.235,-0.035 0.202,-0.051 0.177,-0.075C0.114,-0.136 0.112,-0.258 0.112,-0.348C0.112,-0.438 0.114,-0.56 0.177,-0.621C0.202,-0.645 0.235,-0.661 0.284,-0.661C0.333,-0.661 0.366,-0.645 0.391,-0.621C0.454,-0.56 0.456,-0.438 0.456,-0.348Z" style="fill:rgb(68,68,68);fill-rule:nonzero;"/>
        </g>
        <g transform="matrix(62.5,0,0,62.5,585.187,2295.13)">
            <path d="M0.852,-0.172C0.852,-0.219 0.843,-0.262 0.819,-0.297C0.794,-0.333 0.754,-0.358 0.7,-0.358C0.646,-0.358 0.606,-0.332 0.581,-0.297C0.557,-0.262 0.548,-0.219 0.548,-0.172C0.548,-0.125 0.557,-0.082 0.581,-0.047C0.606,-0.012 0.646,0.014 0.7,0.014C0.754,0.014 0.794,-0.012 0.819,-0.047C0.843,-0.082 0.852,-0.125 0.852,-0.172ZM0.736,-0.694L0.7,-0.719L0.183,-0.015L0.218,0.012L0.736,-0.694ZM0.372,-0.536C0.372,-0.583 0.363,-0.626 0.339,-0.661C0.314,-0.697 0.273,-0.722 0.219,-0.722C0.165,-0.722 0.125,-0.696 0.1,-0.661C0.076,-0.626 0.068,-0.583 0.068,-0.536C0.068,-0.489 0.076,-0.446 0.1,-0.411C0.125,-0.376 0.166,-0.35 0.22,-0.35C0.274,-0.35 0.314,-0.376 0.339,-0.411C0.363,-0.446 0.372,-0.489 0.372,-0.536ZM0.806,-0.172C0.806,-0.094 0.776,-0.031 0.7,-0.031C0.624,-0.031 0.593,-0.094 0.593,-0.172C0.593,-0.25 0.624,-0.313 0.7,-0.313C0.776,-0.313 0.806,-0.25 0.806,-0.172ZM0.326,-0.536C0.326,-0.458 0.296,-0.395 0.22,-0.395C0.144,-0.395 0.113,-0.458 0.113,-0.536C0.113,-0.614 0.143,-0.677 0.219,-0.677C0.295,-0.677 0.326,-0.614 0.326,-0.536Z" style="fill:rgb(68,68,68);fill-rule:nonzero;"/>
        </g>
        <g transform="matrix(62.5,0,0,62.5,703.164,2295.13)">
            <path d="M0.513,-0L0.513,-0.044C0.508,-0.043 0.505,-0.043 0.499,-0.043C0.465,-0.043 0.46,-0.063 0.46,-0.097L0.46,-0.325C0.46,-0.358 0.459,-0.39 0.447,-0.421C0.42,-0.49 0.346,-0.513 0.278,-0.513C0.17,-0.513 0.091,-0.457 0.084,-0.356L0.134,-0.356C0.139,-0.43 0.199,-0.466 0.278,-0.466C0.354,-0.466 0.41,-0.435 0.41,-0.352L0.41,-0.303L0.226,-0.29C0.127,-0.283 0.058,-0.23 0.058,-0.141C0.058,-0.045 0.133,0.013 0.23,0.013C0.307,0.013 0.383,-0.024 0.41,-0.095C0.41,-0.042 0.427,0.003 0.489,0.003C0.501,0.003 0.501,0.002 0.513,-0ZM0.41,-0.231C0.41,-0.135 0.36,-0.033 0.234,-0.033C0.163,-0.033 0.109,-0.069 0.109,-0.141C0.109,-0.202 0.157,-0.241 0.231,-0.246L0.41,-0.257L0.41,-0.231Z" style="fill:rgb(68,68,68);fill-rule:nonzero;"/>
        </g>
        <g transform="matrix(62.5,0,0,62.5,737.914,2295.13)">
            <path d="M0.336,-0.005L0.336,-0.049C0.309,-0.044 0.284,-0.04 0.257,-0.04C0.19,-0.04 0.174,-0.082 0.174,-0.141L0.174,-0.454L0.329,-0.454L0.329,-0.5L0.174,-0.5L0.174,-0.65L0.124,-0.638L0.124,-0.5L0.024,-0.5L0.024,-0.454L0.124,-0.454L0.124,-0.139C0.124,-0.052 0.16,0.007 0.253,0.007C0.281,0.007 0.308,0.001 0.336,-0.005Z" style="fill:rgb(68,68,68);fill-rule:nonzero;"/>
        </g>
        <g transform="matrix(62.5,0,0,62.5,761.038,2295.13)">
            <path d="M0.786,-0L0.786,-0.33C0.786,-0.437 0.737,-0.513 0.62,-0.513C0.538,-0.513 0.485,-0.467 0.459,-0.405C0.439,-0.47 0.388,-0.513 0.301,-0.513C0.229,-0.513 0.175,-0.471 0.149,-0.414L0.143,-0.5L0.099,-0.5L0.099,-0L0.149,-0L0.149,-0.25C0.149,-0.321 0.164,-0.39 0.209,-0.432C0.231,-0.453 0.26,-0.466 0.298,-0.466C0.385,-0.466 0.418,-0.414 0.418,-0.327L0.418,-0L0.469,-0L0.469,-0.283C0.469,-0.343 0.489,-0.395 0.528,-0.432C0.551,-0.453 0.579,-0.466 0.617,-0.466C0.704,-0.466 0.736,-0.414 0.736,-0.327L0.736,-0L0.786,-0Z" style="fill:rgb(68,68,68);fill-rule:nonzero;"/>
        </g>
        <g transform="matrix(62.5,0,0,62.5,815.726,2295.13)">
            <path d="M0.49,-0.25C0.49,-0.335 0.471,-0.401 0.419,-0.453C0.384,-0.488 0.335,-0.513 0.273,-0.513C0.211,-0.513 0.162,-0.488 0.127,-0.453C0.075,-0.401 0.056,-0.335 0.056,-0.25C0.056,-0.165 0.075,-0.099 0.127,-0.047C0.162,-0.012 0.211,0.013 0.273,0.013C0.335,0.013 0.384,-0.012 0.419,-0.047C0.471,-0.099 0.49,-0.165 0.49,-0.25ZM0.439,-0.25C0.439,-0.185 0.428,-0.127 0.383,-0.08C0.357,-0.053 0.321,-0.036 0.273,-0.036C0.225,-0.036 0.189,-0.053 0.163,-0.08C0.118,-0.127 0.107,-0.185 0.107,-0.25C0.107,-0.315 0.118,-0.373 0.163,-0.42C0.189,-0.447 0.225,-0.464 0.273,-0.464C0.321,-0.464 0.357,-0.447 0.383,-0.42C0.428,-0.373 0.439,-0.315 0.439,-0.25Z" style="fill:rgb(68,68,68);fill-rule:nonzero;"/>
        </g>
        <g transform="matrix(62.5,0,0,62.5,849.85,2295.13)">
            <path d="M0.456,-0.139C0.456,-0.2 0.412,-0.264 0.318,-0.277L0.223,-0.29C0.147,-0.3 0.126,-0.332 0.126,-0.374C0.126,-0.401 0.14,-0.425 0.165,-0.443C0.187,-0.459 0.216,-0.466 0.255,-0.466C0.307,-0.466 0.346,-0.449 0.369,-0.422C0.385,-0.403 0.392,-0.378 0.394,-0.362L0.444,-0.362C0.443,-0.394 0.429,-0.427 0.406,-0.454C0.372,-0.494 0.315,-0.513 0.255,-0.513C0.203,-0.513 0.154,-0.499 0.118,-0.466C0.092,-0.442 0.075,-0.409 0.075,-0.369C0.075,-0.337 0.085,-0.311 0.103,-0.29C0.131,-0.258 0.175,-0.245 0.216,-0.24L0.313,-0.227C0.373,-0.219 0.405,-0.181 0.405,-0.136C0.405,-0.107 0.396,-0.09 0.378,-0.072C0.353,-0.047 0.312,-0.035 0.26,-0.035C0.212,-0.035 0.171,-0.047 0.142,-0.075C0.121,-0.096 0.108,-0.122 0.105,-0.152L0.054,-0.152C0.056,-0.111 0.068,-0.083 0.096,-0.051C0.134,-0.008 0.192,0.013 0.26,0.013C0.326,0.013 0.386,-0.007 0.422,-0.047C0.444,-0.072 0.456,-0.102 0.456,-0.139Z" style="fill:rgb(68,68,68);fill-rule:nonzero;"/>
        </g>
        <g transform="matrix(62.5,0,0,62.5,881.85,2295.13)">
            <path d="M0.53,-0.251C0.53,-0.337 0.504,-0.417 0.448,-0.466C0.415,-0.495 0.372,-0.513 0.315,-0.513C0.248,-0.513 0.176,-0.474 0.149,-0.412L0.143,-0.5L0.099,-0.5L0.099,0.2L0.149,0.2L0.149,-0.084C0.176,-0.027 0.245,0.013 0.316,0.013C0.374,0.013 0.419,-0.007 0.452,-0.039C0.505,-0.089 0.53,-0.169 0.53,-0.251ZM0.479,-0.25C0.479,-0.186 0.462,-0.122 0.423,-0.08C0.397,-0.053 0.363,-0.036 0.316,-0.036C0.27,-0.036 0.236,-0.051 0.211,-0.075C0.165,-0.118 0.148,-0.176 0.148,-0.25C0.148,-0.319 0.167,-0.38 0.212,-0.424C0.237,-0.448 0.27,-0.464 0.314,-0.464C0.356,-0.464 0.388,-0.451 0.413,-0.429C0.459,-0.388 0.479,-0.321 0.479,-0.25Z" style="fill:rgb(68,68,68);fill-rule:nonzero;"/>
        </g>
        <g transform="matrix(62.5,0,0,62.5,918.349,2295.13)">
            <path d="M0.494,-0L0.494,-0.33C0.494,-0.442 0.433,-0.513 0.318,-0.513C0.248,-0.513 0.177,-0.472 0.149,-0.408L0.149,-0.722L0.099,-0.722L0.099,-0L0.149,-0L0.149,-0.25C0.149,-0.358 0.192,-0.466 0.315,-0.466C0.406,-0.466 0.444,-0.414 0.444,-0.327L0.444,-0L0.494,-0Z" style="fill:rgb(68,68,68);fill-rule:nonzero;"/>
        </g>
        <g transform="matrix(62.5,0,0,62.5,954.787,2295.13)">
            <path d="M0.489,-0.271C0.489,-0.397 0.41,-0.513 0.275,-0.513C0.205,-0.513 0.147,-0.483 0.105,-0.426C0.066,-0.373 0.056,-0.311 0.056,-0.248C0.056,-0.172 0.079,-0.106 0.12,-0.058C0.156,-0.017 0.207,0.013 0.279,0.013C0.336,0.013 0.386,-0.009 0.422,-0.045C0.45,-0.072 0.471,-0.107 0.478,-0.15L0.426,-0.15C0.42,-0.12 0.406,-0.098 0.388,-0.079C0.361,-0.051 0.323,-0.035 0.279,-0.035C0.225,-0.035 0.186,-0.055 0.158,-0.088C0.126,-0.126 0.107,-0.18 0.106,-0.238L0.488,-0.238C0.488,-0.25 0.489,-0.259 0.489,-0.271ZM0.438,-0.284L0.107,-0.284C0.107,-0.383 0.172,-0.466 0.275,-0.466C0.377,-0.466 0.436,-0.379 0.438,-0.284Z" style="fill:rgb(68,68,68);fill-rule:nonzero;"/>
        </g>
        <g transform="matrix(62.5,0,0,62.5,988.474,2295.13)">
            <path d="M0.357,-0.452L0.357,-0.502C0.341,-0.505 0.324,-0.505 0.308,-0.505C0.238,-0.505 0.171,-0.468 0.149,-0.399L0.143,-0.5L0.099,-0.5L0.099,-0L0.149,-0L0.149,-0.24C0.149,-0.345 0.183,-0.457 0.308,-0.457C0.324,-0.457 0.341,-0.456 0.357,-0.452Z" style="fill:rgb(68,68,68);fill-rule:nonzero;"/>
        </g>
        <g transform="matrix(62.5,0,0,62.5,1011.66,2295.13)">
            <path d="M0.489,-0.271C0.489,-0.397 0.41,-0.513 0.275,-0.513C0.205,-0.513 0.147,-0.483 0.105,-0.426C0.066,-0.373 0.056,-0.311 0.056,-0.248C0.056,-0.172 0.079,-0.106 0.12,-0.058C0.156,-0.017 0.207,0.013 0.279,0.013C0.336,0.013 0.386,-0.009 0.422,-0.045C0.45,-0.072 0.471,-0.107 0.478,-0.15L0.426,-0.15C0.42,-0.12 0.406,-0.098 0.388,-0.079C0.361,-0.051 0.323,-0.035 0.279,-0.035C0.225,-0.035 0.186,-0.055 0.158,-0.088C0.126,-0.126 0.107,-0.18 0.106,-0.238L0.488,-0.238C0.488,-0.25 0.489,-0.259 0.489,-0.271ZM0.438,-0.284L0.107,-0.284C0.107,-0.383 0.172,-0.466 0.275,-0.466C0.377,-0.466 0.436,-0.379 0.438,-0.284Z" style="fill:rgb(68,68,68);fill-rule:nonzero;"/>
        </g>
        <g transform="matrix(62.5,0,0,62.5,514.188,2416)">
            <path d="M0.343,-0L0.343,-0.695L0.298,-0.695L0.12,-0.562L0.12,-0.506L0.293,-0.633L0.293,-0L0.343,-0Z" style="fill:rgb(140,140,140);fill-rule:nonzero;"/>
        </g>
        <g transform="matrix(62.5,0,0,62.5,549.687,2416)">
            <path d="M0.507,-0.348C0.507,-0.457 0.497,-0.584 0.425,-0.653C0.393,-0.684 0.348,-0.709 0.284,-0.709C0.22,-0.709 0.175,-0.684 0.143,-0.653C0.071,-0.584 0.061,-0.457 0.061,-0.348C0.061,-0.239 0.071,-0.112 0.143,-0.043C0.175,-0.012 0.22,0.013 0.284,0.013C0.348,0.013 0.393,-0.012 0.425,-0.043C0.497,-0.112 0.507,-0.239 0.507,-0.348ZM0.456,-0.348C0.456,-0.258 0.454,-0.136 0.391,-0.075C0.366,-0.051 0.333,-0.035 0.284,-0.035C0.235,-0.035 0.202,-0.051 0.177,-0.075C0.114,-0.136 0.112,-0.258 0.112,-0.348C0.112,-0.438 0.114,-0.56 0.177,-0.621C0.202,-0.645 0.235,-0.661 0.284,-0.661C0.333,-0.661 0.366,-0.645 0.391,-0.621C0.454,-0.56 0.456,-0.438 0.456,-0.348Z" style="fill:rgb(140,140,140);fill-rule:nonzero;"/>
        </g>
        <g transform="matrix(62.5,0,0,62.5,585.187,2416)">
            <path d="M0.852,-0.172C0.852,-0.219 0.843,-0.262 0.819,-0.297C0.794,-0.333 0.754,-0.358 0.7,-0.358C0.646,-0.358 0.606,-0.332 0.581,-0.297C0.557,-0.262 0.548,-0.219 0.548,-0.172C0.548,-0.125 0.557,-0.082 0.581,-0.047C0.606,-0.012 0.646,0.014 0.7,0.014C0.754,0.014 0.794,-0.012 0.819,-0.047C0.843,-0.082 0.852,-0.125 0.852,-0.172ZM0.736,-0.694L0.7,-0.719L0.183,-0.015L0.218,0.012L0.736,-0.694ZM0.372,-0.536C0.372,-0.583 0.363,-0.626 0.339,-0.661C0.314,-0.697 0.273,-0.722 0.219,-0.722C0.165,-0.722 0.125,-0.696 0.1,-0.661C0.076,-0.626 0.068,-0.583 0.068,-0.536C0.068,-0.489 0.076,-0.446 0.1,-0.411C0.125,-0.376 0.166,-0.35 0.22,-0.35C0.274,-0.35 0.314,-0.376 0.339,-0.411C0.363,-0.446 0.372,-0.489 0.372,-0.536ZM0.806,-0.172C0.806,-0.094 0.776,-0.031 0.7,-0.031C0.624,-0.031 0.593,-0.094 0.593,-0.172C0.593,-0.25 0.624,-0.313 0.7,-0.313C0.776,-0.313 0.806,-0.25 0.806,-0.172ZM0.326,-0.536C0.326,-0.458 0.296,-0.395 0.22,-0.395C0.144,-0.395 0.113,-0.458 0.113,-0.536C0.113,-0.614 0.143,-0.677 0.219,-0.677C0.295,-0.677 0.326,-0.614 0.326,-0.536Z" style="fill:rgb(140,140,140);fill-rule:nonzero;"/>
        </g>
        <g transform="matrix(62.5,0,0,62.5,703.164,2416)">
            <path d="M0.165,-0.639L0.165,-0.709L0.095,-0.709L0.095,-0.639L0.165,-0.639ZM0.157,-0L0.157,-0.5L0.104,-0.5L0.104,-0L0.157,-0Z" style="fill:rgb(140,140,140);fill-rule:nonzero;"/>
        </g>
        <g transform="matrix(62.5,0,0,62.5,719.414,2416)">
            <path d="M0.494,-0L0.494,-0.33C0.494,-0.442 0.433,-0.513 0.318,-0.513C0.248,-0.513 0.177,-0.472 0.149,-0.409L0.143,-0.5L0.099,-0.5L0.099,-0L0.149,-0L0.149,-0.25C0.149,-0.358 0.192,-0.464 0.315,-0.464C0.406,-0.464 0.444,-0.414 0.444,-0.327L0.444,-0L0.494,-0Z" style="fill:rgb(140,140,140);fill-rule:nonzero;"/>
        </g>
        <g transform="matrix(62.5,0,0,62.5,755.851,2416)">
            <path d="M0.349,-0.677L0.349,-0.722C0.325,-0.726 0.302,-0.728 0.273,-0.728C0.179,-0.728 0.132,-0.664 0.132,-0.588L0.132,-0.5L0.032,-0.5L0.032,-0.454L0.132,-0.454L0.132,-0L0.182,-0L0.182,-0.454L0.339,-0.454L0.339,-0.5L0.182,-0.5L0.182,-0.586C0.182,-0.65 0.214,-0.683 0.277,-0.683C0.306,-0.683 0.329,-0.68 0.349,-0.677Z" style="fill:rgb(140,140,140);fill-rule:nonzero;"/>
        </g>
        <g transform="matrix(62.5,0,0,62.5,777.788,2416)">
            <path d="M0.357,-0.452L0.357,-0.502C0.341,-0.505 0.324,-0.505 0.308,-0.505C0.238,-0.505 0.171,-0.468 0.149,-0.399L0.143,-0.5L0.099,-0.5L0.099,-0L0.149,-0L0.149,-0.24C0.149,-0.345 0.183,-0.457 0.308,-0.457C0.324,-0.457 0.341,-0.456 0.357,-0.452Z" style="fill:rgb(140,140,140);fill-rule:nonzero;"/>
        </g>
        <g transform="matrix(62.5,0,0,62.5,800.975,2416)">
            <path d="M0.513,-0L0.513,-0.044C0.508,-0.043 0.505,-0.043 0.499,-0.043C0.465,-0.043 0.46,-0.063 0.46,-0.097L0.46,-0.325C0.46,-0.358 0.459,-0.39 0.447,-0.421C0.42,-0.49 0.346,-0.513 0.278,-0.513C0.17,-0.513 0.091,-0.457 0.084,-0.356L0.134,-0.356C0.139,-0.43 0.199,-0.466 0.278,-0.466C0.354,-0.466 0.41,-0.435 0.41,-0.352L0.41,-0.303L0.226,-0.29C0.127,-0.283 0.058,-0.23 0.058,-0.141C0.058,-0.045 0.133,0.013 0.23,0.013C0.307,0.013 0.383,-0.024 0.41,-0.095C0.41,-0.042 0.427,0.003 0.489,0.003C0.501,0.003 0.501,0.002 0.513,-0ZM0.41,-0.231C0.41,-0.135 0.36,-0.033 0.234,-0.033C0.163,-0.033 0.109,-0.069 0.109,-0.141C0.109,-0.202 0.157,-0.241 0.231,-0.246L0.41,-0.257L0.41,-0.231Z" style="fill:rgb(140,140,140);fill-rule:nonzero;"/>
        </g>
        <g transform="matrix(62.5,0,0,62.5,836.037,2416)">
            <path d="M0.456,-0.139C0.456,-0.2 0.412,-0.264 0.318,-0.277L0.223,-0.29C0.147,-0.3 0.126,-0.332 0.126,-0.374C0.126,-0.401 0.14,-0.425 0.165,-0.443C0.187,-0.459 0.216,-0.466 0.255,-0.466C0.307,-0.466 0.346,-0.449 0.369,-0.422C0.385,-0.403 0.392,-0.378 0.394,-0.362L0.444,-0.362C0.443,-0.394 0.429,-0.427 0.406,-0.454C0.372,-0.494 0.315,-0.513 0.255,-0.513C0.203,-0.513 0.154,-0.499 0.118,-0.466C0.092,-0.442 0.075,-0.409 0.075,-0.369C0.075,-0.337 0.085,-0.311 0.103,-0.29C0.131,-0.258 0.175,-0.245 0.216,-0.24L0.313,-0.227C0.373,-0.219 0.405,-0.181 0.405,-0.136C0.405,-0.107 0.396,-0.09 0.378,-0.072C0.353,-0.047 0.312,-0.035 0.26,-0.035C0.212,-0.035 0.171,-0.047 0.142,-0.075C0.121,-0.096 0.108,-0.122 0.105,-0.152L0.054,-0.152C0.056,-0.111 0.068,-0.083 0.096,-0.051C0.134,-0.008 0.192,0.013 0.26,0.013C0.326,0.013 0.386,-0.007 0.422,-0.047C0.444,-0.072 0.456,-0.102 0.456,-0.139Z" style="fill:rgb(140,140,140);fill-rule:nonzero;"/>
        </g>
        <g transform="matrix(62.5,0,0,62.5,867.724,2416)">
            <path d="M0.336,-0.005L0.336,-0.049C0.309,-0.044 0.284,-0.04 0.257,-0.04C0.19,-0.04 0.174,-0.082 0.174,-0.141L0.174,-0.454L0.329,-0.454L0.329,-0.5L0.174,-0.5L0.174,-0.65L0.124,-0.638L0.124,-0.5L0.024,-0.5L0.024,-0.454L0.124,-0.454L0.124,-0.139C0.124,-0.052 0.16,0.007 0.253,0.007C0.281,0.007 0.308,0.001 0.336,-0.005Z" style="fill:rgb(140,140,140);fill-rule:nonzero;"/>
        </g>
        <g transform="matrix(62.5,0,0,62.5,890.849,2416)">
            <path d="M0.357,-0.452L0.357,-0.502C0.341,-0.505 0.324,-0.505 0.308,-0.505C0.238,-0.505 0.171,-0.468 0.149,-0.399L0.143,-0.5L0.099,-0.5L0.099,-0L0.149,-0L0.149,-0.24C0.149,-0.345 0.183,-0.457 0.308,-0.457C0.324,-0.457 0.341,-0.456 0.357,-0.452Z" style="fill:rgb(140,140,140);fill-rule:nonzero;"/>
        </g>
        <g transform="matrix(62.5,0,0,62.5,914.036,2416)">
            <path d="M0.484,-0.001L0.484,-0.501L0.434,-0.501L0.434,-0.251C0.434,-0.143 0.391,-0.037 0.268,-0.037C0.177,-0.037 0.139,-0.087 0.139,-0.174L0.139,-0.501L0.089,-0.501L0.089,-0.171C0.089,-0.059 0.15,0.012 0.265,0.012C0.335,0.012 0.406,-0.028 0.434,-0.092L0.44,-0.001L0.484,-0.001Z" style="fill:rgb(140,140,140);fill-rule:nonzero;"/>
        </g>
        <g transform="matrix(62.5,0,0,62.5,950.473,2416)">
            <path d="M0.468,-0.158L0.415,-0.158C0.403,-0.09 0.35,-0.036 0.273,-0.036C0.225,-0.036 0.188,-0.051 0.162,-0.078C0.117,-0.125 0.107,-0.185 0.107,-0.25C0.107,-0.315 0.117,-0.374 0.162,-0.421C0.188,-0.448 0.225,-0.464 0.273,-0.464C0.349,-0.464 0.403,-0.413 0.414,-0.344L0.466,-0.344C0.454,-0.445 0.377,-0.513 0.273,-0.513C0.211,-0.513 0.161,-0.489 0.126,-0.454C0.074,-0.402 0.056,-0.335 0.056,-0.25C0.056,-0.165 0.074,-0.098 0.126,-0.046C0.161,-0.011 0.211,0.013 0.273,0.013C0.378,0.013 0.455,-0.061 0.468,-0.158Z" style="fill:rgb(140,140,140);fill-rule:nonzero;"/>
        </g>
        <g transform="matrix(62.5,0,0,62.5,982.161,2416)">
            <path d="M0.336,-0.005L0.336,-0.049C0.309,-0.044 0.284,-0.04 0.257,-0.04C0.19,-0.04 0.174,-0.082 0.174,-0.141L0.174,-0.454L0.329,-0.454L0.329,-0.5L0.174,-0.5L0.174,-0.65L0.124,-0.638L0.124,-0.5L0.024,-0.5L0.024,-0.454L0.124,-0.454L0.124,-0.139C0.124,-0.052 0.16,0.007 0.253,0.007C0.281,0.007 0.308,0.001 0.336,-0.005Z" style="fill:rgb(140,140,140);fill-rule:nonzero;"/>
        </g>
        <g transform="matrix(62.5,0,0,62.5,1005.29,2416)">
            <path d="M0.484,-0.001L0.484,-0.501L0.434,-0.501L0.434,-0.251C0.434,-0.143 0.391,-0.037 0.268,-0.037C0.177,-0.037 0.139,-0.087 0.139,-0.174L0.139,-0.501L0.089,-0.501L0.089,-0.171C0.089,-0.059 0.15,0.012 0.265,0.012C0.335,0.012 0.406,-0.028 0.434,-0.092L0.44,-0.001L0.484,-0.001Z" style="fill:rgb(140,140,140);fill-rule:nonzero;"/>
        </g>
        <g transform="matrix(62.5,0,0,62.5,1041.72,2416)">
            <path d="M0.357,-0.452L0.357,-0.502C0.341,-0.505 0.324,-0.505 0.308,-0.505C0.238,-0.505 0.171,-0.468 0.149,-0.399L0.143,-0.5L0.099,-0.5L0.099,-0L0.149,-0L0.149,-0.24C0.149,-0.345 0.183,-0.457 0.308,-0.457C0.324,-0.457 0.341,-0.456 0.357,-0.452Z" style="fill:rgb(140,140,140);fill-rule:nonzero;"/>
        </g>
        <g transform="matrix(62.5,0,0,62.5,1064.91,2416)">
            <path d="M0.489,-0.271C0.489,-0.397 0.41,-0.513 0.275,-0.513C0.205,-0.513 0.147,-0.483 0.105,-0.426C0.066,-0.373 0.056,-0.311 0.056,-0.248C0.056,-0.172 0.079,-0.106 0.12,-0.058C0.156,-0.017 0.207,0.013 0.279,0.013C0.336,0.013 0.386,-0.009 0.422,-0.045C0.45,-0.072 0.471,-0.107 0.478,-0.15L0.426,-0.15C0.42,-0.12 0.406,-0.098 0.388,-0.079C0.361,-0.051 0.323,-0.035 0.279,-0.035C0.225,-0.035 0.186,-0.055 0.158,-0.088C0.126,-0.126 0.107,-0.18 0.106,-0.238L0.488,-0.238C0.488,-0.25 0.489,-0.259 0.489,-0.271ZM0.438,-0.284L0.107,-0.284C0.107,-0.383 0.172,-0.466 0.275,-0.466C0.377,-0.466 0.436,-0.379 0.438,-0.284Z" style="fill:rgb(140,140,140);fill-rule:nonzero;"/>
        </g>
        <g transform="matrix(62.5,0,0,62.5,514.188,2536.88)">
            <path d="M0.343,-0L0.343,-0.695L0.298,-0.695L0.12,-0.562L0.12,-0.506L0.293,-0.633L0.293,-0L0.343,-0Z" style="fill:rgb(220,220,220);fill-rule:nonzero;"/>
        </g>
        <g transform="matrix(62.5,0,0,62.5,549.687,2536.88)">
            <path d="M0.507,-0.348C0.507,-0.457 0.497,-0.584 0.425,-0.653C0.393,-0.684 0.348,-0.709 0.284,-0.709C0.22,-0.709 0.175,-0.684 0.143,-0.653C0.071,-0.584 0.061,-0.457 0.061,-0.348C0.061,-0.239 0.071,-0.112 0.143,-0.043C0.175,-0.012 0.22,0.013 0.284,0.013C0.348,0.013 0.393,-0.012 0.425,-0.043C0.497,-0.112 0.507,-0.239 0.507,-0.348ZM0.456,-0.348C0.456,-0.258 0.454,-0.136 0.391,-0.075C0.366,-0.051 0.333,-0.035 0.284,-0.035C0.235,-0.035 0.202,-0.051 0.177,-0.075C0.114,-0.136 0.112,-0.258 0.112,-0.348C0.112,-0.438 0.114,-0.56 0.177,-0.621C0.202,-0.645 0.235,-0.661 0.284,-0.661C0.333,-0.661 0.366,-0.645 0.391,-0.621C0.454,-0.56 0.456,-0.438 0.456,-0.348Z" style="fill:rgb(220,220,220);fill-rule:nonzero;"/>
        </g>
        <g transform="matrix(62.5,0,0,62.5,585.187,2536.88)">
            <path d="M0.852,-0.172C0.852,-0.219 0.843,-0.262 0.819,-0.297C0.794,-0.333 0.754,-0.358 0.7,-0.358C0.646,-0.358 0.606,-0.332 0.581,-0.297C0.557,-0.262 0.548,-0.219 0.548,-0.172C0.548,-0.125 0.557,-0.082 0.581,-0.047C0.606,-0.012 0.646,0.014 0.7,0.014C0.754,0.014 0.794,-0.012 0.819,-0.047C0.843,-0.082 0.852,-0.125 0.852,-0.172ZM0.736,-0.694L0.7,-0.719L0.183,-0.015L0.218,0.012L0.736,-0.694ZM0.372,-0.536C0.372,-0.583 0.363,-0.626 0.339,-0.661C0.314,-0.697 0.273,-0.722 0.219,-0.722C0.165,-0.722 0.125,-0.696 0.1,-0.661C0.076,-0.626 0.068,-0.583 0.068,-0.536C0.068,-0.489 0.076,-0.446 0.1,-0.411C0.125,-0.376 0.166,-0.35 0.22,-0.35C0.274,-0.35 0.314,-0.376 0.339,-0.411C0.363,-0.446 0.372,-0.489 0.372,-0.536ZM0.806,-0.172C0.806,-0.094 0.776,-0.031 0.7,-0.031C0.624,-0.031 0.593,-0.094 0.593,-0.172C0.593,-0.25 0.624,-0.313 0.7,-0.313C0.776,-0.313 0.806,-0.25 0.806,-0.172ZM0.326,-0.536C0.326,-0.458 0.296,-0.395 0.22,-0.395C0.144,-0.395 0.113,-0.458 0.113,-0.536C0.113,-0.614 0.143,-0.677 0.219,-0.677C0.295,-0.677 0.326,-0.614 0.326,-0.536Z" style="fill:rgb(220,220,220);fill-rule:nonzero;"/>
        </g>
        <g transform="matrix(62.5,0,0,62.5,703.164,2536.88)">
            <path d="M0.336,-0.005L0.336,-0.049C0.309,-0.044 0.284,-0.04 0.257,-0.04C0.19,-0.04 0.174,-0.082 0.174,-0.141L0.174,-0.454L0.329,-0.454L0.329,-0.5L0.174,-0.5L0.174,-0.65L0.124,-0.638L0.124,-0.5L0.024,-0.5L0.024,-0.454L0.124,-0.454L0.124,-0.139C0.124,-0.052 0.16,0.007 0.253,0.007C0.281,0.007 0.308,0.001 0.336,-0.005Z" style="fill:rgb(220,220,220);fill-rule:nonzero;"/>
        </g>
        <g transform="matrix(62.5,0,0,62.5,726.289,2536.88)">
            <path d="M0.357,-0.452L0.357,-0.502C0.341,-0.505 0.324,-0.505 0.308,-0.505C0.238,-0.505 0.171,-0.468 0.149,-0.399L0.143,-0.5L0.099,-0.5L0.099,-0L0.149,-0L0.149,-0.24C0.149,-0.345 0.183,-0.457 0.308,-0.457C0.324,-0.457 0.341,-0.456 0.357,-0.452Z" style="fill:rgb(220,220,220);fill-rule:nonzero;"/>
        </g>
        <g transform="matrix(62.5,0,0,62.5,749.476,2536.88)">
            <path d="M0.513,-0L0.513,-0.044C0.508,-0.043 0.505,-0.043 0.499,-0.043C0.465,-0.043 0.46,-0.063 0.46,-0.097L0.46,-0.325C0.46,-0.358 0.459,-0.39 0.447,-0.421C0.42,-0.49 0.346,-0.513 0.278,-0.513C0.17,-0.513 0.091,-0.457 0.084,-0.356L0.134,-0.356C0.139,-0.43 0.199,-0.466 0.278,-0.466C0.354,-0.466 0.41,-0.435 0.41,-0.352L0.41,-0.303L0.226,-0.29C0.127,-0.283 0.058,-0.23 0.058,-0.141C0.058,-0.045 0.133,0.013 0.23,0.013C0.307,0.013 0.383,-0.024 0.41,-0.095C0.41,-0.042 0.427,0.003 0.489,0.003C0.501,0.003 0.501,0.002 0.513,-0ZM0.41,-0.231C0.41,-0.135 0.36,-0.033 0.234,-0.033C0.163,-0.033 0.109,-0.069 0.109,-0.141C0.109,-0.202 0.157,-0.241 0.231,-0.246L0.41,-0.257L0.41,-0.231Z" style="fill:rgb(220,220,220);fill-rule:nonzero;"/>
        </g>
        <g transform="matrix(62.5,0,0,62.5,784.538,2536.88)">
            <path d="M0.165,-0.639L0.165,-0.709L0.095,-0.709L0.095,-0.639L0.165,-0.639ZM0.157,-0L0.157,-0.5L0.104,-0.5L0.104,-0L0.157,-0Z" style="fill:rgb(220,220,220);fill-rule:nonzero;"/>
        </g>
        <g transform="matrix(62.5,0,0,62.5,800.788,2536.88)">
            <path d="M0.494,-0L0.494,-0.33C0.494,-0.442 0.433,-0.513 0.318,-0.513C0.248,-0.513 0.177,-0.472 0.149,-0.409L0.143,-0.5L0.099,-0.5L0.099,-0L0.149,-0L0.149,-0.25C0.149,-0.358 0.192,-0.464 0.315,-0.464C0.406,-0.464 0.444,-0.414 0.444,-0.327L0.444,-0L0.494,-0Z" style="fill:rgb(220,220,220);fill-rule:nonzero;"/>
        </g>
        <g transform="matrix(62.5,0,0,62.5,850.662,2536.88)">
            <path d="M0.349,-0.677L0.349,-0.722C0.325,-0.726 0.302,-0.728 0.273,-0.728C0.179,-0.728 0.132,-0.664 0.132,-0.588L0.132,-0.5L0.032,-0.5L0.032,-0.454L0.132,-0.454L0.132,-0L0.182,-0L0.182,-0.454L0.339,-0.454L0.339,-0.5L0.182,-0.5L0.182,-0.586C0.182,-0.65 0.214,-0.683 0.277,-0.683C0.306,-0.683 0.329,-0.68 0.349,-0.677Z" style="fill:rgb(220,220,220);fill-rule:nonzero;"/>
        </g>
        <g transform="matrix(62.5,0,0,62.5,872.599,2536.88)">
            <path d="M0.357,-0.452L0.357,-0.502C0.341,-0.505 0.324,-0.505 0.308,-0.505C0.238,-0.505 0.171,-0.468 0.149,-0.399L0.143,-0.5L0.099,-0.5L0.099,-0L0.149,-0L0.149,-0.24C0.149,-0.345 0.183,-0.457 0.308,-0.457C0.324,-0.457 0.341,-0.456 0.357,-0.452Z" style="fill:rgb(220,220,220);fill-rule:nonzero;"/>
        </g>
        <g transform="matrix(62.5,0,0,62.5,895.786,2536.88)">
            <path d="M0.489,-0.271C0.489,-0.397 0.41,-0.513 0.275,-0.513C0.205,-0.513 0.147,-0.483 0.105,-0.426C0.066,-0.373 0.056,-0.311 0.056,-0.248C0.056,-0.172 0.079,-0.106 0.12,-0.058C0.156,-0.017 0.207,0.013 0.279,0.013C0.336,0.013 0.386,-0.009 0.422,-0.045C0.45,-0.072 0.471,-0.107 0.478,-0.15L0.426,-0.15C0.42,-0.12 0.406,-0.098 0.388,-0.079C0.361,-0.051 0.323,-0.035 0.279,-0.035C0.225,-0.035 0.186,-0.055 0.158,-0.088C0.126,-0.126 0.107,-0.18 0.106,-0.238L0.488,-0.238C0.488,-0.25 0.489,-0.259 0.489,-0.271ZM0.438,-0.284L0.107,-0.284C0.107,-0.383 0.172,-0.466 0.275,-0.466C0.377,-0.466 0.436,-0.379 0.438,-0.284Z" style="fill:rgb(220,220,220);fill-rule:nonzero;"/>
        </g>
        <g transform="matrix(62.5,0,0,62.5,929.473,2536.88)">
            <path d="M0.485,0.2L0.485,-0.5L0.441,-0.5L0.435,-0.412C0.408,-0.474 0.336,-0.513 0.269,-0.513C0.212,-0.513 0.169,-0.495 0.136,-0.466C0.08,-0.417 0.054,-0.337 0.054,-0.251C0.054,-0.169 0.079,-0.089 0.132,-0.039C0.165,-0.007 0.21,0.013 0.268,0.013C0.339,0.013 0.408,-0.027 0.435,-0.084L0.435,0.2L0.485,0.2ZM0.436,-0.25C0.436,-0.176 0.419,-0.118 0.373,-0.075C0.348,-0.051 0.314,-0.036 0.268,-0.036C0.221,-0.036 0.187,-0.053 0.161,-0.08C0.122,-0.122 0.105,-0.186 0.105,-0.25C0.105,-0.321 0.125,-0.388 0.171,-0.429C0.196,-0.451 0.228,-0.464 0.27,-0.464C0.314,-0.464 0.347,-0.448 0.372,-0.424C0.417,-0.38 0.436,-0.319 0.436,-0.25Z" style="fill:rgb(220,220,220);fill-rule:nonzero;"/>
        </g>
        <g transform="matrix(62.5,0,0,62.5,965.973,2536.88)">
            <path d="M0.484,-0.001L0.484,-0.501L0.434,-0.501L0.434,-0.251C0.434,-0.143 0.391,-0.037 0.268,-0.037C0.177,-0.037 0.139,-0.087 0.139,-0.174L0.139,-0.501L0.089,-0.501L0.089,-0.171C0.089,-0.059 0.15,0.012 0.265,0.012C0.335,0.012 0.406,-0.028 0.434,-0.092L0.44,-0.001L0.484,-0.001Z" style="fill:rgb(220,220,220);fill-rule:nonzero;"/>
        </g>
        <g transform="matrix(62.5,0,0,62.5,1002.41,2536.88)">
            <path d="M0.489,-0.271C0.489,-0.397 0.41,-0.513 0.275,-0.513C0.205,-0.513 0.147,-0.483 0.105,-0.426C0.066,-0.373 0.056,-0.311 0.056,-0.248C0.056,-0.172 0.079,-0.106 0.12,-0.058C0.156,-0.017 0.207,0.013 0.279,0.013C0.336,0.013 0.386,-0.009 0.422,-0.045C0.45,-0.072 0.471,-0.107 0.478,-0.15L0.426,-0.15C0.42,-0.12 0.406,-0.098 0.388,-0.079C0.361,-0.051 0.323,-0.035 0.279,-0.035C0.225,-0.035 0.186,-0.055 0.158,-0.088C0.126,-0.126 0.107,-0.18 0.106,-0.238L0.488,-0.238C0.488,-0.25 0.489,-0.259 0.489,-0.271ZM0.438,-0.284L0.107,-0.284C0.107,-0.383 0.172,-0.466 0.275,-0.466C0.377,-0.466 0.436,-0.379 0.438,-0.284Z" style="fill:rgb(220,220,220);fill-rule:nonzero;"/>
        </g>
        <g transform="matrix(62.5,0,0,62.5,1036.1,2536.88)">
            <path d="M0.494,-0L0.494,-0.33C0.494,-0.442 0.433,-0.513 0.318,-0.513C0.248,-0.513 0.177,-0.472 0.149,-0.409L0.143,-0.5L0.099,-0.5L0.099,-0L0.149,-0L0.149,-0.25C0.149,-0.358 0.192,-0.464 0.315,-0.464C0.406,-0.464 0.444,-0.414 0.444,-0.327L0.444,-0L0.494,-0Z" style="fill:rgb(220,220,220);fill-rule:nonzero;"/>
        </g>
        <g transform="matrix(62.5,0,0,62.5,1072.53,2536.88)">
            <path d="M0.468,-0.158L0.415,-0.158C0.403,-0.09 0.35,-0.036 0.273,-0.036C0.225,-0.036 0.188,-0.051 0.162,-0.078C0.117,-0.125 0.107,-0.185 0.107,-0.25C0.107,-0.315 0.117,-0.374 0.162,-0.421C0.188,-0.448 0.225,-0.464 0.273,-0.464C0.349,-0.464 0.403,-0.413 0.414,-0.344L0.466,-0.344C0.454,-0.445 0.377,-0.513 0.273,-0.513C0.211,-0.513 0.161,-0.489 0.126,-0.454C0.074,-0.402 0.056,-0.335 0.056,-0.25C0.056,-0.165 0.074,-0.098 0.126,-0.046C0.161,-0.011 0.211,0.013 0.273,0.013C0.378,0.013 0.455,-0.061 0.468,-0.158Z" style="fill:rgb(220,220,220);fill-rule:nonzero;"/>
        </g>
        <g transform="matrix(62.5,0,0,62.5,1103.6,2536.88)">
            <path d="M0.467,-0.5L0.413,-0.5L0.245,-0.056L0.07,-0.5L0.016,-0.5L0.221,0.008L0.189,0.09C0.172,0.133 0.146,0.164 0.098,0.164C0.072,0.164 0.037,0.158 0.037,0.158L0.037,0.2C0.037,0.2 0.06,0.209 0.1,0.209C0.168,0.209 0.21,0.172 0.235,0.107L0.467,-0.5Z" style="fill:rgb(220,220,220);fill-rule:nonzero;"/>
        </g>
    </g>
    <g transform="matrix(1,0,0,1,-514.188,-1303.06)">
        <g transform="matrix(62.5,0,0,62.5,514.188,2295.13)">
            <path d="M0.507,-0.348C0.507,-0.457 0.497,-0.584 0.425,-0.653C0.393,-0.684 0.348,-0.709 0.284,-0.709C0.22,-0.709 0.175,-0.684 0.143,-0.653C0.071,-0.584 0.061,-0.457 0.061,-0.348C0.061,-0.239 0.071,-0.112 0.143,-0.043C0.175,-0.012 0.22,0.013 0.284,0.013C0.348,0.013 0.393,-0.012 0.425,-0.043C0.497,-0.112 0.507,-0.239 0.507,-0.348ZM0.456,-0.348C0.456,-0.258 0.454,-0.136 0.391,-0.075C0.366,-0.051 0.333,-0.035 0.284,-0.035C0.235,-0.035 0.202,-0.051 0.177,-0.075C0.114,-0.136 0.112,-0.258 0.112,-0.348C0.112,-0.438 0.114,-0.56 0.177,-0.621C0.202,-0.645 0.235,-0.661 0.284,-0.661C0.333,-0.661 0.366,-0.645 0.391,-0.621C0.454,-0.56 0.456,-0.438 0.456,-0.348Z" style="fill:rgb(68,68,68);fill-rule:nonzero;"/>
        </g>
        <g transform="matrix(62.5,0,0,62.5,549.687,2295.13)">
            <path d="M0.852,-0.172C0.852,-0.219 0.843,-0.262 0.819,-0.297C0.794,-0.333 0.754,-0.358 0.7,-0.358C0.646,-0.358 0.606,-0.332 0.581,-0.297C0.557,-0.262 0.548,-0.219 0.548,-0.172C0.548,-0.125 0.557,-0.082 0.581,-0.047C0.606,-0.012 0.646,0.014 0.7,0.014C0.754,0.014 0.794,-0.012 0.819,-0.047C0.843,-0.082 0.852,-0.125 0.852,-0.172ZM0.736,-0.694L0.7,-0.719L0.183,-0.015L0.218,0.012L0.736,-0.694ZM0.372,-0.536C0.372,-0.583 0.363,-0.626 0.339,-0.661C0.314,-0.697 0.273,-0.722 0.219,-0.722C0.165,-0.722 0.125,-0.696 0.1,-0.661C0.076,-0.626 0.068,-0.583 0.068,-0.536C0.068,-0.489 0.076,-0.446 0.1,-0.411C0.125,-0.376 0.166,-0.35 0.22,-0.35C0.274,-0.35 0.314,-0.376 0.339,-0.411C0.363,-0.446 0.372,-0.489 0.372,-0.536ZM0.806,-0.172C0.806,-0.094 0.776,-0.031 0.7,-0.031C0.624,-0.031 0.593,-0.094 0.593,-0.172C0.593,-0.25 0.624,-0.313 0.7,-0.313C0.776,-0.313 0.806,-0.25 0.806,-0.172ZM0.326,-0.536C0.326,-0.458 0.296,-0.395 0.22,-0.395C0.144,-0.395 0.113,-0.458 0.113,-0.536C0.113,-0.614 0.143,-0.677 0.219,-0.677C0.295,-0.677 0.326,-0.614 0.326,-0.536Z" style="fill:rgb(68,68,68);fill-rule:nonzero;"/>
        </g>
        <g transform="matrix(62.5,0,0,62.5,703.164,2295.13)">
            <path d="M0.513,-0L0.513,-0.044C0.508,-0.043 0.505,-0.043 0.499,-0.043C0.465,-0.043 0.46,-0.063 0.46,-0.097L0.46,-0.325C0.46,-0.358 0.459,-0.39 0.447,-0.421C0.42,-0.49 0.346,-0.513 0.278,-0.513C0.17,-0.513 0.091,-0.457 0.084,-0.356L0.134,-0.356C0.139,-0.43 0.199,-0.466 0.278,-0.466C0.354,-0.466 0.41,-0.435 0.41,-0.352L0.41,-0.303L0.226,-0.29C0.127,-0.283 0.058,-0.23 0.058,-0.141C0.058,-0.045 0.133,0.013 0.23,0.013C0.307,0.013 0.383,-0.024 0.41,-0.095C0.41,-0.042 0.427,0.003 0.489,0.003C0.501,0.003 0.501,0.002 0.513,-0ZM0.41,-0.231C0.41,-0.135 0.36,-0.033 0.234,-0.033C0.163,-0.033 0.109,-0.069 0.109,-0.141C0.109,-0.202 0.157,-0.241 0.231,-0.246L0.41,-0.257L0.41,-0.231Z" style="fill:rgb(68,68,68);fill-rule:nonzero;"/>
        </g>
        <g transform="matrix(62.5,0,0,62.5,737.914,2295.13)">
            <path d="M0.336,-0.005L0.336,-0.049C0.309,-0.044 0.284,-0.04 0.257,-0.04C0.19,-0.04 0.174,-0.082 0.174,-0.141L0.174,-0.454L0.329,-0.454L0.329,-0.5L0.174,-0.5L0.174,-0.65L0.124,-0.638L0.124,-0.5L0.024,-0.5L0.024,-0.454L0.124,-0.454L0.124,-0.139C0.124,-0.052 0.16,0.007 0.253,0.007C0.281,0.007 0.308,0.001 0.336,-0.005Z" style="fill:rgb(68,68,68);fill-rule:nonzero;"/>
        </g>
        <g transform="matrix(62.5,0,0,62.5,761.038,2295.13)">
            <path d="M0.786,-0L0.786,-0.33C0.786,-0.437 0.737,-0.513 0.62,-0.513C0.538,-0.513 0.485,-0.467 0.459,-0.405C0.439,-0.47 0.388,-0.513 0.301,-0.513C0.229,-0.513 0.175,-0.471 0.149,-0.414L0.143,-0.5L0.099,-0.5L0.099,-0L0.149,-0L0.149,-0.25C0.149,-0.321 0.164,-0.39 0.209,-0.432C0.231,-0.453 0.26,-0.466 0.298,-0.466C0.385,-0.466 0.418,-0.414 0.418,-0.327L0.418,-0L0.469,-0L0.469,-0.283C0.469,-0.343 0.489,-0.395 0.528,-0.432C0.551,-0.453 0.579,-0.466 0.617,-0.466C0.704,-0.466 0.736,-0.414 0.736,-0.327L0.736,-0L0.786,-0Z" style="fill:rgb(68,68,68);fill-rule:nonzero;"/>
        </g>
        <g transform="matrix(62.5,0,0,62.5,815.726,2295.13)">
            <path d="M0.49,-0.25C0.49,-0.335 0.471,-0.401 0.419,-0.453C0.384,-0.488 0.335,-0.513 0.273,-0.513C0.211,-0.513 0.162,-0.488 0.127,-0.453C0.075,-0.401 0.056,-0.335 0.056,-0.25C0.056,-0.165 0.075,-0.099 0.127,-0.047C0.162,-0.012 0.211,0.013 0.273,0.013C0.335,0.013 0.384,-0.012 0.419,-0.047C0.471,-0.099 0.49,-0.165 0.49,-0.25ZM0.439,-0.25C0.439,-0.185 0.428,-0.127 0.383,-0.08C0.357,-0.053 0.321,-0.036 0.273,-0.036C0.225,-0.036 0.189,-0.053 0.163,-0.08C0.118,-0.127 0.107,-0.185 0.107,-0.25C0.107,-0.315 0.118,-0.373 0.163,-0.42C0.189,-0.447 0.225,-0.464 0.273,-0.464C0.321,-0.464 0.357,-0.447 0.383,-0.42C0.428,-0.373 0.439,-0.315 0.439,-0.25Z" style="fill:rgb(68,68,68);fill-rule:nonzero;"/>
        </g>
        <g transform="matrix(62.5,0,0,62.5,849.85,2295.13)">
            <path d="M0.456,-0.139C0.456,-0.2 0.412,-0.264 0.318,-0.277L0.223,-0.29C0.147,-0.3 0.126,-0.332 0.126,-0.374C0.126,-0.401 0.14,-0.425 0.165,-0.443C0.187,-0.459 0.216,-0.466 0.255,-0.466C0.307,-0.466 0.346,-0.449 0.369,-0.422C0.385,-0.403 0.392,-0.378 0.394,-0.362L0.444,-0.362C0.443,-0.394 0.429,-0.427 0.406,-0.454C0.372,-0.494 0.315,-0.513 0.255,-0.513C0.203,-0.513 0.154,-0.499 0.118,-0.466C0.092,-0.442 0.075,-0.409 0.075,-0.369C0.075,-0.337 0.085,-0.311 0.103,-0.29C0.131,-0.258 0.175,-0.245 0.216,-0.24L0.313,-0.227C0.373,-0.219 0.405,-0.181 0.405,-0.136C0.405,-0.107 0.396,-0.09 0.378,-0.072C0.353,-0.047 0.312,-0.035 0.26,-0.035C0.212,-0.035 0.171,-0.047 0.142,-0.075C0.121,-0.096 0.108,-0.122 0.105,-0.152L0.054,-0.152C0.056,-0.111 0.068,-0.083 0.096,-0.051C0.134,-0.008 0.192,0.013 0.26,0.013C0.326,0.013 0.386,-0.007 0.422,-0.047C0.444,-0.072 0.456,-0.102 0.456,-0.139Z" style="fill:rgb(68,68,68);fill-rule:nonzero;"/>
        </g>
        <g transform="matrix(62.5,0,0,62.5,881.85,2295.13)">
            <path d="M0.53,-0.251C0.53,-0.337 0.504,-0.417 0.448,-0.466C0.415,-0.495 0.372,-0.513 0.315,-0.513C0.248,-0.513 0.176,-0.474 0.149,-0.412L0.143,-0.5L0.099,-0.5L0.099,0.2L0.149,0.2L0.149,-0.084C0.176,-0.027 0.245,0.013 0.316,0.013C0.374,0.013 0.419,-0.007 0.452,-0.039C0.505,-0.089 0.53,-0.169 0.53,-0.251ZM0.479,-0.25C0.479,-0.186 0.462,-0.122 0.423,-0.08C0.397,-0.053 0.363,-0.036 0.316,-0.036C0.27,-0.036 0.236,-0.051 0.211,-0.075C0.165,-0.118 0.148,-0.176 0.148,-0.25C0.148,-0.319 0.167,-0.38 0.212,-0.424C0.237,-0.448 0.27,-0.464 0.314,-0.464C0.356,-0.464 0.388,-0.451 0.413,-0.429C0.459,-0.388 0.479,-0.321 0.479,-0.25Z" style="fill:rgb(68,68,68);fill-rule:nonzero;"/>
        </g>
        <g transform="matrix(62.5,0,0,62.5,918.349,2295.13)">
            <path d="M0.494,-0L0.494,-0.33C0.494,-0.442 0.433,-0.513 0.318,-0.513C0.248,-0.513 0.177,-0.472 0.149,-0.408L0.149,-0.722L0.099,-0.722L0.099,-0L0.149,-0L0.149,-0.25C0.149,-0.358 0.192,-0.466 0.315,-0.466C0.406,-0.466 0.444,-0.414 0.444,-0.327L0.444,-0L0.494,-0Z" style="fill:rgb(68,68,68);fill-rule:nonzero;"/>
        </g>
        <g transform="matrix(62.5,0,0,62.5,954.787,2295.13)">
            <path d="M0.489,-0.271C0.489,-0.397 0.41,-0.513 0.275,-0.513C0.205,-0.513 0.147,-0.483 0.105,-0.426C0.066,-0.373 0.056,-0.311 0.056,-0.248C0.056,-0.172 0.079,-0.106 0.12,-0.058C0.156,-0.017 0.207,0.013 0.279,0.013C0.336,0.013 0.386,-0.009 0.422,-0.045C0.45,-0.072 0.471,-0.107 0.478,-0.15L0.426,-0.15C0.42,-0.12 0.406,-0.098 0.388,-0.079C0.361,-0.051 0.323,-0.035 0.279,-0.035C0.225,-0.035 0.186,-0.055 0.158,-0.088C0.126,-0.126 0.107,-0.18 0.106,-0.238L0.488,-0.238C0.488,-0.25 0.489,-0.259 0.489,-0.271ZM0.438,-0.284L0.107,-0.284C0.107,-0.383 0.172,-0.466 0.275,-0.466C0.377,-0.466 0.436,-0.379 0.438,-0.284Z" style="fill:rgb(68,68,68);fill-rule:nonzero;"/>
        </g>
        <g transform="matrix(62.5,0,0,62.5,988.474,2295.13)">
            <path d="M0.357,-0.452L0.357,-0.502C0.341,-0.505 0.324,-0.505 0.308,-0.505C0.238,-0.505 0.171,-0.468 0.149,-0.399L0.143,-0.5L0.099,-0.5L0.099,-0L0.149,-0L0.149,-0.24C0.149,-0.345 0.183,-0.457 0.308,-0.457C0.324,-0.457 0.341,-0.456 0.357,-0.452Z" style="fill:rgb(68,68,68);fill-rule:nonzero;"/>
        </g>
        <g transform="matrix(62.5,0,0,62.5,1011.66,2295.13)">
            <path d="M0.489,-0.271C0.489,-0.397 0.41,-0.513 0.275,-0.513C0.205,-0.513 0.147,-0.483 0.105,-0.426C0.066,-0.373 0.056,-0.311 0.056,-0.248C0.056,-0.172 0.079,-0.106 0.12,-0.058C0.156,-0.017 0.207,0.013 0.279,0.013C0.336,0.013 0.386,-0.009 0.422,-0.045C0.45,-0.072 0.471,-0.107 0.478,-0.15L0.426,-0.15C0.42,-0.12 0.406,-0.098 0.388,-0.079C0.361,-0.051 0.323,-0.035 0.279,-0.035C0.225,-0.035 0.186,-0.055 0.158,-0.088C0.126,-0.126 0.107,-0.18 0.106,-0.238L0.488,-0.238C0.488,-0.25 0.489,-0.259 0.489,-0.271ZM0.438,-0.284L0.107,-0.284C0.107,-0.383 0.172,-0.466 0.275,-0.466C0.377,-0.466 0.436,-0.379 0.438,-0.284Z" style="fill:rgb(68,68,68);fill-rule:nonzero;"/>
        </g>
        <g transform="matrix(62.5,0,0,62.5,514.188,2416)">
            <path d="M0.508,-0.218C0.508,-0.35 0.44,-0.449 0.302,-0.449C0.24,-0.449 0.175,-0.427 0.141,-0.372L0.155,-0.648L0.485,-0.648L0.485,-0.695L0.107,-0.695L0.091,-0.326L0.153,-0.326C0.185,-0.378 0.243,-0.402 0.302,-0.402C0.41,-0.402 0.457,-0.319 0.457,-0.218C0.457,-0.109 0.404,-0.034 0.294,-0.034C0.194,-0.034 0.132,-0.102 0.128,-0.201L0.077,-0.201C0.08,-0.079 0.163,0.014 0.294,0.014C0.439,0.014 0.508,-0.088 0.508,-0.218Z" style="fill:rgb(140,140,140);fill-rule:nonzero;"/>
        </g>
        <g transform="matrix(62.5,0,0,62.5,549.687,2416)">
            <path d="M0.489,-0.642L0.489,-0.695L0.055,-0.695L0.055,-0.647L0.438,-0.647L0.136,-0L0.19,-0L0.489,-0.642Z" style="fill:rgb(140,140,140);fill-rule:nonzero;"/>
        </g>
        <g transform="matrix(62.5,0,0,62.5,585.187,2416)">
            <path d="M0.852,-0.172C0.852,-0.219 0.843,-0.262 0.819,-0.297C0.794,-0.333 0.754,-0.358 0.7,-0.358C0.646,-0.358 0.606,-0.332 0.581,-0.297C0.557,-0.262 0.548,-0.219 0.548,-0.172C0.548,-0.125 0.557,-0.082 0.581,-0.047C0.606,-0.012 0.646,0.014 0.7,0.014C0.754,0.014 0.794,-0.012 0.819,-0.047C0.843,-0.082 0.852,-0.125 0.852,-0.172ZM0.736,-0.694L0.7,-0.719L0.183,-0.015L0.218,0.012L0.736,-0.694ZM0.372,-0.536C0.372,-0.583 0.363,-0.626 0.339,-0.661C0.314,-0.697 0.273,-0.722 0.219,-0.722C0.165,-0.722 0.125,-0.696 0.1,-0.661C0.076,-0.626 0.068,-0.583 0.068,-0.536C0.068,-0.489 0.076,-0.446 0.1,-0.411C0.125,-0.376 0.166,-0.35 0.22,-0.35C0.274,-0.35 0.314,-0.376 0.339,-0.411C0.363,-0.446 0.372,-0.489 0.372,-0.536ZM0.806,-0.172C0.806,-0.094 0.776,-0.031 0.7,-0.031C0.624,-0.031 0.593,-0.094 0.593,-0.172C0.593,-0.25 0.624,-0.313 0.7,-0.313C0.776,-0.313 0.806,-0.25 0.806,-0.172ZM0.326,-0.536C0.326,-0.458 0.296,-0.395 0.22,-0.395C0.144,-0.395 0.113,-0.458 0.113,-0.536C0.113,-0.614 0.143,-0.677 0.219,-0.677C0.295,-0.677 0.326,-0.614 0.326,-0.536Z" style="fill:rgb(140,140,140);fill-rule:nonzero;"/>
        </g>
        <g transform="matrix(62.5,0,0,62.5,703.164,2416)">
            <path d="M0.165,-0.639L0.165,-0.709L0.095,-0.709L0.095,-0.639L0.165,-0.639ZM0.157,-0L0.157,-0.5L0.104,-0.5L0.104,-0L0.157,-0Z" style="fill:rgb(140,140,140);fill-rule:nonzero;"/>
        </g>
        <g transform="matrix(62.5,0,0,62.5,719.414,2416)">
            <path d="M0.494,-0L0.494,-0.33C0.494,-0.442 0.433,-0.513 0.318,-0.513C0.248,-0.513 0.177,-0.472 0.149,-0.409L0.143,-0.5L0.099,-0.5L0.099,-0L0.149,-0L0.149,-0.25C0.149,-0.358 0.192,-0.464 0.315,-0.464C0.406,-0.464 0.444,-0.414 0.444,-0.327L0.444,-0L0.494,-0Z" style="fill:rgb(140,140,140);fill-rule:nonzero;"/>
        </g>
        <g transform="matrix(62.5,0,0,62.5,755.851,2416)">
            <path d="M0.349,-0.677L0.349,-0.722C0.325,-0.726 0.302,-0.728 0.273,-0.728C0.179,-0.728 0.132,-0.664 0.132,-0.588L0.132,-0.5L0.032,-0.5L0.032,-0.454L0.132,-0.454L0.132,-0L0.182,-0L0.182,-0.454L0.339,-0.454L0.339,-0.5L0.182,-0.5L0.182,-0.586C0.182,-0.65 0.214,-0.683 0.277,-0.683C0.306,-0.683 0.329,-0.68 0.349,-0.677Z" style="fill:rgb(140,140,140);fill-rule:nonzero;"/>
        </g>
        <g transform="matrix(62.5,0,0,62.5,777.788,2416)">
            <path d="M0.357,-0.452L0.357,-0.502C0.341,-0.505 0.324,-0.505 0.308,-0.505C0.238,-0.505 0.171,-0.468 0.149,-0.399L0.143,-0.5L0.099,-0.5L0.099,-0L0.149,-0L0.149,-0.24C0.149,-0.345 0.183,-0.457 0.308,-0.457C0.324,-0.457 0.341,-0.456 0.357,-0.452Z" style="fill:rgb(140,140,140);fill-rule:nonzero;"/>
        </g>
        <g transform="matrix(62.5,0,0,62.5,800.975,2416)">
            <path d="M0.513,-0L0.513,-0.044C0.508,-0.043 0.505,-0.043 0.499,-0.043C0.465,-0.043 0.46,-0.063 0.46,-0.097L0.46,-0.325C0.46,-0.358 0.459,-0.39 0.447,-0.421C0.42,-0.49 0.346,-0.513 0.278,-0.513C0.17,-0.513 0.091,-0.457 0.084,-0.356L0.134,-0.356C0.139,-0.43 0.199,-0.466 0.278,-0.466C0.354,-0.466 0.41,-0.435 0.41,-0.352L0.41,-0.303L0.226,-0.29C0.127,-0.283 0.058,-0.23 0.058,-0.141C0.058,-0.045 0.133,0.013 0.23,0.013C0.307,0.013 0.383,-0.024 0.41,-0.095C0.41,-0.042 0.427,0.003 0.489,0.003C0.501,0.003 0.501,0.002 0.513,-0ZM0.41,-0.231C0.41,-0.135 0.36,-0.033 0.234,-0.033C0.163,-0.033 0.109,-0.069 0.109,-0.141C0.109,-0.202 0.157,-0.241 0.231,-0.246L0.41,-0.257L0.41,-0.231Z" style="fill:rgb(140,140,140);fill-rule:nonzero;"/>
        </g>
        <g transform="matrix(62.5,0,0,62.5,836.037,2416)">
            <path d="M0.456,-0.139C0.456,-0.2 0.412,-0.264 0.318,-0.277L0.223,-0.29C0.147,-0.3 0.126,-0.332 0.126,-0.374C0.126,-0.401 0.14,-0.425 0.165,-0.443C0.187,-0.459 0.216,-0.466 0.255,-0.466C0.307,-0.466 0.346,-0.449 0.369,-0.422C0.385,-0.403 0.392,-0.378 0.394,-0.362L0.444,-0.362C0.443,-0.394 0.429,-0.427 0.406,-0.454C0.372,-0.494 0.315,-0.513 0.255,-0.513C0.203,-0.513 0.154,-0.499 0.118,-0.466C0.092,-0.442 0.075,-0.409 0.075,-0.369C0.075,-0.337 0.085,-0.311 0.103,-0.29C0.131,-0.258 0.175,-0.245 0.216,-0.24L0.313,-0.227C0.373,-0.219 0.405,-0.181 0.405,-0.136C0.405,-0.107 0.396,-0.09 0.378,-0.072C0.353,-0.047 0.312,-0.035 0.26,-0.035C0.212,-0.035 0.171,-0.047 0.142,-0.075C0.121,-0.096 0.108,-0.122 0.105,-0.152L0.054,-0.152C0.056,-0.111 0.068,-0.083 0.096,-0.051C0.134,-0.008 0.192,0.013 0.26,0.013C0.326,0.013 0.386,-0.007 0.422,-0.047C0.444,-0.072 0.456,-0.102 0.456,-0.139Z" style="fill:rgb(140,140,140);fill-rule:nonzero;"/>
        </g>
        <g transform="matrix(62.5,0,0,62.5,867.724,2416)">
            <path d="M0.336,-0.005L0.336,-0.049C0.309,-0.044 0.284,-0.04 0.257,-0.04C0.19,-0.04 0.174,-0.082 0.174,-0.141L0.174,-0.454L0.329,-0.454L0.329,-0.5L0.174,-0.5L0.174,-0.65L0.124,-0.638L0.124,-0.5L0.024,-0.5L0.024,-0.454L0.124,-0.454L0.124,-0.139C0.124,-0.052 0.16,0.007 0.253,0.007C0.281,0.007 0.308,0.001 0.336,-0.005Z" style="fill:rgb(140,140,140);fill-rule:nonzero;"/>
        </g>
        <g transform="matrix(62.5,0,0,62.5,890.849,2416)">
            <path d="M0.357,-0.452L0.357,-0.502C0.341,-0.505 0.324,-0.505 0.308,-0.505C0.238,-0.505 0.171,-0.468 0.149,-0.399L0.143,-0.5L0.099,-0.5L0.099,-0L0.149,-0L0.149,-0.24C0.149,-0.345 0.183,-0.457 0.308,-0.457C0.324,-0.457 0.341,-0.456 0.357,-0.452Z" style="fill:rgb(140,140,140);fill-rule:nonzero;"/>
        </g>
        <g transform="matrix(62.5,0,0,62.5,914.036,2416)">
            <path d="M0.484,-0.001L0.484,-0.501L0.434,-0.501L0.434,-0.251C0.434,-0.143 0.391,-0.037 0.268,-0.037C0.177,-0.037 0.139,-0.087 0.139,-0.174L0.139,-0.501L0.089,-0.501L0.089,-0.171C0.089,-0.059 0.15,0.012 0.265,0.012C0.335,0.012 0.406,-0.028 0.434,-0.092L0.44,-0.001L0.484,-0.001Z" style="fill:rgb(140,140,140);fill-rule:nonzero;"/>
        </g>
        <g transform="matrix(62.5,0,0,62.5,950.473,2416)">
            <path d="M0.468,-0.158L0.415,-0.158C0.403,-0.09 0.35,-0.036 0.273,-0.036C0.225,-0.036 0.188,-0.051 0.162,-0.078C0.117,-0.125 0.107,-0.185 0.107,-0.25C0.107,-0.315 0.117,-0.374 0.162,-0.421C0.188,-0.448 0.225,-0.464 0.273,-0.464C0.349,-0.464 0.403,-0.413 0.414,-0.344L0.466,-0.344C0.454,-0.445 0.377,-0.513 0.273,-0.513C0.211,-0.513 0.161,-0.489 0.126,-0.454C0.074,-0.402 0.056,-0.335 0.056,-0.25C0.056,-0.165 0.074,-0.098 0.126,-0.046C0.161,-0.011 0.211,0.013 0.273,0.013C0.378,0.013 0.455,-0.061 0.468,-0.158Z" style="fill:rgb(140,140,140);fill-rule:nonzero;"/>
        </g>
        <g transform="matrix(62.5,0,0,62.5,982.161,2416)">
            <path d="M0.336,-0.005L0.336,-0.049C0.309,-0.044 0.284,-0.04 0.257,-0.04C0.19,-0.04 0.174,-0.082 0.174,-0.141L0.174,-0.454L0.329,-0.454L0.329,-0.5L0.174,-0.5L0.174,-0.65L0.124,-0.638L0.124,-0.5L0.024,-0.5L0.024,-0.454L0.124,-0.454L0.124,-0.139C0.124,-0.052 0.16,0.007 0.253,0.007C0.281,0.007 0.308,0.001 0.336,-0.005Z" style="fill:rgb(140,140,140);fill-rule:nonzero;"/>
        </g>
        <g transform="matrix(62.5,0,0,62.5,1005.29,2416)">
            <path d="M0.484,-0.001L0.484,-0.501L0.434,-0.501L0.434,-0.251C0.434,-0.143 0.391,-0.037 0.268,-0.037C0.177,-0.037 0.139,-0.087 0.139,-0.174L0.139,-0.501L0.089,-0.501L0.089,-0.171C0.089,-0.059 0.15,0.012 0.265,0.012C0.335,0.012 0.406,-0.028 0.434,-0.092L0.44,-0.001L0.484,-0.001Z" style="fill:rgb(140,140,140);fill-rule:nonzero;"/>
        </g>
        <g transform="matrix(62.5,0,0,62.5,1041.72,2416)">
            <path d="M0.357,-0.452L0.357,-0.502C0.341,-0.505 0.324,-0.505 0.308,-0.505C0.238,-0.505 0.171,-0.468 0.149,-0.399L0.143,-0.5L0.099,-0.5L0.099,-0L0.149,-0L0.149,-0.24C0.149,-0.345 0.183,-0.457 0.308,-0.457C0.324,-0.457 0.341,-0.456 0.357,-0.452Z" style="fill:rgb(140,140,140);fill-rule:nonzero;"/>
        </g>
        <g transform="matrix(62.5,0,0,62.5,1064.91,2416)">
            <path d="M0.489,-0.271C0.489,-0.397 0.41,-0.513 0.275,-0.513C0.205,-0.513 0.147,-0.483 0.105,-0.426C0.066,-0.373 0.056,-0.311 0.056,-0.248C0.056,-0.172 0.079,-0.106 0.12,-0.058C0.156,-0.017 0.207,0.013 0.279,0.013C0.336,0.013 0.386,-0.009 0.422,-0.045C0.45,-0.072 0.471,-0.107 0.478,-0.15L0.426,-0.15C0.42,-0.12 0.406,-0.098 0.388,-0.079C0.361,-0.051 0.323,-0.035 0.279,-0.035C0.225,-0.035 0.186,-0.055 0.158,-0.088C0.126,-0.126 0.107,-0.18 0.106,-0.238L0.488,-0.238C0.488,-0.25 0.489,-0.259 0.489,-0.271ZM0.438,-0.284L0.107,-0.284C0.107,-0.383 0.172,-0.466 0.275,-0.466C0.377,-0.466 0.436,-0.379 0.438,-0.284Z" style="fill:rgb(140,140,140);fill-rule:nonzero;"/>
        </g>
        <g transform="matrix(62.5,0,0,62.5,514.188,2536.88)">
            <path d="M0.53,-0.159L0.53,-0.209L0.433,-0.209L0.433,-0.424L0.382,-0.424L0.382,-0.209L0.108,-0.209L0.394,-0.695L0.337,-0.695L0.054,-0.214L0.054,-0.159L0.382,-0.159L0.382,-0L0.433,-0L0.433,-0.159L0.53,-0.159Z" style="fill:rgb(220,220,220);fill-rule:nonzero;"/>
        </g>
        <g transform="matrix(62.5,0,0,62.5,549.687,2536.88)">
            <path d="M0.488,-0.182C0.488,-0.265 0.442,-0.339 0.36,-0.362C0.435,-0.384 0.473,-0.451 0.473,-0.526C0.473,-0.638 0.383,-0.709 0.276,-0.709C0.155,-0.709 0.066,-0.628 0.064,-0.504L0.116,-0.504C0.117,-0.599 0.18,-0.661 0.276,-0.661C0.354,-0.661 0.421,-0.608 0.421,-0.526C0.421,-0.433 0.362,-0.386 0.272,-0.386L0.235,-0.386L0.235,-0.338L0.272,-0.338C0.372,-0.338 0.436,-0.286 0.436,-0.182C0.436,-0.092 0.371,-0.035 0.273,-0.035C0.164,-0.035 0.112,-0.112 0.111,-0.202L0.06,-0.202C0.062,-0.079 0.14,0.013 0.273,0.013C0.391,0.013 0.488,-0.065 0.488,-0.182Z" style="fill:rgb(220,220,220);fill-rule:nonzero;"/>
        </g>
        <g transform="matrix(62.5,0,0,62.5,585.187,2536.88)">
            <path d="M0.852,-0.172C0.852,-0.219 0.843,-0.262 0.819,-0.297C0.794,-0.333 0.754,-0.358 0.7,-0.358C0.646,-0.358 0.606,-0.332 0.581,-0.297C0.557,-0.262 0.548,-0.219 0.548,-0.172C0.548,-0.125 0.557,-0.082 0.581,-0.047C0.606,-0.012 0.646,0.014 0.7,0.014C0.754,0.014 0.794,-0.012 0.819,-0.047C0.843,-0.082 0.852,-0.125 0.852,-0.172ZM0.736,-0.694L0.7,-0.719L0.183,-0.015L0.218,0.012L0.736,-0.694ZM0.372,-0.536C0.372,-0.583 0.363,-0.626 0.339,-0.661C0.314,-0.697 0.273,-0.722 0.219,-0.722C0.165,-0.722 0.125,-0.696 0.1,-0.661C0.076,-0.626 0.068,-0.583 0.068,-0.536C0.068,-0.489 0.076,-0.446 0.1,-0.411C0.125,-0.376 0.166,-0.35 0.22,-0.35C0.274,-0.35 0.314,-0.376 0.339,-0.411C0.363,-0.446 0.372,-0.489 0.372,-0.536ZM0.806,-0.172C0.806,-0.094 0.776,-0.031 0.7,-0.031C0.624,-0.031 0.593,-0.094 0.593,-0.172C0.593,-0.25 0.624,-0.313 0.7,-0.313C0.776,-0.313 0.806,-0.25 0.806,-0.172ZM0.326,-0.536C0.326,-0.458 0.296,-0.395 0.22,-0.395C0.144,-0.395 0.113,-0.458 0.113,-0.536C0.113,-0.614 0.143,-0.677 0.219,-0.677C0.295,-0.677 0.326,-0.614 0.326,-0.536Z" style="fill:rgb(220,220,220);fill-rule:nonzero;"/>
        </g>
        <g transform="matrix(62.5,0,0,62.5,703.164,2536.88)">
            <path d="M0.336,-0.005L0.336,-0.049C0.309,-0.044 0.284,-0.04 0.257,-0.04C0.19,-0.04 0.174,-0.082 0.174,-0.141L0.174,-0.454L0.329,-0.454L0.329,-0.5L0.174,-0.5L0.174,-0.65L0.124,-0.638L0.124,-0.5L0.024,-0.5L0.024,-0.454L0.124,-0.454L0.124,-0.139C0.124,-0.052 0.16,0.007 0.253,0.007C0.281,0.007 0.308,0.001 0.336,-0.005Z" style="fill:rgb(220,220,220);fill-rule:nonzero;"/>
        </g>
        <g transform="matrix(62.5,0,0,62.5,726.289,2536.88)">
            <path d="M0.357,-0.452L0.357,-0.502C0.341,-0.505 0.324,-0.505 0.308,-0.505C0.238,-0.505 0.171,-0.468 0.149,-0.399L0.143,-0.5L0.099,-0.5L0.099,-0L0.149,-0L0.149,-0.24C0.149,-0.345 0.183,-0.457 0.308,-0.457C0.324,-0.457 0.341,-0.456 0.357,-0.452Z" style="fill:rgb(220,220,220);fill-rule:nonzero;"/>
        </g>
        <g transform="matrix(62.5,0,0,62.5,749.476,2536.88)">
            <path d="M0.513,-0L0.513,-0.044C0.508,-0.043 0.505,-0.043 0.499,-0.043C0.465,-0.043 0.46,-0.063 0.46,-0.097L0.46,-0.325C0.46,-0.358 0.459,-0.39 0.447,-0.421C0.42,-0.49 0.346,-0.513 0.278,-0.513C0.17,-0.513 0.091,-0.457 0.084,-0.356L0.134,-0.356C0.139,-0.43 0.199,-0.466 0.278,-0.466C0.354,-0.466 0.41,-0.435 0.41,-0.352L0.41,-0.303L0.226,-0.29C0.127,-0.283 0.058,-0.23 0.058,-0.141C0.058,-0.045 0.133,0.013 0.23,0.013C0.307,0.013 0.383,-0.024 0.41,-0.095C0.41,-0.042 0.427,0.003 0.489,0.003C0.501,0.003 0.501,0.002 0.513,-0ZM0.41,-0.231C0.41,-0.135 0.36,-0.033 0.234,-0.033C0.163,-0.033 0.109,-0.069 0.109,-0.141C0.109,-0.202 0.157,-0.241 0.231,-0.246L0.41,-0.257L0.41,-0.231Z" style="fill:rgb(220,220,220);fill-rule:nonzero;"/>
        </g>
        <g transform="matrix(62.5,0,0,62.5,784.538,2536.88)">
            <path d="M0.165,-0.639L0.165,-0.709L0.095,-0.709L0.095,-0.639L0.165,-0.639ZM0.157,-0L0.157,-0.5L0.104,-0.5L0.104,-0L0.157,-0Z" style="fill:rgb(220,220,220);fill-rule:nonzero;"/>
        </g>
        <g transform="matrix(62.5,0,0,62.5,800.788,2536.88)">
            <path d="M0.494,-0L0.494,-0.33C0.494,-0.442 0.433,-0.513 0.318,-0.513C0.248,-0.513 0.177,-0.472 0.149,-0.409L0.143,-0.5L0.099,-0.5L0.099,-0L0.149,-0L0.149,-0.25C0.149,-0.358 0.192,-0.464 0.315,-0.464C0.406,-0.464 0.444,-0.414 0.444,-0.327L0.444,-0L0.494,-0Z" style="fill:rgb(220,220,220);fill-rule:nonzero;"/>
        </g>
        <g transform="matrix(62.5,0,0,62.5,850.662,2536.88)">
            <path d="M0.349,-0.677L0.349,-0.722C0.325,-0.726 0.302,-0.728 0.273,-0.728C0.179,-0.728 0.132,-0.664 0.132,-0.588L0.132,-0.5L0.032,-0.5L0.032,-0.454L0.132,-0.454L0.132,-0L0.182,-0L0.182,-0.454L0.339,-0.454L0.339,-0.5L0.182,-0.5L0.182,-0.586C0.182,-0.65 0.214,-0.683 0.277,-0.683C0.306,-0.683 0.329,-0.68 0.349,-0.677Z" style="fill:rgb(220,220,220);fill-rule:nonzero;"/>
        </g>
        <g transform="matrix(62.5,0,0,62.5,872.599,2536.88)">
            <path d="M0.357,-0.452L0.357,-0.502C0.341,-0.505 0.324,-0.505 0.308,-0.505C0.238,-0.505 0.171,-0.468 0.149,-0.399L0.143,-0.5L0.099,-0.5L0.099,-0L0.149,-0L0.149,-0.24C0.149,-0.345 0.183,-0.457 0.308,-0.457C0.324,-0.457 0.341,-0.456 0.357,-0.452Z" style="fill:rgb(220,220,220);fill-rule:nonzero;"/>
        </g>
        <g transform="matrix(62.5,0,0,62.5,895.786,2536.88)">
            <path d="M0.489,-0.271C0.489,-0.397 0.41,-0.513 0.275,-0.513C0.205,-0.513 0.147,-0.483 0.105,-0.426C0.066,-0.373 0.056,-0.311 0.056,-0.248C0.056,-0.172 0.079,-0.106 0.12,-0.058C0.156,-0.017 0.207,0.013 0.279,0.013C0.336,0.013 0.386,-0.009 0.422,-0.045C0.45,-0.072 0.471,-0.107 0.478,-0.15L0.426,-0.15C0.42,-0.12 0.406,-0.098 0.388,-0.079C0.361,-0.051 0.323,-0.035 0.279,-0.035C0.225,-0.035 0.186,-0.055 0.158,-0.088C0.126,-0.126 0.107,-0.18 0.106,-0.238L0.488,-0.238C0.488,-0.25 0.489,-0.259 0.489,-0.271ZM0.438,-0.284L0.107,-0.284C0.107,-0.383 0.172,-0.466 0.275,-0.466C0.377,-0.466 0.436,-0.379 0.438,-0.284Z" style="fill:rgb(220,220,220);fill-rule:nonzero;"/>
        </g>
        <g transform="matrix(62.5,0,0,62.5,929.473,2536.88)">
            <path d="M0.485,0.2L0.485,-0.5L0.441,-0.5L0.435,-0.412C0.408,-0.474 0.336,-0.513 0.269,-0.513C0.212,-0.513 0.169,-0.495 0.136,-0.466C0.08,-0.417 0.054,-0.337 0.054,-0.251C0.054,-0.169 0.079,-0.089 0.132,-0.039C0.165,-0.007 0.21,0.013 0.268,0.013C0.339,0.013 0.408,-0.027 0.435,-0.084L0.435,0.2L0.485,0.2ZM0.436,-0.25C0.436,-0.176 0.419,-0.118 0.373,-0.075C0.348,-0.051 0.314,-0.036 0.268,-0.036C0.221,-0.036 0.187,-0.053 0.161,-0.08C0.122,-0.122 0.105,-0.186 0.105,-0.25C0.105,-0.321 0.125,-0.388 0.171,-0.429C0.196,-0.451 0.228,-0.464 0.27,-0.464C0.314,-0.464 0.347,-0.448 0.372,-0.424C0.417,-0.38 0.436,-0.319 0.436,-0.25Z" style="fill:rgb(220,220,220);fill-rule:nonzero;"/>
        </g>
        <g transform="matrix(62.5,0,0,62.5,965.973,2536.88)">
            <path d="M0.484,-0.001L0.484,-0.501L0.434,-0.501L0.434,-0.251C0.434,-0.143 0.391,-0.037 0.268,-0.037C0.177,-0.037 0.139,-0.087 0.139,-0.174L0.139,-0.501L0.089,-0.501L0.089,-0.171C0.089,-0.059 0.15,0.012 0.265,0.012C0.335,0.012 0.406,-0.028 0.434,-0.092L0.44,-0.001L0.484,-0.001Z" style="fill:rgb(220,220,220);fill-rule:nonzero;"/>
        </g>
        <g transform="matrix(62.5,0,0,62.5,1002.41,2536.88)">
            <path d="M0.489,-0.271C0.489,-0.397 0.41,-0.513 0.275,-0.513C0.205,-0.513 0.147,-0.483 0.105,-0.426C0.066,-0.373 0.056,-0.311 0.056,-0.248C0.056,-0.172 0.079,-0.106 0.12,-0.058C0.156,-0.017 0.207,0.013 0.279,0.013C0.336,0.013 0.386,-0.009 0.422,-0.045C0.45,-0.072 0.471,-0.107 0.478,-0.15L0.426,-0.15C0.42,-0.12 0.406,-0.098 0.388,-0.079C0.361,-0.051 0.323,-0.035 0.279,-0.035C0.225,-0.035 0.186,-0.055 0.158,-0.088C0.126,-0.126 0.107,-0.18 0.106,-0.238L0.488,-0.238C0.488,-0.25 0.489,-0.259 0.489,-0.271ZM0.438,-0.284L0.107,-0.284C0.107,-0.383 0.172,-0.466 0.275,-0.466C0.377,-0.466 0.436,-0.379 0.438,-0.284Z" style="fill:rgb(220,220,220);fill-rule:nonzero;"/>
        </g>
        <g transform="matrix(62.5,0,0,62.5,1036.1,2536.88)">
            <path d="M0.494,-0L0.494,-0.33C0.494,-0.442 0.433,-0.513 0.318,-0.513C0.248,-0.513 0.177,-0.472 0.149,-0.409L0.143,-0.5L0.099,-0.5L0.099,-0L0.149,-0L0.149,-0.25C0.149,-0.358 0.192,-0.464 0.315,-0.464C0.406,-0.464 0.444,-0.414 0.444,-0.327L0.444,-0L0.494,-0Z" style="fill:rgb(220,220,220);fill-rule:nonzero;"/>
        </g>
        <g transform="matrix(62.5,0,0,62.5,1072.53,2536.88)">
            <path d="M0.468,-0.158L0.415,-0.158C0.403,-0.09 0.35,-0.036 0.273,-0.036C0.225,-0.036 0.188,-0.051 0.162,-0.078C0.117,-0.125 0.107,-0.185 0.107,-0.25C0.107,-0.315 0.117,-0.374 0.162,-0.421C0.188,-0.448 0.225,-0.464 0.273,-0.464C0.349,-0.464 0.403,-0.413 0.414,-0.344L0.466,-0.344C0.454,-0.445 0.377,-0.513 0.273,-0.513C0.211,-0.513 0.161,-0.489 0.126,-0.454C0.074,-0.402 0.056,-0.335 0.056,-0.25C0.056,-0.165 0.074,-0.098 0.126,-0.046C0.161,-0.011 0.211,0.013 0.273,0.013C0.378,0.013 0.455,-0.061 0.468,-0.158Z" style="fill:rgb(220,220,220);fill-rule:nonzero;"/>
        </g>
        <g transform="matrix(62.5,0,0,62.5,1103.6,2536.88)">
            <path d="M0.467,-0.5L0.413,-0.5L0.245,-0.056L0.07,-0.5L0.016,-0.5L0.221,0.008L0.189,0.09C0.172,0.133 0.146,0.164 0.098,0.164C0.072,0.164 0.037,0.158 0.037,0.158L0.037,0.2C0.037,0.2 0.06,0.209 0.1,0.209C0.168,0.209 0.21,0.172 0.235,0.107L0.467,-0.5Z" style="fill:rgb(220,220,220);fill-rule:nonzero;"/>
        </g>
    </g>
    <g transform="matrix(0.456865,0,0,0.645207,76.319,-490.983)">
        <path d="M6602.98,2849.27L4492.56,2849.27" style="fill:none;stroke:rgb(68,68,68);stroke-width:7.45px;"/>
    </g>
    <g transform="matrix(0.641365,0,0,0.641365,-2881.37,-949.93)">
        <path d="M6520.61,2849.27L4492.56,2849.27" style="fill:none;stroke:rgb(68,68,68);stroke-width:6.5px;stroke-linecap:round;"/>
    </g>
    <g transform="matrix(0.490045,0,0,0.490045,93.1504,-48.8849)">
        <circle cx="4154.03" cy="2849.27" r="11.819" style="fill:rgb(68,68,68);"/>
    </g>
    <g transform="matrix(0.490045,0,0,0.490045,-734.944,-518.779)">
        <circle cx="4154.03" cy="2849.27" r="11.819" style="fill:rgb(68,68,68);"/>
    </g>
    <g transform="matrix(2.38469,0,0,2.38469,-281.703,-77.5456)">
        <path d="M798.435,612.906L864.928,612.539L880.58,612.452L896.397,627.624L896.479,639.933L898.049,641.623L897.988,646.092L911.935,659.715L911.935,681.757L907.39,686.643L907.526,705.045L913.704,704.999L913.636,695.798L914.764,695.79L914.814,702.546L920.783,702.595L930.026,711.301L930.053,730.934L932.96,733.692L932.673,952.909L893.347,991.952L891.696,990.469L884.913,997.253L821.965,997.253L821.965,1018.75L891.679,1018.75L930.113,980.035L965.601,980.035L994.077,1008.8L989.56,1015.02L995.113,1019.32L999.755,1012.92L1006.06,1004.24L992.631,990.969L992.631,986.799L996.973,982.966L1021.87,987.289L1023.46,978.158L1005.77,975.087L1006.28,972.189L996.953,970.571L986.506,966.058L986.506,941.905L992.362,936.049L1012.14,936.049L1020.76,939.081L1047.38,948.459L1051.22,937.032L1042.4,934.533L1015.71,925.134L1002.98,920.651L989.36,920.651L989.36,918.669L981.578,918.669L971.38,908.713L971.38,891.028L973.215,889.274L973.215,857.112L970.947,854.884L970.947,836.517L973.215,834.288L973.215,822.465L970.947,820.237L970.947,801.869L973.215,799.642L973.215,790.979L975.78,787.993L975.78,760.952L977.988,759.011L977.988,752.004L975.826,750.215L975.826,722.857L981.64,717.117L994.9,717.117L994.9,714.094L998.373,714.094L1004.14,702.6L1014.7,702.6L1017.39,705.116L1018.95,705.116L1018.95,739.851L1044.71,739.851L1046.89,699.899L1033.45,699.899L1032.31,720.776L1030.43,720.776L1030.43,695.359L1029.07,695.359L1029.07,691.142L1038.69,684.479L1049.89,684.479L1052.27,686.442L1062.23,686.442L1067.28,680.832L1106.96,680.832L1109.31,677.702L1112.76,678.164L1117.53,650.442L1127.29,645.956L1138.61,647.946L1142.39,610.291C1132.55,608.562 1122.71,606.831 1112.87,605.102C1102.35,594.721 1091.83,584.341 1081.31,573.961L1081.31,568.631C1078.5,545.79 1075.7,522.948 1072.89,500.107C1068.88,500.626 1064.87,501.145 1060.86,501.663L1068.37,562.771C1067.85,562.855 1067.32,562.939 1066.8,563.024C1066.55,561.083 1066.31,559.144 1066.06,557.203L1043.03,557.203L1043.03,555.981L1065.91,555.981C1065.56,553.178 1065.2,550.376 1064.85,547.573L1043.03,547.573C1042.78,545.837 1042.52,544.101 1042.27,542.365L1030.44,542.365C1027.96,545.263 1025.49,548.16 1023.01,551.06L1018.19,551.06C1018.27,548.142 1013.74,548.142 1013.82,551.06L990.358,551.06C987.228,546.544 984.099,542.03 980.97,537.514L978.65,537.514C975.018,519.236 971.388,500.958 967.757,482.679C961.17,483.988 954.583,485.296 947.997,486.605C950.273,498.061 952.549,509.518 954.824,520.975C951.358,521.603 947.891,522.231 944.424,522.859C942.585,521.443 940.746,520.027 938.907,518.61C935.677,502.532 932.447,486.452 929.216,470.374C930.658,468.289 932.101,466.204 933.543,464.119C931.978,463.051 930.412,461.982 928.846,460.913C929.299,460.107 929.751,459.3 930.204,458.493C928.045,447.031 925.886,435.568 923.728,424.105C922.278,423.03 920.829,421.955 919.38,420.879L910.415,376.029C914.249,370.09 918.083,364.152 921.917,358.214C941.601,354.17 961.285,350.126 980.97,346.083C983.962,357.066 986.954,368.05 989.945,379.034L994.733,377.73L1002.5,375.511C1000.81,369.327 999.128,363.144 997.444,356.961C996.003,351.674 994.564,346.388 993.123,341.101C997.066,340.259 1001.01,339.416 1004.95,338.573C1004.18,334.739 1003.42,330.904 1002.65,327.07C1005.57,322.437 1008.48,317.805 1011.39,313.173C1014.46,312.529 1017.53,311.885 1020.6,311.24C1021.08,310.677 1021.56,310.113 1022.05,309.549C1042.74,310.203 1063.42,310.858 1084.11,311.512C1084.36,311.519 1084.61,311.527 1084.85,311.535C1085.06,304.438 1085.28,297.341 1085.49,290.244C1066.77,289.653 1048.05,289.06 1029.34,288.468C1027.24,288.402 1025.14,288.336 1023.04,288.269C1023.07,287.552 1023.1,286.835 1023.13,286.117C1028.84,277.037 1034.55,267.956 1040.25,258.876C1031.22,239.57 1022.19,220.264 1013.16,200.958C1011.33,201.815 1009.5,202.671 1007.67,203.527C1004.97,204.789 1002.27,206.052 999.571,207.314L1023.67,258.818C1014.39,271.33 1005.11,283.842 995.837,296.354C975.241,301.2 954.646,306.046 934.05,310.892C933.061,310.362 932.071,309.831 931.082,309.301L919.38,311.914C918.471,313.012 917.562,314.111 916.653,315.209C910.75,316.352 904.846,317.495 898.943,318.637C895.984,316.586 893.025,314.534 890.066,312.482C889.66,310.993 889.254,309.504 888.848,308.015C889.462,307.064 890.075,306.113 890.689,305.162C889.922,300.837 889.154,296.511 888.388,292.186C887.437,291.664 886.486,291.142 885.535,290.621C883.786,284.363 882.037,278.105 880.289,271.846C879.703,271.473 879.117,271.099 878.531,270.725C873.91,253.447 869.29,236.17 864.669,218.892C865.843,216.696 867.017,214.499 868.191,212.303C869.63,211.988 871.069,211.673 872.507,211.359C873.335,215.373 874.162,219.387 874.99,223.402C876.938,223 878.885,222.598 880.833,222.197C880.01,218.182 879.187,214.166 878.364,210.151C899.046,204.563 919.728,198.976 940.41,193.388C950.028,182.504 959.646,171.62 969.263,160.736C952.795,141.471 936.326,122.206 919.858,102.942C914.521,107.504 909.184,112.066 903.847,116.629C916.488,131.416 929.13,146.203 941.771,160.99C941.085,161.615 940.4,162.24 939.714,162.865C911.989,170.402 884.264,177.939 856.539,185.475C852.6,182.862 848.661,180.249 844.722,177.636C842.45,169.341 840.178,161.047 837.905,152.753C838.852,151.276 839.799,149.799 840.746,148.322C838.398,139.535 836.049,130.749 833.701,121.962C834.042,120.977 834.383,119.992 834.724,119.008C834.548,118.52 834.372,118.032 834.196,117.544C840.58,114.931 846.965,112.318 853.35,109.704C846.641,93.503 839.931,77.302 833.222,61.101C829.545,59.088 825.867,57.075 822.19,55.063C797.675,61.871 773.16,68.68 748.646,75.49C744.783,62.423 740.92,49.357 737.057,36.291C729.409,36.398 721.762,36.506 714.115,36.613C718.564,51.66 723.012,66.706 727.461,81.753C732.266,98.008 737.072,114.262 741.878,130.517C744.179,131.95 746.481,133.384 748.782,134.817C751.399,144.257 754.015,153.697 756.632,163.136L753.241,216.051L763.511,216.108L769.616,216.108L769.495,219.736L783.129,219.85L783.129,216.101L801.535,214.737L817.897,224.167L825.396,250.868L831.116,249.261L828.265,239.113L829.782,238.687L843.812,288.643L838.916,298.588L840.507,303.019L820.055,335.173L813.238,337.786L766.2,341.422L767.976,364.402L803.582,361.65L803.721,363.448L768.115,366.201L772.275,420.026L807.881,417.274L808.02,419.072L772.415,421.825L774.191,444.805L821.229,441.168L830.104,447.576L849.724,443.69L870.484,457.577L872.027,467.115L888.439,463.889L896.294,469.64L910.04,539.775L906.674,545.386L895.986,547.62L889.507,515.004L869.843,518.909L876.322,551.527L880.71,573.619L871.272,584.55L864.455,584.777L864.795,588.754L798.302,589.122L798.435,612.906Z" style="fill:none;stroke:black;stroke-width:1.75px;stroke-miterlimit:2;"/>
    </g>
    <g transform="matrix(-0.0374419,-0.543484,0.543484,-0.0374419,743.095,1170.95)">
        <path d="M220.933,1383.65L220.933,1327.37L382.942,1327.37L382.942,1319.9L281,1319.9L281,1286.34L346.077,1286.34L346.077,1222.29L288.088,1222.29L288.088,1246.84L100.748,1246.84L100.748,762.329L204.387,762.329L204.387,886.91L215.018,886.91L215.018,610.665L327.458,610.665L327.458,886.91L617.506,886.91L617.506,610.665L730.078,610.665L730.078,886.91L763.419,886.91L787.118,863.211L787.118,762.329L854.224,762.329L854.224,1043.39L980.806,1043.39L980.806,1089.28L854.224,1089.69L854.224,1246.84L658.249,1246.84L658.249,1222.29L600.26,1222.29L600.26,1286.34L665.337,1286.34L665.337,1319.9L563.394,1319.9L563.394,1327.37L725.404,1327.37L725.404,1383.65L220.933,1383.65Z" style="fill:none;stroke:black;stroke-width:7.65px;stroke-linecap:round;"/>
    </g>
</svg>
