<?xml version="1.0" encoding="UTF-8" standalone="no"?>
<!DOCTYPE svg PUBLIC "-//W3C//DTD SVG 1.1//EN" "http://www.w3.org/Graphics/SVG/1.1/DTD/svg11.dtd">
<svg width="100%" height="100%" viewBox="0 0 2126 1890" version="1.1" xmlns="http://www.w3.org/2000/svg" xmlns:xlink="http://www.w3.org/1999/xlink" xml:space="preserve" xmlns:serif="http://www.serif.com/" style="fill-rule:evenodd;clip-rule:evenodd;stroke-linecap:round;stroke-linejoin:round;stroke-miterlimit:1.5;">
    <g id="Party" transform="matrix(1,0,0,1,0,590.551)">
        <g transform="matrix(0.41762,0,0,0.41762,-286.962,669.294)">
            <path d="M813.58,191.168L900.075,191.168C912.902,191.168 923.315,201.581 923.315,214.407L923.315,260.886C923.315,273.712 912.902,284.126 900.075,284.126L895.56,284.126L895.56,357.717C895.56,368.406 886.882,377.083 876.194,377.083L837.461,377.083C826.773,377.083 818.095,368.406 818.095,357.717L818.095,284.126L813.58,284.126C800.754,284.126 790.34,273.712 790.34,260.886L790.34,214.407C790.34,201.581 800.754,191.168 813.58,191.168ZM856.828,191.168C835.451,191.168 818.095,173.812 818.095,152.435C818.095,131.058 835.451,113.703 856.828,113.703C878.205,113.703 895.56,131.058 895.56,152.435C895.56,173.812 878.205,191.168 856.828,191.168Z" style="fill:rgb(255,171,66);"/>
        </g>
        <g transform="matrix(0.41762,0,0,0.41762,-286.962,787.405)">
            <path d="M813.58,191.168L900.075,191.168C912.902,191.168 923.315,201.581 923.315,214.407L923.315,260.886C923.315,273.712 912.902,284.126 900.075,284.126L895.56,284.126L895.56,357.717C895.56,368.406 886.882,377.083 876.194,377.083L837.461,377.083C826.773,377.083 818.095,368.406 818.095,357.717L818.095,284.126L813.58,284.126C800.754,284.126 790.34,273.712 790.34,260.886L790.34,214.407C790.34,201.581 800.754,191.168 813.58,191.168ZM856.828,191.168C835.451,191.168 818.095,173.812 818.095,152.435C818.095,131.058 835.451,113.703 856.828,113.703C878.205,113.703 895.56,131.058 895.56,152.435C895.56,173.812 878.205,191.168 856.828,191.168Z" style="fill:rgb(255,171,66);"/>
        </g>
        <g transform="matrix(0.41762,0,0,0.41762,-204.285,669.294)">
            <path d="M813.58,191.168L900.075,191.168C912.902,191.168 923.315,201.581 923.315,214.407L923.315,260.886C923.315,273.712 912.902,284.126 900.075,284.126L895.56,284.126L895.56,357.717C895.56,368.406 886.882,377.083 876.194,377.083L837.461,377.083C826.773,377.083 818.095,368.406 818.095,357.717L818.095,284.126L813.58,284.126C800.754,284.126 790.34,273.712 790.34,260.886L790.34,214.407C790.34,201.581 800.754,191.168 813.58,191.168ZM856.828,191.168C835.451,191.168 818.095,173.812 818.095,152.435C818.095,131.058 835.451,113.703 856.828,113.703C878.205,113.703 895.56,131.058 895.56,152.435C895.56,173.812 878.205,191.168 856.828,191.168Z" style="fill:rgb(255,171,66);"/>
        </g>
        <g transform="matrix(0.41762,0,0,0.41762,-204.285,787.405)">
            <path d="M813.58,191.168L900.075,191.168C912.902,191.168 923.315,201.581 923.315,214.407L923.315,260.886C923.315,273.712 912.902,284.126 900.075,284.126L895.56,284.126L895.56,357.717C895.56,368.406 886.882,377.083 876.194,377.083L837.461,377.083C826.773,377.083 818.095,368.406 818.095,357.717L818.095,284.126L813.58,284.126C800.754,284.126 790.34,273.712 790.34,260.886L790.34,214.407C790.34,201.581 800.754,191.168 813.58,191.168ZM856.828,191.168C835.451,191.168 818.095,173.812 818.095,152.435C818.095,131.058 835.451,113.703 856.828,113.703C878.205,113.703 895.56,131.058 895.56,152.435C895.56,173.812 878.205,191.168 856.828,191.168Z" style="fill:rgb(255,171,66);"/>
        </g>
        <g transform="matrix(0.41762,0,0,0.41762,-121.608,787.405)">
            <path d="M813.58,191.168L900.075,191.168C912.902,191.168 923.315,201.581 923.315,214.407L923.315,260.886C923.315,273.712 912.902,284.126 900.075,284.126L895.56,284.126L895.56,357.717C895.56,368.406 886.882,377.083 876.194,377.083L837.461,377.083C826.773,377.083 818.095,368.406 818.095,357.717L818.095,284.126L813.58,284.126C800.754,284.126 790.34,273.712 790.34,260.886L790.34,214.407C790.34,201.581 800.754,191.168 813.58,191.168ZM856.828,191.168C835.451,191.168 818.095,173.812 818.095,152.435C818.095,131.058 835.451,113.703 856.828,113.703C878.205,113.703 895.56,131.058 895.56,152.435C895.56,173.812 878.205,191.168 856.828,191.168Z" style="fill:rgb(255,171,66);"/>
        </g>
        <g transform="matrix(0.41762,0,0,0.41762,-38.9304,787.405)">
            <path d="M813.58,191.168L900.075,191.168C912.902,191.168 923.315,201.581 923.315,214.407L923.315,260.886C923.315,273.712 912.902,284.126 900.075,284.126L895.56,284.126L895.56,357.717C895.56,368.406 886.882,377.083 876.194,377.083L837.461,377.083C826.773,377.083 818.095,368.406 818.095,357.717L818.095,284.126L813.58,284.126C800.754,284.126 790.34,273.712 790.34,260.886L790.34,214.407C790.34,201.581 800.754,191.168 813.58,191.168ZM856.828,191.168C835.451,191.168 818.095,173.812 818.095,152.435C818.095,131.058 835.451,113.703 856.828,113.703C878.205,113.703 895.56,131.058 895.56,152.435C895.56,173.812 878.205,191.168 856.828,191.168Z" style="fill:rgb(255,171,66);"/>
        </g>
        <g transform="matrix(0.41762,0,0,0.41762,-38.9304,669.294)">
            <path d="M813.58,191.168L900.075,191.168C912.902,191.168 923.315,201.581 923.315,214.407L923.315,260.886C923.315,273.712 912.902,284.126 900.075,284.126L895.56,284.126L895.56,357.717C895.56,368.406 886.882,377.083 876.194,377.083L837.461,377.083C826.773,377.083 818.095,368.406 818.095,357.717L818.095,284.126L813.58,284.126C800.754,284.126 790.34,273.712 790.34,260.886L790.34,214.407C790.34,201.581 800.754,191.168 813.58,191.168ZM856.828,191.168C835.451,191.168 818.095,173.812 818.095,152.435C818.095,131.058 835.451,113.703 856.828,113.703C878.205,113.703 895.56,131.058 895.56,152.435C895.56,173.812 878.205,191.168 856.828,191.168Z" style="fill:rgb(255,171,66);"/>
        </g>
        <g transform="matrix(0.41762,0,0,0.41762,43.7468,669.294)">
            <path d="M813.58,191.168L900.075,191.168C912.902,191.168 923.315,201.581 923.315,214.407L923.315,260.886C923.315,273.712 912.902,284.126 900.075,284.126L895.56,284.126L895.56,357.717C895.56,368.406 886.882,377.083 876.194,377.083L837.461,377.083C826.773,377.083 818.095,368.406 818.095,357.717L818.095,284.126L813.58,284.126C800.754,284.126 790.34,273.712 790.34,260.886L790.34,214.407C790.34,201.581 800.754,191.168 813.58,191.168ZM856.828,191.168C835.451,191.168 818.095,173.812 818.095,152.435C818.095,131.058 835.451,113.703 856.828,113.703C878.205,113.703 895.56,131.058 895.56,152.435C895.56,173.812 878.205,191.168 856.828,191.168Z" style="fill:rgb(255,171,66);"/>
        </g>
        <g transform="matrix(0.41762,0,0,0.41762,1366.58,669.294)">
            <path d="M813.58,191.168L900.075,191.168C912.902,191.168 923.315,201.581 923.315,214.407L923.315,260.886C923.315,273.712 912.902,284.126 900.075,284.126L895.56,284.126L895.56,357.717C895.56,368.406 886.882,377.083 876.194,377.083L837.461,377.083C826.773,377.083 818.095,368.406 818.095,357.717L818.095,284.126L813.58,284.126C800.754,284.126 790.34,273.712 790.34,260.886L790.34,214.407C790.34,201.581 800.754,191.168 813.58,191.168ZM856.828,191.168C835.451,191.168 818.095,173.812 818.095,152.435C818.095,131.058 835.451,113.703 856.828,113.703C878.205,113.703 895.56,131.058 895.56,152.435C895.56,173.812 878.205,191.168 856.828,191.168Z" style="fill:rgb(255,171,66);"/>
        </g>
        <g transform="matrix(0.41762,0,0,0.41762,1449.26,551.184)">
            <path d="M813.58,191.168L900.075,191.168C912.902,191.168 923.315,201.581 923.315,214.407L923.315,260.886C923.315,273.712 912.902,284.126 900.075,284.126L895.56,284.126L895.56,357.717C895.56,368.406 886.882,377.083 876.194,377.083L837.461,377.083C826.773,377.083 818.095,368.406 818.095,357.717L818.095,284.126L813.58,284.126C800.754,284.126 790.34,273.712 790.34,260.886L790.34,214.407C790.34,201.581 800.754,191.168 813.58,191.168ZM856.828,191.168C835.451,191.168 818.095,173.812 818.095,152.435C818.095,131.058 835.451,113.703 856.828,113.703C878.205,113.703 895.56,131.058 895.56,152.435C895.56,173.812 878.205,191.168 856.828,191.168Z" style="fill:rgb(255,171,66);"/>
        </g>
        <g transform="matrix(0.41762,0,0,0.41762,1449.26,669.294)">
            <path d="M813.58,191.168L900.075,191.168C912.902,191.168 923.315,201.581 923.315,214.407L923.315,260.886C923.315,273.712 912.902,284.126 900.075,284.126L895.56,284.126L895.56,357.717C895.56,368.406 886.882,377.083 876.194,377.083L837.461,377.083C826.773,377.083 818.095,368.406 818.095,357.717L818.095,284.126L813.58,284.126C800.754,284.126 790.34,273.712 790.34,260.886L790.34,214.407C790.34,201.581 800.754,191.168 813.58,191.168ZM856.828,191.168C835.451,191.168 818.095,173.812 818.095,152.435C818.095,131.058 835.451,113.703 856.828,113.703C878.205,113.703 895.56,131.058 895.56,152.435C895.56,173.812 878.205,191.168 856.828,191.168Z" style="fill:rgb(255,171,66);"/>
        </g>
        <g transform="matrix(0.41762,0,0,0.41762,1449.26,787.405)">
            <path d="M813.58,191.168L900.075,191.168C912.902,191.168 923.315,201.581 923.315,214.407L923.315,260.886C923.315,273.712 912.902,284.126 900.075,284.126L895.56,284.126L895.56,357.717C895.56,368.406 886.882,377.083 876.194,377.083L837.461,377.083C826.773,377.083 818.095,368.406 818.095,357.717L818.095,284.126L813.58,284.126C800.754,284.126 790.34,273.712 790.34,260.886L790.34,214.407C790.34,201.581 800.754,191.168 813.58,191.168ZM856.828,191.168C835.451,191.168 818.095,173.812 818.095,152.435C818.095,131.058 835.451,113.703 856.828,113.703C878.205,113.703 895.56,131.058 895.56,152.435C895.56,173.812 878.205,191.168 856.828,191.168Z" style="fill:rgb(255,171,66);"/>
        </g>
        <g transform="matrix(0.41762,0,0,0.41762,1531.94,551.184)">
            <path d="M813.58,191.168L900.075,191.168C912.902,191.168 923.315,201.581 923.315,214.407L923.315,260.886C923.315,273.712 912.902,284.126 900.075,284.126L895.56,284.126L895.56,357.717C895.56,368.406 886.882,377.083 876.194,377.083L837.461,377.083C826.773,377.083 818.095,368.406 818.095,357.717L818.095,284.126L813.58,284.126C800.754,284.126 790.34,273.712 790.34,260.886L790.34,214.407C790.34,201.581 800.754,191.168 813.58,191.168ZM856.828,191.168C835.451,191.168 818.095,173.812 818.095,152.435C818.095,131.058 835.451,113.703 856.828,113.703C878.205,113.703 895.56,131.058 895.56,152.435C895.56,173.812 878.205,191.168 856.828,191.168Z" style="fill:rgb(255,171,66);"/>
        </g>
        <g transform="matrix(0.41762,0,0,0.41762,1531.94,669.294)">
            <path d="M813.58,191.168L900.075,191.168C912.902,191.168 923.315,201.581 923.315,214.407L923.315,260.886C923.315,273.712 912.902,284.126 900.075,284.126L895.56,284.126L895.56,357.717C895.56,368.406 886.882,377.083 876.194,377.083L837.461,377.083C826.773,377.083 818.095,368.406 818.095,357.717L818.095,284.126L813.58,284.126C800.754,284.126 790.34,273.712 790.34,260.886L790.34,214.407C790.34,201.581 800.754,191.168 813.58,191.168ZM856.828,191.168C835.451,191.168 818.095,173.812 818.095,152.435C818.095,131.058 835.451,113.703 856.828,113.703C878.205,113.703 895.56,131.058 895.56,152.435C895.56,173.812 878.205,191.168 856.828,191.168Z" style="fill:rgb(255,171,66);"/>
        </g>
        <g transform="matrix(0.41762,0,0,0.41762,1531.94,787.405)">
            <path d="M813.58,191.168L900.075,191.168C912.902,191.168 923.315,201.581 923.315,214.407L923.315,260.886C923.315,273.712 912.902,284.126 900.075,284.126L895.56,284.126L895.56,357.717C895.56,368.406 886.882,377.083 876.194,377.083L837.461,377.083C826.773,377.083 818.095,368.406 818.095,357.717L818.095,284.126L813.58,284.126C800.754,284.126 790.34,273.712 790.34,260.886L790.34,214.407C790.34,201.581 800.754,191.168 813.58,191.168ZM856.828,191.168C835.451,191.168 818.095,173.812 818.095,152.435C818.095,131.058 835.451,113.703 856.828,113.703C878.205,113.703 895.56,131.058 895.56,152.435C895.56,173.812 878.205,191.168 856.828,191.168Z" style="fill:rgb(255,171,66);"/>
        </g>
        <g transform="matrix(0.41762,0,0,0.41762,1614.61,669.294)">
            <path d="M813.58,191.168L900.075,191.168C912.902,191.168 923.315,201.581 923.315,214.407L923.315,260.886C923.315,273.712 912.902,284.126 900.075,284.126L895.56,284.126L895.56,357.717C895.56,368.406 886.882,377.083 876.194,377.083L837.461,377.083C826.773,377.083 818.095,368.406 818.095,357.717L818.095,284.126L813.58,284.126C800.754,284.126 790.34,273.712 790.34,260.886L790.34,214.407C790.34,201.581 800.754,191.168 813.58,191.168ZM856.828,191.168C835.451,191.168 818.095,173.812 818.095,152.435C818.095,131.058 835.451,113.703 856.828,113.703C878.205,113.703 895.56,131.058 895.56,152.435C895.56,173.812 878.205,191.168 856.828,191.168Z" style="fill:rgb(255,171,66);"/>
        </g>
        <g transform="matrix(0.41762,0,0,0.41762,1614.61,787.405)">
            <path d="M813.58,191.168L900.075,191.168C912.902,191.168 923.315,201.581 923.315,214.407L923.315,260.886C923.315,273.712 912.902,284.126 900.075,284.126L895.56,284.126L895.56,357.717C895.56,368.406 886.882,377.083 876.194,377.083L837.461,377.083C826.773,377.083 818.095,368.406 818.095,357.717L818.095,284.126L813.58,284.126C800.754,284.126 790.34,273.712 790.34,260.886L790.34,214.407C790.34,201.581 800.754,191.168 813.58,191.168ZM856.828,191.168C835.451,191.168 818.095,173.812 818.095,152.435C818.095,131.058 835.451,113.703 856.828,113.703C878.205,113.703 895.56,131.058 895.56,152.435C895.56,173.812 878.205,191.168 856.828,191.168Z" style="fill:rgb(255,171,66);"/>
        </g>
        <g transform="matrix(0.41762,0,0,0.41762,1697.29,669.294)">
            <path d="M813.58,191.168L900.075,191.168C912.902,191.168 923.315,201.581 923.315,214.407L923.315,260.886C923.315,273.712 912.902,284.126 900.075,284.126L895.56,284.126L895.56,357.717C895.56,368.406 886.882,377.083 876.194,377.083L837.461,377.083C826.773,377.083 818.095,368.406 818.095,357.717L818.095,284.126L813.58,284.126C800.754,284.126 790.34,273.712 790.34,260.886L790.34,214.407C790.34,201.581 800.754,191.168 813.58,191.168ZM856.828,191.168C835.451,191.168 818.095,173.812 818.095,152.435C818.095,131.058 835.451,113.703 856.828,113.703C878.205,113.703 895.56,131.058 895.56,152.435C895.56,173.812 878.205,191.168 856.828,191.168Z" style="fill:rgb(255,171,66);"/>
        </g>
        <g transform="matrix(0.41762,0,0,0.41762,1697.29,787.405)">
            <path d="M813.58,191.168L900.075,191.168C912.902,191.168 923.315,201.581 923.315,214.407L923.315,260.886C923.315,273.712 912.902,284.126 900.075,284.126L895.56,284.126L895.56,357.717C895.56,368.406 886.882,377.083 876.194,377.083L837.461,377.083C826.773,377.083 818.095,368.406 818.095,357.717L818.095,284.126L813.58,284.126C800.754,284.126 790.34,273.712 790.34,260.886L790.34,214.407C790.34,201.581 800.754,191.168 813.58,191.168ZM856.828,191.168C835.451,191.168 818.095,173.812 818.095,152.435C818.095,131.058 835.451,113.703 856.828,113.703C878.205,113.703 895.56,131.058 895.56,152.435C895.56,173.812 878.205,191.168 856.828,191.168Z" style="fill:rgb(255,171,66);"/>
        </g>
    </g>
    <g id="Travel" transform="matrix(1,0,0,1,0,590.551)">
        <g transform="matrix(0.41762,0,0,0.41762,43.7468,787.405)">
            <path d="M813.58,191.168L900.075,191.168C912.902,191.168 923.315,201.581 923.315,214.407L923.315,260.886C923.315,273.712 912.902,284.126 900.075,284.126L895.56,284.126L895.56,357.717C895.56,368.406 886.882,377.083 876.194,377.083L837.461,377.083C826.773,377.083 818.095,368.406 818.095,357.717L818.095,284.126L813.58,284.126C800.754,284.126 790.34,273.712 790.34,260.886L790.34,214.407C790.34,201.581 800.754,191.168 813.58,191.168ZM856.828,191.168C835.451,191.168 818.095,173.812 818.095,152.435C818.095,131.058 835.451,113.703 856.828,113.703C878.205,113.703 895.56,131.058 895.56,152.435C895.56,173.812 878.205,191.168 856.828,191.168Z" style="fill:rgb(255,234,0);"/>
        </g>
        <g transform="matrix(0.41762,0,0,0.41762,126.424,787.405)">
            <path d="M813.58,191.168L900.075,191.168C912.902,191.168 923.315,201.581 923.315,214.407L923.315,260.886C923.315,273.712 912.902,284.126 900.075,284.126L895.56,284.126L895.56,357.717C895.56,368.406 886.882,377.083 876.194,377.083L837.461,377.083C826.773,377.083 818.095,368.406 818.095,357.717L818.095,284.126L813.58,284.126C800.754,284.126 790.34,273.712 790.34,260.886L790.34,214.407C790.34,201.581 800.754,191.168 813.58,191.168ZM856.828,191.168C835.451,191.168 818.095,173.812 818.095,152.435C818.095,131.058 835.451,113.703 856.828,113.703C878.205,113.703 895.56,131.058 895.56,152.435C895.56,173.812 878.205,191.168 856.828,191.168Z" style="fill:rgb(255,234,0);"/>
        </g>
        <g transform="matrix(0.41762,0,0,0.41762,209.101,787.405)">
            <path d="M813.58,191.168L900.075,191.168C912.902,191.168 923.315,201.581 923.315,214.407L923.315,260.886C923.315,273.712 912.902,284.126 900.075,284.126L895.56,284.126L895.56,357.717C895.56,368.406 886.882,377.083 876.194,377.083L837.461,377.083C826.773,377.083 818.095,368.406 818.095,357.717L818.095,284.126L813.58,284.126C800.754,284.126 790.34,273.712 790.34,260.886L790.34,214.407C790.34,201.581 800.754,191.168 813.58,191.168ZM856.828,191.168C835.451,191.168 818.095,173.812 818.095,152.435C818.095,131.058 835.451,113.703 856.828,113.703C878.205,113.703 895.56,131.058 895.56,152.435C895.56,173.812 878.205,191.168 856.828,191.168Z" style="fill:rgb(255,234,0);"/>
        </g>
        <g transform="matrix(0.41762,0,0,0.41762,126.424,669.294)">
            <path d="M813.58,191.168L900.075,191.168C912.902,191.168 923.315,201.581 923.315,214.407L923.315,260.886C923.315,273.712 912.902,284.126 900.075,284.126L895.56,284.126L895.56,357.717C895.56,368.406 886.882,377.083 876.194,377.083L837.461,377.083C826.773,377.083 818.095,368.406 818.095,357.717L818.095,284.126L813.58,284.126C800.754,284.126 790.34,273.712 790.34,260.886L790.34,214.407C790.34,201.581 800.754,191.168 813.58,191.168ZM856.828,191.168C835.451,191.168 818.095,173.812 818.095,152.435C818.095,131.058 835.451,113.703 856.828,113.703C878.205,113.703 895.56,131.058 895.56,152.435C895.56,173.812 878.205,191.168 856.828,191.168Z" style="fill:rgb(255,234,0);"/>
        </g>
        <g transform="matrix(0.41762,0,0,0.41762,209.101,669.294)">
            <path d="M813.58,191.168L900.075,191.168C912.902,191.168 923.315,201.581 923.315,214.407L923.315,260.886C923.315,273.712 912.902,284.126 900.075,284.126L895.56,284.126L895.56,357.717C895.56,368.406 886.882,377.083 876.194,377.083L837.461,377.083C826.773,377.083 818.095,368.406 818.095,357.717L818.095,284.126L813.58,284.126C800.754,284.126 790.34,273.712 790.34,260.886L790.34,214.407C790.34,201.581 800.754,191.168 813.58,191.168ZM856.828,191.168C835.451,191.168 818.095,173.812 818.095,152.435C818.095,131.058 835.451,113.703 856.828,113.703C878.205,113.703 895.56,131.058 895.56,152.435C895.56,173.812 878.205,191.168 856.828,191.168Z" style="fill:rgb(255,234,0);"/>
        </g>
        <g transform="matrix(0.41762,0,0,0.41762,291.778,669.294)">
            <path d="M813.58,191.168L900.075,191.168C912.902,191.168 923.315,201.581 923.315,214.407L923.315,260.886C923.315,273.712 912.902,284.126 900.075,284.126L895.56,284.126L895.56,357.717C895.56,368.406 886.882,377.083 876.194,377.083L837.461,377.083C826.773,377.083 818.095,368.406 818.095,357.717L818.095,284.126L813.58,284.126C800.754,284.126 790.34,273.712 790.34,260.886L790.34,214.407C790.34,201.581 800.754,191.168 813.58,191.168ZM856.828,191.168C835.451,191.168 818.095,173.812 818.095,152.435C818.095,131.058 835.451,113.703 856.828,113.703C878.205,113.703 895.56,131.058 895.56,152.435C895.56,173.812 878.205,191.168 856.828,191.168Z" style="fill:rgb(255,234,0);"/>
        </g>
        <g transform="matrix(0.41762,0,0,0.41762,291.778,787.405)">
            <path d="M813.58,191.168L900.075,191.168C912.902,191.168 923.315,201.581 923.315,214.407L923.315,260.886C923.315,273.712 912.902,284.126 900.075,284.126L895.56,284.126L895.56,357.717C895.56,368.406 886.882,377.083 876.194,377.083L837.461,377.083C826.773,377.083 818.095,368.406 818.095,357.717L818.095,284.126L813.58,284.126C800.754,284.126 790.34,273.712 790.34,260.886L790.34,214.407C790.34,201.581 800.754,191.168 813.58,191.168ZM856.828,191.168C835.451,191.168 818.095,173.812 818.095,152.435C818.095,131.058 835.451,113.703 856.828,113.703C878.205,113.703 895.56,131.058 895.56,152.435C895.56,173.812 878.205,191.168 856.828,191.168Z" style="fill:rgb(255,234,0);"/>
        </g>
        <g transform="matrix(0.41762,0,0,0.41762,374.455,669.294)">
            <path d="M813.58,191.168L900.075,191.168C912.902,191.168 923.315,201.581 923.315,214.407L923.315,260.886C923.315,273.712 912.902,284.126 900.075,284.126L895.56,284.126L895.56,357.717C895.56,368.406 886.882,377.083 876.194,377.083L837.461,377.083C826.773,377.083 818.095,368.406 818.095,357.717L818.095,284.126L813.58,284.126C800.754,284.126 790.34,273.712 790.34,260.886L790.34,214.407C790.34,201.581 800.754,191.168 813.58,191.168ZM856.828,191.168C835.451,191.168 818.095,173.812 818.095,152.435C818.095,131.058 835.451,113.703 856.828,113.703C878.205,113.703 895.56,131.058 895.56,152.435C895.56,173.812 878.205,191.168 856.828,191.168Z" style="fill:rgb(255,234,0);"/>
        </g>
        <g transform="matrix(0.41762,0,0,0.41762,374.455,787.405)">
            <path d="M813.58,191.168L900.075,191.168C912.902,191.168 923.315,201.581 923.315,214.407L923.315,260.886C923.315,273.712 912.902,284.126 900.075,284.126L895.56,284.126L895.56,357.717C895.56,368.406 886.882,377.083 876.194,377.083L837.461,377.083C826.773,377.083 818.095,368.406 818.095,357.717L818.095,284.126L813.58,284.126C800.754,284.126 790.34,273.712 790.34,260.886L790.34,214.407C790.34,201.581 800.754,191.168 813.58,191.168ZM856.828,191.168C835.451,191.168 818.095,173.812 818.095,152.435C818.095,131.058 835.451,113.703 856.828,113.703C878.205,113.703 895.56,131.058 895.56,152.435C895.56,173.812 878.205,191.168 856.828,191.168Z" style="fill:rgb(255,234,0);"/>
        </g>
        <g transform="matrix(0.41762,0,0,0.41762,457.133,669.294)">
            <path d="M813.58,191.168L900.075,191.168C912.902,191.168 923.315,201.581 923.315,214.407L923.315,260.886C923.315,273.712 912.902,284.126 900.075,284.126L895.56,284.126L895.56,357.717C895.56,368.406 886.882,377.083 876.194,377.083L837.461,377.083C826.773,377.083 818.095,368.406 818.095,357.717L818.095,284.126L813.58,284.126C800.754,284.126 790.34,273.712 790.34,260.886L790.34,214.407C790.34,201.581 800.754,191.168 813.58,191.168ZM856.828,191.168C835.451,191.168 818.095,173.812 818.095,152.435C818.095,131.058 835.451,113.703 856.828,113.703C878.205,113.703 895.56,131.058 895.56,152.435C895.56,173.812 878.205,191.168 856.828,191.168Z" style="fill:rgb(255,234,0);"/>
        </g>
        <g transform="matrix(0.41762,0,0,0.41762,457.133,787.405)">
            <path d="M813.58,191.168L900.075,191.168C912.902,191.168 923.315,201.581 923.315,214.407L923.315,260.886C923.315,273.712 912.902,284.126 900.075,284.126L895.56,284.126L895.56,357.717C895.56,368.406 886.882,377.083 876.194,377.083L837.461,377.083C826.773,377.083 818.095,368.406 818.095,357.717L818.095,284.126L813.58,284.126C800.754,284.126 790.34,273.712 790.34,260.886L790.34,214.407C790.34,201.581 800.754,191.168 813.58,191.168ZM856.828,191.168C835.451,191.168 818.095,173.812 818.095,152.435C818.095,131.058 835.451,113.703 856.828,113.703C878.205,113.703 895.56,131.058 895.56,152.435C895.56,173.812 878.205,191.168 856.828,191.168Z" style="fill:rgb(255,234,0);"/>
        </g>
        <g transform="matrix(0.41762,0,0,0.41762,539.81,669.294)">
            <path d="M813.58,191.168L900.075,191.168C912.902,191.168 923.315,201.581 923.315,214.407L923.315,260.886C923.315,273.712 912.902,284.126 900.075,284.126L895.56,284.126L895.56,357.717C895.56,368.406 886.882,377.083 876.194,377.083L837.461,377.083C826.773,377.083 818.095,368.406 818.095,357.717L818.095,284.126L813.58,284.126C800.754,284.126 790.34,273.712 790.34,260.886L790.34,214.407C790.34,201.581 800.754,191.168 813.58,191.168ZM856.828,191.168C835.451,191.168 818.095,173.812 818.095,152.435C818.095,131.058 835.451,113.703 856.828,113.703C878.205,113.703 895.56,131.058 895.56,152.435C895.56,173.812 878.205,191.168 856.828,191.168Z" style="fill:rgb(255,234,0);"/>
        </g>
        <g transform="matrix(0.41762,0,0,0.41762,539.81,787.405)">
            <path d="M813.58,191.168L900.075,191.168C912.902,191.168 923.315,201.581 923.315,214.407L923.315,260.886C923.315,273.712 912.902,284.126 900.075,284.126L895.56,284.126L895.56,357.717C895.56,368.406 886.882,377.083 876.194,377.083L837.461,377.083C826.773,377.083 818.095,368.406 818.095,357.717L818.095,284.126L813.58,284.126C800.754,284.126 790.34,273.712 790.34,260.886L790.34,214.407C790.34,201.581 800.754,191.168 813.58,191.168ZM856.828,191.168C835.451,191.168 818.095,173.812 818.095,152.435C818.095,131.058 835.451,113.703 856.828,113.703C878.205,113.703 895.56,131.058 895.56,152.435C895.56,173.812 878.205,191.168 856.828,191.168Z" style="fill:rgb(255,234,0);"/>
        </g>
        <g transform="matrix(0.41762,0,0,0.41762,622.487,669.294)">
            <path d="M813.58,191.168L900.075,191.168C912.902,191.168 923.315,201.581 923.315,214.407L923.315,260.886C923.315,273.712 912.902,284.126 900.075,284.126L895.56,284.126L895.56,357.717C895.56,368.406 886.882,377.083 876.194,377.083L837.461,377.083C826.773,377.083 818.095,368.406 818.095,357.717L818.095,284.126L813.58,284.126C800.754,284.126 790.34,273.712 790.34,260.886L790.34,214.407C790.34,201.581 800.754,191.168 813.58,191.168ZM856.828,191.168C835.451,191.168 818.095,173.812 818.095,152.435C818.095,131.058 835.451,113.703 856.828,113.703C878.205,113.703 895.56,131.058 895.56,152.435C895.56,173.812 878.205,191.168 856.828,191.168Z" style="fill:rgb(255,234,0);"/>
        </g>
        <g transform="matrix(0.41762,0,0,0.41762,622.487,787.405)">
            <path d="M813.58,191.168L900.075,191.168C912.902,191.168 923.315,201.581 923.315,214.407L923.315,260.886C923.315,273.712 912.902,284.126 900.075,284.126L895.56,284.126L895.56,357.717C895.56,368.406 886.882,377.083 876.194,377.083L837.461,377.083C826.773,377.083 818.095,368.406 818.095,357.717L818.095,284.126L813.58,284.126C800.754,284.126 790.34,273.712 790.34,260.886L790.34,214.407C790.34,201.581 800.754,191.168 813.58,191.168ZM856.828,191.168C835.451,191.168 818.095,173.812 818.095,152.435C818.095,131.058 835.451,113.703 856.828,113.703C878.205,113.703 895.56,131.058 895.56,152.435C895.56,173.812 878.205,191.168 856.828,191.168Z" style="fill:rgb(255,234,0);"/>
        </g>
        <g transform="matrix(0.41762,0,0,0.41762,705.164,669.294)">
            <path d="M813.58,191.168L900.075,191.168C912.902,191.168 923.315,201.581 923.315,214.407L923.315,260.886C923.315,273.712 912.902,284.126 900.075,284.126L895.56,284.126L895.56,357.717C895.56,368.406 886.882,377.083 876.194,377.083L837.461,377.083C826.773,377.083 818.095,368.406 818.095,357.717L818.095,284.126L813.58,284.126C800.754,284.126 790.34,273.712 790.34,260.886L790.34,214.407C790.34,201.581 800.754,191.168 813.58,191.168ZM856.828,191.168C835.451,191.168 818.095,173.812 818.095,152.435C818.095,131.058 835.451,113.703 856.828,113.703C878.205,113.703 895.56,131.058 895.56,152.435C895.56,173.812 878.205,191.168 856.828,191.168Z" style="fill:rgb(255,234,0);"/>
        </g>
        <g transform="matrix(0.41762,0,0,0.41762,705.164,787.405)">
            <path d="M813.58,191.168L900.075,191.168C912.902,191.168 923.315,201.581 923.315,214.407L923.315,260.886C923.315,273.712 912.902,284.126 900.075,284.126L895.56,284.126L895.56,357.717C895.56,368.406 886.882,377.083 876.194,377.083L837.461,377.083C826.773,377.083 818.095,368.406 818.095,357.717L818.095,284.126L813.58,284.126C800.754,284.126 790.34,273.712 790.34,260.886L790.34,214.407C790.34,201.581 800.754,191.168 813.58,191.168ZM856.828,191.168C835.451,191.168 818.095,173.812 818.095,152.435C818.095,131.058 835.451,113.703 856.828,113.703C878.205,113.703 895.56,131.058 895.56,152.435C895.56,173.812 878.205,191.168 856.828,191.168Z" style="fill:rgb(255,234,0);"/>
        </g>
        <g transform="matrix(0.41762,0,0,0.41762,787.841,669.294)">
            <path d="M813.58,191.168L900.075,191.168C912.902,191.168 923.315,201.581 923.315,214.407L923.315,260.886C923.315,273.712 912.902,284.126 900.075,284.126L895.56,284.126L895.56,357.717C895.56,368.406 886.882,377.083 876.194,377.083L837.461,377.083C826.773,377.083 818.095,368.406 818.095,357.717L818.095,284.126L813.58,284.126C800.754,284.126 790.34,273.712 790.34,260.886L790.34,214.407C790.34,201.581 800.754,191.168 813.58,191.168ZM856.828,191.168C835.451,191.168 818.095,173.812 818.095,152.435C818.095,131.058 835.451,113.703 856.828,113.703C878.205,113.703 895.56,131.058 895.56,152.435C895.56,173.812 878.205,191.168 856.828,191.168Z" style="fill:rgb(255,234,0);"/>
        </g>
        <g transform="matrix(0.41762,0,0,0.41762,787.841,787.405)">
            <path d="M813.58,191.168L900.075,191.168C912.902,191.168 923.315,201.581 923.315,214.407L923.315,260.886C923.315,273.712 912.902,284.126 900.075,284.126L895.56,284.126L895.56,357.717C895.56,368.406 886.882,377.083 876.194,377.083L837.461,377.083C826.773,377.083 818.095,368.406 818.095,357.717L818.095,284.126L813.58,284.126C800.754,284.126 790.34,273.712 790.34,260.886L790.34,214.407C790.34,201.581 800.754,191.168 813.58,191.168ZM856.828,191.168C835.451,191.168 818.095,173.812 818.095,152.435C818.095,131.058 835.451,113.703 856.828,113.703C878.205,113.703 895.56,131.058 895.56,152.435C895.56,173.812 878.205,191.168 856.828,191.168Z" style="fill:rgb(255,234,0);"/>
        </g>
        <g transform="matrix(0.41762,0,0,0.41762,870.518,669.294)">
            <path d="M813.58,191.168L900.075,191.168C912.902,191.168 923.315,201.581 923.315,214.407L923.315,260.886C923.315,273.712 912.902,284.126 900.075,284.126L895.56,284.126L895.56,357.717C895.56,368.406 886.882,377.083 876.194,377.083L837.461,377.083C826.773,377.083 818.095,368.406 818.095,357.717L818.095,284.126L813.58,284.126C800.754,284.126 790.34,273.712 790.34,260.886L790.34,214.407C790.34,201.581 800.754,191.168 813.58,191.168ZM856.828,191.168C835.451,191.168 818.095,173.812 818.095,152.435C818.095,131.058 835.451,113.703 856.828,113.703C878.205,113.703 895.56,131.058 895.56,152.435C895.56,173.812 878.205,191.168 856.828,191.168Z" style="fill:rgb(255,234,0);"/>
        </g>
        <g transform="matrix(0.41762,0,0,0.41762,870.518,787.405)">
            <path d="M813.58,191.168L900.075,191.168C912.902,191.168 923.315,201.581 923.315,214.407L923.315,260.886C923.315,273.712 912.902,284.126 900.075,284.126L895.56,284.126L895.56,357.717C895.56,368.406 886.882,377.083 876.194,377.083L837.461,377.083C826.773,377.083 818.095,368.406 818.095,357.717L818.095,284.126L813.58,284.126C800.754,284.126 790.34,273.712 790.34,260.886L790.34,214.407C790.34,201.581 800.754,191.168 813.58,191.168ZM856.828,191.168C835.451,191.168 818.095,173.812 818.095,152.435C818.095,131.058 835.451,113.703 856.828,113.703C878.205,113.703 895.56,131.058 895.56,152.435C895.56,173.812 878.205,191.168 856.828,191.168Z" style="fill:rgb(255,234,0);"/>
        </g>
        <g transform="matrix(0.41762,0,0,0.41762,953.196,669.294)">
            <path d="M813.58,191.168L900.075,191.168C912.902,191.168 923.315,201.581 923.315,214.407L923.315,260.886C923.315,273.712 912.902,284.126 900.075,284.126L895.56,284.126L895.56,357.717C895.56,368.406 886.882,377.083 876.194,377.083L837.461,377.083C826.773,377.083 818.095,368.406 818.095,357.717L818.095,284.126L813.58,284.126C800.754,284.126 790.34,273.712 790.34,260.886L790.34,214.407C790.34,201.581 800.754,191.168 813.58,191.168ZM856.828,191.168C835.451,191.168 818.095,173.812 818.095,152.435C818.095,131.058 835.451,113.703 856.828,113.703C878.205,113.703 895.56,131.058 895.56,152.435C895.56,173.812 878.205,191.168 856.828,191.168Z" style="fill:rgb(255,234,0);"/>
        </g>
        <g transform="matrix(0.41762,0,0,0.41762,953.196,787.405)">
            <path d="M813.58,191.168L900.075,191.168C912.902,191.168 923.315,201.581 923.315,214.407L923.315,260.886C923.315,273.712 912.902,284.126 900.075,284.126L895.56,284.126L895.56,357.717C895.56,368.406 886.882,377.083 876.194,377.083L837.461,377.083C826.773,377.083 818.095,368.406 818.095,357.717L818.095,284.126L813.58,284.126C800.754,284.126 790.34,273.712 790.34,260.886L790.34,214.407C790.34,201.581 800.754,191.168 813.58,191.168ZM856.828,191.168C835.451,191.168 818.095,173.812 818.095,152.435C818.095,131.058 835.451,113.703 856.828,113.703C878.205,113.703 895.56,131.058 895.56,152.435C895.56,173.812 878.205,191.168 856.828,191.168Z" style="fill:rgb(255,234,0);"/>
        </g>
        <g transform="matrix(0.41762,0,0,0.41762,1035.87,787.405)">
            <path d="M813.58,191.168L900.075,191.168C912.902,191.168 923.315,201.581 923.315,214.407L923.315,260.886C923.315,273.712 912.902,284.126 900.075,284.126L895.56,284.126L895.56,357.717C895.56,368.406 886.882,377.083 876.194,377.083L837.461,377.083C826.773,377.083 818.095,368.406 818.095,357.717L818.095,284.126L813.58,284.126C800.754,284.126 790.34,273.712 790.34,260.886L790.34,214.407C790.34,201.581 800.754,191.168 813.58,191.168ZM856.828,191.168C835.451,191.168 818.095,173.812 818.095,152.435C818.095,131.058 835.451,113.703 856.828,113.703C878.205,113.703 895.56,131.058 895.56,152.435C895.56,173.812 878.205,191.168 856.828,191.168Z" style="fill:rgb(255,234,0);"/>
        </g>
        <g transform="matrix(0.41762,0,0,0.41762,1035.87,669.294)">
            <path d="M813.58,191.168L900.075,191.168C912.902,191.168 923.315,201.581 923.315,214.407L923.315,260.886C923.315,273.712 912.902,284.126 900.075,284.126L895.56,284.126L895.56,357.717C895.56,368.406 886.882,377.083 876.194,377.083L837.461,377.083C826.773,377.083 818.095,368.406 818.095,357.717L818.095,284.126L813.58,284.126C800.754,284.126 790.34,273.712 790.34,260.886L790.34,214.407C790.34,201.581 800.754,191.168 813.58,191.168ZM856.828,191.168C835.451,191.168 818.095,173.812 818.095,152.435C818.095,131.058 835.451,113.703 856.828,113.703C878.205,113.703 895.56,131.058 895.56,152.435C895.56,173.812 878.205,191.168 856.828,191.168Z" style="fill:rgb(255,234,0);"/>
        </g>
        <g transform="matrix(0.41762,0,0,0.41762,1118.55,669.294)">
            <path d="M813.58,191.168L900.075,191.168C912.902,191.168 923.315,201.581 923.315,214.407L923.315,260.886C923.315,273.712 912.902,284.126 900.075,284.126L895.56,284.126L895.56,357.717C895.56,368.406 886.882,377.083 876.194,377.083L837.461,377.083C826.773,377.083 818.095,368.406 818.095,357.717L818.095,284.126L813.58,284.126C800.754,284.126 790.34,273.712 790.34,260.886L790.34,214.407C790.34,201.581 800.754,191.168 813.58,191.168ZM856.828,191.168C835.451,191.168 818.095,173.812 818.095,152.435C818.095,131.058 835.451,113.703 856.828,113.703C878.205,113.703 895.56,131.058 895.56,152.435C895.56,173.812 878.205,191.168 856.828,191.168Z" style="fill:rgb(255,234,0);"/>
        </g>
        <g transform="matrix(0.41762,0,0,0.41762,1201.23,669.294)">
            <path d="M813.58,191.168L900.075,191.168C912.902,191.168 923.315,201.581 923.315,214.407L923.315,260.886C923.315,273.712 912.902,284.126 900.075,284.126L895.56,284.126L895.56,357.717C895.56,368.406 886.882,377.083 876.194,377.083L837.461,377.083C826.773,377.083 818.095,368.406 818.095,357.717L818.095,284.126L813.58,284.126C800.754,284.126 790.34,273.712 790.34,260.886L790.34,214.407C790.34,201.581 800.754,191.168 813.58,191.168ZM856.828,191.168C835.451,191.168 818.095,173.812 818.095,152.435C818.095,131.058 835.451,113.703 856.828,113.703C878.205,113.703 895.56,131.058 895.56,152.435C895.56,173.812 878.205,191.168 856.828,191.168Z" style="fill:rgb(255,234,0);"/>
        </g>
        <g transform="matrix(0.41762,0,0,0.41762,1283.9,669.294)">
            <path d="M813.58,191.168L900.075,191.168C912.902,191.168 923.315,201.581 923.315,214.407L923.315,260.886C923.315,273.712 912.902,284.126 900.075,284.126L895.56,284.126L895.56,357.717C895.56,368.406 886.882,377.083 876.194,377.083L837.461,377.083C826.773,377.083 818.095,368.406 818.095,357.717L818.095,284.126L813.58,284.126C800.754,284.126 790.34,273.712 790.34,260.886L790.34,214.407C790.34,201.581 800.754,191.168 813.58,191.168ZM856.828,191.168C835.451,191.168 818.095,173.812 818.095,152.435C818.095,131.058 835.451,113.703 856.828,113.703C878.205,113.703 895.56,131.058 895.56,152.435C895.56,173.812 878.205,191.168 856.828,191.168Z" style="fill:rgb(255,234,0);"/>
        </g>
        <g transform="matrix(0.41762,0,0,0.41762,539.81,551.184)">
            <path d="M813.58,191.168L900.075,191.168C912.902,191.168 923.315,201.581 923.315,214.407L923.315,260.886C923.315,273.712 912.902,284.126 900.075,284.126L895.56,284.126L895.56,357.717C895.56,368.406 886.882,377.083 876.194,377.083L837.461,377.083C826.773,377.083 818.095,368.406 818.095,357.717L818.095,284.126L813.58,284.126C800.754,284.126 790.34,273.712 790.34,260.886L790.34,214.407C790.34,201.581 800.754,191.168 813.58,191.168ZM856.828,191.168C835.451,191.168 818.095,173.812 818.095,152.435C818.095,131.058 835.451,113.703 856.828,113.703C878.205,113.703 895.56,131.058 895.56,152.435C895.56,173.812 878.205,191.168 856.828,191.168Z" style="fill:rgb(255,234,0);"/>
        </g>
        <g transform="matrix(0.41762,0,0,0.41762,622.487,551.184)">
            <path d="M813.58,191.168L900.075,191.168C912.902,191.168 923.315,201.581 923.315,214.407L923.315,260.886C923.315,273.712 912.902,284.126 900.075,284.126L895.56,284.126L895.56,357.717C895.56,368.406 886.882,377.083 876.194,377.083L837.461,377.083C826.773,377.083 818.095,368.406 818.095,357.717L818.095,284.126L813.58,284.126C800.754,284.126 790.34,273.712 790.34,260.886L790.34,214.407C790.34,201.581 800.754,191.168 813.58,191.168ZM856.828,191.168C835.451,191.168 818.095,173.812 818.095,152.435C818.095,131.058 835.451,113.703 856.828,113.703C878.205,113.703 895.56,131.058 895.56,152.435C895.56,173.812 878.205,191.168 856.828,191.168Z" style="fill:rgb(255,234,0);"/>
        </g>
        <g transform="matrix(0.41762,0,0,0.41762,705.164,433.074)">
            <path d="M813.58,191.168L900.075,191.168C912.902,191.168 923.315,201.581 923.315,214.407L923.315,260.886C923.315,273.712 912.902,284.126 900.075,284.126L895.56,284.126L895.56,357.717C895.56,368.406 886.882,377.083 876.194,377.083L837.461,377.083C826.773,377.083 818.095,368.406 818.095,357.717L818.095,284.126L813.58,284.126C800.754,284.126 790.34,273.712 790.34,260.886L790.34,214.407C790.34,201.581 800.754,191.168 813.58,191.168ZM856.828,191.168C835.451,191.168 818.095,173.812 818.095,152.435C818.095,131.058 835.451,113.703 856.828,113.703C878.205,113.703 895.56,131.058 895.56,152.435C895.56,173.812 878.205,191.168 856.828,191.168Z" style="fill:rgb(255,234,0);"/>
        </g>
        <g transform="matrix(0.41762,0,0,0.41762,705.164,551.184)">
            <path d="M813.58,191.168L900.075,191.168C912.902,191.168 923.315,201.581 923.315,214.407L923.315,260.886C923.315,273.712 912.902,284.126 900.075,284.126L895.56,284.126L895.56,357.717C895.56,368.406 886.882,377.083 876.194,377.083L837.461,377.083C826.773,377.083 818.095,368.406 818.095,357.717L818.095,284.126L813.58,284.126C800.754,284.126 790.34,273.712 790.34,260.886L790.34,214.407C790.34,201.581 800.754,191.168 813.58,191.168ZM856.828,191.168C835.451,191.168 818.095,173.812 818.095,152.435C818.095,131.058 835.451,113.703 856.828,113.703C878.205,113.703 895.56,131.058 895.56,152.435C895.56,173.812 878.205,191.168 856.828,191.168Z" style="fill:rgb(255,234,0);"/>
        </g>
        <g transform="matrix(0.41762,0,0,0.41762,787.841,433.074)">
            <path d="M813.58,191.168L900.075,191.168C912.902,191.168 923.315,201.581 923.315,214.407L923.315,260.886C923.315,273.712 912.902,284.126 900.075,284.126L895.56,284.126L895.56,357.717C895.56,368.406 886.882,377.083 876.194,377.083L837.461,377.083C826.773,377.083 818.095,368.406 818.095,357.717L818.095,284.126L813.58,284.126C800.754,284.126 790.34,273.712 790.34,260.886L790.34,214.407C790.34,201.581 800.754,191.168 813.58,191.168ZM856.828,191.168C835.451,191.168 818.095,173.812 818.095,152.435C818.095,131.058 835.451,113.703 856.828,113.703C878.205,113.703 895.56,131.058 895.56,152.435C895.56,173.812 878.205,191.168 856.828,191.168Z" style="fill:rgb(255,234,0);"/>
        </g>
        <g transform="matrix(0.41762,0,0,0.41762,787.841,551.184)">
            <path d="M813.58,191.168L900.075,191.168C912.902,191.168 923.315,201.581 923.315,214.407L923.315,260.886C923.315,273.712 912.902,284.126 900.075,284.126L895.56,284.126L895.56,357.717C895.56,368.406 886.882,377.083 876.194,377.083L837.461,377.083C826.773,377.083 818.095,368.406 818.095,357.717L818.095,284.126L813.58,284.126C800.754,284.126 790.34,273.712 790.34,260.886L790.34,214.407C790.34,201.581 800.754,191.168 813.58,191.168ZM856.828,191.168C835.451,191.168 818.095,173.812 818.095,152.435C818.095,131.058 835.451,113.703 856.828,113.703C878.205,113.703 895.56,131.058 895.56,152.435C895.56,173.812 878.205,191.168 856.828,191.168Z" style="fill:rgb(255,234,0);"/>
        </g>
        <g transform="matrix(0.41762,0,0,0.41762,870.518,551.184)">
            <path d="M813.58,191.168L900.075,191.168C912.902,191.168 923.315,201.581 923.315,214.407L923.315,260.886C923.315,273.712 912.902,284.126 900.075,284.126L895.56,284.126L895.56,357.717C895.56,368.406 886.882,377.083 876.194,377.083L837.461,377.083C826.773,377.083 818.095,368.406 818.095,357.717L818.095,284.126L813.58,284.126C800.754,284.126 790.34,273.712 790.34,260.886L790.34,214.407C790.34,201.581 800.754,191.168 813.58,191.168ZM856.828,191.168C835.451,191.168 818.095,173.812 818.095,152.435C818.095,131.058 835.451,113.703 856.828,113.703C878.205,113.703 895.56,131.058 895.56,152.435C895.56,173.812 878.205,191.168 856.828,191.168Z" style="fill:rgb(255,234,0);"/>
        </g>
        <g transform="matrix(0.41762,0,0,0.41762,953.196,551.184)">
            <path d="M813.58,191.168L900.075,191.168C912.902,191.168 923.315,201.581 923.315,214.407L923.315,260.886C923.315,273.712 912.902,284.126 900.075,284.126L895.56,284.126L895.56,357.717C895.56,368.406 886.882,377.083 876.194,377.083L837.461,377.083C826.773,377.083 818.095,368.406 818.095,357.717L818.095,284.126L813.58,284.126C800.754,284.126 790.34,273.712 790.34,260.886L790.34,214.407C790.34,201.581 800.754,191.168 813.58,191.168ZM856.828,191.168C835.451,191.168 818.095,173.812 818.095,152.435C818.095,131.058 835.451,113.703 856.828,113.703C878.205,113.703 895.56,131.058 895.56,152.435C895.56,173.812 878.205,191.168 856.828,191.168Z" style="fill:rgb(255,234,0);"/>
        </g>
        <g transform="matrix(0.41762,0,0,0.41762,1118.55,787.405)">
            <path d="M813.58,191.168L900.075,191.168C912.902,191.168 923.315,201.581 923.315,214.407L923.315,260.886C923.315,273.712 912.902,284.126 900.075,284.126L895.56,284.126L895.56,357.717C895.56,368.406 886.882,377.083 876.194,377.083L837.461,377.083C826.773,377.083 818.095,368.406 818.095,357.717L818.095,284.126L813.58,284.126C800.754,284.126 790.34,273.712 790.34,260.886L790.34,214.407C790.34,201.581 800.754,191.168 813.58,191.168ZM856.828,191.168C835.451,191.168 818.095,173.812 818.095,152.435C818.095,131.058 835.451,113.703 856.828,113.703C878.205,113.703 895.56,131.058 895.56,152.435C895.56,173.812 878.205,191.168 856.828,191.168Z" style="fill:rgb(255,234,0);"/>
        </g>
        <g transform="matrix(0.41762,0,0,0.41762,1201.23,787.405)">
            <path d="M813.58,191.168L900.075,191.168C912.902,191.168 923.315,201.581 923.315,214.407L923.315,260.886C923.315,273.712 912.902,284.126 900.075,284.126L895.56,284.126L895.56,357.717C895.56,368.406 886.882,377.083 876.194,377.083L837.461,377.083C826.773,377.083 818.095,368.406 818.095,357.717L818.095,284.126L813.58,284.126C800.754,284.126 790.34,273.712 790.34,260.886L790.34,214.407C790.34,201.581 800.754,191.168 813.58,191.168ZM856.828,191.168C835.451,191.168 818.095,173.812 818.095,152.435C818.095,131.058 835.451,113.703 856.828,113.703C878.205,113.703 895.56,131.058 895.56,152.435C895.56,173.812 878.205,191.168 856.828,191.168Z" style="fill:rgb(255,234,0);"/>
        </g>
        <g transform="matrix(0.41762,0,0,0.41762,1283.9,787.405)">
            <path d="M813.58,191.168L900.075,191.168C912.902,191.168 923.315,201.581 923.315,214.407L923.315,260.886C923.315,273.712 912.902,284.126 900.075,284.126L895.56,284.126L895.56,357.717C895.56,368.406 886.882,377.083 876.194,377.083L837.461,377.083C826.773,377.083 818.095,368.406 818.095,357.717L818.095,284.126L813.58,284.126C800.754,284.126 790.34,273.712 790.34,260.886L790.34,214.407C790.34,201.581 800.754,191.168 813.58,191.168ZM856.828,191.168C835.451,191.168 818.095,173.812 818.095,152.435C818.095,131.058 835.451,113.703 856.828,113.703C878.205,113.703 895.56,131.058 895.56,152.435C895.56,173.812 878.205,191.168 856.828,191.168Z" style="fill:rgb(255,234,0);"/>
        </g>
        <g transform="matrix(0.41762,0,0,0.41762,1366.58,787.405)">
            <path d="M813.58,191.168L900.075,191.168C912.902,191.168 923.315,201.581 923.315,214.407L923.315,260.886C923.315,273.712 912.902,284.126 900.075,284.126L895.56,284.126L895.56,357.717C895.56,368.406 886.882,377.083 876.194,377.083L837.461,377.083C826.773,377.083 818.095,368.406 818.095,357.717L818.095,284.126L813.58,284.126C800.754,284.126 790.34,273.712 790.34,260.886L790.34,214.407C790.34,201.581 800.754,191.168 813.58,191.168ZM856.828,191.168C835.451,191.168 818.095,173.812 818.095,152.435C818.095,131.058 835.451,113.703 856.828,113.703C878.205,113.703 895.56,131.058 895.56,152.435C895.56,173.812 878.205,191.168 856.828,191.168Z" style="fill:rgb(255,234,0);"/>
        </g>
    </g>
    <g id="Rush" transform="matrix(1,0,0,1,0,590.551)">
        <g transform="matrix(0.41762,0,0,0.41762,43.7468,551.184)">
            <path d="M813.58,191.168L900.075,191.168C912.902,191.168 923.315,201.581 923.315,214.407L923.315,260.886C923.315,273.712 912.902,284.126 900.075,284.126L895.56,284.126L895.56,357.717C895.56,368.406 886.882,377.083 876.194,377.083L837.461,377.083C826.773,377.083 818.095,368.406 818.095,357.717L818.095,284.126L813.58,284.126C800.754,284.126 790.34,273.712 790.34,260.886L790.34,214.407C790.34,201.581 800.754,191.168 813.58,191.168ZM856.828,191.168C835.451,191.168 818.095,173.812 818.095,152.435C818.095,131.058 835.451,113.703 856.828,113.703C878.205,113.703 895.56,131.058 895.56,152.435C895.56,173.812 878.205,191.168 856.828,191.168Z" style="fill:rgb(220,70,3);"/>
        </g>
        <g transform="matrix(0.41762,0,0,0.41762,126.424,433.074)">
            <path d="M813.58,191.168L900.075,191.168C912.902,191.168 923.315,201.581 923.315,214.407L923.315,260.886C923.315,273.712 912.902,284.126 900.075,284.126L895.56,284.126L895.56,357.717C895.56,368.406 886.882,377.083 876.194,377.083L837.461,377.083C826.773,377.083 818.095,368.406 818.095,357.717L818.095,284.126L813.58,284.126C800.754,284.126 790.34,273.712 790.34,260.886L790.34,214.407C790.34,201.581 800.754,191.168 813.58,191.168ZM856.828,191.168C835.451,191.168 818.095,173.812 818.095,152.435C818.095,131.058 835.451,113.703 856.828,113.703C878.205,113.703 895.56,131.058 895.56,152.435C895.56,173.812 878.205,191.168 856.828,191.168Z" style="fill:rgb(220,70,3);"/>
        </g>
        <g transform="matrix(0.41762,0,0,0.41762,126.424,551.184)">
            <path d="M813.58,191.168L900.075,191.168C912.902,191.168 923.315,201.581 923.315,214.407L923.315,260.886C923.315,273.712 912.902,284.126 900.075,284.126L895.56,284.126L895.56,357.717C895.56,368.406 886.882,377.083 876.194,377.083L837.461,377.083C826.773,377.083 818.095,368.406 818.095,357.717L818.095,284.126L813.58,284.126C800.754,284.126 790.34,273.712 790.34,260.886L790.34,214.407C790.34,201.581 800.754,191.168 813.58,191.168ZM856.828,191.168C835.451,191.168 818.095,173.812 818.095,152.435C818.095,131.058 835.451,113.703 856.828,113.703C878.205,113.703 895.56,131.058 895.56,152.435C895.56,173.812 878.205,191.168 856.828,191.168Z" style="fill:rgb(220,70,3);"/>
        </g>
        <g transform="matrix(0.41762,0,0,0.41762,457.133,551.184)">
            <path d="M813.58,191.168L900.075,191.168C912.902,191.168 923.315,201.581 923.315,214.407L923.315,260.886C923.315,273.712 912.902,284.126 900.075,284.126L895.56,284.126L895.56,357.717C895.56,368.406 886.882,377.083 876.194,377.083L837.461,377.083C826.773,377.083 818.095,368.406 818.095,357.717L818.095,284.126L813.58,284.126C800.754,284.126 790.34,273.712 790.34,260.886L790.34,214.407C790.34,201.581 800.754,191.168 813.58,191.168ZM856.828,191.168C835.451,191.168 818.095,173.812 818.095,152.435C818.095,131.058 835.451,113.703 856.828,113.703C878.205,113.703 895.56,131.058 895.56,152.435C895.56,173.812 878.205,191.168 856.828,191.168Z" style="fill:rgb(220,70,3);"/>
        </g>
        <g transform="matrix(0.41762,0,0,0.41762,209.101,78.7431)">
            <path d="M813.58,191.168L900.075,191.168C912.902,191.168 923.315,201.581 923.315,214.407L923.315,260.886C923.315,273.712 912.902,284.126 900.075,284.126L895.56,284.126L895.56,357.717C895.56,368.406 886.882,377.083 876.194,377.083L837.461,377.083C826.773,377.083 818.095,368.406 818.095,357.717L818.095,284.126L813.58,284.126C800.754,284.126 790.34,273.712 790.34,260.886L790.34,214.407C790.34,201.581 800.754,191.168 813.58,191.168ZM856.828,191.168C835.451,191.168 818.095,173.812 818.095,152.435C818.095,131.058 835.451,113.703 856.828,113.703C878.205,113.703 895.56,131.058 895.56,152.435C895.56,173.812 878.205,191.168 856.828,191.168Z" style="fill:rgb(220,70,3);"/>
        </g>
        <g transform="matrix(0.41762,0,0,0.41762,209.101,196.853)">
            <path d="M813.58,191.168L900.075,191.168C912.902,191.168 923.315,201.581 923.315,214.407L923.315,260.886C923.315,273.712 912.902,284.126 900.075,284.126L895.56,284.126L895.56,357.717C895.56,368.406 886.882,377.083 876.194,377.083L837.461,377.083C826.773,377.083 818.095,368.406 818.095,357.717L818.095,284.126L813.58,284.126C800.754,284.126 790.34,273.712 790.34,260.886L790.34,214.407C790.34,201.581 800.754,191.168 813.58,191.168ZM856.828,191.168C835.451,191.168 818.095,173.812 818.095,152.435C818.095,131.058 835.451,113.703 856.828,113.703C878.205,113.703 895.56,131.058 895.56,152.435C895.56,173.812 878.205,191.168 856.828,191.168Z" style="fill:rgb(220,70,3);"/>
        </g>
        <g transform="matrix(0.41762,0,0,0.41762,209.101,314.964)">
            <path d="M813.58,191.168L900.075,191.168C912.902,191.168 923.315,201.581 923.315,214.407L923.315,260.886C923.315,273.712 912.902,284.126 900.075,284.126L895.56,284.126L895.56,357.717C895.56,368.406 886.882,377.083 876.194,377.083L837.461,377.083C826.773,377.083 818.095,368.406 818.095,357.717L818.095,284.126L813.58,284.126C800.754,284.126 790.34,273.712 790.34,260.886L790.34,214.407C790.34,201.581 800.754,191.168 813.58,191.168ZM856.828,191.168C835.451,191.168 818.095,173.812 818.095,152.435C818.095,131.058 835.451,113.703 856.828,113.703C878.205,113.703 895.56,131.058 895.56,152.435C895.56,173.812 878.205,191.168 856.828,191.168Z" style="fill:rgb(220,70,3);"/>
        </g>
        <g transform="matrix(0.41762,0,0,0.41762,209.101,433.074)">
            <path d="M813.58,191.168L900.075,191.168C912.902,191.168 923.315,201.581 923.315,214.407L923.315,260.886C923.315,273.712 912.902,284.126 900.075,284.126L895.56,284.126L895.56,357.717C895.56,368.406 886.882,377.083 876.194,377.083L837.461,377.083C826.773,377.083 818.095,368.406 818.095,357.717L818.095,284.126L813.58,284.126C800.754,284.126 790.34,273.712 790.34,260.886L790.34,214.407C790.34,201.581 800.754,191.168 813.58,191.168ZM856.828,191.168C835.451,191.168 818.095,173.812 818.095,152.435C818.095,131.058 835.451,113.703 856.828,113.703C878.205,113.703 895.56,131.058 895.56,152.435C895.56,173.812 878.205,191.168 856.828,191.168Z" style="fill:rgb(220,70,3);"/>
        </g>
        <g transform="matrix(0.41762,0,0,0.41762,209.101,551.184)">
            <path d="M813.58,191.168L900.075,191.168C912.902,191.168 923.315,201.581 923.315,214.407L923.315,260.886C923.315,273.712 912.902,284.126 900.075,284.126L895.56,284.126L895.56,357.717C895.56,368.406 886.882,377.083 876.194,377.083L837.461,377.083C826.773,377.083 818.095,368.406 818.095,357.717L818.095,284.126L813.58,284.126C800.754,284.126 790.34,273.712 790.34,260.886L790.34,214.407C790.34,201.581 800.754,191.168 813.58,191.168ZM856.828,191.168C835.451,191.168 818.095,173.812 818.095,152.435C818.095,131.058 835.451,113.703 856.828,113.703C878.205,113.703 895.56,131.058 895.56,152.435C895.56,173.812 878.205,191.168 856.828,191.168Z" style="fill:rgb(220,70,3);"/>
        </g>
        <g transform="matrix(0.41762,0,0,0.41762,291.778,78.7431)">
            <path d="M813.58,191.168L900.075,191.168C912.902,191.168 923.315,201.581 923.315,214.407L923.315,260.886C923.315,273.712 912.902,284.126 900.075,284.126L895.56,284.126L895.56,357.717C895.56,368.406 886.882,377.083 876.194,377.083L837.461,377.083C826.773,377.083 818.095,368.406 818.095,357.717L818.095,284.126L813.58,284.126C800.754,284.126 790.34,273.712 790.34,260.886L790.34,214.407C790.34,201.581 800.754,191.168 813.58,191.168ZM856.828,191.168C835.451,191.168 818.095,173.812 818.095,152.435C818.095,131.058 835.451,113.703 856.828,113.703C878.205,113.703 895.56,131.058 895.56,152.435C895.56,173.812 878.205,191.168 856.828,191.168Z" style="fill:rgb(220,70,3);"/>
        </g>
        <g transform="matrix(0.41762,0,0,0.41762,291.778,196.853)">
            <path d="M813.58,191.168L900.075,191.168C912.902,191.168 923.315,201.581 923.315,214.407L923.315,260.886C923.315,273.712 912.902,284.126 900.075,284.126L895.56,284.126L895.56,357.717C895.56,368.406 886.882,377.083 876.194,377.083L837.461,377.083C826.773,377.083 818.095,368.406 818.095,357.717L818.095,284.126L813.58,284.126C800.754,284.126 790.34,273.712 790.34,260.886L790.34,214.407C790.34,201.581 800.754,191.168 813.58,191.168ZM856.828,191.168C835.451,191.168 818.095,173.812 818.095,152.435C818.095,131.058 835.451,113.703 856.828,113.703C878.205,113.703 895.56,131.058 895.56,152.435C895.56,173.812 878.205,191.168 856.828,191.168Z" style="fill:rgb(220,70,3);"/>
        </g>
        <g transform="matrix(0.41762,0,0,0.41762,291.778,314.964)">
            <path d="M813.58,191.168L900.075,191.168C912.902,191.168 923.315,201.581 923.315,214.407L923.315,260.886C923.315,273.712 912.902,284.126 900.075,284.126L895.56,284.126L895.56,357.717C895.56,368.406 886.882,377.083 876.194,377.083L837.461,377.083C826.773,377.083 818.095,368.406 818.095,357.717L818.095,284.126L813.58,284.126C800.754,284.126 790.34,273.712 790.34,260.886L790.34,214.407C790.34,201.581 800.754,191.168 813.58,191.168ZM856.828,191.168C835.451,191.168 818.095,173.812 818.095,152.435C818.095,131.058 835.451,113.703 856.828,113.703C878.205,113.703 895.56,131.058 895.56,152.435C895.56,173.812 878.205,191.168 856.828,191.168Z" style="fill:rgb(220,70,3);"/>
        </g>
        <g transform="matrix(0.41762,0,0,0.41762,291.778,433.074)">
            <path d="M813.58,191.168L900.075,191.168C912.902,191.168 923.315,201.581 923.315,214.407L923.315,260.886C923.315,273.712 912.902,284.126 900.075,284.126L895.56,284.126L895.56,357.717C895.56,368.406 886.882,377.083 876.194,377.083L837.461,377.083C826.773,377.083 818.095,368.406 818.095,357.717L818.095,284.126L813.58,284.126C800.754,284.126 790.34,273.712 790.34,260.886L790.34,214.407C790.34,201.581 800.754,191.168 813.58,191.168ZM856.828,191.168C835.451,191.168 818.095,173.812 818.095,152.435C818.095,131.058 835.451,113.703 856.828,113.703C878.205,113.703 895.56,131.058 895.56,152.435C895.56,173.812 878.205,191.168 856.828,191.168Z" style="fill:rgb(220,70,3);"/>
        </g>
        <g transform="matrix(0.41762,0,0,0.41762,291.778,551.184)">
            <path d="M813.58,191.168L900.075,191.168C912.902,191.168 923.315,201.581 923.315,214.407L923.315,260.886C923.315,273.712 912.902,284.126 900.075,284.126L895.56,284.126L895.56,357.717C895.56,368.406 886.882,377.083 876.194,377.083L837.461,377.083C826.773,377.083 818.095,368.406 818.095,357.717L818.095,284.126L813.58,284.126C800.754,284.126 790.34,273.712 790.34,260.886L790.34,214.407C790.34,201.581 800.754,191.168 813.58,191.168ZM856.828,191.168C835.451,191.168 818.095,173.812 818.095,152.435C818.095,131.058 835.451,113.703 856.828,113.703C878.205,113.703 895.56,131.058 895.56,152.435C895.56,173.812 878.205,191.168 856.828,191.168Z" style="fill:rgb(220,70,3);"/>
        </g>
        <g transform="matrix(0.41762,0,0,0.41762,374.455,314.964)">
            <path d="M813.58,191.168L900.075,191.168C912.902,191.168 923.315,201.581 923.315,214.407L923.315,260.886C923.315,273.712 912.902,284.126 900.075,284.126L895.56,284.126L895.56,357.717C895.56,368.406 886.882,377.083 876.194,377.083L837.461,377.083C826.773,377.083 818.095,368.406 818.095,357.717L818.095,284.126L813.58,284.126C800.754,284.126 790.34,273.712 790.34,260.886L790.34,214.407C790.34,201.581 800.754,191.168 813.58,191.168ZM856.828,191.168C835.451,191.168 818.095,173.812 818.095,152.435C818.095,131.058 835.451,113.703 856.828,113.703C878.205,113.703 895.56,131.058 895.56,152.435C895.56,173.812 878.205,191.168 856.828,191.168Z" style="fill:rgb(220,70,3);"/>
        </g>
        <g transform="matrix(0.41762,0,0,0.41762,374.455,433.074)">
            <path d="M813.58,191.168L900.075,191.168C912.902,191.168 923.315,201.581 923.315,214.407L923.315,260.886C923.315,273.712 912.902,284.126 900.075,284.126L895.56,284.126L895.56,357.717C895.56,368.406 886.882,377.083 876.194,377.083L837.461,377.083C826.773,377.083 818.095,368.406 818.095,357.717L818.095,284.126L813.58,284.126C800.754,284.126 790.34,273.712 790.34,260.886L790.34,214.407C790.34,201.581 800.754,191.168 813.58,191.168ZM856.828,191.168C835.451,191.168 818.095,173.812 818.095,152.435C818.095,131.058 835.451,113.703 856.828,113.703C878.205,113.703 895.56,131.058 895.56,152.435C895.56,173.812 878.205,191.168 856.828,191.168Z" style="fill:rgb(220,70,3);"/>
        </g>
        <g transform="matrix(0.41762,0,0,0.41762,374.455,551.184)">
            <path d="M813.58,191.168L900.075,191.168C912.902,191.168 923.315,201.581 923.315,214.407L923.315,260.886C923.315,273.712 912.902,284.126 900.075,284.126L895.56,284.126L895.56,357.717C895.56,368.406 886.882,377.083 876.194,377.083L837.461,377.083C826.773,377.083 818.095,368.406 818.095,357.717L818.095,284.126L813.58,284.126C800.754,284.126 790.34,273.712 790.34,260.886L790.34,214.407C790.34,201.581 800.754,191.168 813.58,191.168ZM856.828,191.168C835.451,191.168 818.095,173.812 818.095,152.435C818.095,131.058 835.451,113.703 856.828,113.703C878.205,113.703 895.56,131.058 895.56,152.435C895.56,173.812 878.205,191.168 856.828,191.168Z" style="fill:rgb(220,70,3);"/>
        </g>
        <g transform="matrix(0.41762,0,0,0.41762,457.133,433.074)">
            <path d="M813.58,191.168L900.075,191.168C912.902,191.168 923.315,201.581 923.315,214.407L923.315,260.886C923.315,273.712 912.902,284.126 900.075,284.126L895.56,284.126L895.56,357.717C895.56,368.406 886.882,377.083 876.194,377.083L837.461,377.083C826.773,377.083 818.095,368.406 818.095,357.717L818.095,284.126L813.58,284.126C800.754,284.126 790.34,273.712 790.34,260.886L790.34,214.407C790.34,201.581 800.754,191.168 813.58,191.168ZM856.828,191.168C835.451,191.168 818.095,173.812 818.095,152.435C818.095,131.058 835.451,113.703 856.828,113.703C878.205,113.703 895.56,131.058 895.56,152.435C895.56,173.812 878.205,191.168 856.828,191.168Z" style="fill:rgb(220,70,3);"/>
        </g>
        <g transform="matrix(0.41762,0,0,0.41762,539.81,433.074)">
            <path d="M813.58,191.168L900.075,191.168C912.902,191.168 923.315,201.581 923.315,214.407L923.315,260.886C923.315,273.712 912.902,284.126 900.075,284.126L895.56,284.126L895.56,357.717C895.56,368.406 886.882,377.083 876.194,377.083L837.461,377.083C826.773,377.083 818.095,368.406 818.095,357.717L818.095,284.126L813.58,284.126C800.754,284.126 790.34,273.712 790.34,260.886L790.34,214.407C790.34,201.581 800.754,191.168 813.58,191.168ZM856.828,191.168C835.451,191.168 818.095,173.812 818.095,152.435C818.095,131.058 835.451,113.703 856.828,113.703C878.205,113.703 895.56,131.058 895.56,152.435C895.56,173.812 878.205,191.168 856.828,191.168Z" style="fill:rgb(220,70,3);"/>
        </g>
        <g transform="matrix(0.41762,0,0,0.41762,953.196,433.074)">
            <path d="M813.58,191.168L900.075,191.168C912.902,191.168 923.315,201.581 923.315,214.407L923.315,260.886C923.315,273.712 912.902,284.126 900.075,284.126L895.56,284.126L895.56,357.717C895.56,368.406 886.882,377.083 876.194,377.083L837.461,377.083C826.773,377.083 818.095,368.406 818.095,357.717L818.095,284.126L813.58,284.126C800.754,284.126 790.34,273.712 790.34,260.886L790.34,214.407C790.34,201.581 800.754,191.168 813.58,191.168ZM856.828,191.168C835.451,191.168 818.095,173.812 818.095,152.435C818.095,131.058 835.451,113.703 856.828,113.703C878.205,113.703 895.56,131.058 895.56,152.435C895.56,173.812 878.205,191.168 856.828,191.168Z" style="fill:rgb(220,70,3);"/>
        </g>
        <g transform="matrix(0.41762,0,0,0.41762,1035.87,314.964)">
            <path d="M813.58,191.168L900.075,191.168C912.902,191.168 923.315,201.581 923.315,214.407L923.315,260.886C923.315,273.712 912.902,284.126 900.075,284.126L895.56,284.126L895.56,357.717C895.56,368.406 886.882,377.083 876.194,377.083L837.461,377.083C826.773,377.083 818.095,368.406 818.095,357.717L818.095,284.126L813.58,284.126C800.754,284.126 790.34,273.712 790.34,260.886L790.34,214.407C790.34,201.581 800.754,191.168 813.58,191.168ZM856.828,191.168C835.451,191.168 818.095,173.812 818.095,152.435C818.095,131.058 835.451,113.703 856.828,113.703C878.205,113.703 895.56,131.058 895.56,152.435C895.56,173.812 878.205,191.168 856.828,191.168Z" style="fill:rgb(220,70,3);"/>
        </g>
        <g transform="matrix(0.41762,0,0,0.41762,1035.87,433.074)">
            <path d="M813.58,191.168L900.075,191.168C912.902,191.168 923.315,201.581 923.315,214.407L923.315,260.886C923.315,273.712 912.902,284.126 900.075,284.126L895.56,284.126L895.56,357.717C895.56,368.406 886.882,377.083 876.194,377.083L837.461,377.083C826.773,377.083 818.095,368.406 818.095,357.717L818.095,284.126L813.58,284.126C800.754,284.126 790.34,273.712 790.34,260.886L790.34,214.407C790.34,201.581 800.754,191.168 813.58,191.168ZM856.828,191.168C835.451,191.168 818.095,173.812 818.095,152.435C818.095,131.058 835.451,113.703 856.828,113.703C878.205,113.703 895.56,131.058 895.56,152.435C895.56,173.812 878.205,191.168 856.828,191.168Z" style="fill:rgb(220,70,3);"/>
        </g>
        <g transform="matrix(0.41762,0,0,0.41762,1035.87,551.184)">
            <path d="M813.58,191.168L900.075,191.168C912.902,191.168 923.315,201.581 923.315,214.407L923.315,260.886C923.315,273.712 912.902,284.126 900.075,284.126L895.56,284.126L895.56,357.717C895.56,368.406 886.882,377.083 876.194,377.083L837.461,377.083C826.773,377.083 818.095,368.406 818.095,357.717L818.095,284.126L813.58,284.126C800.754,284.126 790.34,273.712 790.34,260.886L790.34,214.407C790.34,201.581 800.754,191.168 813.58,191.168ZM856.828,191.168C835.451,191.168 818.095,173.812 818.095,152.435C818.095,131.058 835.451,113.703 856.828,113.703C878.205,113.703 895.56,131.058 895.56,152.435C895.56,173.812 878.205,191.168 856.828,191.168Z" style="fill:rgb(220,70,3);"/>
        </g>
        <g transform="matrix(0.41762,0,0,0.41762,1118.55,78.7431)">
            <path d="M813.58,191.168L900.075,191.168C912.902,191.168 923.315,201.581 923.315,214.407L923.315,260.886C923.315,273.712 912.902,284.126 900.075,284.126L895.56,284.126L895.56,357.717C895.56,368.406 886.882,377.083 876.194,377.083L837.461,377.083C826.773,377.083 818.095,368.406 818.095,357.717L818.095,284.126L813.58,284.126C800.754,284.126 790.34,273.712 790.34,260.886L790.34,214.407C790.34,201.581 800.754,191.168 813.58,191.168ZM856.828,191.168C835.451,191.168 818.095,173.812 818.095,152.435C818.095,131.058 835.451,113.703 856.828,113.703C878.205,113.703 895.56,131.058 895.56,152.435C895.56,173.812 878.205,191.168 856.828,191.168Z" style="fill:rgb(220,70,3);"/>
        </g>
        <g transform="matrix(0.41762,0,0,0.41762,1118.55,196.853)">
            <path d="M813.58,191.168L900.075,191.168C912.902,191.168 923.315,201.581 923.315,214.407L923.315,260.886C923.315,273.712 912.902,284.126 900.075,284.126L895.56,284.126L895.56,357.717C895.56,368.406 886.882,377.083 876.194,377.083L837.461,377.083C826.773,377.083 818.095,368.406 818.095,357.717L818.095,284.126L813.58,284.126C800.754,284.126 790.34,273.712 790.34,260.886L790.34,214.407C790.34,201.581 800.754,191.168 813.58,191.168ZM856.828,191.168C835.451,191.168 818.095,173.812 818.095,152.435C818.095,131.058 835.451,113.703 856.828,113.703C878.205,113.703 895.56,131.058 895.56,152.435C895.56,173.812 878.205,191.168 856.828,191.168Z" style="fill:rgb(220,70,3);"/>
        </g>
        <g transform="matrix(0.41762,0,0,0.41762,1118.55,314.964)">
            <path d="M813.58,191.168L900.075,191.168C912.902,191.168 923.315,201.581 923.315,214.407L923.315,260.886C923.315,273.712 912.902,284.126 900.075,284.126L895.56,284.126L895.56,357.717C895.56,368.406 886.882,377.083 876.194,377.083L837.461,377.083C826.773,377.083 818.095,368.406 818.095,357.717L818.095,284.126L813.58,284.126C800.754,284.126 790.34,273.712 790.34,260.886L790.34,214.407C790.34,201.581 800.754,191.168 813.58,191.168ZM856.828,191.168C835.451,191.168 818.095,173.812 818.095,152.435C818.095,131.058 835.451,113.703 856.828,113.703C878.205,113.703 895.56,131.058 895.56,152.435C895.56,173.812 878.205,191.168 856.828,191.168Z" style="fill:rgb(220,70,3);"/>
        </g>
        <g transform="matrix(0.41762,0,0,0.41762,1118.55,433.074)">
            <path d="M813.58,191.168L900.075,191.168C912.902,191.168 923.315,201.581 923.315,214.407L923.315,260.886C923.315,273.712 912.902,284.126 900.075,284.126L895.56,284.126L895.56,357.717C895.56,368.406 886.882,377.083 876.194,377.083L837.461,377.083C826.773,377.083 818.095,368.406 818.095,357.717L818.095,284.126L813.58,284.126C800.754,284.126 790.34,273.712 790.34,260.886L790.34,214.407C790.34,201.581 800.754,191.168 813.58,191.168ZM856.828,191.168C835.451,191.168 818.095,173.812 818.095,152.435C818.095,131.058 835.451,113.703 856.828,113.703C878.205,113.703 895.56,131.058 895.56,152.435C895.56,173.812 878.205,191.168 856.828,191.168Z" style="fill:rgb(220,70,3);"/>
        </g>
        <g transform="matrix(0.41762,0,0,0.41762,1118.55,551.184)">
            <path d="M813.58,191.168L900.075,191.168C912.902,191.168 923.315,201.581 923.315,214.407L923.315,260.886C923.315,273.712 912.902,284.126 900.075,284.126L895.56,284.126L895.56,357.717C895.56,368.406 886.882,377.083 876.194,377.083L837.461,377.083C826.773,377.083 818.095,368.406 818.095,357.717L818.095,284.126L813.58,284.126C800.754,284.126 790.34,273.712 790.34,260.886L790.34,214.407C790.34,201.581 800.754,191.168 813.58,191.168ZM856.828,191.168C835.451,191.168 818.095,173.812 818.095,152.435C818.095,131.058 835.451,113.703 856.828,113.703C878.205,113.703 895.56,131.058 895.56,152.435C895.56,173.812 878.205,191.168 856.828,191.168Z" style="fill:rgb(220,70,3);"/>
        </g>
        <g transform="matrix(0.41762,0,0,0.41762,1201.23,78.7431)">
            <path d="M813.58,191.168L900.075,191.168C912.902,191.168 923.315,201.581 923.315,214.407L923.315,260.886C923.315,273.712 912.902,284.126 900.075,284.126L895.56,284.126L895.56,357.717C895.56,368.406 886.882,377.083 876.194,377.083L837.461,377.083C826.773,377.083 818.095,368.406 818.095,357.717L818.095,284.126L813.58,284.126C800.754,284.126 790.34,273.712 790.34,260.886L790.34,214.407C790.34,201.581 800.754,191.168 813.58,191.168ZM856.828,191.168C835.451,191.168 818.095,173.812 818.095,152.435C818.095,131.058 835.451,113.703 856.828,113.703C878.205,113.703 895.56,131.058 895.56,152.435C895.56,173.812 878.205,191.168 856.828,191.168Z" style="fill:rgb(220,70,3);"/>
        </g>
        <g transform="matrix(0.41762,0,0,0.41762,1201.23,196.853)">
            <path d="M813.58,191.168L900.075,191.168C912.902,191.168 923.315,201.581 923.315,214.407L923.315,260.886C923.315,273.712 912.902,284.126 900.075,284.126L895.56,284.126L895.56,357.717C895.56,368.406 886.882,377.083 876.194,377.083L837.461,377.083C826.773,377.083 818.095,368.406 818.095,357.717L818.095,284.126L813.58,284.126C800.754,284.126 790.34,273.712 790.34,260.886L790.34,214.407C790.34,201.581 800.754,191.168 813.58,191.168ZM856.828,191.168C835.451,191.168 818.095,173.812 818.095,152.435C818.095,131.058 835.451,113.703 856.828,113.703C878.205,113.703 895.56,131.058 895.56,152.435C895.56,173.812 878.205,191.168 856.828,191.168Z" style="fill:rgb(220,70,3);"/>
        </g>
        <g transform="matrix(0.41762,0,0,0.41762,1201.23,314.964)">
            <path d="M813.58,191.168L900.075,191.168C912.902,191.168 923.315,201.581 923.315,214.407L923.315,260.886C923.315,273.712 912.902,284.126 900.075,284.126L895.56,284.126L895.56,357.717C895.56,368.406 886.882,377.083 876.194,377.083L837.461,377.083C826.773,377.083 818.095,368.406 818.095,357.717L818.095,284.126L813.58,284.126C800.754,284.126 790.34,273.712 790.34,260.886L790.34,214.407C790.34,201.581 800.754,191.168 813.58,191.168ZM856.828,191.168C835.451,191.168 818.095,173.812 818.095,152.435C818.095,131.058 835.451,113.703 856.828,113.703C878.205,113.703 895.56,131.058 895.56,152.435C895.56,173.812 878.205,191.168 856.828,191.168Z" style="fill:rgb(220,70,3);"/>
        </g>
        <g transform="matrix(0.41762,0,0,0.41762,1201.23,433.074)">
            <path d="M813.58,191.168L900.075,191.168C912.902,191.168 923.315,201.581 923.315,214.407L923.315,260.886C923.315,273.712 912.902,284.126 900.075,284.126L895.56,284.126L895.56,357.717C895.56,368.406 886.882,377.083 876.194,377.083L837.461,377.083C826.773,377.083 818.095,368.406 818.095,357.717L818.095,284.126L813.58,284.126C800.754,284.126 790.34,273.712 790.34,260.886L790.34,214.407C790.34,201.581 800.754,191.168 813.58,191.168ZM856.828,191.168C835.451,191.168 818.095,173.812 818.095,152.435C818.095,131.058 835.451,113.703 856.828,113.703C878.205,113.703 895.56,131.058 895.56,152.435C895.56,173.812 878.205,191.168 856.828,191.168Z" style="fill:rgb(220,70,3);"/>
        </g>
        <g transform="matrix(0.41762,0,0,0.41762,1201.23,551.184)">
            <path d="M813.58,191.168L900.075,191.168C912.902,191.168 923.315,201.581 923.315,214.407L923.315,260.886C923.315,273.712 912.902,284.126 900.075,284.126L895.56,284.126L895.56,357.717C895.56,368.406 886.882,377.083 876.194,377.083L837.461,377.083C826.773,377.083 818.095,368.406 818.095,357.717L818.095,284.126L813.58,284.126C800.754,284.126 790.34,273.712 790.34,260.886L790.34,214.407C790.34,201.581 800.754,191.168 813.58,191.168ZM856.828,191.168C835.451,191.168 818.095,173.812 818.095,152.435C818.095,131.058 835.451,113.703 856.828,113.703C878.205,113.703 895.56,131.058 895.56,152.435C895.56,173.812 878.205,191.168 856.828,191.168Z" style="fill:rgb(220,70,3);"/>
        </g>
        <g transform="matrix(0.41762,0,0,0.41762,1283.9,314.964)">
            <path d="M813.58,191.168L900.075,191.168C912.902,191.168 923.315,201.581 923.315,214.407L923.315,260.886C923.315,273.712 912.902,284.126 900.075,284.126L895.56,284.126L895.56,357.717C895.56,368.406 886.882,377.083 876.194,377.083L837.461,377.083C826.773,377.083 818.095,368.406 818.095,357.717L818.095,284.126L813.58,284.126C800.754,284.126 790.34,273.712 790.34,260.886L790.34,214.407C790.34,201.581 800.754,191.168 813.58,191.168ZM856.828,191.168C835.451,191.168 818.095,173.812 818.095,152.435C818.095,131.058 835.451,113.703 856.828,113.703C878.205,113.703 895.56,131.058 895.56,152.435C895.56,173.812 878.205,191.168 856.828,191.168Z" style="fill:rgb(220,70,3);"/>
        </g>
        <g transform="matrix(0.41762,0,0,0.41762,1283.9,433.074)">
            <path d="M813.58,191.168L900.075,191.168C912.902,191.168 923.315,201.581 923.315,214.407L923.315,260.886C923.315,273.712 912.902,284.126 900.075,284.126L895.56,284.126L895.56,357.717C895.56,368.406 886.882,377.083 876.194,377.083L837.461,377.083C826.773,377.083 818.095,368.406 818.095,357.717L818.095,284.126L813.58,284.126C800.754,284.126 790.34,273.712 790.34,260.886L790.34,214.407C790.34,201.581 800.754,191.168 813.58,191.168ZM856.828,191.168C835.451,191.168 818.095,173.812 818.095,152.435C818.095,131.058 835.451,113.703 856.828,113.703C878.205,113.703 895.56,131.058 895.56,152.435C895.56,173.812 878.205,191.168 856.828,191.168Z" style="fill:rgb(220,70,3);"/>
        </g>
        <g transform="matrix(0.41762,0,0,0.41762,1283.9,551.184)">
            <path d="M813.58,191.168L900.075,191.168C912.902,191.168 923.315,201.581 923.315,214.407L923.315,260.886C923.315,273.712 912.902,284.126 900.075,284.126L895.56,284.126L895.56,357.717C895.56,368.406 886.882,377.083 876.194,377.083L837.461,377.083C826.773,377.083 818.095,368.406 818.095,357.717L818.095,284.126L813.58,284.126C800.754,284.126 790.34,273.712 790.34,260.886L790.34,214.407C790.34,201.581 800.754,191.168 813.58,191.168ZM856.828,191.168C835.451,191.168 818.095,173.812 818.095,152.435C818.095,131.058 835.451,113.703 856.828,113.703C878.205,113.703 895.56,131.058 895.56,152.435C895.56,173.812 878.205,191.168 856.828,191.168Z" style="fill:rgb(220,70,3);"/>
        </g>
        <g transform="matrix(0.41762,0,0,0.41762,1366.58,314.964)">
            <path d="M813.58,191.168L900.075,191.168C912.902,191.168 923.315,201.581 923.315,214.407L923.315,260.886C923.315,273.712 912.902,284.126 900.075,284.126L895.56,284.126L895.56,357.717C895.56,368.406 886.882,377.083 876.194,377.083L837.461,377.083C826.773,377.083 818.095,368.406 818.095,357.717L818.095,284.126L813.58,284.126C800.754,284.126 790.34,273.712 790.34,260.886L790.34,214.407C790.34,201.581 800.754,191.168 813.58,191.168ZM856.828,191.168C835.451,191.168 818.095,173.812 818.095,152.435C818.095,131.058 835.451,113.703 856.828,113.703C878.205,113.703 895.56,131.058 895.56,152.435C895.56,173.812 878.205,191.168 856.828,191.168Z" style="fill:rgb(220,70,3);"/>
        </g>
        <g transform="matrix(0.41762,0,0,0.41762,1366.58,433.074)">
            <path d="M813.58,191.168L900.075,191.168C912.902,191.168 923.315,201.581 923.315,214.407L923.315,260.886C923.315,273.712 912.902,284.126 900.075,284.126L895.56,284.126L895.56,357.717C895.56,368.406 886.882,377.083 876.194,377.083L837.461,377.083C826.773,377.083 818.095,368.406 818.095,357.717L818.095,284.126L813.58,284.126C800.754,284.126 790.34,273.712 790.34,260.886L790.34,214.407C790.34,201.581 800.754,191.168 813.58,191.168ZM856.828,191.168C835.451,191.168 818.095,173.812 818.095,152.435C818.095,131.058 835.451,113.703 856.828,113.703C878.205,113.703 895.56,131.058 895.56,152.435C895.56,173.812 878.205,191.168 856.828,191.168Z" style="fill:rgb(220,70,3);"/>
        </g>
        <g transform="matrix(0.41762,0,0,0.41762,1366.58,551.184)">
            <path d="M813.58,191.168L900.075,191.168C912.902,191.168 923.315,201.581 923.315,214.407L923.315,260.886C923.315,273.712 912.902,284.126 900.075,284.126L895.56,284.126L895.56,357.717C895.56,368.406 886.882,377.083 876.194,377.083L837.461,377.083C826.773,377.083 818.095,368.406 818.095,357.717L818.095,284.126L813.58,284.126C800.754,284.126 790.34,273.712 790.34,260.886L790.34,214.407C790.34,201.581 800.754,191.168 813.58,191.168ZM856.828,191.168C835.451,191.168 818.095,173.812 818.095,152.435C818.095,131.058 835.451,113.703 856.828,113.703C878.205,113.703 895.56,131.058 895.56,152.435C895.56,173.812 878.205,191.168 856.828,191.168Z" style="fill:rgb(220,70,3);"/>
        </g>
        <g transform="matrix(0.41762,0,0,0.41762,1449.26,433.074)">
            <path d="M813.58,191.168L900.075,191.168C912.902,191.168 923.315,201.581 923.315,214.407L923.315,260.886C923.315,273.712 912.902,284.126 900.075,284.126L895.56,284.126L895.56,357.717C895.56,368.406 886.882,377.083 876.194,377.083L837.461,377.083C826.773,377.083 818.095,368.406 818.095,357.717L818.095,284.126L813.58,284.126C800.754,284.126 790.34,273.712 790.34,260.886L790.34,214.407C790.34,201.581 800.754,191.168 813.58,191.168ZM856.828,191.168C835.451,191.168 818.095,173.812 818.095,152.435C818.095,131.058 835.451,113.703 856.828,113.703C878.205,113.703 895.56,131.058 895.56,152.435C895.56,173.812 878.205,191.168 856.828,191.168Z" style="fill:rgb(220,70,3);"/>
        </g>
    </g>
    <g transform="matrix(-1,0,0,-0.5,2125.98,944.882)">
        <path d="M0,472.441C530.26,472.441 532.732,1417.32 1062.99,1417.32C1593.25,1417.32 1593.62,472.441 2125.98,472.441" style="fill:none;stroke:rgb(255,123,22);stroke-width:10.54px;"/>
    </g>
    <g transform="matrix(-1,0,0,0.5,2125.98,9.09495e-13)">
        <path d="M0,472.441C530.26,472.441 532.732,1417.32 1062.99,1417.32C1593.25,1417.32 1593.62,472.441 2125.98,472.441" style="fill:none;stroke:rgb(168,168,168);stroke-width:10.54px;"/>
    </g>
    <g transform="matrix(0.792904,0,0,0.792904,337.161,-146.633)">
        <g transform="matrix(0.652156,0,0,0.652156,363.479,154.385)">
            <path d="M846.316,363.734L868.176,404.696C869.895,407.918 872.795,410.348 876.268,411.476C879.741,412.604 883.516,412.343 886.8,410.748L928.562,390.458L922.17,436.446C921.668,440.062 922.586,443.733 924.732,446.687C926.878,449.641 930.086,451.649 933.681,452.288L979.393,460.421L947.191,493.869C944.658,496.499 943.244,500.008 943.244,503.66C943.244,507.311 944.658,510.821 947.191,513.451L979.393,546.899L933.681,555.031C930.086,555.671 926.878,557.679 924.732,560.633C922.586,563.587 921.668,567.257 922.17,570.874L928.562,616.862L886.8,596.572C883.516,594.976 879.741,594.715 876.268,595.844C872.795,596.972 869.895,599.402 868.176,602.624L846.316,643.585L824.456,602.624C822.736,599.402 819.836,596.972 816.363,595.844C812.891,594.715 809.116,594.976 805.831,596.572L764.07,616.862L770.461,570.874C770.964,567.257 770.046,563.587 767.899,560.633C765.753,557.679 762.546,555.671 758.951,555.031L713.239,546.899L745.44,513.451C747.973,510.821 749.388,507.311 749.388,503.66C749.388,500.008 747.973,496.499 745.44,493.869L713.239,460.421L758.951,452.288C762.546,451.649 765.753,449.641 767.899,446.687C770.046,443.733 770.964,440.062 770.461,436.446L764.07,390.458L805.831,410.748C809.116,412.343 812.891,412.604 816.363,411.476C819.836,410.348 822.736,407.918 824.456,404.696L846.316,363.734Z" style="fill:rgb(255,234,0);"/>
        </g>
        <g transform="matrix(1,0,0,1,96.4521,14.4909)">
            <circle cx="818.956" cy="468.359" r="50.031" style="fill:rgb(255,255,212);"/>
        </g>
    </g>
    <g transform="matrix(0.53364,0,0,0.53364,-79.577,13.3421)">
        <circle cx="582.005" cy="491.996" r="74.339" style="fill:rgb(168,168,168);"/>
        <g transform="matrix(0.896748,-0.442541,0.442541,0.896748,-166.428,321.732)">
            <path d="M574.971,541.09C570.402,541.65 565.122,538.67 562.013,533.344C558.144,526.714 559.094,518.943 564.135,516.001C569.176,513.059 576.409,516.053 580.279,522.683C583.14,527.586 583.366,533.112 581.251,536.849C584.326,535.761 588.203,535.112 592.413,535.112C602.396,535.112 610.502,538.762 610.502,543.257C610.502,547.753 602.396,551.402 592.413,551.402C582.429,551.402 574.323,547.753 574.323,543.257C574.323,542.507 574.549,541.78 574.971,541.09Z" style="fill:none;stroke:rgb(217,217,217);stroke-width:7.03px;"/>
        </g>
        <g transform="matrix(-1.23167,0.609433,-0.726065,-1.46738,1676.07,880.687)">
            <ellipse cx="592.413" cy="543.257" rx="18.089" ry="8.145" style="fill:none;stroke:rgb(217,217,217);stroke-width:4.65px;"/>
        </g>
        <g transform="matrix(1,0,0,1,-9.05378,5.25069)">
            <path d="M595.246,491.828C595.545,492.969 595.704,494.167 595.704,495.403C595.704,503.08 589.566,509.312 582.005,509.312C574.445,509.312 568.306,503.08 568.306,495.403C568.306,488.463 573.323,482.704 579.872,481.662C579.573,480.521 579.414,479.323 579.414,478.087C579.414,470.411 585.553,464.178 593.113,464.178C600.674,464.178 606.812,470.411 606.812,478.087C606.812,485.027 601.795,490.786 595.246,491.828Z" style="fill:none;stroke:rgb(217,217,217);stroke-width:7.03px;"/>
        </g>
        <path d="M632.112,495.383C637.734,499.861 638.542,509.123 633.752,516.768C628.676,524.871 619.222,528.109 612.653,523.994C606.085,519.879 604.873,509.959 609.95,501.856C610.976,500.217 612.182,498.778 613.507,497.558C612.572,495.296 612.356,492.624 613.07,489.958C614.656,484.04 620.228,480.384 625.506,481.798C630.784,483.213 633.782,489.165 632.196,495.083C632.17,495.184 632.141,495.283 632.112,495.383Z" style="fill:none;stroke:rgb(217,217,217);stroke-width:7.03px;"/>
        <g transform="matrix(-0.398575,-0.00876483,0.0283485,-1.28913,749.641,1197.52)">
            <ellipse cx="592.413" cy="543.257" rx="18.089" ry="8.145" style="fill:none;stroke:rgb(217,217,217);stroke-width:7.36px;"/>
        </g>
        <g transform="matrix(-0.354728,0.181954,-0.588501,-1.14731,1075.51,1041.27)">
            <ellipse cx="592.413" cy="543.257" rx="18.089" ry="8.145" style="fill:none;stroke:rgb(217,217,217);stroke-width:7.36px;"/>
        </g>
        <g transform="matrix(-0.57818,-0.442311,0.623371,-0.814857,620.729,1149.26)">
            <ellipse cx="592.413" cy="543.257" rx="18.089" ry="8.145" style="fill:none;stroke:rgb(217,217,217);stroke-width:7.9px;"/>
        </g>
    </g>
    <g transform="matrix(0.415324,0,0,0.415324,682.564,1108.51)">
        <path d="M890.871,1656.87L1016.12,1659.87L1018.68,1764.93" style="fill:none;stroke:rgb(255,234,0);stroke-width:54.17px;"/>
        <g transform="matrix(1,0,0,1,0,9.63103)">
            <path d="M813.272,1525.36L835.519,1699.89L966.902,1700.98" style="fill:none;stroke:rgb(255,234,0);stroke-width:20.83px;"/>
        </g>
        <g transform="matrix(1.17614,0,0,1.17614,-168.822,-241.603)">
            <circle cx="888.016" cy="1404.28" r="40.169" style="fill:rgb(255,234,0);"/>
        </g>
        <path d="M875.611,1502.46L890.871,1645.14" style="fill:none;stroke:rgb(255,234,0);stroke-width:75px;"/>
    </g>
    <g transform="matrix(0.399023,0,0,0.399023,-124.096,1111.88)">
        <path d="M972.487,1431.67C972.487,1431.67 1064.34,1433.15 1088.87,1433.15C1099.26,1433.15 1109.52,1427.12 1109.86,1412C1110.2,1396.88 1096.3,1392.02 1089.76,1393.38C1083.21,1394.74 1074.26,1402.8 1083.82,1412.84" style="fill:none;stroke:rgb(255,171,66);stroke-width:12.5px;"/>
        <path d="M914.799,1311.88L895.327,1362.58C908.719,1353.71 932.661,1350.03 947.601,1354.52L914.799,1311.88Z" style="fill:rgb(255,171,66);stroke:rgb(255,171,66);stroke-width:12.5px;"/>
        <path d="M844.128,1649.38L855.178,1557.63L877.17,1481.39L989.342,1481.39L1035.43,1518.21L1005.99,1437.11" style="fill:none;stroke:rgb(255,171,66);stroke-width:35.42px;"/>
        <g transform="matrix(1.92642,0,0,1.92642,-1132.12,-1563.07)">
            <circle cx="1070.75" cy="1543.22" r="24.524" style="fill:rgb(255,171,66);"/>
        </g>
        <g transform="matrix(1.18716,0,0,1.19399,-171.513,-301.374)">
            <rect x="883.354" y="1493.11" width="94.488" height="131.128" style="fill:rgb(255,171,66);"/>
        </g>
        <path d="M904.212,1637.95L903.234,1828.6" style="fill:none;stroke:rgb(255,171,66);stroke-width:54.17px;"/>
        <g transform="matrix(1,0,0,1,58.3465,0)">
            <path d="M904.212,1637.95L903.234,1828.6" style="fill:none;stroke:rgb(255,171,66);stroke-width:54.17px;"/>
        </g>
    </g>
    <g transform="matrix(0.399023,0,0,0.399023,1470.39,1111.88)">
        <path d="M972.487,1431.67C972.487,1431.67 1064.34,1433.15 1088.87,1433.15C1099.26,1433.15 1109.52,1427.12 1109.86,1412C1110.2,1396.88 1096.3,1392.02 1089.76,1393.38C1083.21,1394.74 1074.26,1402.8 1083.82,1412.84" style="fill:none;stroke:rgb(255,171,66);stroke-width:12.5px;"/>
        <path d="M914.799,1311.88L895.327,1362.58C908.719,1353.71 932.661,1350.03 947.601,1354.52L914.799,1311.88Z" style="fill:rgb(255,171,66);stroke:rgb(255,171,66);stroke-width:12.5px;"/>
        <path d="M844.128,1649.38L855.178,1557.63L877.17,1481.39L989.342,1481.39L1035.43,1518.21L1005.99,1437.11" style="fill:none;stroke:rgb(255,171,66);stroke-width:35.42px;"/>
        <g transform="matrix(1.92642,0,0,1.92642,-1132.12,-1563.07)">
            <circle cx="1070.75" cy="1543.22" r="24.524" style="fill:rgb(255,171,66);"/>
        </g>
        <g transform="matrix(1.18716,0,0,1.19399,-171.513,-301.374)">
            <rect x="883.354" y="1493.11" width="94.488" height="131.128" style="fill:rgb(255,171,66);"/>
        </g>
        <path d="M904.212,1637.95L903.234,1828.6" style="fill:none;stroke:rgb(255,171,66);stroke-width:54.17px;"/>
        <g transform="matrix(1,0,0,1,58.3465,0)">
            <path d="M904.212,1637.95L903.234,1828.6" style="fill:none;stroke:rgb(255,171,66);stroke-width:54.17px;"/>
        </g>
    </g>
    <g transform="matrix(0.350256,0,0,0.350256,456.7,1225.42)">
        <g transform="matrix(0.738942,2.75777,-2.75777,0.738942,3429.69,-1096.35)">
            <g transform="matrix(1,0,0,1,-12.1128,11.1641)">
                <path d="M650.544,1226.42L650.544,1242.4C650.544,1246.81 646.965,1250.38 642.556,1250.38L611.385,1250.38C606.976,1250.38 603.397,1246.81 603.397,1242.4L603.397,1226.42C603.397,1222.01 606.976,1218.43 611.385,1218.43L642.556,1218.43C646.965,1218.43 650.544,1222.01 650.544,1226.42Z" style="fill:rgb(220,70,3);"/>
            </g>
            <path d="M603.788,1231.46C609.276,1231.36 608.316,1225.99 614.858,1225.94C622.63,1225.87 622.871,1231.6 626.743,1231.69" style="fill:none;stroke:rgb(220,70,3);stroke-width:3.13px;"/>
        </g>
        <g transform="matrix(0.99274,0,0,0.99274,5.84937,17.2278)">
            <circle cx="717.524" cy="1375.75" r="47.59" style="fill:rgb(220,70,3);"/>
        </g>
        <path d="M509.917,1503.38L569.902,1421.37L654.579,1419.63L718.164,1498.02L776.288,1430.23" style="fill:none;stroke:rgb(220,70,3);stroke-width:33.33px;"/>
        <path d="M649.576,1448.49L573.365,1547.55" style="fill:none;stroke:rgb(220,70,3);stroke-width:75px;"/>
        <path d="M562.412,1544.89L649.576,1608.53L628.3,1761.84" style="fill:none;stroke:rgb(220,70,3);stroke-width:54.17px;"/>
        <path d="M562.412,1544.89L509.917,1621.16L406.844,1617.74" style="fill:none;stroke:rgb(220,70,3);stroke-width:54.17px;"/>
    </g>
    <g transform="matrix(0.350256,0,0,0.350256,1248.04,1225.42)">
        <g transform="matrix(0.738942,2.75777,-2.75777,0.738942,3429.69,-1096.35)">
            <g transform="matrix(1,0,0,1,-12.1128,11.1641)">
                <path d="M650.544,1226.42L650.544,1242.4C650.544,1246.81 646.965,1250.38 642.556,1250.38L611.385,1250.38C606.976,1250.38 603.397,1246.81 603.397,1242.4L603.397,1226.42C603.397,1222.01 606.976,1218.43 611.385,1218.43L642.556,1218.43C646.965,1218.43 650.544,1222.01 650.544,1226.42Z" style="fill:rgb(220,70,3);"/>
            </g>
            <path d="M603.788,1231.46C609.276,1231.36 608.316,1225.99 614.858,1225.94C622.63,1225.87 622.871,1231.6 626.743,1231.69" style="fill:none;stroke:rgb(220,70,3);stroke-width:3.13px;"/>
        </g>
        <g transform="matrix(0.99274,0,0,0.99274,5.84937,17.2278)">
            <circle cx="717.524" cy="1375.75" r="47.59" style="fill:rgb(220,70,3);"/>
        </g>
        <path d="M509.917,1503.38L569.902,1421.37L654.579,1419.63L718.164,1498.02L776.288,1430.23" style="fill:none;stroke:rgb(220,70,3);stroke-width:33.33px;"/>
        <path d="M649.576,1448.49L573.365,1547.55" style="fill:none;stroke:rgb(220,70,3);stroke-width:75px;"/>
        <path d="M562.412,1544.89L649.576,1608.53L628.3,1761.84" style="fill:none;stroke:rgb(220,70,3);stroke-width:54.17px;"/>
        <path d="M562.412,1544.89L509.917,1621.16L406.844,1617.74" style="fill:none;stroke:rgb(220,70,3);stroke-width:54.17px;"/>
    </g>
</svg>
