<?xml version="1.0" encoding="UTF-8" standalone="no"?>
<!DOCTYPE svg PUBLIC "-//W3C//DTD SVG 1.1//EN" "http://www.w3.org/Graphics/SVG/1.1/DTD/svg11.dtd">
<svg width="100%" height="100%" viewBox="0 0 2024 1749" version="1.1" xmlns="http://www.w3.org/2000/svg" xmlns:xlink="http://www.w3.org/1999/xlink" xml:space="preserve" xmlns:serif="http://www.serif.com/" style="fill-rule:evenodd;clip-rule:evenodd;stroke-linecap:round;stroke-linejoin:round;stroke-miterlimit:1.5;">
    <g transform="matrix(1.22551,0,0,1.22551,-348.223,-332.169)">
        <g transform="matrix(1,0,0,1,62.3392,392.714)">
            <path d="M1316.4,1161.39C1316.4,1161.39 1300.49,1174.72 1304.51,1197.72C1309.94,1228.79 1279.49,1239.84 1261.27,1227.73C1244.86,1216.83 1249.24,1197.99 1263.54,1185.03C1282.05,1168.24 1316.4,1161.39 1316.4,1161.39Z" style="fill:rgb(194,235,255);stroke:black;stroke-width:1.7px;"/>
        </g>
        <g transform="matrix(-0.646764,0,0,0.646764,2117.43,842.245)">
            <path d="M1316.4,1161.39C1316.4,1161.39 1306.97,1177.49 1300.52,1200.48C1292,1230.85 1279.49,1239.84 1261.27,1227.73C1244.86,1216.83 1249.24,1197.99 1263.54,1185.03C1282.05,1168.24 1316.4,1161.39 1316.4,1161.39Z" style="fill:rgb(194,235,255);stroke:black;stroke-width:2.63px;"/>
        </g>
        <g transform="matrix(1,0,0,1,62.3392,392.714)">
            <path d="M1249.85,1265.68C1248.39,1247.74 1243.82,1233.65 1228.69,1227.73" style="fill:none;stroke:black;stroke-width:1.7px;"/>
        </g>
        <g transform="matrix(1,0,0,1,62.3392,374.85)">
            <path d="M1198.41,1307.44C1198.41,1307.44 1217.36,1295.73 1239.27,1302.23C1261.18,1308.74 1267.13,1305.96 1287.29,1304.7" style="fill:none;stroke:black;stroke-width:1.7px;"/>
        </g>
        <g transform="matrix(1,0,0,1,62.3392,392.714)">
            <path d="M1250.41,1286.83C1247.31,1237.38 1256.81,1219.55 1284.53,1197.72" style="fill:none;stroke:black;stroke-width:1.7px;"/>
        </g>
    </g>
    <g transform="matrix(1,0,0,1,422.288,1195.64)">
        <g transform="matrix(50,0,0,50,977.996,446.519)">
            <path d="M0.093,-0L0.142,-0L0.142,-0.295C0.142,-0.401 0.219,-0.477 0.319,-0.477C0.422,-0.477 0.481,-0.408 0.481,-0.303L0.481,-0L0.53,-0L0.53,-0.312C0.53,-0.434 0.455,-0.522 0.326,-0.522C0.233,-0.522 0.176,-0.475 0.142,-0.415L0.142,-0.51L0.093,-0.51L0.093,-0Z" style="fill-rule:nonzero;"/>
        </g>
        <g transform="matrix(50,0,0,50,1008.65,446.519)">
            <path d="M0.319,0.012C0.471,0.012 0.582,-0.112 0.582,-0.255L0.582,-0.257C0.582,-0.4 0.472,-0.522 0.321,-0.522C0.169,-0.522 0.058,-0.398 0.058,-0.255L0.058,-0.253C0.058,-0.11 0.168,0.012 0.319,0.012ZM0.321,-0.034C0.203,-0.034 0.111,-0.132 0.111,-0.255L0.111,-0.257C0.111,-0.377 0.198,-0.476 0.319,-0.476C0.437,-0.476 0.529,-0.378 0.529,-0.255L0.529,-0.253C0.529,-0.133 0.442,-0.034 0.321,-0.034Z" style="fill-rule:nonzero;"/>
        </g>
        <g transform="matrix(50,0,0,50,1055.65,446.519)">
            <path d="M0.093,-0L0.142,-0L0.142,-0.294C0.142,-0.397 0.214,-0.477 0.305,-0.477C0.396,-0.477 0.454,-0.412 0.454,-0.306L0.454,-0L0.503,-0L0.503,-0.297C0.503,-0.411 0.578,-0.477 0.664,-0.477C0.758,-0.477 0.815,-0.413 0.815,-0.303L0.815,-0L0.864,-0L0.864,-0.309C0.864,-0.437 0.789,-0.522 0.668,-0.522C0.572,-0.522 0.517,-0.469 0.484,-0.412C0.456,-0.471 0.401,-0.522 0.312,-0.522C0.221,-0.522 0.175,-0.472 0.142,-0.419L0.142,-0.51L0.093,-0.51L0.093,-0Z" style="fill-rule:nonzero;"/>
        </g>
        <g transform="matrix(50,0,0,50,1103.2,446.519)">
            <path d="M0.319,0.012C0.471,0.012 0.582,-0.112 0.582,-0.255L0.582,-0.257C0.582,-0.4 0.472,-0.522 0.321,-0.522C0.169,-0.522 0.058,-0.398 0.058,-0.255L0.058,-0.253C0.058,-0.11 0.168,0.012 0.319,0.012ZM0.321,-0.034C0.203,-0.034 0.111,-0.132 0.111,-0.255L0.111,-0.257C0.111,-0.377 0.198,-0.476 0.319,-0.476C0.437,-0.476 0.529,-0.378 0.529,-0.255L0.529,-0.253C0.529,-0.133 0.442,-0.034 0.321,-0.034Z" style="fill-rule:nonzero;"/>
        </g>
        <g transform="matrix(50,0,0,50,1135.2,446.519)">
            <path d="M0.093,-0L0.142,-0L0.142,-0.209C0.142,-0.375 0.245,-0.464 0.363,-0.464L0.368,-0.464L0.368,-0.518C0.267,-0.522 0.182,-0.456 0.142,-0.365L0.142,-0.51L0.093,-0.51L0.093,-0Z" style="fill-rule:nonzero;"/>
        </g>
        <g transform="matrix(50,0,0,50,1153.95,446.519)">
            <path d="M0.308,0.012C0.406,0.012 0.467,-0.028 0.519,-0.084L0.485,-0.114C0.443,-0.069 0.389,-0.034 0.31,-0.034C0.21,-0.034 0.119,-0.108 0.11,-0.235L0.533,-0.235C0.534,-0.243 0.534,-0.246 0.534,-0.255C0.534,-0.406 0.443,-0.522 0.3,-0.522C0.162,-0.522 0.058,-0.404 0.058,-0.256L0.058,-0.254C0.058,-0.095 0.174,0.012 0.308,0.012ZM0.11,-0.279C0.119,-0.392 0.197,-0.477 0.298,-0.477C0.415,-0.477 0.474,-0.382 0.481,-0.279L0.11,-0.279Z" style="fill-rule:nonzero;"/>
        </g>
        <g transform="matrix(50,0,0,50,977.996,500.619)">
            <path d="M0.093,0.16L0.142,0.16L0.142,-0.11C0.184,-0.046 0.25,0.012 0.352,0.012C0.475,0.012 0.6,-0.089 0.6,-0.255L0.6,-0.257C0.6,-0.423 0.475,-0.522 0.352,-0.522C0.251,-0.522 0.186,-0.463 0.142,-0.396L0.142,-0.51L0.093,-0.51L0.093,0.16ZM0.347,-0.035C0.241,-0.035 0.139,-0.123 0.139,-0.254L0.139,-0.256C0.139,-0.386 0.241,-0.475 0.347,-0.475C0.454,-0.475 0.547,-0.389 0.547,-0.255L0.547,-0.253C0.547,-0.116 0.458,-0.035 0.347,-0.035Z" style="fill-rule:nonzero;"/>
        </g>
        <g transform="matrix(50,0,0,50,1011,500.619)">
            <path d="M0.248,0.012C0.345,0.012 0.408,-0.036 0.443,-0.085L0.443,-0L0.491,-0L0.491,-0.318C0.491,-0.381 0.473,-0.428 0.439,-0.462C0.402,-0.499 0.347,-0.518 0.278,-0.518C0.208,-0.518 0.153,-0.5 0.097,-0.474L0.115,-0.431C0.162,-0.455 0.213,-0.472 0.275,-0.472C0.38,-0.472 0.443,-0.419 0.443,-0.316L0.443,-0.294C0.394,-0.307 0.345,-0.316 0.274,-0.316C0.142,-0.316 0.051,-0.256 0.051,-0.15L0.051,-0.148C0.051,-0.042 0.153,0.012 0.248,0.012ZM0.251,-0.034C0.173,-0.034 0.103,-0.077 0.103,-0.151L0.103,-0.153C0.103,-0.224 0.163,-0.272 0.271,-0.272C0.344,-0.272 0.401,-0.26 0.444,-0.249L0.444,-0.191C0.444,-0.098 0.355,-0.034 0.251,-0.034Z" style="fill-rule:nonzero;"/>
        </g>
        <g transform="matrix(50,0,0,50,1039.7,500.619)">
            <path d="M0.318,0.012C0.412,0.012 0.474,-0.03 0.526,-0.089L0.492,-0.119C0.449,-0.071 0.393,-0.034 0.321,-0.034C0.204,-0.034 0.111,-0.132 0.111,-0.255L0.111,-0.257C0.111,-0.379 0.201,-0.476 0.317,-0.476C0.393,-0.476 0.443,-0.437 0.487,-0.392L0.522,-0.428C0.474,-0.478 0.414,-0.522 0.318,-0.522C0.172,-0.522 0.058,-0.398 0.058,-0.255L0.058,-0.253C0.058,-0.11 0.171,0.012 0.318,0.012Z" style="fill-rule:nonzero;"/>
        </g>
        <g transform="matrix(50,0,0,50,1068.25,500.619)">
            <path d="M0.093,-0L0.142,-0L0.142,-0.124L0.266,-0.249L0.468,-0L0.53,-0L0.3,-0.284L0.523,-0.51L0.458,-0.51L0.142,-0.183L0.142,-0.73L0.093,-0.73L0.093,-0Z" style="fill-rule:nonzero;"/>
        </g>
        <g transform="matrix(50,0,0,50,1095.75,500.619)">
            <path d="M0.248,0.012C0.345,0.012 0.408,-0.036 0.443,-0.085L0.443,-0L0.491,-0L0.491,-0.318C0.491,-0.381 0.473,-0.428 0.439,-0.462C0.402,-0.499 0.347,-0.518 0.278,-0.518C0.208,-0.518 0.153,-0.5 0.097,-0.474L0.115,-0.431C0.162,-0.455 0.213,-0.472 0.275,-0.472C0.38,-0.472 0.443,-0.419 0.443,-0.316L0.443,-0.294C0.394,-0.307 0.345,-0.316 0.274,-0.316C0.142,-0.316 0.051,-0.256 0.051,-0.15L0.051,-0.148C0.051,-0.042 0.153,0.012 0.248,0.012ZM0.251,-0.034C0.173,-0.034 0.103,-0.077 0.103,-0.151L0.103,-0.153C0.103,-0.224 0.163,-0.272 0.271,-0.272C0.344,-0.272 0.401,-0.26 0.444,-0.249L0.444,-0.191C0.444,-0.098 0.355,-0.034 0.251,-0.034Z" style="fill-rule:nonzero;"/>
        </g>
        <g transform="matrix(50,0,0,50,1124.45,500.619)">
            <path d="M0.317,0.162C0.392,0.162 0.458,0.138 0.502,0.094C0.543,0.053 0.567,-0.005 0.567,-0.079L0.567,-0.51L0.518,-0.51L0.518,-0.408C0.476,-0.468 0.407,-0.522 0.305,-0.522C0.182,-0.522 0.06,-0.427 0.06,-0.28L0.06,-0.278C0.06,-0.132 0.182,-0.038 0.305,-0.038C0.406,-0.038 0.474,-0.093 0.518,-0.156L0.518,-0.082C0.518,0.049 0.435,0.116 0.318,0.116C0.243,0.116 0.173,0.091 0.112,0.044L0.083,0.084C0.153,0.136 0.232,0.162 0.317,0.162ZM0.31,-0.085C0.205,-0.085 0.113,-0.165 0.113,-0.28L0.113,-0.282C0.113,-0.401 0.203,-0.475 0.31,-0.475C0.416,-0.475 0.521,-0.399 0.521,-0.281L0.521,-0.279C0.521,-0.163 0.416,-0.085 0.31,-0.085Z" style="fill-rule:nonzero;"/>
        </g>
        <g transform="matrix(50,0,0,50,1157.45,500.619)">
            <path d="M0.094,-0.643L0.155,-0.643L0.155,-0.71L0.094,-0.71L0.094,-0.643ZM0.1,-0L0.149,-0L0.149,-0.51L0.1,-0.51L0.1,-0Z" style="fill-rule:nonzero;"/>
        </g>
        <g transform="matrix(50,0,0,50,1169.9,500.619)">
            <path d="M0.093,-0L0.142,-0L0.142,-0.295C0.142,-0.401 0.219,-0.477 0.319,-0.477C0.422,-0.477 0.481,-0.408 0.481,-0.303L0.481,-0L0.53,-0L0.53,-0.312C0.53,-0.434 0.455,-0.522 0.326,-0.522C0.233,-0.522 0.176,-0.475 0.142,-0.415L0.142,-0.51L0.093,-0.51L0.093,-0Z" style="fill-rule:nonzero;"/>
        </g>
        <g transform="matrix(50,0,0,50,1200.55,500.619)">
            <path d="M0.317,0.162C0.392,0.162 0.458,0.138 0.502,0.094C0.543,0.053 0.567,-0.005 0.567,-0.079L0.567,-0.51L0.518,-0.51L0.518,-0.408C0.476,-0.468 0.407,-0.522 0.305,-0.522C0.182,-0.522 0.06,-0.427 0.06,-0.28L0.06,-0.278C0.06,-0.132 0.182,-0.038 0.305,-0.038C0.406,-0.038 0.474,-0.093 0.518,-0.156L0.518,-0.082C0.518,0.049 0.435,0.116 0.318,0.116C0.243,0.116 0.173,0.091 0.112,0.044L0.083,0.084C0.153,0.136 0.232,0.162 0.317,0.162ZM0.31,-0.085C0.205,-0.085 0.113,-0.165 0.113,-0.28L0.113,-0.282C0.113,-0.401 0.203,-0.475 0.31,-0.475C0.416,-0.475 0.521,-0.399 0.521,-0.281L0.521,-0.279C0.521,-0.163 0.416,-0.085 0.31,-0.085Z" style="fill-rule:nonzero;"/>
        </g>
        <g transform="matrix(50,0,0,50,1248.55,500.619)">
            <path d="M0.236,0.004L0.278,0.004L0.431,-0.433L0.583,0.004L0.625,0.004L0.812,-0.51L0.759,-0.51L0.605,-0.062L0.451,-0.512L0.412,-0.512L0.258,-0.062L0.104,-0.51L0.049,-0.51L0.236,0.004Z" style="fill-rule:nonzero;"/>
        </g>
        <g transform="matrix(50,0,0,50,1290.6,500.619)">
            <path d="M0.248,0.012C0.345,0.012 0.408,-0.036 0.443,-0.085L0.443,-0L0.491,-0L0.491,-0.318C0.491,-0.381 0.473,-0.428 0.439,-0.462C0.402,-0.499 0.347,-0.518 0.278,-0.518C0.208,-0.518 0.153,-0.5 0.097,-0.474L0.115,-0.431C0.162,-0.455 0.213,-0.472 0.275,-0.472C0.38,-0.472 0.443,-0.419 0.443,-0.316L0.443,-0.294C0.394,-0.307 0.345,-0.316 0.274,-0.316C0.142,-0.316 0.051,-0.256 0.051,-0.15L0.051,-0.148C0.051,-0.042 0.153,0.012 0.248,0.012ZM0.251,-0.034C0.173,-0.034 0.103,-0.077 0.103,-0.151L0.103,-0.153C0.103,-0.224 0.163,-0.272 0.271,-0.272C0.344,-0.272 0.401,-0.26 0.444,-0.249L0.444,-0.191C0.444,-0.098 0.355,-0.034 0.251,-0.034Z" style="fill-rule:nonzero;"/>
        </g>
        <g transform="matrix(50,0,0,50,1319.3,500.619)">
            <path d="M0.258,0.01C0.356,0.01 0.434,-0.048 0.434,-0.139L0.434,-0.141C0.434,-0.231 0.348,-0.261 0.266,-0.284C0.193,-0.305 0.124,-0.326 0.124,-0.383L0.124,-0.385C0.124,-0.436 0.17,-0.474 0.24,-0.474C0.294,-0.474 0.35,-0.454 0.397,-0.423L0.423,-0.464C0.372,-0.498 0.303,-0.52 0.242,-0.52C0.143,-0.52 0.074,-0.461 0.074,-0.379L0.074,-0.377C0.074,-0.286 0.166,-0.261 0.249,-0.237C0.32,-0.217 0.384,-0.195 0.384,-0.135L0.384,-0.133C0.384,-0.074 0.33,-0.036 0.261,-0.036C0.196,-0.036 0.134,-0.06 0.078,-0.103L0.049,-0.064C0.103,-0.02 0.184,0.01 0.258,0.01Z" style="fill-rule:nonzero;"/>
        </g>
        <g transform="matrix(50,0,0,50,1343.65,500.619)">
            <path d="M0.263,0.009C0.295,0.009 0.32,0.003 0.346,-0.009L0.346,-0.055C0.317,-0.042 0.296,-0.037 0.271,-0.037C0.212,-0.037 0.169,-0.063 0.169,-0.136L0.169,-0.465L0.348,-0.465L0.348,-0.51L0.169,-0.51L0.169,-0.673L0.12,-0.673L0.12,-0.51L0.046,-0.51L0.046,-0.465L0.12,-0.465L0.12,-0.131C0.12,-0.034 0.184,0.009 0.263,0.009Z" style="fill-rule:nonzero;"/>
        </g>
        <g transform="matrix(50,0,0,50,1362.9,500.619)">
            <path d="M0.308,0.012C0.406,0.012 0.467,-0.028 0.519,-0.084L0.485,-0.114C0.443,-0.069 0.389,-0.034 0.31,-0.034C0.21,-0.034 0.119,-0.108 0.11,-0.235L0.533,-0.235C0.534,-0.243 0.534,-0.246 0.534,-0.255C0.534,-0.406 0.443,-0.522 0.3,-0.522C0.162,-0.522 0.058,-0.404 0.058,-0.256L0.058,-0.254C0.058,-0.095 0.174,0.012 0.308,0.012ZM0.11,-0.279C0.119,-0.392 0.197,-0.477 0.298,-0.477C0.415,-0.477 0.474,-0.382 0.481,-0.279L0.11,-0.279Z" style="fill-rule:nonzero;"/>
        </g>
    </g>
    <g transform="matrix(1,0,0,1,420.231,979.493)">
        <g transform="matrix(50,0,0,50,977.996,473.569)">
            <path d="M0.318,0.012C0.412,0.012 0.474,-0.03 0.526,-0.089L0.492,-0.119C0.449,-0.071 0.393,-0.034 0.321,-0.034C0.204,-0.034 0.111,-0.132 0.111,-0.255L0.111,-0.257C0.111,-0.379 0.201,-0.476 0.317,-0.476C0.393,-0.476 0.443,-0.437 0.487,-0.392L0.522,-0.428C0.474,-0.478 0.414,-0.522 0.318,-0.522C0.172,-0.522 0.058,-0.398 0.058,-0.255L0.058,-0.253C0.058,-0.11 0.171,0.012 0.318,0.012Z" style="fill-rule:nonzero;"/>
        </g>
        <g transform="matrix(50,0,0,50,1006.55,473.569)">
            <rect x="0.1" y="-0.73" width="0.049" height="0.73" style="fill-rule:nonzero;"/>
        </g>
        <g transform="matrix(50,0,0,50,1019,473.569)">
            <path d="M0.308,0.012C0.406,0.012 0.467,-0.028 0.519,-0.084L0.485,-0.114C0.443,-0.069 0.389,-0.034 0.31,-0.034C0.21,-0.034 0.119,-0.108 0.11,-0.235L0.533,-0.235C0.534,-0.243 0.534,-0.246 0.534,-0.255C0.534,-0.406 0.443,-0.522 0.3,-0.522C0.162,-0.522 0.058,-0.404 0.058,-0.256L0.058,-0.254C0.058,-0.095 0.174,0.012 0.308,0.012ZM0.11,-0.279C0.119,-0.392 0.197,-0.477 0.298,-0.477C0.415,-0.477 0.474,-0.382 0.481,-0.279L0.11,-0.279Z" style="fill-rule:nonzero;"/>
        </g>
        <g transform="matrix(50,0,0,50,1048.2,473.569)">
            <path d="M0.248,0.012C0.345,0.012 0.408,-0.036 0.443,-0.085L0.443,-0L0.491,-0L0.491,-0.318C0.491,-0.381 0.473,-0.428 0.439,-0.462C0.402,-0.499 0.347,-0.518 0.278,-0.518C0.208,-0.518 0.153,-0.5 0.097,-0.474L0.115,-0.431C0.162,-0.455 0.213,-0.472 0.275,-0.472C0.38,-0.472 0.443,-0.419 0.443,-0.316L0.443,-0.294C0.394,-0.307 0.345,-0.316 0.274,-0.316C0.142,-0.316 0.051,-0.256 0.051,-0.15L0.051,-0.148C0.051,-0.042 0.153,0.012 0.248,0.012ZM0.251,-0.034C0.173,-0.034 0.103,-0.077 0.103,-0.151L0.103,-0.153C0.103,-0.224 0.163,-0.272 0.271,-0.272C0.344,-0.272 0.401,-0.26 0.444,-0.249L0.444,-0.191C0.444,-0.098 0.355,-0.034 0.251,-0.034Z" style="fill-rule:nonzero;"/>
        </g>
        <g transform="matrix(50,0,0,50,1076.9,473.569)">
            <path d="M0.093,-0L0.142,-0L0.142,-0.295C0.142,-0.401 0.219,-0.477 0.319,-0.477C0.422,-0.477 0.481,-0.408 0.481,-0.303L0.481,-0L0.53,-0L0.53,-0.312C0.53,-0.434 0.455,-0.522 0.326,-0.522C0.233,-0.522 0.176,-0.475 0.142,-0.415L0.142,-0.51L0.093,-0.51L0.093,-0Z" style="fill-rule:nonzero;"/>
        </g>
        <g transform="matrix(50,0,0,50,1122.55,473.569)">
            <path d="M0.094,-0.643L0.155,-0.643L0.155,-0.71L0.094,-0.71L0.094,-0.643ZM0.1,-0L0.149,-0L0.149,-0.51L0.1,-0.51L0.1,-0Z" style="fill-rule:nonzero;"/>
        </g>
        <g transform="matrix(50,0,0,50,1135,473.569)">
            <path d="M0.093,-0L0.142,-0L0.142,-0.295C0.142,-0.401 0.219,-0.477 0.319,-0.477C0.422,-0.477 0.481,-0.408 0.481,-0.303L0.481,-0L0.53,-0L0.53,-0.312C0.53,-0.434 0.455,-0.522 0.326,-0.522C0.233,-0.522 0.176,-0.475 0.142,-0.415L0.142,-0.51L0.093,-0.51L0.093,-0Z" style="fill-rule:nonzero;"/>
        </g>
        <g transform="matrix(50,0,0,50,1180.65,473.569)">
            <path d="M0.352,0.012C0.475,0.012 0.6,-0.089 0.6,-0.255L0.6,-0.257C0.6,-0.423 0.475,-0.522 0.352,-0.522C0.251,-0.522 0.186,-0.463 0.142,-0.396L0.142,-0.73L0.093,-0.73L0.093,-0L0.142,-0L0.142,-0.11C0.184,-0.046 0.25,0.012 0.352,0.012ZM0.347,-0.035C0.241,-0.035 0.139,-0.123 0.139,-0.254L0.139,-0.256C0.139,-0.386 0.241,-0.475 0.347,-0.475C0.454,-0.475 0.547,-0.389 0.547,-0.255L0.547,-0.253C0.547,-0.116 0.458,-0.035 0.347,-0.035Z" style="fill-rule:nonzero;"/>
        </g>
        <g transform="matrix(50,0,0,50,1213.65,473.569)">
            <path d="M0.287,0.012C0.38,0.012 0.437,-0.035 0.471,-0.095L0.471,-0L0.52,-0L0.52,-0.51L0.471,-0.51L0.471,-0.215C0.471,-0.109 0.394,-0.033 0.294,-0.033C0.191,-0.033 0.132,-0.102 0.132,-0.207L0.132,-0.51L0.083,-0.51L0.083,-0.198C0.083,-0.076 0.158,0.012 0.287,0.012Z" style="fill-rule:nonzero;"/>
        </g>
        <g transform="matrix(50,0,0,50,1244.3,473.569)">
            <rect x="0.1" y="-0.73" width="0.049" height="0.73" style="fill-rule:nonzero;"/>
        </g>
        <g transform="matrix(50,0,0,50,1256.75,473.569)">
            <path d="M0.093,-0L0.142,-0L0.142,-0.124L0.266,-0.249L0.468,-0L0.53,-0L0.3,-0.284L0.523,-0.51L0.458,-0.51L0.142,-0.183L0.142,-0.73L0.093,-0.73L0.093,-0Z" style="fill-rule:nonzero;"/>
        </g>
    </g>
    <g transform="matrix(1.08505,0,0,1.08505,-701.952,-439.568)">
        <g transform="matrix(1,0,0,1,82.1264,423.013)">
            <path d="M1700.04,1314.65C1700.04,1314.65 1707.11,1305.99 1718.85,1306.2C1728.15,1306.37 1730.42,1318.7 1736.94,1318.24C1743.45,1317.77 1744.36,1313.61 1753.9,1313.24C1759.36,1313.02 1770.97,1318.24 1770.97,1318.24C1770.97,1318.24 1763,1353.31 1734.47,1353.43C1701.99,1353.58 1700.04,1314.65 1700.04,1314.65Z" style="fill:rgb(194,212,255);"/>
        </g>
        <g transform="matrix(1,0,0,1,80.7941,423.556)">
            <rect x="1677.12" y="1239.54" width="30.313" height="10.695" style="fill:none;stroke:black;stroke-width:1.92px;"/>
        </g>
        <g transform="matrix(1,0,0,1,82.1264,423.013)">
            <rect x="1667.84" y="1232.07" width="133.069" height="144.774" style="fill:none;stroke:black;stroke-width:1.92px;"/>
        </g>
        <g transform="matrix(1,0,0,1,82.1264,423.013)">
            <path d="M1667.84,1258.14L1800.91,1258.14" style="fill:none;stroke:black;stroke-width:1.92px;"/>
        </g>
        <path d="M1816.5,1696.12C1841.41,1696.12 1861.63,1716.34 1861.63,1741.25C1861.63,1766.16 1841.41,1786.38 1816.5,1786.38C1791.59,1786.38 1771.37,1766.16 1771.37,1741.25C1771.37,1716.34 1791.59,1696.12 1816.5,1696.12ZM1816.5,1711.46C1800.06,1711.46 1786.71,1724.81 1786.71,1741.25C1786.71,1757.69 1800.06,1771.05 1816.5,1771.05C1832.94,1771.05 1846.3,1757.69 1846.3,1741.25C1846.3,1724.81 1832.94,1711.46 1816.5,1711.46Z" style="fill:white;stroke:black;stroke-width:1.92px;"/>
    </g>
    <g transform="matrix(1,0,0,1,420.55,763.352)">
        <g transform="matrix(50,0,0,50,977.996,419.469)">
            <path d="M0.236,0.004L0.278,0.004L0.431,-0.433L0.583,0.004L0.625,0.004L0.812,-0.51L0.759,-0.51L0.605,-0.062L0.451,-0.512L0.412,-0.512L0.258,-0.062L0.104,-0.51L0.049,-0.51L0.236,0.004Z" style="fill-rule:nonzero;"/>
        </g>
        <g transform="matrix(50,0,0,50,1021.05,419.469)">
            <path d="M0.094,-0.643L0.155,-0.643L0.155,-0.71L0.094,-0.71L0.094,-0.643ZM0.1,-0L0.149,-0L0.149,-0.51L0.1,-0.51L0.1,-0Z" style="fill-rule:nonzero;"/>
        </g>
        <g transform="matrix(50,0,0,50,1033.5,419.469)">
            <path d="M0.308,0.012C0.409,0.012 0.474,-0.047 0.518,-0.114L0.518,-0L0.567,-0L0.567,-0.73L0.518,-0.73L0.518,-0.4C0.476,-0.464 0.41,-0.522 0.308,-0.522C0.185,-0.522 0.06,-0.421 0.06,-0.255L0.06,-0.253C0.06,-0.087 0.185,0.012 0.308,0.012ZM0.313,-0.035C0.206,-0.035 0.113,-0.121 0.113,-0.255L0.113,-0.257C0.113,-0.394 0.202,-0.475 0.313,-0.475C0.419,-0.475 0.521,-0.387 0.521,-0.256L0.521,-0.254C0.521,-0.124 0.419,-0.035 0.313,-0.035Z" style="fill-rule:nonzero;"/>
        </g>
        <g transform="matrix(50,0,0,50,1066.5,419.469)">
            <path d="M0.308,0.012C0.406,0.012 0.467,-0.028 0.519,-0.084L0.485,-0.114C0.443,-0.069 0.389,-0.034 0.31,-0.034C0.21,-0.034 0.119,-0.108 0.11,-0.235L0.533,-0.235C0.534,-0.243 0.534,-0.246 0.534,-0.255C0.534,-0.406 0.443,-0.522 0.3,-0.522C0.162,-0.522 0.058,-0.404 0.058,-0.256L0.058,-0.254C0.058,-0.095 0.174,0.012 0.308,0.012ZM0.11,-0.279C0.119,-0.392 0.197,-0.477 0.298,-0.477C0.415,-0.477 0.474,-0.382 0.481,-0.279L0.11,-0.279Z" style="fill-rule:nonzero;"/>
        </g>
        <g transform="matrix(50,0,0,50,1095.7,419.469)">
            <path d="M0.258,0.01C0.356,0.01 0.434,-0.048 0.434,-0.139L0.434,-0.141C0.434,-0.231 0.348,-0.261 0.266,-0.284C0.193,-0.305 0.124,-0.326 0.124,-0.383L0.124,-0.385C0.124,-0.436 0.17,-0.474 0.24,-0.474C0.294,-0.474 0.35,-0.454 0.397,-0.423L0.423,-0.464C0.372,-0.498 0.303,-0.52 0.242,-0.52C0.143,-0.52 0.074,-0.461 0.074,-0.379L0.074,-0.377C0.074,-0.286 0.166,-0.261 0.249,-0.237C0.32,-0.217 0.384,-0.195 0.384,-0.135L0.384,-0.133C0.384,-0.074 0.33,-0.036 0.261,-0.036C0.196,-0.036 0.134,-0.06 0.078,-0.103L0.049,-0.064C0.103,-0.02 0.184,0.01 0.258,0.01Z" style="fill-rule:nonzero;"/>
        </g>
        <g transform="matrix(50,0,0,50,1120.55,419.469)">
            <path d="M0.093,0.16L0.142,0.16L0.142,-0.11C0.184,-0.046 0.25,0.012 0.352,0.012C0.475,0.012 0.6,-0.089 0.6,-0.255L0.6,-0.257C0.6,-0.423 0.475,-0.522 0.352,-0.522C0.251,-0.522 0.186,-0.463 0.142,-0.396L0.142,-0.51L0.093,-0.51L0.093,0.16ZM0.347,-0.035C0.241,-0.035 0.139,-0.123 0.139,-0.254L0.139,-0.256C0.139,-0.386 0.241,-0.475 0.347,-0.475C0.454,-0.475 0.547,-0.389 0.547,-0.255L0.547,-0.253C0.547,-0.116 0.458,-0.035 0.347,-0.035Z" style="fill-rule:nonzero;"/>
        </g>
        <g transform="matrix(50,0,0,50,1153.55,419.469)">
            <path d="M0.093,-0L0.142,-0L0.142,-0.209C0.142,-0.375 0.245,-0.464 0.363,-0.464L0.368,-0.464L0.368,-0.518C0.267,-0.522 0.182,-0.456 0.142,-0.365L0.142,-0.51L0.093,-0.51L0.093,-0Z" style="fill-rule:nonzero;"/>
        </g>
        <g transform="matrix(50,0,0,50,1172.3,419.469)">
            <path d="M0.308,0.012C0.406,0.012 0.467,-0.028 0.519,-0.084L0.485,-0.114C0.443,-0.069 0.389,-0.034 0.31,-0.034C0.21,-0.034 0.119,-0.108 0.11,-0.235L0.533,-0.235C0.534,-0.243 0.534,-0.246 0.534,-0.255C0.534,-0.406 0.443,-0.522 0.3,-0.522C0.162,-0.522 0.058,-0.404 0.058,-0.256L0.058,-0.254C0.058,-0.095 0.174,0.012 0.308,0.012ZM0.11,-0.279C0.119,-0.392 0.197,-0.477 0.298,-0.477C0.415,-0.477 0.474,-0.382 0.481,-0.279L0.11,-0.279Z" style="fill-rule:nonzero;"/>
        </g>
        <g transform="matrix(50,0,0,50,1201.5,419.469)">
            <path d="M0.248,0.012C0.345,0.012 0.408,-0.036 0.443,-0.085L0.443,-0L0.491,-0L0.491,-0.318C0.491,-0.381 0.473,-0.428 0.439,-0.462C0.402,-0.499 0.347,-0.518 0.278,-0.518C0.208,-0.518 0.153,-0.5 0.097,-0.474L0.115,-0.431C0.162,-0.455 0.213,-0.472 0.275,-0.472C0.38,-0.472 0.443,-0.419 0.443,-0.316L0.443,-0.294C0.394,-0.307 0.345,-0.316 0.274,-0.316C0.142,-0.316 0.051,-0.256 0.051,-0.15L0.051,-0.148C0.051,-0.042 0.153,0.012 0.248,0.012ZM0.251,-0.034C0.173,-0.034 0.103,-0.077 0.103,-0.151L0.103,-0.153C0.103,-0.224 0.163,-0.272 0.271,-0.272C0.344,-0.272 0.401,-0.26 0.444,-0.249L0.444,-0.191C0.444,-0.098 0.355,-0.034 0.251,-0.034Z" style="fill-rule:nonzero;"/>
        </g>
        <g transform="matrix(50,0,0,50,1230.2,419.469)">
            <path d="M0.308,0.012C0.409,0.012 0.474,-0.047 0.518,-0.114L0.518,-0L0.567,-0L0.567,-0.73L0.518,-0.73L0.518,-0.4C0.476,-0.464 0.41,-0.522 0.308,-0.522C0.185,-0.522 0.06,-0.421 0.06,-0.255L0.06,-0.253C0.06,-0.087 0.185,0.012 0.308,0.012ZM0.313,-0.035C0.206,-0.035 0.113,-0.121 0.113,-0.255L0.113,-0.257C0.113,-0.394 0.202,-0.475 0.313,-0.475C0.419,-0.475 0.521,-0.387 0.521,-0.256L0.521,-0.254C0.521,-0.124 0.419,-0.035 0.313,-0.035Z" style="fill-rule:nonzero;"/>
        </g>
        <g transform="matrix(50,0,0,50,1278.2,419.469)">
            <path d="M0.287,0.012C0.38,0.012 0.437,-0.035 0.471,-0.095L0.471,-0L0.52,-0L0.52,-0.51L0.471,-0.51L0.471,-0.215C0.471,-0.109 0.394,-0.033 0.294,-0.033C0.191,-0.033 0.132,-0.102 0.132,-0.207L0.132,-0.51L0.083,-0.51L0.083,-0.198C0.083,-0.076 0.158,0.012 0.287,0.012Z" style="fill-rule:nonzero;"/>
        </g>
        <g transform="matrix(50,0,0,50,1308.85,419.469)">
            <path d="M0.258,0.01C0.356,0.01 0.434,-0.048 0.434,-0.139L0.434,-0.141C0.434,-0.231 0.348,-0.261 0.266,-0.284C0.193,-0.305 0.124,-0.326 0.124,-0.383L0.124,-0.385C0.124,-0.436 0.17,-0.474 0.24,-0.474C0.294,-0.474 0.35,-0.454 0.397,-0.423L0.423,-0.464C0.372,-0.498 0.303,-0.52 0.242,-0.52C0.143,-0.52 0.074,-0.461 0.074,-0.379L0.074,-0.377C0.074,-0.286 0.166,-0.261 0.249,-0.237C0.32,-0.217 0.384,-0.195 0.384,-0.135L0.384,-0.133C0.384,-0.074 0.33,-0.036 0.261,-0.036C0.196,-0.036 0.134,-0.06 0.078,-0.103L0.049,-0.064C0.103,-0.02 0.184,0.01 0.258,0.01Z" style="fill-rule:nonzero;"/>
        </g>
        <g transform="matrix(50,0,0,50,1333.7,419.469)">
            <path d="M0.308,0.012C0.406,0.012 0.467,-0.028 0.519,-0.084L0.485,-0.114C0.443,-0.069 0.389,-0.034 0.31,-0.034C0.21,-0.034 0.119,-0.108 0.11,-0.235L0.533,-0.235C0.534,-0.243 0.534,-0.246 0.534,-0.255C0.534,-0.406 0.443,-0.522 0.3,-0.522C0.162,-0.522 0.058,-0.404 0.058,-0.256L0.058,-0.254C0.058,-0.095 0.174,0.012 0.308,0.012ZM0.11,-0.279C0.119,-0.392 0.197,-0.477 0.298,-0.477C0.415,-0.477 0.474,-0.382 0.481,-0.279L0.11,-0.279Z" style="fill-rule:nonzero;"/>
        </g>
        <g transform="matrix(50,0,0,50,977.996,473.569)">
            <path d="M0.318,0.012C0.412,0.012 0.474,-0.03 0.526,-0.089L0.492,-0.119C0.449,-0.071 0.393,-0.034 0.321,-0.034C0.204,-0.034 0.111,-0.132 0.111,-0.255L0.111,-0.257C0.111,-0.379 0.201,-0.476 0.317,-0.476C0.393,-0.476 0.443,-0.437 0.487,-0.392L0.522,-0.428C0.474,-0.478 0.414,-0.522 0.318,-0.522C0.172,-0.522 0.058,-0.398 0.058,-0.255L0.058,-0.253C0.058,-0.11 0.171,0.012 0.318,0.012Z" style="fill-rule:nonzero;"/>
        </g>
        <g transform="matrix(50,0,0,50,1005.8,473.569)">
            <path d="M0.319,0.012C0.471,0.012 0.582,-0.112 0.582,-0.255L0.582,-0.257C0.582,-0.4 0.472,-0.522 0.321,-0.522C0.169,-0.522 0.058,-0.398 0.058,-0.255L0.058,-0.253C0.058,-0.11 0.168,0.012 0.319,0.012ZM0.321,-0.034C0.203,-0.034 0.111,-0.132 0.111,-0.255L0.111,-0.257C0.111,-0.377 0.198,-0.476 0.319,-0.476C0.437,-0.476 0.529,-0.378 0.529,-0.255L0.529,-0.253C0.529,-0.133 0.442,-0.034 0.321,-0.034Z" style="fill-rule:nonzero;"/>
        </g>
        <g transform="matrix(50,0,0,50,1037.8,473.569)">
            <path d="M0.093,-0L0.142,-0L0.142,-0.295C0.142,-0.401 0.219,-0.477 0.319,-0.477C0.422,-0.477 0.481,-0.408 0.481,-0.303L0.481,-0L0.53,-0L0.53,-0.312C0.53,-0.434 0.455,-0.522 0.326,-0.522C0.233,-0.522 0.176,-0.475 0.142,-0.415L0.142,-0.51L0.093,-0.51L0.093,-0Z" style="fill-rule:nonzero;"/>
        </g>
        <g transform="matrix(50,0,0,50,1067.45,473.569)">
            <path d="M0.27,0.004L0.312,0.004L0.541,-0.51L0.486,-0.51L0.291,-0.055L0.098,-0.51L0.041,-0.51L0.27,0.004Z" style="fill-rule:nonzero;"/>
        </g>
        <g transform="matrix(50,0,0,50,1096.55,473.569)">
            <path d="M0.094,-0.643L0.155,-0.643L0.155,-0.71L0.094,-0.71L0.094,-0.643ZM0.1,-0L0.149,-0L0.149,-0.51L0.1,-0.51L0.1,-0Z" style="fill-rule:nonzero;"/>
        </g>
        <g transform="matrix(50,0,0,50,1109,473.569)">
            <path d="M0.093,-0L0.142,-0L0.142,-0.295C0.142,-0.401 0.219,-0.477 0.319,-0.477C0.422,-0.477 0.481,-0.408 0.481,-0.303L0.481,-0L0.53,-0L0.53,-0.312C0.53,-0.434 0.455,-0.522 0.326,-0.522C0.233,-0.522 0.176,-0.475 0.142,-0.415L0.142,-0.51L0.093,-0.51L0.093,-0Z" style="fill-rule:nonzero;"/>
        </g>
        <g transform="matrix(50,0,0,50,1139.65,473.569)">
            <path d="M0.318,0.012C0.412,0.012 0.474,-0.03 0.526,-0.089L0.492,-0.119C0.449,-0.071 0.393,-0.034 0.321,-0.034C0.204,-0.034 0.111,-0.132 0.111,-0.255L0.111,-0.257C0.111,-0.379 0.201,-0.476 0.317,-0.476C0.393,-0.476 0.443,-0.437 0.487,-0.392L0.522,-0.428C0.474,-0.478 0.414,-0.522 0.318,-0.522C0.172,-0.522 0.058,-0.398 0.058,-0.255L0.058,-0.253C0.058,-0.11 0.171,0.012 0.318,0.012Z" style="fill-rule:nonzero;"/>
        </g>
        <g transform="matrix(50,0,0,50,1167.45,473.569)">
            <path d="M0.308,0.012C0.406,0.012 0.467,-0.028 0.519,-0.084L0.485,-0.114C0.443,-0.069 0.389,-0.034 0.31,-0.034C0.21,-0.034 0.119,-0.108 0.11,-0.235L0.533,-0.235C0.534,-0.243 0.534,-0.246 0.534,-0.255C0.534,-0.406 0.443,-0.522 0.3,-0.522C0.162,-0.522 0.058,-0.404 0.058,-0.256L0.058,-0.254C0.058,-0.095 0.174,0.012 0.308,0.012ZM0.11,-0.279C0.119,-0.392 0.197,-0.477 0.298,-0.477C0.415,-0.477 0.474,-0.382 0.481,-0.279L0.11,-0.279Z" style="fill-rule:nonzero;"/>
        </g>
        <g transform="matrix(50,0,0,50,1196.65,473.569)">
            <path d="M0.258,0.01C0.356,0.01 0.434,-0.048 0.434,-0.139L0.434,-0.141C0.434,-0.231 0.348,-0.261 0.266,-0.284C0.193,-0.305 0.124,-0.326 0.124,-0.383L0.124,-0.385C0.124,-0.436 0.17,-0.474 0.24,-0.474C0.294,-0.474 0.35,-0.454 0.397,-0.423L0.423,-0.464C0.372,-0.498 0.303,-0.52 0.242,-0.52C0.143,-0.52 0.074,-0.461 0.074,-0.379L0.074,-0.377C0.074,-0.286 0.166,-0.261 0.249,-0.237C0.32,-0.217 0.384,-0.195 0.384,-0.135L0.384,-0.133C0.384,-0.074 0.33,-0.036 0.261,-0.036C0.196,-0.036 0.134,-0.06 0.078,-0.103L0.049,-0.064C0.103,-0.02 0.184,0.01 0.258,0.01Z" style="fill-rule:nonzero;"/>
        </g>
        <g transform="matrix(50,0,0,50,977.996,527.669)">
            <path d="M0.093,-0L0.142,-0L0.142,-0.294C0.142,-0.397 0.214,-0.477 0.305,-0.477C0.396,-0.477 0.454,-0.412 0.454,-0.306L0.454,-0L0.503,-0L0.503,-0.297C0.503,-0.411 0.578,-0.477 0.664,-0.477C0.758,-0.477 0.815,-0.413 0.815,-0.303L0.815,-0L0.864,-0L0.864,-0.309C0.864,-0.437 0.789,-0.522 0.668,-0.522C0.572,-0.522 0.517,-0.469 0.484,-0.412C0.456,-0.471 0.401,-0.522 0.312,-0.522C0.221,-0.522 0.175,-0.472 0.142,-0.419L0.142,-0.51L0.093,-0.51L0.093,-0Z" style="fill-rule:nonzero;"/>
        </g>
        <g transform="matrix(50,0,0,50,1025.55,527.669)">
            <path d="M0.248,0.012C0.345,0.012 0.408,-0.036 0.443,-0.085L0.443,-0L0.491,-0L0.491,-0.318C0.491,-0.381 0.473,-0.428 0.439,-0.462C0.402,-0.499 0.347,-0.518 0.278,-0.518C0.208,-0.518 0.153,-0.5 0.097,-0.474L0.115,-0.431C0.162,-0.455 0.213,-0.472 0.275,-0.472C0.38,-0.472 0.443,-0.419 0.443,-0.316L0.443,-0.294C0.394,-0.307 0.345,-0.316 0.274,-0.316C0.142,-0.316 0.051,-0.256 0.051,-0.15L0.051,-0.148C0.051,-0.042 0.153,0.012 0.248,0.012ZM0.251,-0.034C0.173,-0.034 0.103,-0.077 0.103,-0.151L0.103,-0.153C0.103,-0.224 0.163,-0.272 0.271,-0.272C0.344,-0.272 0.401,-0.26 0.444,-0.249L0.444,-0.191C0.444,-0.098 0.355,-0.034 0.251,-0.034Z" style="fill-rule:nonzero;"/>
        </g>
        <g transform="matrix(50,0,0,50,1054.25,527.669)">
            <path d="M0.093,-0L0.142,-0L0.142,-0.295C0.142,-0.401 0.219,-0.477 0.319,-0.477C0.422,-0.477 0.481,-0.408 0.481,-0.303L0.481,-0L0.53,-0L0.53,-0.312C0.53,-0.434 0.455,-0.522 0.326,-0.522C0.233,-0.522 0.176,-0.475 0.142,-0.415L0.142,-0.51L0.093,-0.51L0.093,-0Z" style="fill-rule:nonzero;"/>
        </g>
        <g transform="matrix(50,0,0,50,1084.9,527.669)">
            <path d="M0.287,0.012C0.38,0.012 0.437,-0.035 0.471,-0.095L0.471,-0L0.52,-0L0.52,-0.51L0.471,-0.51L0.471,-0.215C0.471,-0.109 0.394,-0.033 0.294,-0.033C0.191,-0.033 0.132,-0.102 0.132,-0.207L0.132,-0.51L0.083,-0.51L0.083,-0.198C0.083,-0.076 0.158,0.012 0.287,0.012Z" style="fill-rule:nonzero;"/>
        </g>
        <g transform="matrix(50,0,0,50,1115.55,527.669)">
            <path d="M0.123,-0L0.172,-0L0.172,-0.465L0.35,-0.465L0.35,-0.51L0.172,-0.51L0.172,-0.559C0.172,-0.646 0.205,-0.688 0.275,-0.688C0.301,-0.688 0.322,-0.684 0.351,-0.675L0.351,-0.721C0.328,-0.729 0.306,-0.733 0.275,-0.733C0.23,-0.733 0.194,-0.719 0.168,-0.693C0.139,-0.664 0.123,-0.618 0.123,-0.56L0.123,-0.51L0.049,-0.51L0.049,-0.465L0.123,-0.465L0.123,-0Z" style="fill-rule:nonzero;"/>
        </g>
        <g transform="matrix(50,0,0,50,1132.9,527.669)">
            <path d="M0.248,0.012C0.345,0.012 0.408,-0.036 0.443,-0.085L0.443,-0L0.491,-0L0.491,-0.318C0.491,-0.381 0.473,-0.428 0.439,-0.462C0.402,-0.499 0.347,-0.518 0.278,-0.518C0.208,-0.518 0.153,-0.5 0.097,-0.474L0.115,-0.431C0.162,-0.455 0.213,-0.472 0.275,-0.472C0.38,-0.472 0.443,-0.419 0.443,-0.316L0.443,-0.294C0.394,-0.307 0.345,-0.316 0.274,-0.316C0.142,-0.316 0.051,-0.256 0.051,-0.15L0.051,-0.148C0.051,-0.042 0.153,0.012 0.248,0.012ZM0.251,-0.034C0.173,-0.034 0.103,-0.077 0.103,-0.151L0.103,-0.153C0.103,-0.224 0.163,-0.272 0.271,-0.272C0.344,-0.272 0.401,-0.26 0.444,-0.249L0.444,-0.191C0.444,-0.098 0.355,-0.034 0.251,-0.034Z" style="fill-rule:nonzero;"/>
        </g>
        <g transform="matrix(50,0,0,50,1161.6,527.669)">
            <path d="M0.318,0.012C0.412,0.012 0.474,-0.03 0.526,-0.089L0.492,-0.119C0.449,-0.071 0.393,-0.034 0.321,-0.034C0.204,-0.034 0.111,-0.132 0.111,-0.255L0.111,-0.257C0.111,-0.379 0.201,-0.476 0.317,-0.476C0.393,-0.476 0.443,-0.437 0.487,-0.392L0.522,-0.428C0.474,-0.478 0.414,-0.522 0.318,-0.522C0.172,-0.522 0.058,-0.398 0.058,-0.255L0.058,-0.253C0.058,-0.11 0.171,0.012 0.318,0.012Z" style="fill-rule:nonzero;"/>
        </g>
        <g transform="matrix(50,0,0,50,1190.15,527.669)">
            <path d="M0.263,0.009C0.295,0.009 0.32,0.003 0.346,-0.009L0.346,-0.055C0.317,-0.042 0.296,-0.037 0.271,-0.037C0.212,-0.037 0.169,-0.063 0.169,-0.136L0.169,-0.465L0.348,-0.465L0.348,-0.51L0.169,-0.51L0.169,-0.673L0.12,-0.673L0.12,-0.51L0.046,-0.51L0.046,-0.465L0.12,-0.465L0.12,-0.131C0.12,-0.034 0.184,0.009 0.263,0.009Z" style="fill-rule:nonzero;"/>
        </g>
        <g transform="matrix(50,0,0,50,1210.15,527.669)">
            <path d="M0.287,0.012C0.38,0.012 0.437,-0.035 0.471,-0.095L0.471,-0L0.52,-0L0.52,-0.51L0.471,-0.51L0.471,-0.215C0.471,-0.109 0.394,-0.033 0.294,-0.033C0.191,-0.033 0.132,-0.102 0.132,-0.207L0.132,-0.51L0.083,-0.51L0.083,-0.198C0.083,-0.076 0.158,0.012 0.287,0.012Z" style="fill-rule:nonzero;"/>
        </g>
        <g transform="matrix(50,0,0,50,1240.8,527.669)">
            <path d="M0.093,-0L0.142,-0L0.142,-0.209C0.142,-0.375 0.245,-0.464 0.363,-0.464L0.368,-0.464L0.368,-0.518C0.267,-0.522 0.182,-0.456 0.142,-0.365L0.142,-0.51L0.093,-0.51L0.093,-0Z" style="fill-rule:nonzero;"/>
        </g>
        <g transform="matrix(50,0,0,50,1259.55,527.669)">
            <path d="M0.308,0.012C0.406,0.012 0.467,-0.028 0.519,-0.084L0.485,-0.114C0.443,-0.069 0.389,-0.034 0.31,-0.034C0.21,-0.034 0.119,-0.108 0.11,-0.235L0.533,-0.235C0.534,-0.243 0.534,-0.246 0.534,-0.255C0.534,-0.406 0.443,-0.522 0.3,-0.522C0.162,-0.522 0.058,-0.404 0.058,-0.256L0.058,-0.254C0.058,-0.095 0.174,0.012 0.308,0.012ZM0.11,-0.279C0.119,-0.392 0.197,-0.477 0.298,-0.477C0.415,-0.477 0.474,-0.382 0.481,-0.279L0.11,-0.279Z" style="fill-rule:nonzero;"/>
        </g>
        <g transform="matrix(50,0,0,50,1288.75,527.669)">
            <path d="M0.093,-0L0.142,-0L0.142,-0.209C0.142,-0.375 0.245,-0.464 0.363,-0.464L0.368,-0.464L0.368,-0.518C0.267,-0.522 0.182,-0.456 0.142,-0.365L0.142,-0.51L0.093,-0.51L0.093,-0Z" style="fill-rule:nonzero;"/>
        </g>
        <g transform="matrix(50,0,0,50,1308.75,527.669)">
            <path d="M0.258,0.01C0.356,0.01 0.434,-0.048 0.434,-0.139L0.434,-0.141C0.434,-0.231 0.348,-0.261 0.266,-0.284C0.193,-0.305 0.124,-0.326 0.124,-0.383L0.124,-0.385C0.124,-0.436 0.17,-0.474 0.24,-0.474C0.294,-0.474 0.35,-0.454 0.397,-0.423L0.423,-0.464C0.372,-0.498 0.303,-0.52 0.242,-0.52C0.143,-0.52 0.074,-0.461 0.074,-0.379L0.074,-0.377C0.074,-0.286 0.166,-0.261 0.249,-0.237C0.32,-0.217 0.384,-0.195 0.384,-0.135L0.384,-0.133C0.384,-0.074 0.33,-0.036 0.261,-0.036C0.196,-0.036 0.134,-0.06 0.078,-0.103L0.049,-0.064C0.103,-0.02 0.184,0.01 0.258,0.01Z" style="fill-rule:nonzero;"/>
        </g>
    </g>
    <g transform="matrix(0.957072,0,0,0.957072,-32.3672,-51.8225)">
        <g transform="matrix(0.655177,0,0,0.678177,117.777,697.283)">
            <path d="M186.506,1230.12L238.396,1227.15L267.871,1228.1L303.887,1217.27L323.467,1237.39L351.431,1219.74L361.763,1224.95L361.763,1337.21L186.506,1333.28L186.506,1230.12Z" style="fill:rgb(255,209,209);"/>
        </g>
        <g transform="matrix(0.655177,0,0,0.678177,-89.5213,810.602)">
            <path d="M678.164,1155.91L678.164,1191.26C678.164,1205.01 670.748,1216.17 656.995,1216.17L527.825,1216.17C514.072,1216.17 502.907,1205.01 502.907,1191.26L502.907,1155.91L531.561,1161.75L566.012,1149.92L607.574,1164.62L646.082,1147.43L678.164,1155.91Z" style="fill:rgb(255,81,86);"/>
        </g>
        <g transform="matrix(0.748267,0,0,0.789518,-120.583,624.081)">
            <path d="M635.307,1109L635.307,1262.26C635.307,1272.56 626.49,1280.91 615.63,1280.91L501.53,1280.91C490.67,1280.91 481.853,1272.56 481.853,1262.26L481.853,1109C481.853,1098.71 490.67,1090.35 501.53,1090.35L615.63,1090.35C626.49,1090.35 635.307,1098.71 635.307,1109Z" style="fill:none;stroke:black;stroke-width:2.83px;"/>
        </g>
        <g transform="matrix(0.678177,0,0,0.424165,-48.9008,1036.24)">
            <path d="M605.239,1060.36L605.239,1084.93C605.239,1091.71 601.796,1097.22 597.555,1097.22L423.667,1097.22C419.426,1097.22 415.983,1091.71 415.983,1084.93L415.983,1060.36C415.983,1053.58 419.426,1048.08 423.667,1048.08L597.555,1048.08C601.796,1048.08 605.239,1053.58 605.239,1060.36Z" style="fill:white;stroke:black;stroke-width:3.85px;"/>
        </g>
        <g transform="matrix(0.678177,0,0,0.440498,-52.8128,1015.24)">
            <path d="M550.906,1056.89L481.853,1056.89L499.116,1035.22L533.642,1035.22L550.906,1056.89Z" style="fill:white;stroke:black;stroke-width:3.81px;"/>
        </g>
        <g transform="matrix(0.678177,0,0,0.538138,-47.7446,926.636)">
            <path d="M509.806,1087.63L509.806,1284.83" style="fill:none;stroke:black;stroke-width:3.56px;"/>
        </g>
        <g transform="matrix(0.678177,0,0,0.538138,-77.7248,926.636)">
            <path d="M509.806,1087.63L509.806,1284.83" style="fill:none;stroke:black;stroke-width:3.56px;"/>
        </g>
        <g transform="matrix(0.678177,0,0,0.538138,-18.9854,926.636)">
            <path d="M509.806,1087.63L509.806,1284.83" style="fill:none;stroke:black;stroke-width:3.56px;"/>
        </g>
    </g>
    <g transform="matrix(1,0,0,1,-605.271,978.855)">
        <g transform="matrix(50,0,0,50,977.996,446.838)">
            <path d="M0.258,0.01C0.356,0.01 0.434,-0.048 0.434,-0.139L0.434,-0.141C0.434,-0.231 0.348,-0.261 0.266,-0.284C0.193,-0.305 0.124,-0.326 0.124,-0.383L0.124,-0.385C0.124,-0.436 0.17,-0.474 0.24,-0.474C0.294,-0.474 0.35,-0.454 0.397,-0.423L0.423,-0.464C0.372,-0.498 0.303,-0.52 0.242,-0.52C0.143,-0.52 0.074,-0.461 0.074,-0.379L0.074,-0.377C0.074,-0.286 0.166,-0.261 0.249,-0.237C0.32,-0.217 0.384,-0.195 0.384,-0.135L0.384,-0.133C0.384,-0.074 0.33,-0.036 0.261,-0.036C0.196,-0.036 0.134,-0.06 0.078,-0.103L0.049,-0.064C0.103,-0.02 0.184,0.01 0.258,0.01Z" style="fill-rule:nonzero;"/>
        </g>
        <g transform="matrix(50,0,0,50,1002.85,446.838)">
            <path d="M0.248,0.012C0.345,0.012 0.408,-0.036 0.443,-0.085L0.443,-0L0.491,-0L0.491,-0.318C0.491,-0.381 0.473,-0.428 0.439,-0.462C0.402,-0.499 0.347,-0.518 0.278,-0.518C0.208,-0.518 0.153,-0.5 0.097,-0.474L0.115,-0.431C0.162,-0.455 0.213,-0.472 0.275,-0.472C0.38,-0.472 0.443,-0.419 0.443,-0.316L0.443,-0.294C0.394,-0.307 0.345,-0.316 0.274,-0.316C0.142,-0.316 0.051,-0.256 0.051,-0.15L0.051,-0.148C0.051,-0.042 0.153,0.012 0.248,0.012ZM0.251,-0.034C0.173,-0.034 0.103,-0.077 0.103,-0.151L0.103,-0.153C0.103,-0.224 0.163,-0.272 0.271,-0.272C0.344,-0.272 0.401,-0.26 0.444,-0.249L0.444,-0.191C0.444,-0.098 0.355,-0.034 0.251,-0.034Z" style="fill-rule:nonzero;"/>
        </g>
        <g transform="matrix(50,0,0,50,1030.55,446.838)">
            <path d="M0.27,0.004L0.312,0.004L0.541,-0.51L0.486,-0.51L0.291,-0.055L0.098,-0.51L0.041,-0.51L0.27,0.004Z" style="fill-rule:nonzero;"/>
        </g>
        <g transform="matrix(50,0,0,50,1058.15,446.838)">
            <path d="M0.308,0.012C0.406,0.012 0.467,-0.028 0.519,-0.084L0.485,-0.114C0.443,-0.069 0.389,-0.034 0.31,-0.034C0.21,-0.034 0.119,-0.108 0.11,-0.235L0.533,-0.235C0.534,-0.243 0.534,-0.246 0.534,-0.255C0.534,-0.406 0.443,-0.522 0.3,-0.522C0.162,-0.522 0.058,-0.404 0.058,-0.256L0.058,-0.254C0.058,-0.095 0.174,0.012 0.308,0.012ZM0.11,-0.279C0.119,-0.392 0.197,-0.477 0.298,-0.477C0.415,-0.477 0.474,-0.382 0.481,-0.279L0.11,-0.279Z" style="fill-rule:nonzero;"/>
        </g>
        <g transform="matrix(50,0,0,50,1102.35,446.838)">
            <path d="M0.116,-0.242C0.131,-0.28 0.142,-0.292 0.166,-0.292C0.2,-0.292 0.256,-0.251 0.294,-0.251C0.334,-0.251 0.359,-0.272 0.378,-0.344L0.344,-0.353C0.329,-0.315 0.318,-0.303 0.294,-0.303C0.26,-0.303 0.204,-0.344 0.166,-0.344C0.126,-0.344 0.101,-0.323 0.082,-0.251L0.116,-0.242Z" style="fill-rule:nonzero;"/>
        </g>
        <g transform="matrix(50,0,0,50,1125.35,446.838)">
            <path d="M0.331,0.012C0.469,0.012 0.576,-0.086 0.576,-0.218L0.576,-0.22C0.576,-0.345 0.462,-0.432 0.335,-0.432C0.221,-0.432 0.156,-0.37 0.116,-0.302C0.111,-0.516 0.203,-0.665 0.345,-0.665C0.411,-0.665 0.464,-0.639 0.518,-0.591L0.551,-0.631C0.49,-0.681 0.429,-0.712 0.349,-0.712C0.175,-0.712 0.064,-0.544 0.064,-0.333L0.064,-0.331C0.064,-0.186 0.095,-0.116 0.153,-0.058C0.195,-0.016 0.259,0.012 0.331,0.012ZM0.335,-0.035C0.222,-0.035 0.137,-0.111 0.137,-0.211L0.137,-0.213C0.137,-0.299 0.217,-0.386 0.332,-0.386C0.443,-0.386 0.522,-0.314 0.522,-0.218L0.522,-0.216C0.522,-0.117 0.448,-0.035 0.335,-0.035Z" style="fill-rule:nonzero;"/>
        </g>
        <g transform="matrix(50,0,0,50,1157.45,446.838)">
            <path d="M0.354,0.012C0.532,0.012 0.645,-0.157 0.645,-0.35L0.645,-0.352C0.645,-0.545 0.534,-0.712 0.356,-0.712C0.178,-0.712 0.065,-0.543 0.065,-0.35L0.065,-0.348C0.065,-0.155 0.176,0.012 0.354,0.012ZM0.356,-0.035C0.211,-0.035 0.119,-0.188 0.119,-0.35L0.119,-0.352C0.119,-0.515 0.209,-0.665 0.354,-0.665C0.499,-0.665 0.591,-0.513 0.591,-0.35L0.591,-0.348C0.591,-0.186 0.501,-0.035 0.356,-0.035Z" style="fill-rule:nonzero;"/>
        </g>
        <g transform="matrix(50,0,0,50,1192.95,446.838)">
            <path d="M0.208,-0.35C0.301,-0.35 0.363,-0.435 0.363,-0.529L0.363,-0.531C0.363,-0.623 0.302,-0.708 0.21,-0.708C0.117,-0.708 0.055,-0.623 0.055,-0.529L0.055,-0.527C0.055,-0.434 0.116,-0.35 0.208,-0.35ZM0.128,-0L0.182,-0L0.696,-0.7L0.642,-0.7L0.128,-0ZM0.614,0.008C0.707,0.008 0.769,-0.077 0.769,-0.171L0.769,-0.173C0.769,-0.265 0.708,-0.35 0.616,-0.35C0.523,-0.35 0.461,-0.265 0.461,-0.171L0.461,-0.169C0.461,-0.076 0.522,0.008 0.614,0.008ZM0.21,-0.393C0.154,-0.393 0.107,-0.45 0.107,-0.529L0.107,-0.531C0.107,-0.604 0.149,-0.665 0.208,-0.665C0.264,-0.665 0.311,-0.607 0.311,-0.529L0.311,-0.527C0.311,-0.452 0.269,-0.393 0.21,-0.393ZM0.616,-0.035C0.56,-0.035 0.513,-0.092 0.513,-0.171L0.513,-0.173C0.513,-0.246 0.555,-0.307 0.614,-0.307C0.67,-0.307 0.717,-0.249 0.717,-0.171L0.717,-0.169C0.717,-0.094 0.675,-0.035 0.616,-0.035Z" style="fill-rule:nonzero;"/>
        </g>
        <g transform="matrix(50,0,0,50,977.996,500.938)">
            <path d="M0.093,0.16L0.142,0.16L0.142,-0.11C0.184,-0.046 0.25,0.012 0.352,0.012C0.475,0.012 0.6,-0.089 0.6,-0.255L0.6,-0.257C0.6,-0.423 0.475,-0.522 0.352,-0.522C0.251,-0.522 0.186,-0.463 0.142,-0.396L0.142,-0.51L0.093,-0.51L0.093,0.16ZM0.347,-0.035C0.241,-0.035 0.139,-0.123 0.139,-0.254L0.139,-0.256C0.139,-0.386 0.241,-0.475 0.347,-0.475C0.454,-0.475 0.547,-0.389 0.547,-0.255L0.547,-0.253C0.547,-0.116 0.458,-0.035 0.347,-0.035Z" style="fill-rule:nonzero;"/>
        </g>
        <g transform="matrix(50,0,0,50,1011,500.938)">
            <rect x="0.1" y="-0.73" width="0.049" height="0.73" style="fill-rule:nonzero;"/>
        </g>
        <g transform="matrix(50,0,0,50,1023.45,500.938)">
            <path d="M0.248,0.012C0.345,0.012 0.408,-0.036 0.443,-0.085L0.443,-0L0.491,-0L0.491,-0.318C0.491,-0.381 0.473,-0.428 0.439,-0.462C0.402,-0.499 0.347,-0.518 0.278,-0.518C0.208,-0.518 0.153,-0.5 0.097,-0.474L0.115,-0.431C0.162,-0.455 0.213,-0.472 0.275,-0.472C0.38,-0.472 0.443,-0.419 0.443,-0.316L0.443,-0.294C0.394,-0.307 0.345,-0.316 0.274,-0.316C0.142,-0.316 0.051,-0.256 0.051,-0.15L0.051,-0.148C0.051,-0.042 0.153,0.012 0.248,0.012ZM0.251,-0.034C0.173,-0.034 0.103,-0.077 0.103,-0.151L0.103,-0.153C0.103,-0.224 0.163,-0.272 0.271,-0.272C0.344,-0.272 0.401,-0.26 0.444,-0.249L0.444,-0.191C0.444,-0.098 0.355,-0.034 0.251,-0.034Z" style="fill-rule:nonzero;"/>
        </g>
        <g transform="matrix(50,0,0,50,1052.15,500.938)">
            <path d="M0.258,0.01C0.356,0.01 0.434,-0.048 0.434,-0.139L0.434,-0.141C0.434,-0.231 0.348,-0.261 0.266,-0.284C0.193,-0.305 0.124,-0.326 0.124,-0.383L0.124,-0.385C0.124,-0.436 0.17,-0.474 0.24,-0.474C0.294,-0.474 0.35,-0.454 0.397,-0.423L0.423,-0.464C0.372,-0.498 0.303,-0.52 0.242,-0.52C0.143,-0.52 0.074,-0.461 0.074,-0.379L0.074,-0.377C0.074,-0.286 0.166,-0.261 0.249,-0.237C0.32,-0.217 0.384,-0.195 0.384,-0.135L0.384,-0.133C0.384,-0.074 0.33,-0.036 0.261,-0.036C0.196,-0.036 0.134,-0.06 0.078,-0.103L0.049,-0.064C0.103,-0.02 0.184,0.01 0.258,0.01Z" style="fill-rule:nonzero;"/>
        </g>
        <g transform="matrix(50,0,0,50,1076.5,500.938)">
            <path d="M0.263,0.009C0.295,0.009 0.32,0.003 0.346,-0.009L0.346,-0.055C0.317,-0.042 0.296,-0.037 0.271,-0.037C0.212,-0.037 0.169,-0.063 0.169,-0.136L0.169,-0.465L0.348,-0.465L0.348,-0.51L0.169,-0.51L0.169,-0.673L0.12,-0.673L0.12,-0.51L0.046,-0.51L0.046,-0.465L0.12,-0.465L0.12,-0.131C0.12,-0.034 0.184,0.009 0.263,0.009Z" style="fill-rule:nonzero;"/>
        </g>
        <g transform="matrix(50,0,0,50,1096.5,500.938)">
            <path d="M0.094,-0.643L0.155,-0.643L0.155,-0.71L0.094,-0.71L0.094,-0.643ZM0.1,-0L0.149,-0L0.149,-0.51L0.1,-0.51L0.1,-0Z" style="fill-rule:nonzero;"/>
        </g>
        <g transform="matrix(50,0,0,50,1108.95,500.938)">
            <path d="M0.318,0.012C0.412,0.012 0.474,-0.03 0.526,-0.089L0.492,-0.119C0.449,-0.071 0.393,-0.034 0.321,-0.034C0.204,-0.034 0.111,-0.132 0.111,-0.255L0.111,-0.257C0.111,-0.379 0.201,-0.476 0.317,-0.476C0.393,-0.476 0.443,-0.437 0.487,-0.392L0.522,-0.428C0.474,-0.478 0.414,-0.522 0.318,-0.522C0.172,-0.522 0.058,-0.398 0.058,-0.255L0.058,-0.253C0.058,-0.11 0.171,0.012 0.318,0.012Z" style="fill-rule:nonzero;"/>
        </g>
        <g transform="matrix(50,0,0,50,1152.5,500.938)">
            <path d="M0.236,0.004L0.278,0.004L0.431,-0.433L0.583,0.004L0.625,0.004L0.812,-0.51L0.759,-0.51L0.605,-0.062L0.451,-0.512L0.412,-0.512L0.258,-0.062L0.104,-0.51L0.049,-0.51L0.236,0.004Z" style="fill-rule:nonzero;"/>
        </g>
        <g transform="matrix(50,0,0,50,1194.55,500.938)">
            <path d="M0.248,0.012C0.345,0.012 0.408,-0.036 0.443,-0.085L0.443,-0L0.491,-0L0.491,-0.318C0.491,-0.381 0.473,-0.428 0.439,-0.462C0.402,-0.499 0.347,-0.518 0.278,-0.518C0.208,-0.518 0.153,-0.5 0.097,-0.474L0.115,-0.431C0.162,-0.455 0.213,-0.472 0.275,-0.472C0.38,-0.472 0.443,-0.419 0.443,-0.316L0.443,-0.294C0.394,-0.307 0.345,-0.316 0.274,-0.316C0.142,-0.316 0.051,-0.256 0.051,-0.15L0.051,-0.148C0.051,-0.042 0.153,0.012 0.248,0.012ZM0.251,-0.034C0.173,-0.034 0.103,-0.077 0.103,-0.151L0.103,-0.153C0.103,-0.224 0.163,-0.272 0.271,-0.272C0.344,-0.272 0.401,-0.26 0.444,-0.249L0.444,-0.191C0.444,-0.098 0.355,-0.034 0.251,-0.034Z" style="fill-rule:nonzero;"/>
        </g>
        <g transform="matrix(50,0,0,50,1223.25,500.938)">
            <path d="M0.258,0.01C0.356,0.01 0.434,-0.048 0.434,-0.139L0.434,-0.141C0.434,-0.231 0.348,-0.261 0.266,-0.284C0.193,-0.305 0.124,-0.326 0.124,-0.383L0.124,-0.385C0.124,-0.436 0.17,-0.474 0.24,-0.474C0.294,-0.474 0.35,-0.454 0.397,-0.423L0.423,-0.464C0.372,-0.498 0.303,-0.52 0.242,-0.52C0.143,-0.52 0.074,-0.461 0.074,-0.379L0.074,-0.377C0.074,-0.286 0.166,-0.261 0.249,-0.237C0.32,-0.217 0.384,-0.195 0.384,-0.135L0.384,-0.133C0.384,-0.074 0.33,-0.036 0.261,-0.036C0.196,-0.036 0.134,-0.06 0.078,-0.103L0.049,-0.064C0.103,-0.02 0.184,0.01 0.258,0.01Z" style="fill-rule:nonzero;"/>
        </g>
        <g transform="matrix(50,0,0,50,1247.6,500.938)">
            <path d="M0.263,0.009C0.295,0.009 0.32,0.003 0.346,-0.009L0.346,-0.055C0.317,-0.042 0.296,-0.037 0.271,-0.037C0.212,-0.037 0.169,-0.063 0.169,-0.136L0.169,-0.465L0.348,-0.465L0.348,-0.51L0.169,-0.51L0.169,-0.673L0.12,-0.673L0.12,-0.51L0.046,-0.51L0.046,-0.465L0.12,-0.465L0.12,-0.131C0.12,-0.034 0.184,0.009 0.263,0.009Z" style="fill-rule:nonzero;"/>
        </g>
        <g transform="matrix(50,0,0,50,1266.85,500.938)">
            <path d="M0.308,0.012C0.406,0.012 0.467,-0.028 0.519,-0.084L0.485,-0.114C0.443,-0.069 0.389,-0.034 0.31,-0.034C0.21,-0.034 0.119,-0.108 0.11,-0.235L0.533,-0.235C0.534,-0.243 0.534,-0.246 0.534,-0.255C0.534,-0.406 0.443,-0.522 0.3,-0.522C0.162,-0.522 0.058,-0.404 0.058,-0.256L0.058,-0.254C0.058,-0.095 0.174,0.012 0.308,0.012ZM0.11,-0.279C0.119,-0.392 0.197,-0.477 0.298,-0.477C0.415,-0.477 0.474,-0.382 0.481,-0.279L0.11,-0.279Z" style="fill-rule:nonzero;"/>
        </g>
    </g>
    <g transform="matrix(1,0,0,1,-605.271,763.352)">
        <g transform="matrix(50,0,0,50,977.996,419.469)">
            <path d="M0.248,0.012C0.345,0.012 0.408,-0.036 0.443,-0.085L0.443,-0L0.491,-0L0.491,-0.318C0.491,-0.381 0.473,-0.428 0.439,-0.462C0.402,-0.499 0.347,-0.518 0.278,-0.518C0.208,-0.518 0.153,-0.5 0.097,-0.474L0.115,-0.431C0.162,-0.455 0.213,-0.472 0.275,-0.472C0.38,-0.472 0.443,-0.419 0.443,-0.316L0.443,-0.294C0.394,-0.307 0.345,-0.316 0.274,-0.316C0.142,-0.316 0.051,-0.256 0.051,-0.15L0.051,-0.148C0.051,-0.042 0.153,0.012 0.248,0.012ZM0.251,-0.034C0.173,-0.034 0.103,-0.077 0.103,-0.151L0.103,-0.153C0.103,-0.224 0.163,-0.272 0.271,-0.272C0.344,-0.272 0.401,-0.26 0.444,-0.249L0.444,-0.191C0.444,-0.098 0.355,-0.034 0.251,-0.034Z" style="fill-rule:nonzero;"/>
        </g>
        <g transform="matrix(50,0,0,50,1006.7,419.469)">
            <rect x="0.1" y="-0.73" width="0.049" height="0.73" style="fill-rule:nonzero;"/>
        </g>
        <g transform="matrix(50,0,0,50,1019.15,419.469)">
            <rect x="0.1" y="-0.73" width="0.049" height="0.73" style="fill-rule:nonzero;"/>
        </g>
        <g transform="matrix(50,0,0,50,1031.6,419.469)">
            <path d="M0.319,0.012C0.471,0.012 0.582,-0.112 0.582,-0.255L0.582,-0.257C0.582,-0.4 0.472,-0.522 0.321,-0.522C0.169,-0.522 0.058,-0.398 0.058,-0.255L0.058,-0.253C0.058,-0.11 0.168,0.012 0.319,0.012ZM0.321,-0.034C0.203,-0.034 0.111,-0.132 0.111,-0.255L0.111,-0.257C0.111,-0.377 0.198,-0.476 0.319,-0.476C0.437,-0.476 0.529,-0.378 0.529,-0.255L0.529,-0.253C0.529,-0.133 0.442,-0.034 0.321,-0.034Z" style="fill-rule:nonzero;"/>
        </g>
        <g transform="matrix(50,0,0,50,1062.35,419.469)">
            <path d="M0.236,0.004L0.278,0.004L0.431,-0.433L0.583,0.004L0.625,0.004L0.812,-0.51L0.759,-0.51L0.605,-0.062L0.451,-0.512L0.412,-0.512L0.258,-0.062L0.104,-0.51L0.049,-0.51L0.236,0.004Z" style="fill-rule:nonzero;"/>
        </g>
        <g transform="matrix(50,0,0,50,1104.65,419.469)">
            <path d="M0.258,0.01C0.356,0.01 0.434,-0.048 0.434,-0.139L0.434,-0.141C0.434,-0.231 0.348,-0.261 0.266,-0.284C0.193,-0.305 0.124,-0.326 0.124,-0.383L0.124,-0.385C0.124,-0.436 0.17,-0.474 0.24,-0.474C0.294,-0.474 0.35,-0.454 0.397,-0.423L0.423,-0.464C0.372,-0.498 0.303,-0.52 0.242,-0.52C0.143,-0.52 0.074,-0.461 0.074,-0.379L0.074,-0.377C0.074,-0.286 0.166,-0.261 0.249,-0.237C0.32,-0.217 0.384,-0.195 0.384,-0.135L0.384,-0.133C0.384,-0.074 0.33,-0.036 0.261,-0.036C0.196,-0.036 0.134,-0.06 0.078,-0.103L0.049,-0.064C0.103,-0.02 0.184,0.01 0.258,0.01Z" style="fill-rule:nonzero;"/>
        </g>
        <g transform="matrix(50,0,0,50,1144.5,419.469)">
            <path d="M0.258,0.01C0.356,0.01 0.434,-0.048 0.434,-0.139L0.434,-0.141C0.434,-0.231 0.348,-0.261 0.266,-0.284C0.193,-0.305 0.124,-0.326 0.124,-0.383L0.124,-0.385C0.124,-0.436 0.17,-0.474 0.24,-0.474C0.294,-0.474 0.35,-0.454 0.397,-0.423L0.423,-0.464C0.372,-0.498 0.303,-0.52 0.242,-0.52C0.143,-0.52 0.074,-0.461 0.074,-0.379L0.074,-0.377C0.074,-0.286 0.166,-0.261 0.249,-0.237C0.32,-0.217 0.384,-0.195 0.384,-0.135L0.384,-0.133C0.384,-0.074 0.33,-0.036 0.261,-0.036C0.196,-0.036 0.134,-0.06 0.078,-0.103L0.049,-0.064C0.103,-0.02 0.184,0.01 0.258,0.01Z" style="fill-rule:nonzero;"/>
        </g>
        <g transform="matrix(50,0,0,50,1169.35,419.469)">
            <path d="M0.093,-0L0.142,-0L0.142,-0.295C0.142,-0.401 0.219,-0.477 0.319,-0.477C0.422,-0.477 0.481,-0.408 0.481,-0.303L0.481,-0L0.53,-0L0.53,-0.312C0.53,-0.434 0.455,-0.522 0.326,-0.522C0.233,-0.522 0.176,-0.475 0.142,-0.415L0.142,-0.73L0.093,-0.73L0.093,-0Z" style="fill-rule:nonzero;"/>
        </g>
        <g transform="matrix(50,0,0,50,1200,419.469)">
            <path d="M0.319,0.012C0.471,0.012 0.582,-0.112 0.582,-0.255L0.582,-0.257C0.582,-0.4 0.472,-0.522 0.321,-0.522C0.169,-0.522 0.058,-0.398 0.058,-0.255L0.058,-0.253C0.058,-0.11 0.168,0.012 0.319,0.012ZM0.321,-0.034C0.203,-0.034 0.111,-0.132 0.111,-0.255L0.111,-0.257C0.111,-0.377 0.198,-0.476 0.319,-0.476C0.437,-0.476 0.529,-0.378 0.529,-0.255L0.529,-0.253C0.529,-0.133 0.442,-0.034 0.321,-0.034Z" style="fill-rule:nonzero;"/>
        </g>
        <g transform="matrix(50,0,0,50,1232,419.469)">
            <path d="M0.093,0.16L0.142,0.16L0.142,-0.11C0.184,-0.046 0.25,0.012 0.352,0.012C0.475,0.012 0.6,-0.089 0.6,-0.255L0.6,-0.257C0.6,-0.423 0.475,-0.522 0.352,-0.522C0.251,-0.522 0.186,-0.463 0.142,-0.396L0.142,-0.51L0.093,-0.51L0.093,0.16ZM0.347,-0.035C0.241,-0.035 0.139,-0.123 0.139,-0.254L0.139,-0.256C0.139,-0.386 0.241,-0.475 0.347,-0.475C0.454,-0.475 0.547,-0.389 0.547,-0.255L0.547,-0.253C0.547,-0.116 0.458,-0.035 0.347,-0.035Z" style="fill-rule:nonzero;"/>
        </g>
        <g transform="matrix(50,0,0,50,1265,419.469)">
            <path d="M0.258,0.01C0.356,0.01 0.434,-0.048 0.434,-0.139L0.434,-0.141C0.434,-0.231 0.348,-0.261 0.266,-0.284C0.193,-0.305 0.124,-0.326 0.124,-0.383L0.124,-0.385C0.124,-0.436 0.17,-0.474 0.24,-0.474C0.294,-0.474 0.35,-0.454 0.397,-0.423L0.423,-0.464C0.372,-0.498 0.303,-0.52 0.242,-0.52C0.143,-0.52 0.074,-0.461 0.074,-0.379L0.074,-0.377C0.074,-0.286 0.166,-0.261 0.249,-0.237C0.32,-0.217 0.384,-0.195 0.384,-0.135L0.384,-0.133C0.384,-0.074 0.33,-0.036 0.261,-0.036C0.196,-0.036 0.134,-0.06 0.078,-0.103L0.049,-0.064C0.103,-0.02 0.184,0.01 0.258,0.01Z" style="fill-rule:nonzero;"/>
        </g>
        <g transform="matrix(50,0,0,50,977.996,473.569)">
            <path d="M0.263,0.009C0.295,0.009 0.32,0.003 0.346,-0.009L0.346,-0.055C0.317,-0.042 0.296,-0.037 0.271,-0.037C0.212,-0.037 0.169,-0.063 0.169,-0.136L0.169,-0.465L0.348,-0.465L0.348,-0.51L0.169,-0.51L0.169,-0.673L0.12,-0.673L0.12,-0.51L0.046,-0.51L0.046,-0.465L0.12,-0.465L0.12,-0.131C0.12,-0.034 0.184,0.009 0.263,0.009Z" style="fill-rule:nonzero;"/>
        </g>
        <g transform="matrix(50,0,0,50,997.246,473.569)">
            <path d="M0.319,0.012C0.471,0.012 0.582,-0.112 0.582,-0.255L0.582,-0.257C0.582,-0.4 0.472,-0.522 0.321,-0.522C0.169,-0.522 0.058,-0.398 0.058,-0.255L0.058,-0.253C0.058,-0.11 0.168,0.012 0.319,0.012ZM0.321,-0.034C0.203,-0.034 0.111,-0.132 0.111,-0.255L0.111,-0.257C0.111,-0.377 0.198,-0.476 0.319,-0.476C0.437,-0.476 0.529,-0.378 0.529,-0.255L0.529,-0.253C0.529,-0.133 0.442,-0.034 0.321,-0.034Z" style="fill-rule:nonzero;"/>
        </g>
        <g transform="matrix(50,0,0,50,1044.25,473.569)">
            <path d="M0.263,0.009C0.295,0.009 0.32,0.003 0.346,-0.009L0.346,-0.055C0.317,-0.042 0.296,-0.037 0.271,-0.037C0.212,-0.037 0.169,-0.063 0.169,-0.136L0.169,-0.465L0.348,-0.465L0.348,-0.51L0.169,-0.51L0.169,-0.673L0.12,-0.673L0.12,-0.51L0.046,-0.51L0.046,-0.465L0.12,-0.465L0.12,-0.131C0.12,-0.034 0.184,0.009 0.263,0.009Z" style="fill-rule:nonzero;"/>
        </g>
        <g transform="matrix(50,0,0,50,1063.5,473.569)">
            <path d="M0.308,0.012C0.406,0.012 0.467,-0.028 0.519,-0.084L0.485,-0.114C0.443,-0.069 0.389,-0.034 0.31,-0.034C0.21,-0.034 0.119,-0.108 0.11,-0.235L0.533,-0.235C0.534,-0.243 0.534,-0.246 0.534,-0.255C0.534,-0.406 0.443,-0.522 0.3,-0.522C0.162,-0.522 0.058,-0.404 0.058,-0.256L0.058,-0.254C0.058,-0.095 0.174,0.012 0.308,0.012ZM0.11,-0.279C0.119,-0.392 0.197,-0.477 0.298,-0.477C0.415,-0.477 0.474,-0.382 0.481,-0.279L0.11,-0.279Z" style="fill-rule:nonzero;"/>
        </g>
        <g transform="matrix(50,0,0,50,1092.7,473.569)">
            <path d="M0.258,0.01C0.356,0.01 0.434,-0.048 0.434,-0.139L0.434,-0.141C0.434,-0.231 0.348,-0.261 0.266,-0.284C0.193,-0.305 0.124,-0.326 0.124,-0.383L0.124,-0.385C0.124,-0.436 0.17,-0.474 0.24,-0.474C0.294,-0.474 0.35,-0.454 0.397,-0.423L0.423,-0.464C0.372,-0.498 0.303,-0.52 0.242,-0.52C0.143,-0.52 0.074,-0.461 0.074,-0.379L0.074,-0.377C0.074,-0.286 0.166,-0.261 0.249,-0.237C0.32,-0.217 0.384,-0.195 0.384,-0.135L0.384,-0.133C0.384,-0.074 0.33,-0.036 0.261,-0.036C0.196,-0.036 0.134,-0.06 0.078,-0.103L0.049,-0.064C0.103,-0.02 0.184,0.01 0.258,0.01Z" style="fill-rule:nonzero;"/>
        </g>
        <g transform="matrix(50,0,0,50,1117.05,473.569)">
            <path d="M0.263,0.009C0.295,0.009 0.32,0.003 0.346,-0.009L0.346,-0.055C0.317,-0.042 0.296,-0.037 0.271,-0.037C0.212,-0.037 0.169,-0.063 0.169,-0.136L0.169,-0.465L0.348,-0.465L0.348,-0.51L0.169,-0.51L0.169,-0.673L0.12,-0.673L0.12,-0.51L0.046,-0.51L0.046,-0.465L0.12,-0.465L0.12,-0.131C0.12,-0.034 0.184,0.009 0.263,0.009Z" style="fill-rule:nonzero;"/>
        </g>
        <g transform="matrix(50,0,0,50,977.996,527.669)">
            <path d="M0.094,-0.643L0.155,-0.643L0.155,-0.71L0.094,-0.71L0.094,-0.643ZM0.1,-0L0.149,-0L0.149,-0.51L0.1,-0.51L0.1,-0Z" style="fill-rule:nonzero;"/>
        </g>
        <g transform="matrix(50,0,0,50,990.446,527.669)">
            <path d="M0.093,-0L0.142,-0L0.142,-0.294C0.142,-0.397 0.214,-0.477 0.305,-0.477C0.396,-0.477 0.454,-0.412 0.454,-0.306L0.454,-0L0.503,-0L0.503,-0.297C0.503,-0.411 0.578,-0.477 0.664,-0.477C0.758,-0.477 0.815,-0.413 0.815,-0.303L0.815,-0L0.864,-0L0.864,-0.309C0.864,-0.437 0.789,-0.522 0.668,-0.522C0.572,-0.522 0.517,-0.469 0.484,-0.412C0.456,-0.471 0.401,-0.522 0.312,-0.522C0.221,-0.522 0.175,-0.472 0.142,-0.419L0.142,-0.51L0.093,-0.51L0.093,-0Z" style="fill-rule:nonzero;"/>
        </g>
        <g transform="matrix(50,0,0,50,1038,527.669)">
            <path d="M0.093,0.16L0.142,0.16L0.142,-0.11C0.184,-0.046 0.25,0.012 0.352,0.012C0.475,0.012 0.6,-0.089 0.6,-0.255L0.6,-0.257C0.6,-0.423 0.475,-0.522 0.352,-0.522C0.251,-0.522 0.186,-0.463 0.142,-0.396L0.142,-0.51L0.093,-0.51L0.093,0.16ZM0.347,-0.035C0.241,-0.035 0.139,-0.123 0.139,-0.254L0.139,-0.256C0.139,-0.386 0.241,-0.475 0.347,-0.475C0.454,-0.475 0.547,-0.389 0.547,-0.255L0.547,-0.253C0.547,-0.116 0.458,-0.035 0.347,-0.035Z" style="fill-rule:nonzero;"/>
        </g>
        <g transform="matrix(50,0,0,50,1071,527.669)">
            <rect x="0.1" y="-0.73" width="0.049" height="0.73" style="fill-rule:nonzero;"/>
        </g>
        <g transform="matrix(50,0,0,50,1083.45,527.669)">
            <path d="M0.308,0.012C0.406,0.012 0.467,-0.028 0.519,-0.084L0.485,-0.114C0.443,-0.069 0.389,-0.034 0.31,-0.034C0.21,-0.034 0.119,-0.108 0.11,-0.235L0.533,-0.235C0.534,-0.243 0.534,-0.246 0.534,-0.255C0.534,-0.406 0.443,-0.522 0.3,-0.522C0.162,-0.522 0.058,-0.404 0.058,-0.256L0.058,-0.254C0.058,-0.095 0.174,0.012 0.308,0.012ZM0.11,-0.279C0.119,-0.392 0.197,-0.477 0.298,-0.477C0.415,-0.477 0.474,-0.382 0.481,-0.279L0.11,-0.279Z" style="fill-rule:nonzero;"/>
        </g>
        <g transform="matrix(50,0,0,50,1112.65,527.669)">
            <path d="M0.093,-0L0.142,-0L0.142,-0.294C0.142,-0.397 0.214,-0.477 0.305,-0.477C0.396,-0.477 0.454,-0.412 0.454,-0.306L0.454,-0L0.503,-0L0.503,-0.297C0.503,-0.411 0.578,-0.477 0.664,-0.477C0.758,-0.477 0.815,-0.413 0.815,-0.303L0.815,-0L0.864,-0L0.864,-0.309C0.864,-0.437 0.789,-0.522 0.668,-0.522C0.572,-0.522 0.517,-0.469 0.484,-0.412C0.456,-0.471 0.401,-0.522 0.312,-0.522C0.221,-0.522 0.175,-0.472 0.142,-0.419L0.142,-0.51L0.093,-0.51L0.093,-0Z" style="fill-rule:nonzero;"/>
        </g>
        <g transform="matrix(50,0,0,50,1160.2,527.669)">
            <path d="M0.308,0.012C0.406,0.012 0.467,-0.028 0.519,-0.084L0.485,-0.114C0.443,-0.069 0.389,-0.034 0.31,-0.034C0.21,-0.034 0.119,-0.108 0.11,-0.235L0.533,-0.235C0.534,-0.243 0.534,-0.246 0.534,-0.255C0.534,-0.406 0.443,-0.522 0.3,-0.522C0.162,-0.522 0.058,-0.404 0.058,-0.256L0.058,-0.254C0.058,-0.095 0.174,0.012 0.308,0.012ZM0.11,-0.279C0.119,-0.392 0.197,-0.477 0.298,-0.477C0.415,-0.477 0.474,-0.382 0.481,-0.279L0.11,-0.279Z" style="fill-rule:nonzero;"/>
        </g>
        <g transform="matrix(50,0,0,50,1189.4,527.669)">
            <path d="M0.093,-0L0.142,-0L0.142,-0.295C0.142,-0.401 0.219,-0.477 0.319,-0.477C0.422,-0.477 0.481,-0.408 0.481,-0.303L0.481,-0L0.53,-0L0.53,-0.312C0.53,-0.434 0.455,-0.522 0.326,-0.522C0.233,-0.522 0.176,-0.475 0.142,-0.415L0.142,-0.51L0.093,-0.51L0.093,-0Z" style="fill-rule:nonzero;"/>
        </g>
        <g transform="matrix(50,0,0,50,1220.05,527.669)">
            <path d="M0.263,0.009C0.295,0.009 0.32,0.003 0.346,-0.009L0.346,-0.055C0.317,-0.042 0.296,-0.037 0.271,-0.037C0.212,-0.037 0.169,-0.063 0.169,-0.136L0.169,-0.465L0.348,-0.465L0.348,-0.51L0.169,-0.51L0.169,-0.673L0.12,-0.673L0.12,-0.51L0.046,-0.51L0.046,-0.465L0.12,-0.465L0.12,-0.131C0.12,-0.034 0.184,0.009 0.263,0.009Z" style="fill-rule:nonzero;"/>
        </g>
        <g transform="matrix(50,0,0,50,1240.05,527.669)">
            <path d="M0.248,0.012C0.345,0.012 0.408,-0.036 0.443,-0.085L0.443,-0L0.491,-0L0.491,-0.318C0.491,-0.381 0.473,-0.428 0.439,-0.462C0.402,-0.499 0.347,-0.518 0.278,-0.518C0.208,-0.518 0.153,-0.5 0.097,-0.474L0.115,-0.431C0.162,-0.455 0.213,-0.472 0.275,-0.472C0.38,-0.472 0.443,-0.419 0.443,-0.316L0.443,-0.294C0.394,-0.307 0.345,-0.316 0.274,-0.316C0.142,-0.316 0.051,-0.256 0.051,-0.15L0.051,-0.148C0.051,-0.042 0.153,0.012 0.248,0.012ZM0.251,-0.034C0.173,-0.034 0.103,-0.077 0.103,-0.151L0.103,-0.153C0.103,-0.224 0.163,-0.272 0.271,-0.272C0.344,-0.272 0.401,-0.26 0.444,-0.249L0.444,-0.191C0.444,-0.098 0.355,-0.034 0.251,-0.034Z" style="fill-rule:nonzero;"/>
        </g>
        <g transform="matrix(50,0,0,50,1268.5,527.669)">
            <path d="M0.263,0.009C0.295,0.009 0.32,0.003 0.346,-0.009L0.346,-0.055C0.317,-0.042 0.296,-0.037 0.271,-0.037C0.212,-0.037 0.169,-0.063 0.169,-0.136L0.169,-0.465L0.348,-0.465L0.348,-0.51L0.169,-0.51L0.169,-0.673L0.12,-0.673L0.12,-0.51L0.046,-0.51L0.046,-0.465L0.12,-0.465L0.12,-0.131C0.12,-0.034 0.184,0.009 0.263,0.009Z" style="fill-rule:nonzero;"/>
        </g>
        <g transform="matrix(50,0,0,50,1288.5,527.669)">
            <path d="M0.094,-0.643L0.155,-0.643L0.155,-0.71L0.094,-0.71L0.094,-0.643ZM0.1,-0L0.149,-0L0.149,-0.51L0.1,-0.51L0.1,-0Z" style="fill-rule:nonzero;"/>
        </g>
        <g transform="matrix(50,0,0,50,1300.95,527.669)">
            <path d="M0.319,0.012C0.471,0.012 0.582,-0.112 0.582,-0.255L0.582,-0.257C0.582,-0.4 0.472,-0.522 0.321,-0.522C0.169,-0.522 0.058,-0.398 0.058,-0.255L0.058,-0.253C0.058,-0.11 0.168,0.012 0.319,0.012ZM0.321,-0.034C0.203,-0.034 0.111,-0.132 0.111,-0.255L0.111,-0.257C0.111,-0.377 0.198,-0.476 0.319,-0.476C0.437,-0.476 0.529,-0.378 0.529,-0.255L0.529,-0.253C0.529,-0.133 0.442,-0.034 0.321,-0.034Z" style="fill-rule:nonzero;"/>
        </g>
        <g transform="matrix(50,0,0,50,1332.95,527.669)">
            <path d="M0.093,-0L0.142,-0L0.142,-0.295C0.142,-0.401 0.219,-0.477 0.319,-0.477C0.422,-0.477 0.481,-0.408 0.481,-0.303L0.481,-0L0.53,-0L0.53,-0.312C0.53,-0.434 0.455,-0.522 0.326,-0.522C0.233,-0.522 0.176,-0.475 0.142,-0.415L0.142,-0.51L0.093,-0.51L0.093,-0Z" style="fill-rule:nonzero;"/>
        </g>
    </g>
    <g transform="matrix(1,1.22465e-16,1.22465e-16,-1,-15.3427,920.002)">
        <g transform="matrix(1,1.22465e-16,1.22465e-16,-1,15.3427,920.002)">
            <path d="M1079.48,307.937L1092.12,301.584L1098.47,314.219" style="fill:none;stroke:black;stroke-width:3.33px;stroke-linejoin:miter;stroke-miterlimit:10;"/>
            <path d="M930.371,299.346C941.562,334.794 974.442,358.894 1011.61,358.894C1048,358.894 1080.27,335.804 1092.12,301.584" style="fill:none;stroke:black;stroke-width:3.33px;"/>
        </g>
    </g>
    <g transform="matrix(1.41059,0,0,1.41059,-301.643,-878.626)">
        <g transform="matrix(0.708924,-0,-0,0.708924,213.842,622.879)">
            <path d="M240.766,75.398L254.459,78.934L250.923,92.627" style="fill:none;stroke:black;stroke-width:3.33px;stroke-linejoin:miter;stroke-miterlimit:10;"/>
            <path d="M982.257,494.155C982.257,760.368 766.126,976.498 499.913,976.498C233.7,976.498 17.569,760.368 17.569,494.155C17.569,317.544 112.694,162.975 254.459,78.934" style="fill:none;stroke:black;stroke-width:3.33px;stroke-dasharray:6.67,10,0,0,0,0;"/>
        </g>
    </g>
    <g transform="matrix(1.41059,0,0,1.41059,-301.643,-878.626)">
        <g transform="matrix(0.708924,-0,-0,0.708924,213.842,622.879)">
            <path d="M886.995,189.812L885.009,203.814L871.007,201.829" style="fill:none;stroke:black;stroke-width:3.33px;stroke-linejoin:miter;stroke-miterlimit:10;"/>
            <path d="M17.569,11.811L499.913,11.811C657.159,11.811 796.931,87.219 885.009,203.814" style="fill:none;stroke:black;stroke-width:3.33px;"/>
        </g>
    </g>
    <g transform="matrix(1.41059,0,0,1.41059,721.759,-874.809)">
        <g transform="matrix(0.708924,-0,-0,0.708924,-511.672,620.173)">
            <path d="M1031,510.352L1040.98,500.328L1051,510.304" style="fill:none;stroke:black;stroke-width:3.33px;stroke-linejoin:miter;stroke-miterlimit:10;"/>
            <path d="M1139.69,205.699C1227.85,90.203 1366.94,15.627 1523.32,15.627C1789.53,15.627 2005.66,231.758 2005.66,497.971C2005.66,764.184 1789.53,980.315 1523.32,980.315C1257.89,980.315 1042.25,765.459 1040.98,500.328" style="fill:none;stroke:black;stroke-width:3.33px;"/>
        </g>
    </g>
    <g transform="matrix(0.645262,0,0,0.645262,627.352,539.809)">
        <g transform="matrix(77.4879,0,0,77.4879,1219.84,425.443)">
            <path d="M0.104,-0L0.156,-0L0.156,-0.261L0.345,-0.261C0.491,-0.261 0.618,-0.337 0.618,-0.484L0.618,-0.486C0.618,-0.621 0.512,-0.7 0.358,-0.7L0.104,-0.7L0.104,-0ZM0.156,-0.309L0.156,-0.652L0.354,-0.652C0.48,-0.652 0.566,-0.594 0.566,-0.483L0.566,-0.481C0.566,-0.377 0.478,-0.309 0.348,-0.309L0.156,-0.309Z" style="fill-rule:nonzero;"/>
        </g>
        <g transform="matrix(77.4879,0,0,77.4879,1271.6,425.443)">
            <path d="M0.104,-0L0.156,-0L0.156,-0.328L0.604,-0.328L0.604,-0L0.656,-0L0.656,-0.7L0.604,-0.7L0.604,-0.376L0.156,-0.376L0.156,-0.7L0.104,-0.7L0.104,-0Z" style="fill-rule:nonzero;"/>
        </g>
        <g transform="matrix(77.4879,0,0,77.4879,1330.49,425.443)">
            <path d="M0.044,-0L0.098,-0L0.187,-0.196L0.6,-0.196L0.689,-0L0.746,-0L0.42,-0.705L0.37,-0.705L0.044,-0ZM0.209,-0.243L0.394,-0.648L0.578,-0.243L0.209,-0.243Z" style="fill-rule:nonzero;"/>
        </g>
        <g transform="matrix(77.4879,0,0,77.4879,1390.54,425.443)">
            <path d="M0.341,0.01C0.476,0.01 0.573,-0.068 0.573,-0.181L0.573,-0.183C0.573,-0.285 0.505,-0.343 0.343,-0.376C0.177,-0.41 0.139,-0.455 0.139,-0.529L0.139,-0.531C0.139,-0.604 0.207,-0.663 0.31,-0.663C0.387,-0.663 0.453,-0.641 0.519,-0.584L0.552,-0.625C0.481,-0.682 0.414,-0.71 0.312,-0.71C0.182,-0.71 0.087,-0.63 0.087,-0.526L0.087,-0.524C0.087,-0.418 0.155,-0.361 0.323,-0.327C0.482,-0.295 0.521,-0.252 0.521,-0.178L0.521,-0.176C0.521,-0.096 0.449,-0.037 0.344,-0.037C0.241,-0.037 0.17,-0.07 0.093,-0.141L0.059,-0.102C0.143,-0.027 0.229,0.01 0.341,0.01Z" style="fill-rule:nonzero;"/>
        </g>
        <g transform="matrix(77.4879,0,0,77.4879,1440.13,425.443)">
            <path d="M0.104,-0L0.607,-0L0.607,-0.048L0.156,-0.048L0.156,-0.329L0.557,-0.329L0.557,-0.377L0.156,-0.377L0.156,-0.652L0.602,-0.652L0.602,-0.7L0.104,-0.7L0.104,-0Z" style="fill-rule:nonzero;"/>
        </g>
        <g transform="matrix(77.4879,0,0,77.4879,1515.3,425.443)">
            <rect x="0.111" y="-0.7" width="0.052" height="0.7" style="fill-rule:nonzero;"/>
        </g>
        <g transform="matrix(77.4879,0,0,77.4879,1536.53,425.443)">
            <rect x="0.111" y="-0.7" width="0.052" height="0.7" style="fill-rule:nonzero;"/>
        </g>
    </g>
    <g transform="matrix(0.645262,0,0,0.645262,-384.432,540.409)">
        <g transform="matrix(77.4879,0,0,77.4879,1211.97,425.443)">
            <path d="M0.104,-0L0.156,-0L0.156,-0.261L0.345,-0.261C0.491,-0.261 0.618,-0.337 0.618,-0.484L0.618,-0.486C0.618,-0.621 0.512,-0.7 0.358,-0.7L0.104,-0.7L0.104,-0ZM0.156,-0.309L0.156,-0.652L0.354,-0.652C0.48,-0.652 0.566,-0.594 0.566,-0.483L0.566,-0.481C0.566,-0.377 0.478,-0.309 0.348,-0.309L0.156,-0.309Z" style="fill-rule:nonzero;"/>
        </g>
        <g transform="matrix(77.4879,0,0,77.4879,1263.73,425.443)">
            <path d="M0.104,-0L0.156,-0L0.156,-0.328L0.604,-0.328L0.604,-0L0.656,-0L0.656,-0.7L0.604,-0.7L0.604,-0.376L0.156,-0.376L0.156,-0.7L0.104,-0.7L0.104,-0Z" style="fill-rule:nonzero;"/>
        </g>
        <g transform="matrix(77.4879,0,0,77.4879,1322.62,425.443)">
            <path d="M0.044,-0L0.098,-0L0.187,-0.196L0.6,-0.196L0.689,-0L0.746,-0L0.42,-0.705L0.37,-0.705L0.044,-0ZM0.209,-0.243L0.394,-0.648L0.578,-0.243L0.209,-0.243Z" style="fill-rule:nonzero;"/>
        </g>
        <g transform="matrix(77.4879,0,0,77.4879,1382.68,425.443)">
            <path d="M0.341,0.01C0.476,0.01 0.573,-0.068 0.573,-0.181L0.573,-0.183C0.573,-0.285 0.505,-0.343 0.343,-0.376C0.177,-0.41 0.139,-0.455 0.139,-0.529L0.139,-0.531C0.139,-0.604 0.207,-0.663 0.31,-0.663C0.387,-0.663 0.453,-0.641 0.519,-0.584L0.552,-0.625C0.481,-0.682 0.414,-0.71 0.312,-0.71C0.182,-0.71 0.087,-0.63 0.087,-0.526L0.087,-0.524C0.087,-0.418 0.155,-0.361 0.323,-0.327C0.482,-0.295 0.521,-0.252 0.521,-0.178L0.521,-0.176C0.521,-0.096 0.449,-0.037 0.344,-0.037C0.241,-0.037 0.17,-0.07 0.093,-0.141L0.059,-0.102C0.143,-0.027 0.229,0.01 0.341,0.01Z" style="fill-rule:nonzero;"/>
        </g>
        <g transform="matrix(77.4879,0,0,77.4879,1432.27,425.443)">
            <path d="M0.104,-0L0.607,-0L0.607,-0.048L0.156,-0.048L0.156,-0.329L0.557,-0.329L0.557,-0.377L0.156,-0.377L0.156,-0.652L0.602,-0.652L0.602,-0.7L0.104,-0.7L0.104,-0Z" style="fill-rule:nonzero;"/>
        </g>
        <g transform="matrix(77.4879,0,0,77.4879,1507.43,425.443)">
            <rect x="0.111" y="-0.7" width="0.052" height="0.7" style="fill-rule:nonzero;"/>
        </g>
    </g>
    <g transform="matrix(1.00044,0,0,1.00044,-29.7779,-170.631)">
        <g transform="matrix(3.00317,0,0,3.00317,-109.589,-2712.63)">
            <g transform="matrix(1,0,0,0.371062,-1117.54,1004.93)">
                <rect x="1558.87" y="135.062" width="94.497" height="10.308" style="fill:rgb(30,77,164);stroke:black;stroke-width:1.47px;"/>
            </g>
            <g transform="matrix(1,0,0,0.371062,-1117.54,1124.61)">
                <rect x="1558.87" y="135.062" width="94.497" height="10.308" style="fill:rgb(30,77,164);stroke:black;stroke-width:1.47px;"/>
            </g>
            <g transform="matrix(1,0,0,1,-1117.54,913.501)">
                <path d="M1653.37,261.229C1648.63,242.99 1648.89,255.456 1649,203.3C1649.1,156.865 1648.47,165.827 1653.37,145.37L1558.87,145.37C1563.76,165.827 1563.14,156.865 1563.23,203.3C1563.34,255.456 1563.6,242.99 1558.87,261.229L1653.37,261.229Z" style="fill:rgb(30,77,164);stroke:black;stroke-width:1.11px;"/>
            </g>
            <g transform="matrix(1.99835,0,0,1.99835,-494.06,-1988.44)">
                <ellipse cx="491.333" cy="1553.24" rx="9.812" ry="5.424" style="fill:rgb(255,81,86);stroke:black;stroke-opacity:0;stroke-width:0.56px;"/>
            </g>
            <g transform="matrix(1.53272,0,0,1.53272,-265.344,-1264.34)">
                <path d="M498.316,1551.39L498.316,1553.96C498.316,1554.67 497.74,1555.24 497.031,1555.24L485.716,1555.24C485.007,1555.24 484.431,1554.67 484.431,1553.96L484.431,1551.39C484.431,1550.68 485.007,1550.11 485.716,1550.11L497.031,1550.11C497.74,1550.11 498.316,1550.68 498.316,1551.39Z" style="fill:white;stroke:black;stroke-opacity:0;stroke-width:0.72px;"/>
            </g>
            <g transform="matrix(1,0,0,1,35.5079,-57.1289)">
                <path d="M415.162,1123.84C415.162,1123.84 417.11,1131.12 417.11,1133.99C417.11,1136.86 417.298,1210.73 417.298,1210.73" style="fill:none;stroke:white;stroke-width:1.11px;"/>
            </g>
        </g>
        <g transform="matrix(3.00317,0,0,3.00317,279.276,-2712.63)">
            <g transform="matrix(1,0,0,1,-1117.54,913.501)">
                <path d="M1653.37,261.229C1648.63,242.99 1651.52,226.925 1651.57,203.3C1651.61,182.266 1648.47,165.827 1653.37,145.37C1654.13,142.17 1652.38,141.545 1649.52,141.545L1561.82,141.545C1559.83,141.545 1558.28,142.898 1558.87,145.37C1563.76,165.827 1559.95,182.266 1560,203.3C1560.05,226.925 1563.6,242.99 1558.87,261.229C1558.14,264.034 1559.98,265.054 1562.87,265.054L1650.11,265.054C1652.78,265.054 1654.07,263.957 1653.37,261.229Z" style="fill:rgb(103,140,209);stroke:black;stroke-width:1.11px;"/>
            </g>
            <g transform="matrix(1.99835,0,0,1.99835,-493.277,-1987.12)">
                <ellipse cx="491.333" cy="1553.24" rx="9.812" ry="5.424" style="fill:rgb(255,81,86);stroke:black;stroke-opacity:0;stroke-width:0.56px;"/>
            </g>
            <g transform="matrix(1.53272,0,0,1.53272,-264.561,-1263.02)">
                <path d="M498.316,1551.39L498.316,1553.96C498.316,1554.67 497.74,1555.24 497.031,1555.24L485.716,1555.24C485.007,1555.24 484.431,1554.67 484.431,1553.96L484.431,1551.39C484.431,1550.68 485.007,1550.11 485.716,1550.11L497.031,1550.11C497.74,1550.11 498.316,1550.68 498.316,1551.39Z" style="fill:white;stroke:black;stroke-opacity:0;stroke-width:0.72px;"/>
            </g>
            <g transform="matrix(0.470086,2.25367e-19,2.25367e-19,0.469702,-322.429,971.334)">
                <path d="M1629.38,404.22L1664.49,441.177" style="fill:none;stroke:black;stroke-width:2.36px;stroke-dasharray:4.72,7.08,0,0,0,0;"/>
            </g>
            <g transform="matrix(0.469566,0.00234513,-0.00234321,0.469182,-307.819,868.203)">
                <path d="M1598.51,403.22L1797.57,402.225" style="fill:none;stroke:black;stroke-width:2.36px;stroke-dasharray:4.73,7.09,0,0,0,0;"/>
            </g>
        </g>
        <g transform="matrix(1.73856,0,0,1.3894,595.895,-1401.87)">
            <g transform="matrix(0.574938,-0,-0,0.719424,-325.632,1131.73)">
                <path d="M1545.54,465.962L1550.54,470.962L1545.54,475.962" style="fill:none;stroke:black;stroke-width:3.33px;stroke-linejoin:miter;stroke-miterlimit:10;"/>
                <path d="M1481.38,470.962L1550.54,470.962" style="fill:none;stroke:black;stroke-width:3.33px;"/>
            </g>
        </g>
    </g>
    <path d="M1857.96,303.714C1857.96,303.714 1873.57,299.302 1881.34,311.374C1890.01,324.852 1910.07,313.7 1903.52,300.079" style="fill:none;stroke:black;stroke-width:2.08px;"/>
    <g transform="matrix(1.39,0,0,1.39,-361.864,-990.704)">
        <g transform="matrix(1.25131,0,0,1,-115.343,-362.143)">
            <g transform="matrix(0.574938,-0,-0,0.719424,300.228,1074.88)">
                <path d="M456.969,544.991L461.969,549.991L456.969,554.991" style="fill:none;stroke:black;stroke-width:3.33px;stroke-linejoin:miter;stroke-miterlimit:10;"/>
                <path d="M392.811,549.991L461.969,549.991" style="fill:none;stroke:black;stroke-width:3.33px;"/>
            </g>
        </g>
        <g>
            <g transform="matrix(1,0,0,1,-1117.54,913.501)">
                <rect x="1558.87" y="135.062" width="94.497" height="10.308" style="fill:rgb(30,77,164);stroke:black;stroke-width:2.4px;"/>
            </g>
            <g transform="matrix(1,0,0,1,-1117.54,1039.67)">
                <rect x="1558.87" y="135.062" width="94.497" height="10.308" style="fill:rgb(30,77,164);stroke:black;stroke-width:2.4px;"/>
            </g>
            <g transform="matrix(1,0,0,1,-1117.54,913.501)">
                <path d="M1653.37,261.229C1648.63,242.99 1648.89,255.456 1649,203.3C1649.1,156.865 1648.47,165.827 1653.37,145.37L1558.87,145.37C1563.76,165.827 1563.14,156.865 1563.23,203.3C1563.34,255.456 1563.6,242.99 1558.87,261.229L1653.37,261.229Z" style="fill:rgb(30,77,164);stroke:black;stroke-width:2.4px;"/>
            </g>
            <g transform="matrix(1.99835,0,0,1.99835,-494.06,-1988.44)">
                <ellipse cx="491.333" cy="1553.24" rx="9.812" ry="5.424" style="fill:rgb(255,81,86);stroke:black;stroke-opacity:0;stroke-width:1.2px;"/>
            </g>
            <g transform="matrix(1.53272,0,0,1.53272,-265.344,-1264.34)">
                <path d="M498.316,1551.39L498.316,1553.96C498.316,1554.67 497.74,1555.24 497.031,1555.24L485.716,1555.24C485.007,1555.24 484.431,1554.67 484.431,1553.96L484.431,1551.39C484.431,1550.68 485.007,1550.11 485.716,1550.11L497.031,1550.11C497.74,1550.11 498.316,1550.68 498.316,1551.39Z" style="fill:white;stroke:black;stroke-opacity:0;stroke-width:1.56px;"/>
            </g>
            <g transform="matrix(1,0,0,1,35.5079,-57.1289)">
                <path d="M415.162,1123.84C415.162,1123.84 417.11,1131.12 417.11,1133.99C417.11,1136.86 417.298,1210.73 417.298,1210.73" style="fill:none;stroke:white;stroke-width:2.4px;"/>
            </g>
        </g>
        <g transform="matrix(2.16149,0,0,2.16149,-359.553,-1362.4)">
            <g transform="matrix(1,0,0,0.371062,-1117.54,1004.93)">
                <rect x="1558.87" y="135.062" width="94.497" height="10.308" style="fill:rgb(30,77,164);stroke:black;stroke-width:1.47px;"/>
            </g>
            <g transform="matrix(1,0,0,0.371062,-1117.54,1124.61)">
                <rect x="1558.87" y="135.062" width="94.497" height="10.308" style="fill:rgb(30,77,164);stroke:black;stroke-width:1.47px;"/>
            </g>
            <g transform="matrix(1,0,0,1,-1117.54,913.501)">
                <path d="M1653.37,261.229C1648.63,242.99 1648.89,255.456 1649,203.3C1649.1,156.865 1648.47,165.827 1653.37,145.37L1558.87,145.37C1563.76,165.827 1563.14,156.865 1563.23,203.3C1563.34,255.456 1563.6,242.99 1558.87,261.229L1653.37,261.229Z" style="fill:rgb(30,77,164);stroke:black;stroke-width:1.11px;"/>
            </g>
            <g transform="matrix(1.99835,0,0,1.99835,-494.06,-1988.44)">
                <ellipse cx="491.333" cy="1553.24" rx="9.812" ry="5.424" style="fill:rgb(255,81,86);stroke:black;stroke-opacity:0;stroke-width:0.56px;"/>
            </g>
            <g transform="matrix(1.53272,0,0,1.53272,-265.344,-1264.34)">
                <path d="M498.316,1551.39L498.316,1553.96C498.316,1554.67 497.74,1555.24 497.031,1555.24L485.716,1555.24C485.007,1555.24 484.431,1554.67 484.431,1553.96L484.431,1551.39C484.431,1550.68 485.007,1550.11 485.716,1550.11L497.031,1550.11C497.74,1550.11 498.316,1550.68 498.316,1551.39Z" style="fill:white;stroke:black;stroke-opacity:0;stroke-width:0.72px;"/>
            </g>
            <g transform="matrix(1,0,0,1,35.5079,-57.1289)">
                <path d="M415.162,1123.84C415.162,1123.84 417.11,1131.12 417.11,1133.99C417.11,1136.86 417.298,1210.73 417.298,1210.73" style="fill:none;stroke:white;stroke-width:1.11px;"/>
            </g>
        </g>
    </g>
    <g>
        <g transform="matrix(0.154088,0.154715,-0.154715,0.154088,559.105,286.987)">
            <path d="M1284.81,854.138L932.008,854.138L845.55,774.848L1198.36,774.848L1284.81,854.138Z" style="fill:rgb(212,153,76);"/>
        </g>
        <g transform="matrix(0.218275,0.00600312,-0.00600312,0.218275,376.317,395.113)">
            <path d="M1284.81,854.138L932.008,854.138L845.55,774.848L1198.36,774.848L1284.81,854.138Z" style="fill:rgb(255,199,62);"/>
        </g>
        <g transform="matrix(-0.0565151,0.210917,-0.210917,-0.0565151,829.212,388.51)">
            <path d="M1284.81,854.138L932.008,854.138L845.55,774.848L1198.36,774.848L1284.81,854.138Z" style="fill:rgb(255,216,62);"/>
        </g>
        <g transform="matrix(0.154088,0.154715,-0.154715,0.154088,1283.69,286.987)">
            <path d="M1284.81,854.138L932.008,854.138L845.55,774.848L1198.36,774.848L1284.81,854.138Z" style="fill:rgb(212,153,76);"/>
        </g>
        <g transform="matrix(0.218275,0.00600312,-0.00600312,0.218275,1100.9,395.113)">
            <path d="M1284.81,854.138L932.008,854.138L845.55,774.848L1198.36,774.848L1284.81,854.138Z" style="fill:rgb(255,199,62);"/>
        </g>
        <g transform="matrix(-0.0565151,0.210917,-0.210917,-0.0565151,1553.79,388.51)">
            <path d="M1284.81,854.138L932.008,854.138L845.55,774.848L1198.36,774.848L1284.81,854.138Z" style="fill:rgb(255,216,62);"/>
        </g>
        <g transform="matrix(0.154088,0.154715,-0.154715,0.154088,1672.77,286.987)">
            <path d="M1284.81,854.138L932.008,854.138L845.55,774.848L1198.36,774.848L1284.81,854.138Z" style="fill:rgb(212,153,76);"/>
        </g>
        <g transform="matrix(0.218275,0.00600312,-0.00600312,0.218275,1489.98,395.113)">
            <path d="M1284.81,854.138L932.008,854.138L845.55,774.848L1198.36,774.848L1284.81,854.138Z" style="fill:rgb(255,199,62);"/>
        </g>
        <g transform="matrix(-0.0565151,0.210917,-0.210917,-0.0565151,1942.88,388.51)">
            <path d="M1284.81,854.138L932.008,854.138L845.55,774.848L1198.36,774.848L1284.81,854.138Z" style="fill:rgb(255,216,62);"/>
        </g>
        <g transform="matrix(0.0551894,0.0554139,-0.0554139,0.0551894,301.207,502.469)">
            <path d="M1284.81,854.138L932.008,854.138L845.55,774.848L1198.36,774.848L1284.81,854.138Z" style="fill:rgb(212,153,76);"/>
        </g>
        <g transform="matrix(0.0781789,0.00215012,-0.00215012,0.0781789,235.739,541.417)">
            <path d="M1284.81,854.138L932.008,854.138L845.55,774.848L1198.36,774.848L1284.81,854.138Z" style="fill:rgb(255,199,62);"/>
        </g>
        <g transform="matrix(-0.0202419,0.0755436,-0.0755436,-0.0202419,397.951,538.831)">
            <path d="M1284.81,854.138L932.008,854.138L845.55,774.848L1198.36,774.848L1284.81,854.138Z" style="fill:rgb(255,216,62);"/>
        </g>
    </g>
    <g transform="matrix(1.2537,0,0,1.2537,-68.9967,-940.266)">
        <g transform="matrix(0.245856,0.141945,-0.141945,0.245856,429.075,1143.86)">
            <g transform="matrix(433.389,0,0,433.389,374.035,2156.42)">
                <path d="M0.251,-0.216C0.274,-0.216 0.29,-0.234 0.294,-0.256L0.298,-0.302C0.409,-0.321 0.5,-0.378 0.5,-0.504L0.5,-0.506C0.5,-0.631 0.405,-0.709 0.265,-0.709C0.173,-0.709 0.106,-0.676 0.053,-0.626C0.039,-0.614 0.033,-0.598 0.033,-0.583C0.033,-0.553 0.058,-0.528 0.089,-0.528C0.103,-0.528 0.116,-0.534 0.126,-0.542C0.166,-0.578 0.209,-0.597 0.262,-0.597C0.334,-0.597 0.377,-0.558 0.377,-0.502L0.377,-0.5C0.377,-0.437 0.325,-0.401 0.231,-0.392C0.204,-0.389 0.188,-0.369 0.192,-0.342L0.202,-0.256C0.205,-0.233 0.222,-0.216 0.245,-0.216L0.251,-0.216ZM0.174,-0.074L0.174,-0.064C0.174,-0.025 0.204,0.005 0.245,0.005C0.286,0.005 0.316,-0.025 0.316,-0.064L0.316,-0.074C0.316,-0.113 0.286,-0.143 0.245,-0.143C0.204,-0.143 0.174,-0.113 0.174,-0.074Z" style="fill:rgb(255,81,86);fill-rule:nonzero;"/>
            </g>
        </g>
        <g transform="matrix(1.20713,0,0,-1.16022,-50.054,3742.93)">
            <path d="M294.32,1754.95L216.82,1754.95L231.035,1707.63L280.105,1707.63L294.32,1754.95Z" style="fill:none;stroke:black;stroke-width:1.4px;"/>
        </g>
        <path d="M190.831,1688.49L208.585,1695.97L211.677,1706.82L228.837,1761.72L222.991,1776.44L294.176,1776.44" style="fill:none;stroke:black;stroke-width:1.66px;"/>
        <g transform="matrix(1,0,0,1,-8.53885,0)">
            <path d="M244.78,1706.82L250.259,1761.72" style="fill:none;stroke:black;stroke-width:1.66px;"/>
        </g>
        <g transform="matrix(1,0,0,1,6.22445,0)">
            <path d="M275.336,1706.82L269.305,1761.72" style="fill:none;stroke:black;stroke-width:1.66px;"/>
        </g>
        <path d="M220.257,1734.27L296.65,1734.27" style="fill:none;stroke:black;stroke-width:1.66px;"/>
        <g transform="matrix(1.01655,0,0,1.01655,-12.6806,-27.1233)">
            <circle cx="242.161" cy="1781.42" r="8.098" style="fill:white;stroke:black;stroke-width:1.63px;"/>
        </g>
        <g transform="matrix(1.01655,0,0,1.01655,35.3915,-27.1233)">
            <circle cx="242.161" cy="1781.42" r="8.098" style="fill:white;stroke:black;stroke-width:1.63px;"/>
        </g>
        <g transform="matrix(1,0,0,1,-1.77073,0)">
            <path d="M260.224,1706.82L260.224,1761.72" style="fill:none;stroke:black;stroke-width:1.66px;"/>
        </g>
    </g>
    <g transform="matrix(1.2537,0,0,1.2537,958.562,-940.266)">
        <g transform="matrix(0.28389,1.38778e-17,-1.38778e-17,0.28389,118.927,1130.56)">
            <g transform="matrix(433.389,0,0,433.389,425.825,2156.42)">
                <path d="M0.115,-0.252C0.117,-0.23 0.131,-0.216 0.151,-0.216C0.171,-0.216 0.186,-0.23 0.188,-0.252L0.223,-0.66C0.225,-0.684 0.21,-0.703 0.187,-0.703L0.115,-0.703C0.092,-0.703 0.078,-0.684 0.08,-0.66L0.115,-0.252ZM0.08,-0.074L0.08,-0.064C0.08,-0.025 0.111,0.005 0.151,0.005C0.192,0.005 0.222,-0.025 0.222,-0.064L0.222,-0.074C0.222,-0.113 0.192,-0.143 0.151,-0.143C0.111,-0.143 0.08,-0.113 0.08,-0.074Z" style="fill:rgb(195,194,255);fill-rule:nonzero;"/>
            </g>
        </g>
        <g transform="matrix(1.20713,0,0,-1.16022,-50.054,3742.93)">
            <path d="M294.32,1754.95L216.82,1754.95L231.035,1707.63L280.105,1707.63L294.32,1754.95Z" style="fill:none;stroke:black;stroke-width:1.4px;"/>
        </g>
        <path d="M190.831,1688.49L208.585,1695.97L211.677,1706.82L228.837,1761.72L222.991,1776.44L294.176,1776.44" style="fill:none;stroke:black;stroke-width:1.66px;"/>
        <g transform="matrix(1,0,0,1,-8.53885,0)">
            <path d="M244.78,1706.82L250.259,1761.72" style="fill:none;stroke:black;stroke-width:1.66px;"/>
        </g>
        <g transform="matrix(1,0,0,1,6.22445,0)">
            <path d="M275.336,1706.82L269.305,1761.72" style="fill:none;stroke:black;stroke-width:1.66px;"/>
        </g>
        <path d="M220.257,1734.27L296.65,1734.27" style="fill:none;stroke:black;stroke-width:1.66px;"/>
        <g transform="matrix(1.01655,0,0,1.01655,-12.6806,-27.1233)">
            <circle cx="242.161" cy="1781.42" r="8.098" style="fill:white;stroke:black;stroke-width:1.63px;"/>
        </g>
        <g transform="matrix(1.01655,0,0,1.01655,35.3915,-27.1233)">
            <circle cx="242.161" cy="1781.42" r="8.098" style="fill:white;stroke:black;stroke-width:1.63px;"/>
        </g>
        <g transform="matrix(1,0,0,1,-1.77073,0)">
            <path d="M260.224,1706.82L260.224,1761.72" style="fill:none;stroke:black;stroke-width:1.66px;"/>
        </g>
    </g>
</svg>
