<?xml version="1.0" encoding="UTF-8" standalone="no"?>
<!DOCTYPE svg PUBLIC "-//W3C//DTD SVG 1.1//EN" "http://www.w3.org/Graphics/SVG/1.1/DTD/svg11.dtd">
<svg width="100%" height="100%" viewBox="0 0 924 711" version="1.1" xmlns="http://www.w3.org/2000/svg" xmlns:xlink="http://www.w3.org/1999/xlink" xml:space="preserve" xmlns:serif="http://www.serif.com/" style="fill-rule:evenodd;clip-rule:evenodd;stroke-linecap:round;stroke-linejoin:round;stroke-miterlimit:1.5;">
    <g transform="matrix(1,0,0,1,-10.7694,-117.069)">
        <g transform="matrix(1.12478,0,0,1.12478,-171.464,88.6356)">
            <g transform="matrix(3.07771,0,0,3.07771,-4634.8,-389.478)">
                <rect x="1558.87" y="135.062" width="94.497" height="10.308" style="fill:rgb(30,77,164);stroke:black;stroke-width:0.6px;"/>
            </g>
            <g transform="matrix(3.07771,0,0,3.07771,-4634.8,-1.17242)">
                <rect x="1558.87" y="135.062" width="94.497" height="10.308" style="fill:rgb(30,77,164);stroke:black;stroke-width:0.6px;"/>
            </g>
            <g transform="matrix(3.07771,0,0,3.07771,-4634.8,-389.478)">
                <path d="M1653.37,261.229C1648.63,242.99 1648.89,255.456 1649,203.3C1649.1,156.865 1648.47,165.827 1653.37,145.37L1558.87,145.37C1563.76,165.827 1563.14,156.865 1563.23,203.3C1563.34,255.456 1563.6,242.99 1558.87,261.229L1653.37,261.229Z" style="fill:rgb(30,77,164);stroke:black;stroke-width:0.6px;"/>
            </g>
            <g transform="matrix(6.15035,0,0,6.15035,-2715.92,-9320.8)">
                <ellipse cx="491.333" cy="1553.24" rx="9.812" ry="5.424" style="fill:rgb(255,81,86);"/>
            </g>
            <g transform="matrix(4.71729,0,0,4.71729,-2012,-7092.23)">
                <path d="M498.316,1551.39L498.316,1553.96C498.316,1554.67 497.74,1555.24 497.031,1555.24L485.716,1555.24C485.007,1555.24 484.431,1554.67 484.431,1553.96L484.431,1551.39C484.431,1550.68 485.007,1550.11 485.716,1550.11L497.031,1550.11C497.74,1550.11 498.316,1550.68 498.316,1551.39Z" style="fill:white;stroke:black;stroke-opacity:0;stroke-width:1.56px;"/>
            </g>
            <g transform="matrix(0.151771,0.152388,-0.152388,0.151771,264.21,49.7814)">
                <path d="M1284.81,854.138L932.008,854.138L845.55,774.848L1198.36,774.848L1284.81,854.138Z" style="fill:rgb(212,153,76);"/>
            </g>
            <g transform="matrix(0.214992,0.00591282,-0.00591282,0.214992,84.1711,154.138)">
                <path d="M1284.81,854.138L932.008,854.138L845.55,774.848L1198.36,774.848L1284.81,854.138Z" style="fill:rgb(255,199,62);"/>
            </g>
            <g transform="matrix(-0.055665,0.207745,-0.207745,-0.055665,530.254,149.777)">
                <path d="M1284.81,854.138L932.008,854.138L845.55,774.848L1198.36,774.848L1284.81,854.138Z" style="fill:rgb(255,216,62);"/>
            </g>
        </g>
        <g transform="matrix(1.10909,0,0,1.10909,-1145.38,61.2091)">
            <g transform="matrix(0.305543,0.306786,-0.306786,0.305543,1639.91,-234.581)">
                <path d="M1284.81,854.138L932.008,854.138L845.55,774.848L1198.36,774.848L1284.81,854.138Z" style="fill:rgb(212,153,76);stroke:black;stroke-width:4.34px;"/>
            </g>
            <g transform="matrix(-0.109455,0.41892,-0.41892,-0.109455,2255.13,-133.395)">
                <path d="M1284.81,854.138L932.008,854.138L845.55,774.848L1198.36,774.848L1284.81,854.138Z" style="fill:rgb(212,153,76);stroke:black;stroke-width:4.34px;"/>
            </g>
            <g transform="matrix(0.432819,0.0119036,-0.0119036,0.432819,1277.46,-10.9819)">
                <path d="M1284.81,854.138L932.008,854.138L845.55,774.848L1198.36,774.848L1284.81,854.138Z" style="fill:rgb(255,199,62);stroke:black;stroke-width:4.34px;"/>
            </g>
            <g transform="matrix(0.432819,0.0119036,-0.0119036,0.432819,1251.41,-84.594)">
                <path d="M1284.81,854.138L932.008,854.138L845.55,774.848L1198.36,774.848L1284.81,854.138Z" style="fill:rgb(255,199,62);stroke:black;stroke-width:4.34px;"/>
            </g>
            <g transform="matrix(0.314555,0.297538,-0.297538,0.314555,1677.72,-339.606)">
                <path d="M1284.81,854.138L932.008,854.138L845.55,774.848L1198.36,774.848L1284.81,854.138Z" style="fill:rgb(255,199,62);stroke:black;stroke-width:4.34px;"/>
            </g>
            <g transform="matrix(-0.112064,0.418229,-0.418229,-0.112064,2175.51,-33.2717)">
                <path d="M1284.81,854.138L932.008,854.138L845.55,774.848L1198.36,774.848L1284.81,854.138Z" style="fill:rgb(255,216,62);stroke:black;stroke-width:4.34px;"/>
            </g>
            <g transform="matrix(0.407699,-0.145792,0.145792,0.407699,1196.59,21.6528)">
                <path d="M1284.81,854.138L932.008,854.138L845.55,774.848L1198.36,774.848L1284.81,854.138Z" style="fill:rgb(255,216,62);stroke:black;stroke-width:4.34px;"/>
            </g>
        </g>
        <g transform="matrix(3.46174,0,0,3.46174,-4790.44,-349.44)">
            <path d="M1558.87,145.37L1558.87,135.062L1653.37,135.062L1653.37,145.37C1648.47,165.827 1649.1,156.865 1649,203.3C1648.89,255.456 1648.63,242.99 1653.37,261.229L1653.37,271.537L1558.87,271.537L1558.87,261.229C1563.6,242.99 1563.34,255.456 1563.23,203.3C1563.14,156.865 1563.76,165.827 1558.87,145.37Z" style="fill:none;stroke:black;stroke-width:0.6px;stroke-dasharray:1.81,3.01,0,0,0,0;"/>
        </g>
        <g transform="matrix(1,0,0,1,-15.2589,136.714)">
            <g transform="matrix(0.337667,-0.584857,0.584857,0.337667,-518.578,718.697)">
                <g transform="matrix(1,0,0,1,59.6933,44.2826)">
                    <path d="M633.828,594.763C667.932,594.763 703.329,648.464 704.007,664.379C704.684,680.293 664.998,733.994 633.828,733.994L458.71,733.994C439.499,733.994 423.902,718.397 423.902,699.187L423.902,629.571C423.902,610.36 439.499,594.763 458.71,594.763L633.828,594.763Z" style="fill:white;stroke:black;stroke-width:3.08px;"/>
                </g>
                <g transform="matrix(1,0,0,1,-6.14975,-5.42583)">
                    <circle cx="733.478" cy="714.087" r="14.658" style="fill:white;stroke:black;stroke-width:3.08px;"/>
                </g>
            </g>
            <path d="M147.771,524.96C147.771,524.96 144.012,534.22 131.582,532.606C120.661,531.188 107.16,515.247 111.963,495.061C116.875,474.415 146.708,489.268 147.638,453.837" style="fill:none;stroke:black;stroke-width:2.08px;"/>
            <path d="M151.381,510.429C151.381,510.429 145.486,497.429 135.861,507.456C126.685,517.015 137.057,532.606 137.057,532.606" style="fill:none;stroke:black;stroke-width:2.08px;"/>
            <g transform="matrix(0.107005,-0.185338,0.185338,0.107005,-350.632,504.105)">
                <path d="M649.723,2185.05L663.741,2185.05L663.741,2156.43C700.538,2154.96 726.238,2133.35 726.238,2102.69L726.238,2102.11C726.238,2073.78 707.547,2057.13 663.157,2047.79L663.157,1965.72C680.095,1967.77 695.281,1974.48 710.467,1987.92L720.105,1976.53C702.874,1962.51 686.228,1954.33 663.741,1952.58L663.741,1935.06L649.723,1935.06L649.723,1952C614.093,1952.87 588.394,1975.36 588.394,2004.56L588.394,2005.15C588.394,2034.06 606.5,2050.12 650.307,2059.76L650.307,2142.7C626.651,2140.65 608.253,2130.43 590.146,2113.49L580.509,2124.88C601.536,2143.57 623.147,2153.8 649.723,2156.13L649.723,2185.05ZM650.307,2044.86C612.341,2035.52 603.288,2022.96 603.288,2003.98L603.288,2003.39C603.288,1982.66 621.979,1965.72 650.307,1965.14L650.307,2044.86ZM663.157,2143.28L663.157,2062.68C701.706,2071.44 711.344,2083.41 711.344,2103.27L711.344,2103.86C711.344,2125.76 692.361,2142.41 663.157,2143.28Z" style="fill-rule:nonzero;"/>
            </g>
        </g>
        <g transform="matrix(1,0,0,1,578.878,136.714)">
            <g transform="matrix(0.337667,-0.584857,0.584857,0.337667,-518.578,718.697)">
                <g transform="matrix(1,0,0,1,59.6933,44.2826)">
                    <path d="M633.828,594.763C667.932,594.763 703.329,648.464 704.007,664.379C704.684,680.293 664.998,733.994 633.828,733.994L458.71,733.994C439.499,733.994 423.902,718.397 423.902,699.187L423.902,629.571C423.902,610.36 439.499,594.763 458.71,594.763L633.828,594.763Z" style="fill:white;stroke:black;stroke-width:3.08px;"/>
                </g>
                <g transform="matrix(1,0,0,1,-6.14975,-5.42583)">
                    <circle cx="733.478" cy="714.087" r="14.658" style="fill:white;stroke:black;stroke-width:3.08px;"/>
                </g>
            </g>
            <path d="M147.771,524.96C147.771,524.96 144.012,534.22 131.582,532.606C120.661,531.188 107.16,515.247 111.963,495.061C118.418,467.926 167.579,483.015 173.981,448.647C179.65,418.212 151.35,374.063 195.111,346.549" style="fill:none;stroke:black;stroke-width:2.08px;"/>
            <path d="M151.381,510.429C151.381,510.429 145.486,497.429 135.861,507.456C126.685,517.015 137.057,532.606 137.057,532.606" style="fill:none;stroke:black;stroke-width:2.08px;"/>
            <g transform="matrix(0.107005,-0.185338,0.185338,0.107005,-350.632,504.105)">
                <path d="M465.152,2185.05L479.17,2185.05L479.17,2156.43C515.967,2154.96 541.667,2133.35 541.667,2102.69L541.667,2102.11C541.667,2073.78 522.976,2057.13 478.586,2047.79L478.586,1965.72C495.524,1967.77 510.71,1974.48 525.897,1987.92L535.534,1976.53C518.304,1962.51 501.657,1954.33 479.17,1952.58L479.17,1935.06L465.152,1935.06L465.152,1952C429.523,1952.87 403.823,1975.36 403.823,2004.56L403.823,2005.15C403.823,2034.06 421.93,2050.12 465.736,2059.76L465.736,2142.7C442.08,2140.65 423.682,2130.43 405.575,2113.49L395.938,2124.88C416.965,2143.57 438.576,2153.8 465.152,2156.13L465.152,2185.05ZM465.736,2044.86C427.77,2035.52 418.717,2022.96 418.717,2003.98L418.717,2003.39C418.717,1982.66 437.408,1965.72 465.736,1965.14L465.736,2044.86ZM478.586,2143.28L478.586,2062.68C517.135,2071.44 526.773,2083.41 526.773,2103.27L526.773,2103.86C526.773,2125.76 507.79,2142.41 478.586,2143.28Z" style="fill-rule:nonzero;"/>
                <path d="M649.723,2185.05L663.741,2185.05L663.741,2156.43C700.538,2154.96 726.238,2133.35 726.238,2102.69L726.238,2102.11C726.238,2073.78 707.547,2057.13 663.157,2047.79L663.157,1965.72C680.095,1967.77 695.281,1974.48 710.467,1987.92L720.105,1976.53C702.874,1962.51 686.228,1954.33 663.741,1952.58L663.741,1935.06L649.723,1935.06L649.723,1952C614.093,1952.87 588.394,1975.36 588.394,2004.56L588.394,2005.15C588.394,2034.06 606.5,2050.12 650.307,2059.76L650.307,2142.7C626.651,2140.65 608.253,2130.43 590.146,2113.49L580.509,2124.88C601.536,2143.57 623.147,2153.8 649.723,2156.13L649.723,2185.05ZM650.307,2044.86C612.341,2035.52 603.288,2022.96 603.288,2003.98L603.288,2003.39C603.288,1982.66 621.979,1965.72 650.307,1965.14L650.307,2044.86ZM663.157,2143.28L663.157,2062.68C701.706,2071.44 711.344,2083.41 711.344,2103.27L711.344,2103.86C711.344,2125.76 692.361,2142.41 663.157,2143.28Z" style="fill-rule:nonzero;"/>
                <path d="M834.293,2185.05L848.311,2185.05L848.311,2156.43C885.109,2154.96 910.809,2133.35 910.809,2102.69L910.809,2102.11C910.809,2073.78 892.118,2057.13 847.727,2047.79L847.727,1965.72C864.666,1967.77 879.852,1974.48 895.038,1987.92L904.676,1976.53C887.445,1962.51 870.799,1954.33 848.311,1952.58L848.311,1935.06L834.293,1935.06L834.293,1952C798.664,1952.87 772.965,1975.36 772.965,2004.56L772.965,2005.15C772.965,2034.06 791.071,2050.12 834.877,2059.76L834.877,2142.7C811.222,2140.65 792.823,2130.43 774.717,2113.49L765.079,2124.88C786.106,2143.57 807.718,2153.8 834.293,2156.13L834.293,2185.05ZM834.877,2044.86C796.912,2035.52 787.859,2022.96 787.859,2003.98L787.859,2003.39C787.859,1982.66 806.549,1965.72 834.877,1965.14L834.877,2044.86ZM847.727,2143.28L847.727,2062.68C886.277,2071.44 895.914,2083.41 895.914,2103.27L895.914,2103.86C895.914,2125.76 876.932,2142.41 847.727,2143.28Z" style="fill-rule:nonzero;"/>
            </g>
        </g>
        <g transform="matrix(0.369632,2.32293e-17,-2.32293e-17,0.369632,646.619,-17.2563)">
            <path d="M482.815,2062.81C492.783,2062.81 499.717,2055.01 501.451,2045.48L503.185,2025.54C551.291,2017.31 590.729,1992.6 590.729,1938L590.729,1937.13C590.729,1882.96 549.557,1849.15 488.883,1849.15C449.011,1849.15 419.974,1863.45 397.004,1885.12C390.937,1890.32 388.336,1897.26 388.336,1903.76C388.336,1916.76 399.171,1927.6 412.606,1927.6C418.674,1927.6 424.308,1925 428.642,1921.53C445.977,1905.93 464.613,1897.69 487.583,1897.69C518.787,1897.69 537.422,1914.59 537.422,1938.86L537.422,1939.73C537.422,1967.03 514.886,1982.64 474.147,1986.54C462.446,1987.84 455.512,1996.5 457.245,2008.21L461.579,2045.48C462.879,2055.45 470.247,2062.81 480.215,2062.81L482.815,2062.81ZM449.444,2124.35L449.444,2128.69C449.444,2145.59 462.446,2158.59 480.215,2158.59C497.984,2158.59 510.986,2145.59 510.986,2128.69L510.986,2124.35C510.986,2107.45 497.984,2094.45 480.215,2094.45C462.446,2094.45 449.444,2107.45 449.444,2124.35Z" style="fill:rgb(255,81,86);fill-rule:nonzero;"/>
        </g>
        <g transform="matrix(0.178311,0.178311,-0.178311,0.178311,1166.64,321.885)">
            <path d="M482.815,2062.81C492.783,2062.81 499.717,2055.01 501.451,2045.48L503.185,2025.54C551.291,2017.31 590.729,1992.6 590.729,1938L590.729,1937.13C590.729,1882.96 549.557,1849.15 488.883,1849.15C449.011,1849.15 419.974,1863.45 397.004,1885.12C390.937,1890.32 388.336,1897.26 388.336,1903.76C388.336,1916.76 399.171,1927.6 412.606,1927.6C418.674,1927.6 424.308,1925 428.642,1921.53C445.977,1905.93 464.613,1897.69 487.583,1897.69C518.787,1897.69 537.422,1914.59 537.422,1938.86L537.422,1939.73C537.422,1967.03 514.886,1982.64 474.147,1986.54C462.446,1987.84 455.512,1996.5 457.245,2008.21L461.579,2045.48C462.879,2055.45 470.247,2062.81 480.215,2062.81L482.815,2062.81ZM449.444,2124.35L449.444,2128.69C449.444,2145.59 462.446,2158.59 480.215,2158.59C497.984,2158.59 510.986,2145.59 510.986,2128.69L510.986,2124.35C510.986,2107.45 497.984,2094.45 480.215,2094.45C462.446,2094.45 449.444,2107.45 449.444,2124.35Z" style="fill:rgb(255,81,86);fill-rule:nonzero;"/>
        </g>
        <path d="M531.496,118.11L413.386,590.551" style="fill:none;stroke:black;stroke-width:2.08px;"/>
    </g>
</svg>
