<?xml version="1.0" encoding="UTF-8" standalone="no"?>
<!DOCTYPE svg PUBLIC "-//W3C//DTD SVG 1.1//EN" "http://www.w3.org/Graphics/SVG/1.1/DTD/svg11.dtd">
<svg width="100%" height="100%" viewBox="0 0 3367 2835" version="1.1" xmlns="http://www.w3.org/2000/svg" xmlns:xlink="http://www.w3.org/1999/xlink" xml:space="preserve" xmlns:serif="http://www.serif.com/" style="fill-rule:evenodd;clip-rule:evenodd;stroke-linecap:round;stroke-linejoin:round;stroke-miterlimit:1.5;">
    <g id="ArtBoard1" transform="matrix(0.969388,0,0,0.879121,0,0)">
        <rect x="0" y="0" width="3472.44" height="3224.41" style="fill:none;"/>
        <g transform="matrix(0.41641,0.2651,-0.240414,0.459166,-5515.85,-4857.49)">
            <path d="M20229.4,3203.18C20229.4,3203.18 20256.2,3140.67 20291.1,3106.37C20325.2,3072.95 20367.3,3037.87 20401.6,3007.25C20457.6,2957.33 20477.3,2961.71 20531.3,2929.67C20575,2903.74 20643.9,2892.51 20643.9,2892.51L20671.1,2954.45C20671.1,2954.45 20751.7,3048.5 20789,3133.02C20851.1,3273.73 20859.2,3275.25 20932.9,3380.04C21012.1,3492.59 21050.4,3566.31 21039.3,3620.93C21034.2,3646.18 20930.8,3630.66 20875.6,3747.7C20821.5,3862.28 20631.9,3846.14 20631.9,3846.14C20631.9,3846.14 20536.9,3792.64 20459.1,3685.2C20410.5,3618.15 20384.3,3523.24 20367,3476.08C20330.7,3376.89 20236.7,3194.42 20229.4,3203.18Z" style="fill:white;stroke:black;stroke-width:8.94px;"/>
        </g>
        <g transform="matrix(-0.688506,0,0,0.759201,16778.7,-393.957)">
            <path d="M21216.4,3289.45C21209.1,3284.16 21210.4,3280.22 21210.4,3280.22C21215.3,3285.18 21222.7,3279.58 21222.7,3279.58C21220.9,3279.8 21218.8,3277.66 21218.8,3277.66C21220.7,3278.29 21221.6,3278.07 21222.7,3274.39C21223.7,3270.73 21223.1,3267.28 21227.2,3262.76C21231.3,3258.23 21233.2,3256.94 21235.6,3255C21238,3253.04 21237.8,3250.25 21241.4,3246.58C21245.1,3242.92 21249.4,3244.86 21256.9,3242.05C21264.5,3239.26 21290.2,3231.49 21293.2,3230.4C21296.2,3229.33 21306.5,3228.48 21304.8,3228.48C21303.1,3228.48 21302.2,3225.89 21302.2,3225.89C21302.2,3225.89 21304.2,3226.96 21308.7,3225.89C21313.2,3224.8 21319.5,3223.93 21324.2,3223.93C21329,3223.93 21332.4,3225.43 21337.2,3226.54C21341.2,3227.47 21345.2,3228.14 21347.3,3227.44C21350.1,3226.54 21352,3227.34 21352,3227.34C21356.1,3227.54 21360.1,3231.05 21366.9,3236.23C21373.7,3241.41 21373.1,3244.01 21378.6,3247.89C21384.1,3251.75 21388.6,3255.64 21394.7,3264.7C21400.9,3273.74 21409,3288.31 21414.8,3300.28C21420.6,3312.26 21415.8,3324.54 21413.5,3333.27C21411.2,3342.01 21407,3376.61 21407,3383.08C21407,3388.28 21409.9,3397.21 21411.1,3400.53C21420.6,3398.8 21432.9,3397.81 21434.4,3404.12C21436.6,3413.9 21437.3,3434.49 21438.2,3438.84C21444.4,3444.42 21458.2,3458.83 21464.6,3465.89C21471.1,3473.02 21475.3,3481.4 21482.1,3489.82C21488.9,3498.23 21494.7,3506.65 21502.1,3518.27C21509.5,3529.94 21513.8,3551.29 21516.4,3561.63C21519,3571.97 21519,3582.66 21520.2,3594.61C21521.5,3606.61 21506.3,3663.85 21500.8,3680.01C21495.3,3696.19 21483.4,3737.27 21476.9,3753.76C21472,3766.31 21460.7,3779.39 21453.3,3786.52C21446.6,3794.31 21439.9,3801.7 21438.6,3807.45C21437.7,3812.07 21437.9,3815.36 21438.4,3818.35C21440.4,3822.52 21441.2,3831.52 21440,3834.61C21438.7,3837.86 21440.7,3842.06 21443.9,3844.97L21445.5,3847L21446.9,3849.79C21448.6,3853.62 21450.3,3858.41 21451.7,3860.81L21453.9,3863.16L21457.9,3867.24L21454.2,3863.7L21458.1,3867.45L21457.9,3867.24L21458.2,3867.55C21460.8,3870.18 21463.6,3873.33 21465.3,3876.68C21466.3,3878.76 21466.7,3880.46 21466.8,3881.95C21469.4,3892.93 21461.3,3896.65 21455.8,3894.03L21454.5,3893.35L21454.3,3893.51C21454.3,3893.51 21455.6,3898.03 21457.5,3903.2C21458.5,3905.89 21460.2,3911.56 21462.1,3917.12C21465.3,3924.13 21469.9,3931.07 21471,3937.72L21471.4,3941.56C21472.4,3946.19 21473,3951.36 21473,3956.24C21473,3966.26 21467.5,4017.71 21465.9,4026.77C21464.3,4035.81 21462,4043.26 21459.4,4048.77C21456.8,4054.25 21443.9,4101.47 21440,4118.62C21436.1,4135.77 21435.2,4145.16 21436.1,4156.77C21437.1,4168.43 21437.1,4198.52 21436.1,4204.02C21435.2,4209.51 21439.7,4213.71 21444.5,4224.06C21449.4,4234.43 21446.8,4266.45 21445.8,4275.8C21444.9,4285.19 21456.8,4291.35 21460.1,4295.86C21463.3,4300.42 21464.6,4318.5 21465.3,4323.69C21465.9,4328.88 21473,4331.77 21474.3,4341.79C21475.6,4351.83 21478.5,4370.61 21482.1,4381.9C21485.6,4393.25 21485.3,4416.52 21488.5,4426.56C21491.8,4436.58 21490.8,4449.2 21493.1,4458.9C21495.3,4468.58 21508.6,4547.2 21512.5,4564.34C21516.4,4581.48 21520.2,4626.12 21520.9,4634.22C21521.5,4642.28 21523.5,4651.35 21521.5,4658.14C21519.6,4664.93 21522.8,4673.36 21522.2,4678.21C21521.5,4683.06 21519.3,4683.69 21522.2,4685.32C21525.1,4686.92 21526.7,4708.59 21526.7,4708.59C21481,4721.54 21440.9,4716.59 21440,4715.72L21436.1,4704.07C21417.6,4710.99 21388.3,4713.12 21388.3,4713.12C21388.7,4715.94 21388.3,4716.37 21388.3,4716.37C21382,4720.04 21357.2,4721.54 21357.2,4721.54L21332,4717.01C21328.8,4719.6 21324.2,4719.8 21316.5,4720.23C21308.7,4720.67 21207.3,4720.47 21198.1,4720.23C21188.8,4720.04 21177.8,4717.23 21174.2,4715.07C21170.5,4712.91 21170.3,4711.84 21170.3,4711.84C21170.3,4711.84 21171.3,4704.51 21172.8,4701.48C21174.4,4698.47 21175.2,4696.75 21179.3,4695.02C21180,4692.43 21181.9,4689.62 21185.1,4687.26C21192.9,4682.07 21212.5,4680.35 21219.4,4678.21C21226.3,4676.05 21231.9,4671.08 21237.5,4665.91C21243.2,4660.72 21247.5,4659 21253.1,4651.67C21258.7,4644.36 21264.7,4635.27 21266,4630.32C21267.3,4625.36 21265.1,4610.93 21262.8,4605.1C21260.4,4599.28 21259.5,4593.88 21262.1,4590.23C21264.7,4586.55 21271,4585.69 21273.1,4581.81C21275.3,4577.93 21269.7,4566.29 21267.3,4561.1C21264.9,4555.93 21269.9,4550.54 21272.5,4544.3C21275.1,4538.04 21281.1,4499.44 21284.8,4480.89C21288.4,4462.34 21293.8,4437.55 21295.1,4433.02C21296.4,4428.5 21290.2,4422.24 21287.3,4409.74C21284.5,4397.22 21281.1,4369.4 21277.6,4337.91C21274.2,4306.44 21268.4,4236.8 21267.3,4218.24C21266.2,4199.71 21260.6,4163.26 21256.3,4148.37C21252,4133.5 21250.3,4124.86 21251.1,4117.34C21252,4109.79 21254.6,4098.77 21255.7,4082.4C21256.7,4066 21252.6,4055.44 21251.1,4049.4C21249.6,4043.36 21247.7,4034.75 21247.2,4026.77C21246.8,4018.78 21244.2,4008.43 21241.4,3997.65C21238.6,3986.86 21238,3970.06 21239.5,3954.3C21241,3938.57 21244.4,3913.34 21244.6,3905.14C21244.9,3896.94 21251.3,3886.16 21249.2,3886.38C21247,3886.6 21236.9,3888.1 21236.9,3883.81C21236.9,3879.47 21235.5,3871.63 21233,3839.15C21230.5,3807.45 21231.7,3786.25 21231.5,3783.53C21231.4,3779.8 21233.9,3753.13 21232,3733.07C21230.9,3721.71 21233.5,3708.47 21235.8,3699.42C21223.9,3703.42 21212.9,3705.75 21208.6,3706.7C21201.2,3708.39 21195.2,3708.73 21186.1,3710.75C21177,3712.76 21178.3,3710.75 21176.3,3714.78C21174.3,3718.82 21160.4,3725.57 21153,3729.6C21145.6,3733.65 21135.5,3732.99 21128.4,3731.3C21121.4,3729.6 21114.6,3720.18 21110.9,3712.42C21108.3,3706.94 21106.3,3707.18 21099.3,3702.67L21098.3,3702.33C21085.9,3699.08 21068.3,3693.86 21055.1,3689.06C21047.2,3686.19 21034.3,3681.83 21021.6,3677.66C21004.6,3672.22 20991.1,3667.92 20989.4,3667.44C20984.3,3666.05 20984,3665.66 20979.8,3666.42L20978.4,3666.88L20976,3668.16C20974.5,3669.1 20947.1,3678.67 20927,3677.12C20901.4,3675.15 20884.6,3650.28 20884.7,3644.97C20884.8,3635.63 20897.4,3643.53 20912.9,3643.89C20922.6,3644.11 20920.2,3632.61 20936.2,3628.84C20956.2,3624.11 20974.8,3628.01 20975.9,3627.63C20980.2,3626.1 20989.1,3626.38 20998.2,3626.87C21006.9,3627.35 21061.3,3629.44 21061.6,3630.71L21061.7,3630.71C21064.9,3629.2 21088.3,3618.6 21113,3613.6C21132.2,3609.69 21133.8,3617.41 21135.9,3619.43C21137.9,3621.48 21138.5,3619.78 21147.3,3616.41C21156.1,3613.04 21160.7,3613.06 21169.9,3611.01C21177.1,3609.4 21190,3608.41 21197.4,3604.5C21199.6,3602.66 21201.9,3600.91 21201.9,3600.91C21206.5,3594.41 21208.3,3590.21 21214.3,3589.8L21217.7,3589.73C21224.1,3589.24 21228.4,3583.86 21234.9,3573.28C21242,3561.83 21265.9,3550.37 21281.1,3535.19C21287.1,3529.19 21291.2,3524.56 21294.2,3520.73C21293.7,3518.23 21295.1,3515 21296.4,3512.45C21297.9,3509.66 21301.4,3506.21 21302.2,3503.4C21303.1,3500.61 21304.8,3497.58 21306.8,3493.72C21308.7,3489.82 21311.1,3485.3 21313.2,3480.77C21314.4,3478.26 21315.5,3476.76 21316.2,3475.91C21315.8,3470.36 21314.9,3464.15 21312.7,3460.73C21312.7,3460.73 21315.2,3455.58 21320.8,3448.28L21320.3,3447.14C21319.5,3444.54 21314.7,3441.51 21312.6,3441.31C21310.4,3441.07 21309.1,3443.67 21305.5,3446.46C21301.8,3449.3 21287.1,3451.65 21278.3,3449.07C21269.5,3446.46 21271.2,3436.12 21271.8,3434.84C21272.5,3433.55 21273.3,3431.39 21271.8,3429.01C21270.3,3426.63 21264.1,3423.19 21262.8,3422.54C21261.5,3421.9 21264.5,3413.92 21264.7,3412.2C21264.9,3410.47 21260.6,3411.55 21259.5,3412.2C21258.5,3412.85 21256.5,3412.63 21255,3410.26C21253.5,3407.88 21252.4,3400.34 21252.4,3398.61C21252.4,3396.87 21250.7,3395.58 21248.5,3396.02C21246.4,3396.45 21241.2,3397.96 21236.3,3397.32C21231.3,3396.67 21231.1,3389.76 21231.7,3387.62C21232.4,3385.46 21236.3,3377.04 21238.8,3370.15C21235.6,3367.78 21228.9,3357.64 21227.8,3355.91C21226.8,3354.19 21225.3,3351.16 21226.5,3349.43C21227.8,3347.73 21235.6,3344.27 21235.6,3344.27C21233.4,3342.54 21232.8,3324.86 21233,3315.17C21233.2,3305.45 21231.5,3301.15 21230.4,3298.99C21229.4,3296.83 21228.8,3297.49 21221.4,3295.74C21213.9,3293.99 21212,3287.39 21211.8,3286.4C21213.5,3287.49 21214.7,3288.29 21215.6,3288.9L21216.4,3289.45ZM21392.2,4549.18C21391,4554.86 21388.8,4564.28 21385.9,4569.1C21381.7,4576.21 21377.7,4589.46 21378.2,4596.25C21378.6,4603.07 21391.8,4616.32 21391.8,4616.32C21391.8,4616.32 21391.3,4573.78 21391.8,4561.34C21392,4553.91 21392.4,4549.38 21392.7,4546.92L21392.2,4549.18ZM21099.1,3702.55L21099.1,3702.55L21099.2,3702.59L21099.1,3702.55ZM21240.4,3349.02C21235,3349.67 21229.4,3351.61 21229.4,3351.61C21229.4,3351.61 21229.5,3352.59 21231.3,3353.56C21233.1,3354.51 21238.8,3358.24 21241,3361.32C21241,3361.32 21244.7,3350.31 21240.4,3349.02Z" style="fill:rgb(195,194,255);stroke:black;stroke-width:6.24px;stroke-linecap:butt;stroke-miterlimit:2;"/>
        </g>
        <g transform="matrix(1.03158,0,0,1.1375,-150.084,-316.143)">
            <path d="M1518.88,741.914L1577.18,1214.27L1720.95,1149.5C1720.95,1149.5 1685.57,975.156 1629.26,891.932C1572.95,808.707 1518.88,741.914 1518.88,741.914Z" style="fill:white;stroke:rgb(53,53,53);stroke-width:4.17px;"/>
        </g>
        <g transform="matrix(0.598399,-0.165471,0.150063,0.659842,-29.2301,820.739)">
            <g transform="matrix(-0.731053,-0.156162,-0.156162,0.731053,3913.7,311.622)">
                <path d="M2132.25,894.286L1991,1992.31L1506.28,1934.56C1506.28,1934.56 1461.02,1926.75 1443.28,1951.26C1425.54,1975.77 1427.15,2005.05 1427.15,2005.05L1326.19,1985.21C1326.19,1985.21 1359.59,1948.29 1357.72,1914.09C1355.86,1879.89 1331.79,1778.52 1379.94,1702.23C1397.85,1673.86 1448.92,1639.15 1448.92,1639.15C1448.92,1639.15 1417.64,1605.35 1419.17,1582.08C1420.69,1558.82 1516.76,847.487 1516.76,847.487C1525.4,818.604 1555.53,810.466 1599.01,815.2L2132.25,894.286Z" style="fill:white;stroke:black;stroke-width:9.32px;"/>
            </g>
            <g transform="matrix(-0.731053,-0.156162,-0.156162,0.731053,3913.7,311.622)">
                <path d="M1431.26,1654.13C1431.26,1654.13 1544.37,1664.97 1573.36,1795.36C1592.2,1880.1 1476.95,1934.08 1476.95,1934.08" style="fill:white;stroke:black;stroke-width:9.32px;"/>
            </g>
            <g transform="matrix(-0.731053,-0.156162,-0.156162,0.731053,3913.7,311.622)">
                <path d="M1363.04,1583.44C1357.17,1579.74 1353.07,1581.38 1350.58,1587.87C1350.58,1587.87 1359.14,1683.96 1381.06,1747.94C1401.07,1806.33 1408.88,1814.56 1418.19,1827.98C1426.58,1840.08 1437.49,1849.47 1453.7,1839.14C1469.91,1828.81 1467.08,1812.03 1459.65,1797.75C1452.22,1783.46 1424.21,1753.02 1412.06,1718.71C1399.9,1684.4 1385.21,1634.44 1378.5,1616.76C1371.79,1599.08 1363.04,1583.44 1363.04,1583.44Z" style="fill:white;stroke:black;stroke-width:9.32px;"/>
            </g>
        </g>
        <g transform="matrix(-0.240414,0.459166,-0.41641,-0.2651,7591.67,-8103.2)">
            <path d="M20229.4,3203.18C20229.4,3203.18 20256.2,3140.67 20291.1,3106.37C20325.2,3072.95 20367.3,3037.87 20401.6,3007.25C20457.6,2957.33 20477.3,2961.71 20531.3,2929.67C20575,2903.74 20643.9,2892.51 20643.9,2892.51L20671.1,2954.45C20671.1,2954.45 20751.7,3048.5 20789,3133.02C20851.1,3273.73 20859.2,3275.25 20932.9,3380.04C21012.1,3492.59 21050.4,3566.31 21039.3,3620.93C21034.2,3646.18 20930.8,3630.66 20875.6,3747.7C20821.5,3862.28 20631.9,3846.14 20631.9,3846.14C20631.9,3846.14 20536.9,3792.64 20459.1,3685.2C20410.5,3618.15 20384.3,3523.24 20367,3476.08C20330.7,3376.89 20236.7,3194.42 20229.4,3203.18Z" style="fill:white;stroke:black;stroke-width:8.94px;"/>
        </g>
        <g transform="matrix(-0.688506,0,0,0.759201,15784.1,-2157.62)">
            <path d="M21216.4,3289.45C21209.1,3284.16 21210.4,3280.22 21210.4,3280.22C21215.3,3285.18 21222.7,3279.58 21222.7,3279.58C21220.9,3279.8 21218.8,3277.66 21218.8,3277.66C21220.7,3278.29 21221.6,3278.07 21222.7,3274.39C21223.7,3270.73 21223.1,3267.28 21227.2,3262.76C21231.3,3258.23 21233.2,3256.94 21235.6,3255C21238,3253.04 21237.8,3250.25 21241.4,3246.58C21245.1,3242.92 21249.4,3244.86 21256.9,3242.05C21264.5,3239.26 21290.2,3231.49 21293.2,3230.4C21296.2,3229.33 21306.5,3228.48 21304.8,3228.48C21303.1,3228.48 21302.2,3225.89 21302.2,3225.89C21302.2,3225.89 21304.2,3226.96 21308.7,3225.89C21313.2,3224.8 21319.5,3223.93 21324.2,3223.93C21329,3223.93 21332.4,3225.43 21337.2,3226.54C21341.2,3227.47 21345.2,3228.14 21347.3,3227.44C21350.1,3226.54 21352,3227.34 21352,3227.34C21356.1,3227.54 21360.1,3231.05 21366.9,3236.23C21373.7,3241.41 21373.1,3244.01 21378.6,3247.89C21384.1,3251.75 21388.6,3255.64 21394.7,3264.7C21400.9,3273.74 21409,3288.31 21414.8,3300.28C21420.6,3312.26 21415.8,3324.54 21413.5,3333.27C21411.2,3342.01 21407,3376.61 21407,3383.08C21407,3388.28 21409.9,3397.21 21411.1,3400.53C21420.6,3398.8 21432.9,3397.81 21434.4,3404.12C21436.6,3413.9 21437.3,3434.49 21438.2,3438.84C21444.4,3444.42 21458.2,3458.83 21464.6,3465.89C21471.1,3473.02 21475.3,3481.4 21482.1,3489.82C21488.9,3498.23 21494.7,3506.65 21502.1,3518.27C21509.5,3529.94 21513.8,3551.29 21516.4,3561.63C21519,3571.97 21519,3582.66 21520.2,3594.61C21521.5,3606.61 21506.3,3663.85 21500.8,3680.01C21495.3,3696.19 21483.4,3737.27 21476.9,3753.76C21472,3766.31 21460.7,3779.39 21453.3,3786.52C21446.6,3794.31 21439.9,3801.7 21438.6,3807.45C21437.7,3812.07 21437.9,3815.36 21438.4,3818.35C21440.4,3822.52 21441.2,3831.52 21440,3834.61C21438.7,3837.86 21440.7,3842.06 21443.9,3844.97L21445.5,3847L21446.9,3849.79C21448.6,3853.62 21450.3,3858.41 21451.7,3860.81L21453.9,3863.16L21457.9,3867.24L21454.2,3863.7L21458.1,3867.45L21457.9,3867.24L21458.2,3867.55C21460.8,3870.18 21463.6,3873.33 21465.3,3876.68C21466.3,3878.76 21466.7,3880.46 21466.8,3881.95C21469.4,3892.93 21461.3,3896.65 21455.8,3894.03L21454.5,3893.35L21454.3,3893.51C21454.3,3893.51 21455.6,3898.03 21457.5,3903.2C21458.5,3905.89 21460.2,3911.56 21462.1,3917.12C21465.3,3924.13 21469.9,3931.07 21471,3937.72L21471.4,3941.56C21472.4,3946.19 21473,3951.36 21473,3956.24C21473,3966.26 21467.5,4017.71 21465.9,4026.77C21464.3,4035.81 21462,4043.26 21459.4,4048.77C21456.8,4054.25 21443.9,4101.47 21440,4118.62C21436.1,4135.77 21435.2,4145.16 21436.1,4156.77C21437.1,4168.43 21437.1,4198.52 21436.1,4204.02C21435.2,4209.51 21439.7,4213.71 21444.5,4224.06C21449.4,4234.43 21446.8,4266.45 21445.8,4275.8C21444.9,4285.19 21456.8,4291.35 21460.1,4295.86C21463.3,4300.42 21464.6,4318.5 21465.3,4323.69C21465.9,4328.88 21473,4331.77 21474.3,4341.79C21475.6,4351.83 21478.5,4370.61 21482.1,4381.9C21485.6,4393.25 21485.3,4416.52 21488.5,4426.56C21491.8,4436.58 21490.8,4449.2 21493.1,4458.9C21495.3,4468.58 21508.6,4547.2 21512.5,4564.34C21516.4,4581.48 21520.2,4626.12 21520.9,4634.22C21521.5,4642.28 21523.5,4651.35 21521.5,4658.14C21519.6,4664.93 21522.8,4673.36 21522.2,4678.21C21521.5,4683.06 21519.3,4683.69 21522.2,4685.32C21525.1,4686.92 21526.7,4708.59 21526.7,4708.59C21481,4721.54 21440.9,4716.59 21440,4715.72L21436.1,4704.07C21417.6,4710.99 21388.3,4713.12 21388.3,4713.12C21388.7,4715.94 21388.3,4716.37 21388.3,4716.37C21382,4720.04 21357.2,4721.54 21357.2,4721.54L21332,4717.01C21328.8,4719.6 21324.2,4719.8 21316.5,4720.23C21308.7,4720.67 21207.3,4720.47 21198.1,4720.23C21188.8,4720.04 21177.8,4717.23 21174.2,4715.07C21170.5,4712.91 21170.3,4711.84 21170.3,4711.84C21170.3,4711.84 21171.3,4704.51 21172.8,4701.48C21174.4,4698.47 21175.2,4696.75 21179.3,4695.02C21180,4692.43 21181.9,4689.62 21185.1,4687.26C21192.9,4682.07 21212.5,4680.35 21219.4,4678.21C21226.3,4676.05 21231.9,4671.08 21237.5,4665.91C21243.2,4660.72 21247.5,4659 21253.1,4651.67C21258.7,4644.36 21264.7,4635.27 21266,4630.32C21267.3,4625.36 21265.1,4610.93 21262.8,4605.1C21260.4,4599.28 21259.5,4593.88 21262.1,4590.23C21264.7,4586.55 21271,4585.69 21273.1,4581.81C21275.3,4577.93 21269.7,4566.29 21267.3,4561.1C21264.9,4555.93 21269.9,4550.54 21272.5,4544.3C21275.1,4538.04 21281.1,4499.44 21284.8,4480.89C21288.4,4462.34 21293.8,4437.55 21295.1,4433.02C21296.4,4428.5 21290.2,4422.24 21287.3,4409.74C21284.5,4397.22 21281.1,4369.4 21277.6,4337.91C21274.2,4306.44 21268.4,4236.8 21267.3,4218.24C21266.2,4199.71 21260.6,4163.26 21256.3,4148.37C21252,4133.5 21250.3,4124.86 21251.1,4117.34C21252,4109.79 21254.6,4098.77 21255.7,4082.4C21256.7,4066 21252.6,4055.44 21251.1,4049.4C21249.6,4043.36 21247.7,4034.75 21247.2,4026.77C21246.8,4018.78 21244.2,4008.43 21241.4,3997.65C21238.6,3986.86 21238,3970.06 21239.5,3954.3C21241,3938.57 21244.4,3913.34 21244.6,3905.14C21244.9,3896.94 21251.3,3886.16 21249.2,3886.38C21247,3886.6 21236.9,3888.1 21236.9,3883.81C21236.9,3879.47 21235.5,3871.63 21233,3839.15C21230.5,3807.45 21231.7,3786.25 21231.5,3783.53C21231.4,3779.8 21233.9,3753.13 21232,3733.07C21230.9,3721.71 21233.5,3708.47 21235.8,3699.42C21223.9,3703.42 21212.9,3705.75 21208.6,3706.7C21201.2,3708.39 21195.2,3708.73 21186.1,3710.75C21177,3712.76 21178.3,3710.75 21176.3,3714.78C21174.3,3718.82 21160.4,3725.57 21153,3729.6C21145.6,3733.65 21135.5,3732.99 21128.4,3731.3C21121.4,3729.6 21114.6,3720.18 21110.9,3712.42C21108.3,3706.94 21106.3,3707.18 21099.3,3702.67L21098.3,3702.33C21085.9,3699.08 21068.3,3693.86 21055.1,3689.06C21047.2,3686.19 21034.3,3681.83 21021.6,3677.66C21004.6,3672.22 20991.1,3667.92 20989.4,3667.44C20984.3,3666.05 20984,3665.66 20979.8,3666.42L20978.4,3666.88L20976,3668.16C20974.5,3669.1 20947.1,3678.67 20927,3677.12C20901.4,3675.15 20884.6,3650.28 20884.7,3644.97C20884.8,3635.63 20897.4,3643.53 20912.9,3643.89C20922.6,3644.11 20920.2,3632.61 20936.2,3628.84C20956.2,3624.11 20974.8,3628.01 20975.9,3627.63C20980.2,3626.1 20989.1,3626.38 20998.2,3626.87C21006.9,3627.35 21061.3,3629.44 21061.6,3630.71L21061.7,3630.71C21064.9,3629.2 21088.3,3618.6 21113,3613.6C21132.2,3609.69 21133.8,3617.41 21135.9,3619.43C21137.9,3621.48 21138.5,3619.78 21147.3,3616.41C21156.1,3613.04 21160.7,3613.06 21169.9,3611.01C21177.1,3609.4 21190,3608.41 21197.4,3604.5C21199.6,3602.66 21201.9,3600.91 21201.9,3600.91C21206.5,3594.41 21208.3,3590.21 21214.3,3589.8L21217.7,3589.73C21224.1,3589.24 21228.4,3583.86 21234.9,3573.28C21242,3561.83 21265.9,3550.37 21281.1,3535.19C21287.1,3529.19 21291.2,3524.56 21294.2,3520.73C21293.7,3518.23 21295.1,3515 21296.4,3512.45C21297.9,3509.66 21301.4,3506.21 21302.2,3503.4C21303.1,3500.61 21304.8,3497.58 21306.8,3493.72C21308.7,3489.82 21311.1,3485.3 21313.2,3480.77C21314.4,3478.26 21315.5,3476.76 21316.2,3475.91C21315.8,3470.36 21314.9,3464.15 21312.7,3460.73C21312.7,3460.73 21315.2,3455.58 21320.8,3448.28L21320.3,3447.14C21319.5,3444.54 21314.7,3441.51 21312.6,3441.31C21310.4,3441.07 21309.1,3443.67 21305.5,3446.46C21301.8,3449.3 21287.1,3451.65 21278.3,3449.07C21269.5,3446.46 21271.2,3436.12 21271.8,3434.84C21272.5,3433.55 21273.3,3431.39 21271.8,3429.01C21270.3,3426.63 21264.1,3423.19 21262.8,3422.54C21261.5,3421.9 21264.5,3413.92 21264.7,3412.2C21264.9,3410.47 21260.6,3411.55 21259.5,3412.2C21258.5,3412.85 21256.5,3412.63 21255,3410.26C21253.5,3407.88 21252.4,3400.34 21252.4,3398.61C21252.4,3396.87 21250.7,3395.58 21248.5,3396.02C21246.4,3396.45 21241.2,3397.96 21236.3,3397.32C21231.3,3396.67 21231.1,3389.76 21231.7,3387.62C21232.4,3385.46 21236.3,3377.04 21238.8,3370.15C21235.6,3367.78 21228.9,3357.64 21227.8,3355.91C21226.8,3354.19 21225.3,3351.16 21226.5,3349.43C21227.8,3347.73 21235.6,3344.27 21235.6,3344.27C21233.4,3342.54 21232.8,3324.86 21233,3315.17C21233.2,3305.45 21231.5,3301.15 21230.4,3298.99C21229.4,3296.83 21228.8,3297.49 21221.4,3295.74C21213.9,3293.99 21212,3287.39 21211.8,3286.4C21213.5,3287.49 21214.7,3288.29 21215.6,3288.9L21216.4,3289.45ZM21392.2,4549.18C21391,4554.86 21388.8,4564.28 21385.9,4569.1C21381.7,4576.21 21377.7,4589.46 21378.2,4596.25C21378.6,4603.07 21391.8,4616.32 21391.8,4616.32C21391.8,4616.32 21391.3,4573.78 21391.8,4561.34C21392,4553.91 21392.4,4549.38 21392.7,4546.92L21392.2,4549.18ZM21099.1,3702.55L21099.1,3702.55L21099.2,3702.59L21099.1,3702.55ZM21240.4,3349.02C21235,3349.67 21229.4,3351.61 21229.4,3351.61C21229.4,3351.61 21229.5,3352.59 21231.3,3353.56C21233.1,3354.51 21238.8,3358.24 21241,3361.32C21241,3361.32 21244.7,3350.31 21240.4,3349.02Z" style="fill:rgb(194,212,255);stroke:black;stroke-width:6.24px;stroke-linecap:butt;stroke-miterlimit:2;"/>
        </g>
        <g transform="matrix(0.61248,-0.0815463,0.073953,0.675368,722.759,-193.465)">
            <g transform="matrix(-0.731053,-0.156162,-0.156162,0.731053,3913.7,311.622)">
                <path d="M2132.25,894.286L1991,1992.31L1506.28,1934.56C1506.28,1934.56 1461.02,1926.75 1443.28,1951.26C1425.54,1975.77 1427.15,2005.05 1427.15,2005.05L1326.19,1985.21C1326.19,1985.21 1359.59,1948.29 1357.72,1914.09C1355.86,1879.89 1331.79,1778.52 1379.94,1702.23C1397.85,1673.86 1448.92,1639.15 1448.92,1639.15C1448.92,1639.15 1417.64,1605.35 1419.17,1582.08C1420.69,1558.82 1516.76,847.487 1516.76,847.487C1525.4,818.604 1555.53,810.466 1599.01,815.2L2132.25,894.286Z" style="fill:white;stroke:black;stroke-width:9.32px;"/>
            </g>
            <g transform="matrix(-0.731053,-0.156162,-0.156162,0.731053,3913.7,311.622)">
                <path d="M1431.26,1654.13C1431.26,1654.13 1544.37,1664.97 1573.36,1795.36C1592.2,1880.1 1476.95,1934.08 1476.95,1934.08" style="fill:white;stroke:black;stroke-width:9.32px;"/>
            </g>
            <g transform="matrix(-0.731053,-0.156162,-0.156162,0.731053,3913.7,311.622)">
                <path d="M1363.04,1583.44C1357.17,1579.74 1353.07,1581.38 1350.58,1587.87C1350.58,1587.87 1359.14,1683.96 1381.06,1747.94C1401.07,1806.33 1408.88,1814.56 1418.19,1827.98C1426.58,1840.08 1437.49,1849.47 1453.7,1839.14C1469.91,1828.81 1467.08,1812.03 1459.65,1797.75C1452.22,1783.46 1424.21,1753.02 1412.06,1718.71C1399.9,1684.4 1385.21,1634.44 1378.5,1616.76C1371.79,1599.08 1363.04,1583.44 1363.04,1583.44Z" style="fill:white;stroke:black;stroke-width:9.32px;"/>
            </g>
        </g>
        <g transform="matrix(-0.688506,0,0,0.759201,16760.2,-2157.62)">
            <path d="M21216.4,3289.45C21209.1,3284.16 21210.4,3280.22 21210.4,3280.22C21215.3,3285.18 21222.7,3279.58 21222.7,3279.58C21220.9,3279.8 21218.8,3277.66 21218.8,3277.66C21220.7,3278.29 21221.6,3278.07 21222.7,3274.39C21223.7,3270.73 21223.1,3267.28 21227.2,3262.76C21231.3,3258.23 21233.2,3256.94 21235.6,3255C21238,3253.04 21237.8,3250.25 21241.4,3246.58C21245.1,3242.92 21249.4,3244.86 21256.9,3242.05C21264.5,3239.26 21290.2,3231.49 21293.2,3230.4C21296.2,3229.33 21306.5,3228.48 21304.8,3228.48C21303.1,3228.48 21302.2,3225.89 21302.2,3225.89C21302.2,3225.89 21304.2,3226.96 21308.7,3225.89C21313.2,3224.8 21319.5,3223.93 21324.2,3223.93C21329,3223.93 21332.4,3225.43 21337.2,3226.54C21341.2,3227.47 21345.2,3228.14 21347.3,3227.44C21350.1,3226.54 21352,3227.34 21352,3227.34C21356.1,3227.54 21360.1,3231.05 21366.9,3236.23C21373.7,3241.41 21373.1,3244.01 21378.6,3247.89C21384.1,3251.75 21388.6,3255.64 21394.7,3264.7C21400.9,3273.74 21409,3288.31 21414.8,3300.28C21420.6,3312.26 21415.8,3324.54 21413.5,3333.27C21411.2,3342.01 21407,3376.61 21407,3383.08C21407,3388.28 21409.9,3397.21 21411.1,3400.53C21420.6,3398.8 21432.9,3397.81 21434.4,3404.12C21436.6,3413.9 21437.3,3434.49 21438.2,3438.84C21444.4,3444.42 21458.2,3458.83 21464.6,3465.89C21471.1,3473.02 21475.3,3481.4 21482.1,3489.82C21488.9,3498.23 21494.7,3506.65 21502.1,3518.27C21509.5,3529.94 21513.8,3551.29 21516.4,3561.63C21519,3571.97 21519,3582.66 21520.2,3594.61C21521.5,3606.61 21506.3,3663.85 21500.8,3680.01C21495.3,3696.19 21483.4,3737.27 21476.9,3753.76C21472,3766.31 21460.7,3779.39 21453.3,3786.52C21446.6,3794.31 21439.9,3801.7 21438.6,3807.45C21437.7,3812.07 21437.9,3815.36 21438.4,3818.35C21440.4,3822.52 21441.2,3831.52 21440,3834.61C21438.7,3837.86 21440.7,3842.06 21443.9,3844.97L21445.5,3847L21446.9,3849.79C21448.6,3853.62 21450.3,3858.41 21451.7,3860.81L21453.9,3863.16L21457.9,3867.24L21454.2,3863.7L21458.1,3867.45L21457.9,3867.24L21458.2,3867.55C21460.8,3870.18 21463.6,3873.33 21465.3,3876.68C21466.3,3878.76 21466.7,3880.46 21466.8,3881.95C21469.4,3892.93 21461.3,3896.65 21455.8,3894.03L21454.5,3893.35L21454.3,3893.51C21454.3,3893.51 21455.6,3898.03 21457.5,3903.2C21458.5,3905.89 21460.2,3911.56 21462.1,3917.12C21465.3,3924.13 21469.9,3931.07 21471,3937.72L21471.4,3941.56C21472.4,3946.19 21473,3951.36 21473,3956.24C21473,3966.26 21467.5,4017.71 21465.9,4026.77C21464.3,4035.81 21462,4043.26 21459.4,4048.77C21456.8,4054.25 21443.9,4101.47 21440,4118.62C21436.1,4135.77 21435.2,4145.16 21436.1,4156.77C21437.1,4168.43 21437.1,4198.52 21436.1,4204.02C21435.2,4209.51 21439.7,4213.71 21444.5,4224.06C21449.4,4234.43 21446.8,4266.45 21445.8,4275.8C21444.9,4285.19 21456.8,4291.35 21460.1,4295.86C21463.3,4300.42 21464.6,4318.5 21465.3,4323.69C21465.9,4328.88 21473,4331.77 21474.3,4341.79C21475.6,4351.83 21478.5,4370.61 21482.1,4381.9C21485.6,4393.25 21485.3,4416.52 21488.5,4426.56C21491.8,4436.58 21490.8,4449.2 21493.1,4458.9C21495.3,4468.58 21508.6,4547.2 21512.5,4564.34C21516.4,4581.48 21520.2,4626.12 21520.9,4634.22C21521.5,4642.28 21523.5,4651.35 21521.5,4658.14C21519.6,4664.93 21522.8,4673.36 21522.2,4678.21C21521.5,4683.06 21519.3,4683.69 21522.2,4685.32C21525.1,4686.92 21526.7,4708.59 21526.7,4708.59C21481,4721.54 21440.9,4716.59 21440,4715.72L21436.1,4704.07C21417.6,4710.99 21388.3,4713.12 21388.3,4713.12C21388.7,4715.94 21388.3,4716.37 21388.3,4716.37C21382,4720.04 21357.2,4721.54 21357.2,4721.54L21332,4717.01C21328.8,4719.6 21324.2,4719.8 21316.5,4720.23C21308.7,4720.67 21207.3,4720.47 21198.1,4720.23C21188.8,4720.04 21177.8,4717.23 21174.2,4715.07C21170.5,4712.91 21170.3,4711.84 21170.3,4711.84C21170.3,4711.84 21171.3,4704.51 21172.8,4701.48C21174.4,4698.47 21175.2,4696.75 21179.3,4695.02C21180,4692.43 21181.9,4689.62 21185.1,4687.26C21192.9,4682.07 21212.5,4680.35 21219.4,4678.21C21226.3,4676.05 21231.9,4671.08 21237.5,4665.91C21243.2,4660.72 21247.5,4659 21253.1,4651.67C21258.7,4644.36 21264.7,4635.27 21266,4630.32C21267.3,4625.36 21265.1,4610.93 21262.8,4605.1C21260.4,4599.28 21259.5,4593.88 21262.1,4590.23C21264.7,4586.55 21271,4585.69 21273.1,4581.81C21275.3,4577.93 21269.7,4566.29 21267.3,4561.1C21264.9,4555.93 21269.9,4550.54 21272.5,4544.3C21275.1,4538.04 21281.1,4499.44 21284.8,4480.89C21288.4,4462.34 21293.8,4437.55 21295.1,4433.02C21296.4,4428.5 21290.2,4422.24 21287.3,4409.74C21284.5,4397.22 21281.1,4369.4 21277.6,4337.91C21274.2,4306.44 21268.4,4236.8 21267.3,4218.24C21266.2,4199.71 21260.6,4163.26 21256.3,4148.37C21252,4133.5 21250.3,4124.86 21251.1,4117.34C21252,4109.79 21254.6,4098.77 21255.7,4082.4C21256.7,4066 21252.6,4055.44 21251.1,4049.4C21249.6,4043.36 21247.7,4034.75 21247.2,4026.77C21246.8,4018.78 21244.2,4008.43 21241.4,3997.65C21238.6,3986.86 21238,3970.06 21239.5,3954.3C21241,3938.57 21244.4,3913.34 21244.6,3905.14C21244.9,3896.94 21251.3,3886.16 21249.2,3886.38C21247,3886.6 21236.9,3888.1 21236.9,3883.81C21236.9,3879.47 21235.5,3871.63 21233,3839.15C21230.5,3807.45 21231.7,3786.25 21231.5,3783.53C21231.4,3779.8 21233.9,3753.13 21232,3733.07C21230.9,3721.71 21233.5,3708.47 21235.8,3699.42C21223.9,3703.42 21212.9,3705.75 21208.6,3706.7C21201.2,3708.39 21195.2,3708.73 21186.1,3710.75C21177,3712.76 21178.3,3710.75 21176.3,3714.78C21174.3,3718.82 21160.4,3725.57 21153,3729.6C21145.6,3733.65 21135.5,3732.99 21128.4,3731.3C21121.4,3729.6 21114.6,3720.18 21110.9,3712.42C21108.3,3706.94 21106.3,3707.18 21099.3,3702.67L21098.3,3702.33C21085.9,3699.08 21068.3,3693.86 21055.1,3689.06C21047.2,3686.19 21034.3,3681.83 21021.6,3677.66C21004.6,3672.22 20991.1,3667.92 20989.4,3667.44C20984.3,3666.05 20984,3665.66 20979.8,3666.42L20978.4,3666.88L20976,3668.16C20974.5,3669.1 20947.1,3678.67 20927,3677.12C20901.4,3675.15 20884.6,3650.28 20884.7,3644.97C20884.8,3635.63 20897.4,3643.53 20912.9,3643.89C20922.6,3644.11 20920.2,3632.61 20936.2,3628.84C20956.2,3624.11 20974.8,3628.01 20975.9,3627.63C20980.2,3626.1 20989.1,3626.38 20998.2,3626.87C21006.9,3627.35 21061.3,3629.44 21061.6,3630.71L21061.7,3630.71C21064.9,3629.2 21088.3,3618.6 21113,3613.6C21132.2,3609.69 21133.8,3617.41 21135.9,3619.43C21137.9,3621.48 21138.5,3619.78 21147.3,3616.41C21156.1,3613.04 21160.7,3613.06 21169.9,3611.01C21177.1,3609.4 21190,3608.41 21197.4,3604.5C21199.6,3602.66 21201.9,3600.91 21201.9,3600.91C21206.5,3594.41 21208.3,3590.21 21214.3,3589.8L21217.7,3589.73C21224.1,3589.24 21228.4,3583.86 21234.9,3573.28C21242,3561.83 21265.9,3550.37 21281.1,3535.19C21287.1,3529.19 21291.2,3524.56 21294.2,3520.73C21293.7,3518.23 21295.1,3515 21296.4,3512.45C21297.9,3509.66 21301.4,3506.21 21302.2,3503.4C21303.1,3500.61 21304.8,3497.58 21306.8,3493.72C21308.7,3489.82 21311.1,3485.3 21313.2,3480.77C21314.4,3478.26 21315.5,3476.76 21316.2,3475.91C21315.8,3470.36 21314.9,3464.15 21312.7,3460.73C21312.7,3460.73 21315.2,3455.58 21320.8,3448.28L21320.3,3447.14C21319.5,3444.54 21314.7,3441.51 21312.6,3441.31C21310.4,3441.07 21309.1,3443.67 21305.5,3446.46C21301.8,3449.3 21287.1,3451.65 21278.3,3449.07C21269.5,3446.46 21271.2,3436.12 21271.8,3434.84C21272.5,3433.55 21273.3,3431.39 21271.8,3429.01C21270.3,3426.63 21264.1,3423.19 21262.8,3422.54C21261.5,3421.9 21264.5,3413.92 21264.7,3412.2C21264.9,3410.47 21260.6,3411.55 21259.5,3412.2C21258.5,3412.85 21256.5,3412.63 21255,3410.26C21253.5,3407.88 21252.4,3400.34 21252.4,3398.61C21252.4,3396.87 21250.7,3395.58 21248.5,3396.02C21246.4,3396.45 21241.2,3397.96 21236.3,3397.32C21231.3,3396.67 21231.1,3389.76 21231.7,3387.62C21232.4,3385.46 21236.3,3377.04 21238.8,3370.15C21235.6,3367.78 21228.9,3357.64 21227.8,3355.91C21226.8,3354.19 21225.3,3351.16 21226.5,3349.43C21227.8,3347.73 21235.6,3344.27 21235.6,3344.27C21233.4,3342.54 21232.8,3324.86 21233,3315.17C21233.2,3305.45 21231.5,3301.15 21230.4,3298.99C21229.4,3296.83 21228.8,3297.49 21221.4,3295.74C21213.9,3293.99 21212,3287.39 21211.8,3286.4C21213.5,3287.49 21214.7,3288.29 21215.6,3288.9L21216.4,3289.45ZM21392.2,4549.18C21391,4554.86 21388.8,4564.28 21385.9,4569.1C21381.7,4576.21 21377.7,4589.46 21378.2,4596.25C21378.6,4603.07 21391.8,4616.32 21391.8,4616.32C21391.8,4616.32 21391.3,4573.78 21391.8,4561.34C21392,4553.91 21392.4,4549.38 21392.7,4546.92L21392.2,4549.18ZM21099.1,3702.55L21099.1,3702.55L21099.2,3702.59L21099.1,3702.55ZM21240.4,3349.02C21235,3349.67 21229.4,3351.61 21229.4,3351.61C21229.4,3351.61 21229.5,3352.59 21231.3,3353.56C21233.1,3354.51 21238.8,3358.24 21241,3361.32C21241,3361.32 21244.7,3350.31 21240.4,3349.02Z" style="fill:rgb(195,194,255);stroke:black;stroke-width:6.24px;stroke-linecap:butt;stroke-miterlimit:2;"/>
        </g>
        <g transform="matrix(-11.7877,0,0,12.998,7393.38,280.652)">
            <path d="M345.13,149.804L345.172,149.923C345.172,149.923 345.243,150.002 345.36,150.13L345.13,149.906L345.13,149.804ZM340.558,147.23C340.401,147.22 340.249,147.222 340.104,147.244C340.004,147.568 339.97,147.765 339.961,147.961L339.901,147.942C339.551,148.176 339.231,149.545 339.231,149.545C339.231,149.545 338.562,150.214 337.309,151.787C336.057,153.359 335.911,154.903 335.736,156.301C335.561,157.698 335.649,158.631 335.853,159.358C336.057,160.087 336.232,160.262 336.348,161.456C336.464,162.649 337.076,165.911 337.192,166.872C337.309,167.833 337.571,169.114 337.775,169.668C337.979,170.221 338.037,170.629 338.008,173.279C337.979,175.929 337.979,179.249 338.066,180.443C338.153,181.637 337.891,182.481 337.891,183.442C337.891,184.157 338.293,184.484 338.5,184.606C338.488,184.824 338.503,184.985 338.503,184.985L338.505,184.981C338.473,185.704 338.465,186.496 338.357,187.52C338.183,189.18 338.619,191.247 338.59,192.587C338.562,193.927 337.687,195.674 337.455,196.839C337.222,198.004 336.931,200.362 336.522,203.216C336.115,206.07 336.581,213.002 336.668,214.05C336.756,215.098 336.057,217.078 335.969,217.894C335.882,218.709 336.028,219.729 336.232,220.312C336.435,220.894 336.318,221.155 336.318,221.68C336.318,222.204 336.581,222.117 336.581,222.117C336.581,222.117 336.552,222.729 336.522,223.106C336.493,223.485 336.552,223.515 336.814,223.572C337.076,223.631 338.211,223.747 338.211,223.747L339.143,223.66C339.202,223.98 342.085,223.863 343.599,223.835C345.114,223.806 346.627,223.485 347.123,223.252C347.793,223.397 351.782,223.747 353.151,223.747C354.52,223.747 356.355,222.932 356.413,222.611C356.471,222.291 356.383,222.35 356.063,222.35C356.296,222.029 355.888,221.534 354.986,221.68C354.083,221.825 352.161,221.563 351.346,221.243C350.53,220.923 349.802,220.282 349.802,220.282L349.919,220.194C349.86,220.049 349.395,219.583 348.987,219.233C348.579,218.884 348.579,218.68 348.987,218.477C349.395,218.272 349.656,217.952 349.919,217.369C350.18,216.787 350.472,214.137 350.734,211.429C350.997,208.72 351.316,203.944 351.434,202.227C351.55,200.508 351.928,197.887 351.928,195.383C351.928,193.111 352.239,187.177 352.341,185.113C352.615,185.05 352.831,184.985 352.831,184.985C353.559,185.073 354.229,185.132 354.461,184.637C354.695,184.142 354.608,182.977 354.461,181.695C354.316,180.414 353.326,175.289 353.063,172.959C352.985,172.262 352.862,171.139 352.71,169.857C353.982,170.651 357.365,172.767 358.539,173.541C358.873,173.311 359.166,173.081 359.424,172.854C359.424,172.854 360.066,173.373 361.482,173.479C361.537,173.483 362.193,174.365 361.825,175.067C361.565,175.564 362.367,176.779 362.09,177.889C361.737,179.302 362.593,180.625 363.001,180.459C363.339,180.321 364.37,180.402 364.707,180.737C364.968,180.996 366.03,182.774 366.393,182.392C367.092,181.659 367.618,181.072 367.55,179.89C367.403,177.361 368.208,179.306 368.011,175.927C367.898,173.986 368.483,174.413 368.431,173.835C368.354,172.99 369.11,171.737 368.676,171.157C368.271,170.615 366.955,170.418 366.77,170.387C365.586,170.183 364.872,169.782 364.396,169.768C363.302,169.735 362.15,170.168 362.15,170.168C362.15,170.168 361.475,169.641 361.315,169.53C361.317,169.394 361.305,169.318 361.305,169.318C361.305,169.318 360.52,168.736 360.17,168.562C359.82,168.387 358.889,167.483 358.365,167.28C357.84,167.076 357.258,166.931 356.616,166.348C355.976,165.766 354.869,165.212 354.17,164.717C353.472,164.223 352.802,163.901 352.482,163.581C352.192,163.292 352.115,163.075 351.697,162.928C351.589,162.411 351.481,161.984 351.375,161.688C350.705,159.824 349.656,157.437 349.22,156.505C348.783,155.572 348.259,154.291 347.968,153.446C347.686,152.629 347.62,151.731 346.902,151.464C346.721,151.217 346.54,151.041 346.453,150.972C346.308,150.855 346.074,150.71 345.842,150.651C346.133,150.681 346.453,150.972 346.453,150.972C346.338,150.654 345.625,149.883 345.159,149.415C345.193,149.146 345.268,148.838 345.424,148.603C345.774,148.079 345.91,148.06 346.396,148.04C346.881,148.021 347.521,148.06 347.832,147.808C348.143,147.555 348.123,147.166 348.006,146.914C347.89,146.662 347.832,146.468 348.026,146.37C348.22,146.273 348.36,145.963 348.065,145.749C347.56,145.303 347.987,145.264 348.162,145.187C348.336,145.108 348.569,145.05 348.55,144.856C348.511,144.457 348.492,144.351 348.744,144.332C348.996,144.313 349.715,144.351 349.501,143.847C349.349,143.486 349.191,143.225 349.249,143.225C349.307,143.225 349.54,143.303 349.599,143.089C349.657,142.876 349.676,142.273 349.676,142.079C349.676,141.886 349.501,141.866 349.113,141.808C349.152,141.342 349.075,140.429 348.55,139.167C348.783,138.799 349.075,138.313 348.783,137.964C348.492,137.614 348.453,137.498 348.123,137.226C347.793,136.954 347.638,137.032 347.463,136.993C347.288,136.954 346.24,136.935 345.987,136.857C345.735,136.779 345.23,136.353 344.395,136.411C343.561,136.469 343.036,136.449 342.435,136.663C341.833,136.876 340.939,137.459 340.707,137.77C340.474,137.886 339.891,138.507 339.619,139.614C339.347,140.721 339.426,141.109 339.426,141.77C339.426,142.429 339.794,143.128 340.007,143.749C340.221,144.37 340.396,145.069 340.609,145.497C340.823,145.924 340.842,145.808 340.784,146.351C340.739,146.77 340.626,147.016 340.558,147.23Z" style="fill:white;fill-rule:nonzero;stroke:black;stroke-width:0.36px;stroke-linecap:butt;stroke-miterlimit:2;"/>
        </g>
        <g transform="matrix(-11.7877,0,0,12.998,7393.38,-1483.01)">
            <path d="M345.13,149.804L345.172,149.923C345.172,149.923 345.243,150.002 345.36,150.13L345.13,149.906L345.13,149.804ZM340.558,147.23C340.401,147.22 340.249,147.222 340.104,147.244C340.004,147.568 339.97,147.765 339.961,147.961L339.901,147.942C339.551,148.176 339.231,149.545 339.231,149.545C339.231,149.545 338.562,150.214 337.309,151.787C336.057,153.359 335.911,154.903 335.736,156.301C335.561,157.698 335.649,158.631 335.853,159.358C336.057,160.087 336.232,160.262 336.348,161.456C336.464,162.649 337.076,165.911 337.192,166.872C337.309,167.833 337.571,169.114 337.775,169.668C337.979,170.221 338.037,170.629 338.008,173.279C337.979,175.929 337.979,179.249 338.066,180.443C338.153,181.637 337.891,182.481 337.891,183.442C337.891,184.157 338.293,184.484 338.5,184.606C338.488,184.824 338.503,184.985 338.503,184.985L338.505,184.981C338.473,185.704 338.465,186.496 338.357,187.52C338.183,189.18 338.619,191.247 338.59,192.587C338.562,193.927 337.687,195.674 337.455,196.839C337.222,198.004 336.931,200.362 336.522,203.216C336.115,206.07 336.581,213.002 336.668,214.05C336.756,215.098 336.057,217.078 335.969,217.894C335.882,218.709 336.028,219.729 336.232,220.312C336.435,220.894 336.318,221.155 336.318,221.68C336.318,222.204 336.581,222.117 336.581,222.117C336.581,222.117 336.552,222.729 336.522,223.106C336.493,223.485 336.552,223.515 336.814,223.572C337.076,223.631 338.211,223.747 338.211,223.747L339.143,223.66C339.202,223.98 342.085,223.863 343.599,223.835C345.114,223.806 346.627,223.485 347.123,223.252C347.793,223.397 351.782,223.747 353.151,223.747C354.52,223.747 356.355,222.932 356.413,222.611C356.471,222.291 356.383,222.35 356.063,222.35C356.296,222.029 355.888,221.534 354.986,221.68C354.083,221.825 352.161,221.563 351.346,221.243C350.53,220.923 349.802,220.282 349.802,220.282L349.919,220.194C349.86,220.049 349.395,219.583 348.987,219.233C348.579,218.884 348.579,218.68 348.987,218.477C349.395,218.272 349.656,217.952 349.919,217.369C350.18,216.787 350.472,214.137 350.734,211.429C350.997,208.72 351.316,203.944 351.434,202.227C351.55,200.508 351.928,197.887 351.928,195.383C351.928,193.111 352.239,187.177 352.341,185.113C352.615,185.05 352.831,184.985 352.831,184.985C353.559,185.073 354.229,185.132 354.461,184.637C354.695,184.142 354.608,182.977 354.461,181.695C354.316,180.414 353.326,175.289 353.063,172.959C352.985,172.262 352.862,171.139 352.71,169.857C353.982,170.651 357.365,172.767 358.539,173.541C358.873,173.311 359.166,173.081 359.424,172.854C359.424,172.854 360.066,173.373 361.482,173.479C361.537,173.483 362.193,174.365 361.825,175.067C361.565,175.564 362.367,176.779 362.09,177.889C361.737,179.302 362.593,180.625 363.001,180.459C363.339,180.321 364.37,180.402 364.707,180.737C364.968,180.996 366.03,182.774 366.393,182.392C367.092,181.659 367.618,181.072 367.55,179.89C367.403,177.361 368.208,179.306 368.011,175.927C367.898,173.986 368.483,174.413 368.431,173.835C368.354,172.99 369.11,171.737 368.676,171.157C368.271,170.615 366.955,170.418 366.77,170.387C365.586,170.183 364.872,169.782 364.396,169.768C363.302,169.735 362.15,170.168 362.15,170.168C362.15,170.168 361.475,169.641 361.315,169.53C361.317,169.394 361.305,169.318 361.305,169.318C361.305,169.318 360.52,168.736 360.17,168.562C359.82,168.387 358.889,167.483 358.365,167.28C357.84,167.076 357.258,166.931 356.616,166.348C355.976,165.766 354.869,165.212 354.17,164.717C353.472,164.223 352.802,163.901 352.482,163.581C352.192,163.292 352.115,163.075 351.697,162.928C351.589,162.411 351.481,161.984 351.375,161.688C350.705,159.824 349.656,157.437 349.22,156.505C348.783,155.572 348.259,154.291 347.968,153.446C347.686,152.629 347.62,151.731 346.902,151.464C346.721,151.217 346.54,151.041 346.453,150.972C346.308,150.855 346.074,150.71 345.842,150.651C346.133,150.681 346.453,150.972 346.453,150.972C346.338,150.654 345.625,149.883 345.159,149.415C345.193,149.146 345.268,148.838 345.424,148.603C345.774,148.079 345.91,148.06 346.396,148.04C346.881,148.021 347.521,148.06 347.832,147.808C348.143,147.555 348.123,147.166 348.006,146.914C347.89,146.662 347.832,146.468 348.026,146.37C348.22,146.273 348.36,145.963 348.065,145.749C347.56,145.303 347.987,145.264 348.162,145.187C348.336,145.108 348.569,145.05 348.55,144.856C348.511,144.457 348.492,144.351 348.744,144.332C348.996,144.313 349.715,144.351 349.501,143.847C349.349,143.486 349.191,143.225 349.249,143.225C349.307,143.225 349.54,143.303 349.599,143.089C349.657,142.876 349.676,142.273 349.676,142.079C349.676,141.886 349.501,141.866 349.113,141.808C349.152,141.342 349.075,140.429 348.55,139.167C348.783,138.799 349.075,138.313 348.783,137.964C348.492,137.614 348.453,137.498 348.123,137.226C347.793,136.954 347.638,137.032 347.463,136.993C347.288,136.954 346.24,136.935 345.987,136.857C345.735,136.779 345.23,136.353 344.395,136.411C343.561,136.469 343.036,136.449 342.435,136.663C341.833,136.876 340.939,137.459 340.707,137.77C340.474,137.886 339.891,138.507 339.619,139.614C339.347,140.721 339.426,141.109 339.426,141.77C339.426,142.429 339.794,143.128 340.007,143.749C340.221,144.37 340.396,145.069 340.609,145.497C340.823,145.924 340.842,145.808 340.784,146.351C340.739,146.77 340.626,147.016 340.558,147.23Z" style="fill:white;fill-rule:nonzero;stroke:black;stroke-width:0.36px;stroke-linecap:butt;stroke-miterlimit:2;"/>
        </g>
        <g transform="matrix(1.23872,0,0,1.36591,792.077,298.785)">
            <path d="M1590.43,1713.75C1590.43,1713.75 1584.31,1712.8 1584.27,1717.39C1584.24,1720.99 1584.38,1739.8 1584.38,1739.8C1584.38,1739.8 1584.23,1743.47 1587.32,1743.47C1590.41,1743.47 1591.51,1744.01 1591.04,1739.93C1590.8,1737.77 1587.66,1739.82 1587.79,1735.31C1587.83,1733.97 1589.43,1732.93 1591.65,1732.89C1597.18,1732.78 1603.67,1731.79 1603.65,1734.69C1603.62,1738.48 1604.36,1743.35 1601.7,1743.34C1599.51,1743.33 1599.61,1738.94 1599.61,1738.94L1599.76,1713.87L1590.43,1713.75Z" style="fill:none;stroke:black;stroke-width:3.47px;"/>
        </g>
        <g transform="matrix(1.23872,0,0,1.36591,792.077,298.785)">
            <rect x="1585.95" y="1707.09" width="59.227" height="11.284" style="fill:rgb(195,194,255);stroke:black;stroke-width:3.47px;"/>
        </g>
        <g transform="matrix(0.614792,-0.0565558,0.0512895,0.677918,1225.79,-50.7403)">
            <g transform="matrix(-0.731053,-0.156162,-0.156162,0.731053,3913.7,311.622)">
                <path d="M2132.25,894.286L1991,1992.31L1506.28,1934.56C1506.28,1934.56 1461.02,1926.75 1443.28,1951.26C1425.54,1975.77 1427.15,2005.05 1427.15,2005.05L1326.19,1985.21C1326.19,1985.21 1359.59,1948.29 1357.72,1914.09C1355.86,1879.89 1331.79,1778.52 1379.94,1702.23C1397.85,1673.86 1448.92,1639.15 1448.92,1639.15C1448.92,1639.15 1417.64,1605.35 1419.17,1582.08C1420.69,1558.82 1516.76,847.487 1516.76,847.487C1525.4,818.604 1555.53,810.466 1599.01,815.2L2132.25,894.286Z" style="fill:rgb(195,194,255);stroke:black;stroke-width:9.32px;"/>
            </g>
            <g transform="matrix(-0.731053,-0.156162,-0.156162,0.731053,3913.7,311.622)">
                <path d="M1431.26,1654.13C1431.26,1654.13 1544.37,1664.97 1573.36,1795.36C1592.2,1880.1 1476.95,1934.08 1476.95,1934.08" style="fill:rgb(195,194,255);stroke:black;stroke-width:9.32px;"/>
            </g>
            <g transform="matrix(-0.731053,-0.156162,-0.156162,0.731053,3913.7,311.622)">
                <path d="M1363.04,1583.44C1357.17,1579.74 1353.07,1581.38 1350.58,1587.87C1350.58,1587.87 1359.14,1683.96 1381.06,1747.94C1401.07,1806.33 1408.88,1814.56 1418.19,1827.98C1426.58,1840.08 1437.49,1849.47 1453.7,1839.14C1469.91,1828.81 1467.08,1812.03 1459.65,1797.75C1452.22,1783.46 1424.21,1753.02 1412.06,1718.71C1399.9,1684.4 1385.21,1634.44 1378.5,1616.76C1371.79,1599.08 1363.04,1583.44 1363.04,1583.44Z" style="fill:rgb(195,194,255);stroke:black;stroke-width:9.32px;"/>
            </g>
        </g>
        <g transform="matrix(-0.598399,-0.165471,-0.150063,0.659842,2120.85,458.849)">
            <g transform="matrix(-0.731053,-0.156162,-0.156162,0.731053,3913.7,311.622)">
                <path d="M2132.25,894.286L1991,1992.31L1506.28,1934.56C1506.28,1934.56 1461.02,1926.75 1443.28,1951.26C1425.54,1975.77 1427.15,2005.05 1427.15,2005.05L1326.19,1985.21C1326.19,1985.21 1359.59,1948.29 1357.72,1914.09C1355.86,1879.89 1331.79,1778.52 1379.94,1702.23C1397.85,1673.86 1448.92,1639.15 1448.92,1639.15C1448.92,1639.15 1417.64,1605.35 1419.17,1582.08C1420.69,1558.82 1516.76,847.487 1516.76,847.487C1525.4,818.604 1555.53,810.466 1599.01,815.2L2132.25,894.286Z" style="fill:white;stroke:rgb(7,0,0);stroke-width:9.32px;"/>
            </g>
            <g transform="matrix(-0.731053,-0.156162,-0.156162,0.731053,3913.7,311.622)">
                <path d="M1431.26,1654.13C1431.26,1654.13 1544.37,1664.97 1573.36,1795.36C1592.2,1880.1 1476.95,1934.08 1476.95,1934.08" style="fill:white;stroke:rgb(7,0,0);stroke-width:9.32px;"/>
            </g>
            <g transform="matrix(-0.731053,-0.156162,-0.156162,0.731053,3913.7,311.622)">
                <path d="M1363.04,1583.44C1357.17,1579.74 1353.07,1581.38 1350.58,1587.87C1350.58,1587.87 1359.14,1683.96 1381.06,1747.94C1401.07,1806.33 1408.88,1814.56 1418.19,1827.98C1426.58,1840.08 1437.49,1849.47 1453.7,1839.14C1469.91,1828.81 1467.08,1812.03 1459.65,1797.75C1452.22,1783.46 1424.21,1753.02 1412.06,1718.71C1399.9,1684.4 1385.21,1634.44 1378.5,1616.76C1371.79,1599.08 1363.04,1583.44 1363.04,1583.44Z" style="fill:white;stroke:rgb(7,0,0);stroke-width:9.32px;"/>
            </g>
        </g>
        <g transform="matrix(-1.03158,0,0,1.1375,797.761,-316.143)">
            <path d="M314.009,781.785C303.495,777.207 297.29,814.796 298.903,824.261C300.517,833.727 322.12,831.644 336.773,833.622C351.426,835.601 354.681,845.833 358.196,837.908C362.401,828.429 371.295,800.636 361.344,792.176C351.394,783.716 326.129,787.062 314.009,781.785Z" style="fill:white;stroke:black;stroke-width:4.17px;"/>
        </g>
        <g transform="matrix(-0.688506,0,0,0.759201,14856.8,-2157.62)">
            <path d="M21216.4,3289.45C21209.1,3284.16 21210.4,3280.22 21210.4,3280.22C21215.3,3285.18 21222.7,3279.58 21222.7,3279.58C21220.9,3279.8 21218.8,3277.66 21218.8,3277.66C21220.7,3278.29 21221.6,3278.07 21222.7,3274.39C21223.7,3270.73 21223.1,3267.28 21227.2,3262.76C21231.3,3258.23 21233.2,3256.94 21235.6,3255C21238,3253.04 21237.8,3250.25 21241.4,3246.58C21245.1,3242.92 21249.4,3244.86 21256.9,3242.05C21264.5,3239.26 21290.2,3231.49 21293.2,3230.4C21296.2,3229.33 21306.5,3228.48 21304.8,3228.48C21303.1,3228.48 21302.2,3225.89 21302.2,3225.89C21302.2,3225.89 21304.2,3226.96 21308.7,3225.89C21313.2,3224.8 21319.5,3223.93 21324.2,3223.93C21329,3223.93 21332.4,3225.43 21337.2,3226.54C21341.2,3227.47 21345.2,3228.14 21347.3,3227.44C21350.1,3226.54 21352,3227.34 21352,3227.34C21356.1,3227.54 21360.1,3231.05 21366.9,3236.23C21373.7,3241.41 21373.1,3244.01 21378.6,3247.89C21384.1,3251.75 21388.6,3255.64 21394.7,3264.7C21400.9,3273.74 21409,3288.31 21414.8,3300.28C21420.6,3312.26 21415.8,3324.54 21413.5,3333.27C21411.2,3342.01 21407,3376.61 21407,3383.08C21407,3388.28 21409.9,3397.21 21411.1,3400.53C21420.6,3398.8 21432.9,3397.81 21434.4,3404.12C21436.6,3413.9 21437.3,3434.49 21438.2,3438.84C21444.4,3444.42 21458.2,3458.83 21464.6,3465.89C21471.1,3473.02 21475.3,3481.4 21482.1,3489.82C21488.9,3498.23 21494.7,3506.65 21502.1,3518.27C21509.5,3529.94 21513.8,3551.29 21516.4,3561.63C21519,3571.97 21519,3582.66 21520.2,3594.61C21521.5,3606.61 21506.3,3663.85 21500.8,3680.01C21495.3,3696.19 21483.4,3737.27 21476.9,3753.76C21472,3766.31 21460.7,3779.39 21453.3,3786.52C21446.6,3794.31 21439.9,3801.7 21438.6,3807.45C21437.7,3812.07 21437.9,3815.36 21438.4,3818.35C21440.4,3822.52 21441.2,3831.52 21440,3834.61C21438.7,3837.86 21440.7,3842.06 21443.9,3844.97L21445.5,3847L21446.9,3849.79C21448.6,3853.62 21450.3,3858.41 21451.7,3860.81L21453.9,3863.16L21457.9,3867.24L21454.2,3863.7L21458.1,3867.45L21457.9,3867.24L21458.2,3867.55C21460.8,3870.18 21463.6,3873.33 21465.3,3876.68C21466.3,3878.76 21466.7,3880.46 21466.8,3881.95C21469.4,3892.93 21461.3,3896.65 21455.8,3894.03L21454.5,3893.35L21454.3,3893.51C21454.3,3893.51 21455.6,3898.03 21457.5,3903.2C21458.5,3905.89 21460.2,3911.56 21462.1,3917.12C21465.3,3924.13 21469.9,3931.07 21471,3937.72L21471.4,3941.56C21472.4,3946.19 21473,3951.36 21473,3956.24C21473,3966.26 21467.5,4017.71 21465.9,4026.77C21464.3,4035.81 21462,4043.26 21459.4,4048.77C21456.8,4054.25 21443.9,4101.47 21440,4118.62C21436.1,4135.77 21435.2,4145.16 21436.1,4156.77C21437.1,4168.43 21437.1,4198.52 21436.1,4204.02C21435.2,4209.51 21439.7,4213.71 21444.5,4224.06C21449.4,4234.43 21446.8,4266.45 21445.8,4275.8C21444.9,4285.19 21456.8,4291.35 21460.1,4295.86C21463.3,4300.42 21464.6,4318.5 21465.3,4323.69C21465.9,4328.88 21473,4331.77 21474.3,4341.79C21475.6,4351.83 21478.5,4370.61 21482.1,4381.9C21485.6,4393.25 21485.3,4416.52 21488.5,4426.56C21491.8,4436.58 21490.8,4449.2 21493.1,4458.9C21495.3,4468.58 21508.6,4547.2 21512.5,4564.34C21516.4,4581.48 21520.2,4626.12 21520.9,4634.22C21521.5,4642.28 21523.5,4651.35 21521.5,4658.14C21519.6,4664.93 21522.8,4673.36 21522.2,4678.21C21521.5,4683.06 21519.3,4683.69 21522.2,4685.32C21525.1,4686.92 21526.7,4708.59 21526.7,4708.59C21481,4721.54 21440.9,4716.59 21440,4715.72L21436.1,4704.07C21417.6,4710.99 21388.3,4713.12 21388.3,4713.12C21388.7,4715.94 21388.3,4716.37 21388.3,4716.37C21382,4720.04 21357.2,4721.54 21357.2,4721.54L21332,4717.01C21328.8,4719.6 21324.2,4719.8 21316.5,4720.23C21308.7,4720.67 21207.3,4720.47 21198.1,4720.23C21188.8,4720.04 21177.8,4717.23 21174.2,4715.07C21170.5,4712.91 21170.3,4711.84 21170.3,4711.84C21170.3,4711.84 21171.3,4704.51 21172.8,4701.48C21174.4,4698.47 21175.2,4696.75 21179.3,4695.02C21180,4692.43 21181.9,4689.62 21185.1,4687.26C21192.9,4682.07 21212.5,4680.35 21219.4,4678.21C21226.3,4676.05 21231.9,4671.08 21237.5,4665.91C21243.2,4660.72 21247.5,4659 21253.1,4651.67C21258.7,4644.36 21264.7,4635.27 21266,4630.32C21267.3,4625.36 21265.1,4610.93 21262.8,4605.1C21260.4,4599.28 21259.5,4593.88 21262.1,4590.23C21264.7,4586.55 21271,4585.69 21273.1,4581.81C21275.3,4577.93 21269.7,4566.29 21267.3,4561.1C21264.9,4555.93 21269.9,4550.54 21272.5,4544.3C21275.1,4538.04 21281.1,4499.44 21284.8,4480.89C21288.4,4462.34 21293.8,4437.55 21295.1,4433.02C21296.4,4428.5 21290.2,4422.24 21287.3,4409.74C21284.5,4397.22 21281.1,4369.4 21277.6,4337.91C21274.2,4306.44 21268.4,4236.8 21267.3,4218.24C21266.2,4199.71 21260.6,4163.26 21256.3,4148.37C21252,4133.5 21250.3,4124.86 21251.1,4117.34C21252,4109.79 21254.6,4098.77 21255.7,4082.4C21256.7,4066 21252.6,4055.44 21251.1,4049.4C21249.6,4043.36 21247.7,4034.75 21247.2,4026.77C21246.8,4018.78 21244.2,4008.43 21241.4,3997.65C21238.6,3986.86 21238,3970.06 21239.5,3954.3C21241,3938.57 21244.4,3913.34 21244.6,3905.14C21244.9,3896.94 21251.3,3886.16 21249.2,3886.38C21247,3886.6 21236.9,3888.1 21236.9,3883.81C21236.9,3879.47 21235.5,3871.63 21233,3839.15C21230.5,3807.45 21231.7,3786.25 21231.5,3783.53C21231.4,3779.8 21233.9,3753.13 21232,3733.07C21230.9,3721.71 21233.5,3708.47 21235.8,3699.42C21223.9,3703.42 21212.9,3705.75 21208.6,3706.7C21201.2,3708.39 21195.2,3708.73 21186.1,3710.75C21177,3712.76 21178.3,3710.75 21176.3,3714.78C21174.3,3718.82 21160.4,3725.57 21153,3729.6C21145.6,3733.65 21135.5,3732.99 21128.4,3731.3C21121.4,3729.6 21114.6,3720.18 21110.9,3712.42C21108.3,3706.94 21106.3,3707.18 21099.3,3702.67L21098.3,3702.33C21085.9,3699.08 21068.3,3693.86 21055.1,3689.06C21047.2,3686.19 21034.3,3681.83 21021.6,3677.66C21004.6,3672.22 20991.1,3667.92 20989.4,3667.44C20984.3,3666.05 20984,3665.66 20979.8,3666.42L20978.4,3666.88L20976,3668.16C20974.5,3669.1 20947.1,3678.67 20927,3677.12C20901.4,3675.15 20884.6,3650.28 20884.7,3644.97C20884.8,3635.63 20893.4,3617.89 20908.9,3618.24C20918.6,3618.46 20919.8,3613.45 20935.8,3609.68C20955.8,3604.95 20974.8,3628.01 20975.9,3627.63C20980.2,3626.1 20989.1,3626.38 20998.2,3626.87C21006.9,3627.35 21061.3,3629.44 21061.6,3630.71L21061.7,3630.71C21064.9,3629.2 21088.3,3618.6 21113,3613.6C21132.2,3609.69 21133.8,3617.41 21135.9,3619.43C21137.9,3621.48 21138.5,3619.78 21147.3,3616.41C21156.1,3613.04 21160.7,3613.06 21169.9,3611.01C21177.1,3609.4 21190,3608.41 21197.4,3604.5C21199.6,3602.66 21201.9,3600.91 21201.9,3600.91C21206.5,3594.41 21208.3,3590.21 21214.3,3589.8L21217.7,3589.73C21224.1,3589.24 21228.4,3583.86 21234.9,3573.28C21242,3561.83 21265.9,3550.37 21281.1,3535.19C21287.1,3529.19 21291.2,3524.56 21294.2,3520.73C21293.7,3518.23 21295.1,3515 21296.4,3512.45C21297.9,3509.66 21301.4,3506.21 21302.2,3503.4C21303.1,3500.61 21304.8,3497.58 21306.8,3493.72C21308.7,3489.82 21311.1,3485.3 21313.2,3480.77C21314.4,3478.26 21315.5,3476.76 21316.2,3475.91C21315.8,3470.36 21314.9,3464.15 21312.7,3460.73C21312.7,3460.73 21315.2,3455.58 21320.8,3448.28L21320.3,3447.14C21319.5,3444.54 21314.7,3441.51 21312.6,3441.31C21310.4,3441.07 21309.1,3443.67 21305.5,3446.46C21301.8,3449.3 21287.1,3451.65 21278.3,3449.07C21269.5,3446.46 21271.2,3436.12 21271.8,3434.84C21272.5,3433.55 21273.3,3431.39 21271.8,3429.01C21270.3,3426.63 21264.1,3423.19 21262.8,3422.54C21261.5,3421.9 21264.5,3413.92 21264.7,3412.2C21264.9,3410.47 21260.6,3411.55 21259.5,3412.2C21258.5,3412.85 21256.5,3412.63 21255,3410.26C21253.5,3407.88 21252.4,3400.34 21252.4,3398.61C21252.4,3396.87 21250.7,3395.58 21248.5,3396.02C21246.4,3396.45 21241.2,3397.96 21236.3,3397.32C21231.3,3396.67 21231.1,3389.76 21231.7,3387.62C21232.4,3385.46 21236.3,3377.04 21238.8,3370.15C21235.6,3367.78 21228.9,3357.64 21227.8,3355.91C21226.8,3354.19 21225.3,3351.16 21226.5,3349.43C21227.8,3347.73 21235.6,3344.27 21235.6,3344.27C21233.4,3342.54 21232.8,3324.86 21233,3315.17C21233.2,3305.45 21231.5,3301.15 21230.4,3298.99C21229.4,3296.83 21228.8,3297.49 21221.4,3295.74C21213.9,3293.99 21212,3287.39 21211.8,3286.4C21213.5,3287.49 21214.7,3288.29 21215.6,3288.9L21216.4,3289.45ZM21392.2,4549.18C21391,4554.86 21388.8,4564.28 21385.9,4569.1C21381.7,4576.21 21377.7,4589.46 21378.2,4596.25C21378.6,4603.07 21391.8,4616.32 21391.8,4616.32C21391.8,4616.32 21391.3,4573.78 21391.8,4561.34C21392,4553.91 21392.4,4549.38 21392.7,4546.92L21392.2,4549.18ZM21099.1,3702.55L21099.1,3702.55L21099.2,3702.59L21099.1,3702.55ZM21240.4,3349.02C21235,3349.67 21229.4,3351.61 21229.4,3351.61C21229.4,3351.61 21229.5,3352.59 21231.3,3353.56C21233.1,3354.51 21238.8,3358.24 21241,3361.32C21241,3361.32 21244.7,3350.31 21240.4,3349.02Z" style="fill:rgb(194,235,255);stroke:black;stroke-width:6.24px;stroke-linecap:butt;stroke-miterlimit:2;"/>
        </g>
        <g transform="matrix(-0.897043,0,0,0.98915,789.739,-162.213)">
            <path d="M62.343,903.583C67.627,894.315 88.645,890.096 91.558,889.265C94.471,888.433 120.633,883.209 120.805,886.237C120.976,889.265 106.456,887.642 100.076,893.076C93.696,898.51 93.586,905.837 93.696,911.414C93.807,916.991 92.613,949.23 92.613,949.23C92.613,949.23 169.099,893.474 185.346,888.645C197.786,884.947 213.533,885.625 220.081,888.381C225.526,890.672 226.276,893.625 226.719,898.466C227.203,903.736 220.76,909.153 211.34,909.076C201.92,908.999 199.131,900.539 199.131,900.539C179.593,902.392 133.269,937.447 92.047,966.179L92.037,973.866C92.037,973.866 85.23,976.363 76.787,976.589C67.463,976.838 62.11,973.913 62.11,973.913C62.11,973.913 61.994,945.912 61.994,937.212C61.994,928.511 56.446,913.927 62.343,903.583Z" style="fill:white;stroke:black;stroke-width:4.79px;"/>
        </g>
        <g transform="matrix(-1.03158,0,0,1.1375,797.761,-316.143)">
            <path d="M60.35,937.997L88.697,936.881" style="fill:none;stroke:black;stroke-width:4.17px;"/>
        </g>
        <g transform="matrix(-1.03158,0,0,1.1375,797.761,-316.143)">
            <path d="M258.363,925.84C258.253,925.034 258.197,924.212 258.197,923.377C258.197,913.326 266.357,905.166 276.408,905.166C286.46,905.166 294.62,913.326 294.62,923.377C294.62,924.175 294.568,924.961 294.469,925.732C295.529,925.583 296.612,925.506 297.712,925.506C310.125,925.506 320.27,935.297 320.838,947.569C325.089,949.88 328.666,953.276 331.196,957.386C334.101,953.508 338.734,950.996 343.949,950.996C351.147,950.996 357.237,955.782 359.205,962.343C359.874,962.248 360.558,962.199 361.253,962.199C363.777,962.199 366.151,962.847 368.218,963.985C372.527,957 380.252,952.339 389.057,952.339C402.561,952.339 413.525,963.303 413.525,976.807C413.525,990.312 402.561,1001.27 389.057,1001.27C380.163,1001.27 372.371,996.52 368.088,989.416C366.052,990.51 363.724,991.131 361.253,991.131C355.283,991.131 350.152,987.507 347.945,982.34C346.668,982.671 345.329,982.847 343.949,982.847C340.269,982.847 336.88,981.596 334.182,979.497C330.849,990.976 320.249,999.376 307.703,999.376C294.003,999.376 282.624,989.361 280.493,976.259C274.841,990.889 260.637,1001.27 244.026,1001.27C228.259,1001.27 214.66,991.916 208.486,978.453C205.062,985.931 197.51,991.131 188.753,991.131C182.249,991.131 176.41,988.263 172.432,983.721C172.442,983.948 172.447,984.178 172.447,984.408C172.447,992.669 165.741,999.376 157.48,999.376C149.219,999.376 142.512,992.669 142.512,984.408C142.512,976.147 149.219,969.441 157.48,969.441C161.277,969.441 164.746,970.858 167.386,973.192C167.174,971.974 167.063,970.72 167.063,969.441C167.063,957.469 176.782,947.75 188.753,947.75C189.023,947.75 189.291,947.755 189.56,947.765C189.043,946.699 188.753,945.503 188.753,944.24C188.753,939.771 192.382,936.142 196.852,936.142C201.321,936.142 204.95,939.771 204.95,944.24C204.95,947.308 203.241,949.979 200.723,951.354C202.52,952.546 204.129,953.998 205.496,955.656C207.543,943.542 215.17,933.316 225.639,927.717C225.487,927.003 225.408,926.264 225.408,925.506C225.408,919.636 230.174,914.87 236.044,914.87C241.121,914.87 245.371,918.434 246.428,923.195C250.618,923.45 254.631,924.366 258.363,925.84Z" style="fill:white;stroke:black;stroke-width:4.17px;"/>
        </g>
        <g transform="matrix(-1.03158,0,0,1.1375,797.761,-316.143)">
            <rect x="44.626" y="978.092" width="427.141" height="554.323" style="fill:white;stroke:black;stroke-width:4.17px;"/>
        </g>
        <g transform="matrix(1.0339,0,0,1.1375,9.47704,106.307)">
            <path d="M34.014,1446.85L3306.24,1446.85" style="fill:none;stroke:black;stroke-width:4.16px;stroke-dasharray:20.81,20.81,0,0,0,0;"/>
        </g>
        <g transform="matrix(1.03158,0,0,1.1375,-126.9,1.50655)">
            <g transform="matrix(96.7349,0,0,96.7349,154.634,1486.61)">
                <path d="M0.319,0.012C0.471,0.012 0.582,-0.112 0.582,-0.255L0.582,-0.257C0.582,-0.4 0.472,-0.522 0.321,-0.522C0.169,-0.522 0.058,-0.398 0.058,-0.255L0.058,-0.253C0.058,-0.11 0.168,0.012 0.319,0.012ZM0.321,-0.034C0.203,-0.034 0.111,-0.132 0.111,-0.255L0.111,-0.257C0.111,-0.377 0.198,-0.476 0.319,-0.476C0.437,-0.476 0.529,-0.378 0.529,-0.255L0.529,-0.253C0.529,-0.133 0.442,-0.034 0.321,-0.034Z" style="fill-rule:nonzero;"/>
            </g>
            <g transform="matrix(96.7349,0,0,96.7349,216.545,1486.61)">
                <rect x="0.1" y="-0.73" width="0.049" height="0.73" style="fill-rule:nonzero;"/>
            </g>
            <g transform="matrix(96.7349,0,0,96.7349,240.632,1486.61)">
                <path d="M0.308,0.012C0.409,0.012 0.474,-0.047 0.518,-0.114L0.518,-0L0.567,-0L0.567,-0.73L0.518,-0.73L0.518,-0.4C0.476,-0.464 0.41,-0.522 0.308,-0.522C0.185,-0.522 0.06,-0.421 0.06,-0.255L0.06,-0.253C0.06,-0.087 0.185,0.012 0.308,0.012ZM0.313,-0.035C0.206,-0.035 0.113,-0.121 0.113,-0.255L0.113,-0.257C0.113,-0.394 0.202,-0.475 0.313,-0.475C0.419,-0.475 0.521,-0.387 0.521,-0.256L0.521,-0.254C0.521,-0.124 0.419,-0.035 0.313,-0.035Z" style="fill-rule:nonzero;"/>
            </g>
            <g transform="matrix(96.7349,0,0,96.7349,333.497,1486.61)">
                <path d="M0.236,0.004L0.278,0.004L0.431,-0.433L0.583,0.004L0.625,0.004L0.812,-0.51L0.759,-0.51L0.605,-0.062L0.451,-0.512L0.412,-0.512L0.258,-0.062L0.104,-0.51L0.049,-0.51L0.236,0.004Z" style="fill-rule:nonzero;"/>
            </g>
            <g transform="matrix(96.7349,0,0,96.7349,414.851,1486.61)">
                <path d="M0.248,0.012C0.345,0.012 0.408,-0.036 0.443,-0.085L0.443,-0L0.491,-0L0.491,-0.318C0.491,-0.381 0.473,-0.428 0.439,-0.462C0.402,-0.499 0.347,-0.518 0.278,-0.518C0.208,-0.518 0.153,-0.5 0.097,-0.474L0.115,-0.431C0.162,-0.455 0.213,-0.472 0.275,-0.472C0.38,-0.472 0.443,-0.419 0.443,-0.316L0.443,-0.294C0.394,-0.307 0.345,-0.316 0.274,-0.316C0.142,-0.316 0.051,-0.256 0.051,-0.15L0.051,-0.148C0.051,-0.042 0.153,0.012 0.248,0.012ZM0.251,-0.034C0.173,-0.034 0.103,-0.077 0.103,-0.151L0.103,-0.153C0.103,-0.224 0.163,-0.272 0.271,-0.272C0.344,-0.272 0.401,-0.26 0.444,-0.249L0.444,-0.191C0.444,-0.098 0.355,-0.034 0.251,-0.034Z" style="fill-rule:nonzero;"/>
            </g>
            <g transform="matrix(96.7349,0,0,96.7349,468.442,1486.61)">
                <path d="M0.155,0.163C0.228,0.163 0.28,0.125 0.325,0.018L0.546,-0.51L0.492,-0.51L0.308,-0.054L0.096,-0.51L0.039,-0.51L0.284,-0.003C0.246,0.086 0.211,0.117 0.158,0.117C0.12,0.117 0.098,0.111 0.071,0.098L0.054,0.141C0.088,0.156 0.116,0.163 0.155,0.163Z" style="fill-rule:nonzero;"/>
            </g>
        </g>
        <g transform="matrix(1.03158,0,0,1.1375,390.735,1.50655)">
            <g transform="matrix(96.7349,0,0,96.7349,154.634,1486.61)">
                <path d="M0.297,0.098L0.345,0.098L0.345,-0C0.471,-0.005 0.559,-0.079 0.559,-0.184L0.559,-0.186C0.559,-0.283 0.495,-0.34 0.343,-0.372L0.343,-0.653C0.401,-0.646 0.453,-0.623 0.505,-0.577L0.538,-0.616C0.479,-0.664 0.422,-0.692 0.345,-0.698L0.345,-0.758L0.297,-0.758L0.297,-0.7C0.175,-0.697 0.087,-0.62 0.087,-0.52L0.087,-0.518C0.087,-0.419 0.149,-0.364 0.299,-0.331L0.299,-0.047C0.218,-0.054 0.155,-0.089 0.093,-0.147L0.06,-0.108C0.132,-0.044 0.206,-0.009 0.297,-0.001L0.297,0.098ZM0.299,-0.382C0.169,-0.414 0.138,-0.457 0.138,-0.522L0.138,-0.524C0.138,-0.595 0.202,-0.653 0.299,-0.655L0.299,-0.382ZM0.343,-0.045L0.343,-0.321C0.475,-0.291 0.508,-0.25 0.508,-0.182L0.508,-0.18C0.508,-0.105 0.443,-0.048 0.343,-0.045Z" style="fill-rule:nonzero;"/>
            </g>
            <g transform="matrix(96.7349,0,0,96.7349,215.771,1486.61)">
                <path d="M0.297,0.098L0.345,0.098L0.345,-0C0.471,-0.005 0.559,-0.079 0.559,-0.184L0.559,-0.186C0.559,-0.283 0.495,-0.34 0.343,-0.372L0.343,-0.653C0.401,-0.646 0.453,-0.623 0.505,-0.577L0.538,-0.616C0.479,-0.664 0.422,-0.692 0.345,-0.698L0.345,-0.758L0.297,-0.758L0.297,-0.7C0.175,-0.697 0.087,-0.62 0.087,-0.52L0.087,-0.518C0.087,-0.419 0.149,-0.364 0.299,-0.331L0.299,-0.047C0.218,-0.054 0.155,-0.089 0.093,-0.147L0.06,-0.108C0.132,-0.044 0.206,-0.009 0.297,-0.001L0.297,0.098ZM0.299,-0.382C0.169,-0.414 0.138,-0.457 0.138,-0.522L0.138,-0.524C0.138,-0.595 0.202,-0.653 0.299,-0.655L0.299,-0.382ZM0.343,-0.045L0.343,-0.321C0.475,-0.291 0.508,-0.25 0.508,-0.182L0.508,-0.18C0.508,-0.105 0.443,-0.048 0.343,-0.045Z" style="fill-rule:nonzero;"/>
            </g>
            <g transform="matrix(96.7349,0,0,96.7349,276.907,1486.61)">
                <path d="M0.297,0.098L0.345,0.098L0.345,-0C0.471,-0.005 0.559,-0.079 0.559,-0.184L0.559,-0.186C0.559,-0.283 0.495,-0.34 0.343,-0.372L0.343,-0.653C0.401,-0.646 0.453,-0.623 0.505,-0.577L0.538,-0.616C0.479,-0.664 0.422,-0.692 0.345,-0.698L0.345,-0.758L0.297,-0.758L0.297,-0.7C0.175,-0.697 0.087,-0.62 0.087,-0.52L0.087,-0.518C0.087,-0.419 0.149,-0.364 0.299,-0.331L0.299,-0.047C0.218,-0.054 0.155,-0.089 0.093,-0.147L0.06,-0.108C0.132,-0.044 0.206,-0.009 0.297,-0.001L0.297,0.098ZM0.299,-0.382C0.169,-0.414 0.138,-0.457 0.138,-0.522L0.138,-0.524C0.138,-0.595 0.202,-0.653 0.299,-0.655L0.299,-0.382ZM0.343,-0.045L0.343,-0.321C0.475,-0.291 0.508,-0.25 0.508,-0.182L0.508,-0.18C0.508,-0.105 0.443,-0.048 0.343,-0.045Z" style="fill-rule:nonzero;"/>
            </g>
        </g>
        <g transform="matrix(1.03158,0,0,1.1375,390.735,183.034)">
            <g transform="matrix(96.7349,0,0,96.7349,154.634,1486.61)">
                <path d="M0.297,0.098L0.345,0.098L0.345,-0C0.471,-0.005 0.559,-0.079 0.559,-0.184L0.559,-0.186C0.559,-0.283 0.495,-0.34 0.343,-0.372L0.343,-0.653C0.401,-0.646 0.453,-0.623 0.505,-0.577L0.538,-0.616C0.479,-0.664 0.422,-0.692 0.345,-0.698L0.345,-0.758L0.297,-0.758L0.297,-0.7C0.175,-0.697 0.087,-0.62 0.087,-0.52L0.087,-0.518C0.087,-0.419 0.149,-0.364 0.299,-0.331L0.299,-0.047C0.218,-0.054 0.155,-0.089 0.093,-0.147L0.06,-0.108C0.132,-0.044 0.206,-0.009 0.297,-0.001L0.297,0.098ZM0.299,-0.382C0.169,-0.414 0.138,-0.457 0.138,-0.522L0.138,-0.524C0.138,-0.595 0.202,-0.653 0.299,-0.655L0.299,-0.382ZM0.343,-0.045L0.343,-0.321C0.475,-0.291 0.508,-0.25 0.508,-0.182L0.508,-0.18C0.508,-0.105 0.443,-0.048 0.343,-0.045Z" style="fill-rule:nonzero;"/>
            </g>
        </g>
        <g transform="matrix(1.03158,0,0,1.1375,-129.096,183.034)">
            <g transform="matrix(96.7349,0,0,96.7349,154.634,1486.61)">
                <path d="M0.093,-0L0.142,-0L0.142,-0.295C0.142,-0.401 0.219,-0.477 0.319,-0.477C0.422,-0.477 0.481,-0.408 0.481,-0.303L0.481,-0L0.53,-0L0.53,-0.312C0.53,-0.434 0.455,-0.522 0.326,-0.522C0.233,-0.522 0.176,-0.475 0.142,-0.415L0.142,-0.51L0.093,-0.51L0.093,-0Z" style="fill-rule:nonzero;"/>
            </g>
            <g transform="matrix(96.7349,0,0,96.7349,213.933,1486.61)">
                <path d="M0.308,0.012C0.406,0.012 0.467,-0.028 0.519,-0.084L0.485,-0.114C0.443,-0.069 0.389,-0.034 0.31,-0.034C0.21,-0.034 0.119,-0.108 0.11,-0.235L0.533,-0.235C0.534,-0.243 0.534,-0.246 0.534,-0.255C0.534,-0.406 0.443,-0.522 0.3,-0.522C0.162,-0.522 0.058,-0.404 0.058,-0.256L0.058,-0.254C0.058,-0.095 0.174,0.012 0.308,0.012ZM0.11,-0.279C0.119,-0.392 0.197,-0.477 0.298,-0.477C0.415,-0.477 0.474,-0.382 0.481,-0.279L0.11,-0.279Z" style="fill-rule:nonzero;"/>
            </g>
            <g transform="matrix(96.7349,0,0,96.7349,268.008,1486.61)">
                <path d="M0.236,0.004L0.278,0.004L0.431,-0.433L0.583,0.004L0.625,0.004L0.812,-0.51L0.759,-0.51L0.605,-0.062L0.451,-0.512L0.412,-0.512L0.258,-0.062L0.104,-0.51L0.049,-0.51L0.236,0.004Z" style="fill-rule:nonzero;"/>
            </g>
            <g transform="matrix(96.7349,0,0,96.7349,380.317,1486.61)">
                <path d="M0.236,0.004L0.278,0.004L0.431,-0.433L0.583,0.004L0.625,0.004L0.812,-0.51L0.759,-0.51L0.605,-0.062L0.451,-0.512L0.412,-0.512L0.258,-0.062L0.104,-0.51L0.049,-0.51L0.236,0.004Z" style="fill-rule:nonzero;"/>
            </g>
            <g transform="matrix(96.7349,0,0,96.7349,461.671,1486.61)">
                <path d="M0.248,0.012C0.345,0.012 0.408,-0.036 0.443,-0.085L0.443,-0L0.491,-0L0.491,-0.318C0.491,-0.381 0.473,-0.428 0.439,-0.462C0.402,-0.499 0.347,-0.518 0.278,-0.518C0.208,-0.518 0.153,-0.5 0.097,-0.474L0.115,-0.431C0.162,-0.455 0.213,-0.472 0.275,-0.472C0.38,-0.472 0.443,-0.419 0.443,-0.316L0.443,-0.294C0.394,-0.307 0.345,-0.316 0.274,-0.316C0.142,-0.316 0.051,-0.256 0.051,-0.15L0.051,-0.148C0.051,-0.042 0.153,0.012 0.248,0.012ZM0.251,-0.034C0.173,-0.034 0.103,-0.077 0.103,-0.151L0.103,-0.153C0.103,-0.224 0.163,-0.272 0.271,-0.272C0.344,-0.272 0.401,-0.26 0.444,-0.249L0.444,-0.191C0.444,-0.098 0.355,-0.034 0.251,-0.034Z" style="fill-rule:nonzero;"/>
            </g>
            <g transform="matrix(96.7349,0,0,96.7349,515.262,1486.61)">
                <path d="M0.155,0.163C0.228,0.163 0.28,0.125 0.325,0.018L0.546,-0.51L0.492,-0.51L0.308,-0.054L0.096,-0.51L0.039,-0.51L0.284,-0.003C0.246,0.086 0.211,0.117 0.158,0.117C0.12,0.117 0.098,0.111 0.071,0.098L0.054,0.141C0.088,0.156 0.116,0.163 0.155,0.163Z" style="fill-rule:nonzero;"/>
            </g>
        </g>
        <g transform="matrix(1.03158,0,0,1.1375,0,0)">
            <path d="M2738.6,2312.01L2860.19,2055.09L2454.82,2055.09L2679.53,2312.54L2738.6,2312.01Z" style="fill:rgb(195,194,255);stroke:black;stroke-width:4.17px;"/>
        </g>
        <g transform="matrix(1.03158,0,0,1.1375,0,0)">
            <path d="M2832.6,2113.39L2810.9,2159.24L2454.82,2159.24L2454.82,2113.39L2832.6,2113.39Z" style="fill:rgb(195,194,255);stroke:black;stroke-width:4.17px;"/>
        </g>
    </g>
</svg>
