<?xml version="1.0" encoding="UTF-8" standalone="no"?>
<!DOCTYPE svg PUBLIC "-//W3C//DTD SVG 1.1//EN" "http://www.w3.org/Graphics/SVG/1.1/DTD/svg11.dtd">
<svg width="100%" height="100%" viewBox="0 0 296 187" version="1.1" xmlns="http://www.w3.org/2000/svg" xmlns:xlink="http://www.w3.org/1999/xlink" xml:space="preserve" xmlns:serif="http://www.serif.com/" style="fill-rule:evenodd;clip-rule:evenodd;stroke-linejoin:round;stroke-miterlimit:2;">
    <path d="M81.07,45.7L81.07,28.94C94.68,24.36 103.57,13.47 103.85,0.17L83.59,0.17C83.26,6.89 77.68,12.13 70.87,12.13C64.06,12.13 58.48,6.89 58.15,0.17L37.89,0.17C38.17,13.47 47.06,24.36 60.66,28.94L60.66,45.7C26.09,50.56 0,80.17 0,115.82C0,154.96 31.73,186.69 70.87,186.69C110.01,186.69 141.74,154.96 141.74,115.82C141.74,80.16 115.74,50.55 81.08,45.7L81.07,45.7ZM70.87,167.84C45.6,167.84 24.54,149.76 19.84,125.87L40.79,125.87C45.34,139.46 57.09,148.43 70.59,148.56L70.59,128.29C63.7,128.14 58,122.63 58,115.7C58,108.77 63.7,103.26 70.59,103.1L70.59,82.83C57.09,82.96 45.34,91.93 40.79,105.52L19.89,105.52C24.69,81.75 45.69,63.81 70.87,63.81C99.6,63.81 122.89,87.1 122.89,115.83C122.89,144.56 99.6,167.85 70.87,167.85L70.87,167.84Z" style="fill:rgb(175,175,175);fill-rule:nonzero;"/>
    <g>
        <g>
            <path d="M171.26,13.49L167.15,13.49L167.15,9.38L176.41,9.38L176.41,21.1C173.53,22.49 170.31,23.18 166.05,23.18C162.35,23.18 158.82,21.95 158.82,16.58L158.82,7.77C158.82,2.43 160.94,0 166.84,0C169.37,0 172.56,0.32 175.81,0.89L174.89,4.87C171.38,4.33 169.2,4.14 167.4,4.14C164.31,4.14 163.96,5.34 163.96,8.03L163.96,16.53C163.96,18.74 164.81,19.12 167.12,19.12C168.23,19.12 170.06,18.84 171.26,18.49L171.26,13.49Z" style="fill:rgb(175,175,175);fill-rule:nonzero;"/>
            <path d="M181.4,22.9L181.4,0.29L197,0.29L196.34,4.52L186.55,4.52L186.55,9.04L196.21,9.04L195.55,13.27L186.55,13.27L186.55,18.67L196.88,18.67L196.88,22.9L181.4,22.9Z" style="fill:rgb(175,175,175);fill-rule:nonzero;"/>
            <path d="M213.93,22.9L209.76,13.83L206.76,13.83L206.76,22.9L201.61,22.9L201.61,0.29L210.33,0.29C214.97,0.29 218.54,1.02 218.54,6.89L218.54,7.84C218.54,10.68 217.34,12.45 214.81,13.37L219.74,22.91L213.93,22.91L213.93,22.9ZM213.4,6.44C213.4,5.05 212.74,4.42 210.65,4.42L206.77,4.42L206.77,9.95L211.13,9.95C212.74,9.95 213.4,9.29 213.4,7.9L213.4,6.44Z" style="fill:rgb(175,175,175);fill-rule:nonzero;"/>
            <path d="M242.65,22.9L242.65,7.99L237.19,19.42L233.87,19.42L228.4,7.99L228.4,22.9L223.41,22.9L223.41,0.29L229.67,0.29L235.51,12.89L241.38,0.29L247.63,0.29L247.63,22.9L242.64,22.9L242.65,22.9Z" style="fill:rgb(175,175,175);fill-rule:nonzero;"/>
            <path d="M267,22.9L265.67,18.79L258.06,18.79L256.73,22.9L251.01,22.9L258.97,0.29L264.75,0.29L272.68,22.9L267,22.9ZM261.85,5.27L259.01,14.68L264.73,14.68L261.86,5.27L261.85,5.27Z" style="fill:rgb(175,175,175);fill-rule:nonzero;"/>
            <path d="M289.3,22.9L281.06,8.69L281.06,22.9L276.07,22.9L276.07,0.29L281.03,0.29L289.46,14.31L289.46,0.29L294.48,0.29L294.48,22.9L289.3,22.9Z" style="fill:rgb(175,175,175);fill-rule:nonzero;"/>
        </g>
        <g>
            <path d="M159.37,55.25L159.37,28.28L169.43,28.28C176.77,28.28 180.2,30.28 180.2,37.51L180.2,46.02C180.2,52.05 178.32,55.25 170.14,55.25L159.37,55.25ZM174.06,37.81C174.06,34.84 173.91,33.22 170.07,33.22L165.51,33.22L165.51,50.36L169.77,50.36C173.39,50.36 174.06,49.34 174.06,46.78L174.06,37.81Z" style="fill:rgb(175,175,175);fill-rule:nonzero;"/>
            <path d="M185.47,55.25L185.47,28.28L204.08,28.28L203.29,33.33L191.62,33.33L191.62,38.72L203.14,38.72L202.35,43.76L191.62,43.76L191.62,50.2L203.94,50.2L203.94,55.25L185.47,55.25Z" style="fill:rgb(175,175,175);fill-rule:nonzero;"/>
            <path d="M229.16,47.68C229.16,52.54 225.77,55.59 218.73,55.59C214.7,55.59 210.82,54.88 208.48,54.23L210.14,49.33C211.83,49.78 215.26,50.53 218.69,50.53C221.74,50.53 222.91,49.33 222.91,47.37L222.91,46.73C222.91,44.55 221.9,43.91 219.33,43.91L216.02,43.91C210.97,43.91 208.52,41.05 208.52,36.53L208.52,35.81C208.63,30.65 211.69,27.94 216.96,27.94L217.87,27.94C221.3,27.94 226.65,28.54 229.09,28.92L227.28,33.7C224.49,33.36 220.5,33.02 218.43,32.98L217.42,32.98C215.42,32.98 214.74,34.07 214.74,35.65L214.74,36.4C214.74,37.76 215.31,38.7 217.19,38.7L221.07,38.7C226.04,38.7 229.17,40.73 229.17,46.31L229.17,47.67L229.16,47.68Z" style="fill:rgb(175,175,175);fill-rule:nonzero;"/>
            <rect x="234.4" y="28.28" width="6.14" height="26.97" style="fill:rgb(175,175,175);fill-rule:nonzero;"/>
            <path d="M260.92,44.02L256.01,44.02L256.01,39.12L267.05,39.12L267.05,53.09C263.62,54.75 259.78,55.58 254.7,55.58C250.29,55.58 246.07,54.11 246.07,47.71L246.07,37.2C246.07,30.83 248.6,27.93 255.64,27.93C258.65,27.93 262.45,28.31 266.34,28.99L265.25,33.74C261.07,33.1 258.47,32.87 256.32,32.87C252.63,32.87 252.21,34.3 252.21,37.5L252.21,47.63C252.21,50.27 253.23,50.72 255.98,50.72C257.3,50.72 259.48,50.38 260.92,49.97L260.92,44.02Z" style="fill:rgb(175,175,175);fill-rule:nonzero;"/>
            <path d="M288.3,55.25L278.47,38.3L278.47,55.25L272.52,55.25L272.52,28.28L278.43,28.28L288.49,45L288.49,28.28L294.48,28.28L294.48,55.25L288.3,55.25Z" style="fill:rgb(175,175,175);fill-rule:nonzero;"/>
        </g>
        <g>
            <path d="M175.53,87.48L173.97,82.65L165.03,82.65L163.47,87.48L156.75,87.48L166.1,60.9L172.89,60.9L182.21,87.48L175.53,87.48ZM169.48,66.77L166.14,77.83L172.86,77.83L169.48,66.77Z" style="fill:rgb(175,175,175);fill-rule:nonzero;"/>
            <path d="M205.67,87.48L200.84,69.14L196.05,87.48L188.03,87.48L182.17,60.9L188.78,60.9L192.27,81.02L197.43,61.72L204.3,61.72L209.46,81.02L212.95,60.9L219.52,60.9L213.65,87.48L205.67,87.48Z" style="fill:rgb(175,175,175);fill-rule:nonzero;"/>
            <path d="M238.26,87.48L236.7,82.65L227.75,82.65L226.19,87.48L219.47,87.48L228.82,60.9L235.61,60.9L244.93,87.48L238.25,87.48L238.26,87.48ZM232.21,66.77L228.87,77.83L235.59,77.83L232.22,66.77L232.21,66.77Z" style="fill:rgb(175,175,175);fill-rule:nonzero;"/>
            <path d="M263.2,87.48L258.3,76.83L254.77,76.83L254.77,87.48L248.72,87.48L248.72,60.9L258.96,60.9C264.42,60.9 268.61,61.76 268.61,68.66L268.61,69.77C268.61,73.11 267.2,75.19 264.23,76.26L270.02,87.47L263.19,87.47L263.2,87.48ZM262.57,68.14C262.57,66.51 261.79,65.77 259.34,65.77L254.78,65.77L254.78,72.26L259.9,72.26C261.79,72.26 262.57,71.48 262.57,69.85L262.57,68.14Z" style="fill:rgb(175,175,175);fill-rule:nonzero;"/>
            <path d="M274.51,87.48L274.51,60.9L284.42,60.9C291.66,60.9 295.04,62.87 295.04,69.99L295.04,78.38C295.04,84.32 293.18,87.47 285.13,87.47L274.52,87.47L274.51,87.48ZM288.99,70.29C288.99,67.36 288.84,65.76 285.05,65.76L280.56,65.76L280.56,82.65L284.75,82.65C288.31,82.65 288.98,81.65 288.98,79.12L288.98,70.29L288.99,70.29Z" style="fill:rgb(175,175,175);fill-rule:nonzero;"/>
        </g>
    </g>
    <g>
        <path d="M168.99,110.12L162.89,99.59L162.89,110.12L159.19,110.12L159.19,93.37L162.86,93.37L169.11,103.76L169.11,93.37L172.83,93.37L172.83,110.12L168.99,110.12Z" style="fill:rgb(175,175,175);fill-rule:nonzero;"/>
        <path d="M176.5,110.12L176.5,93.37L188.06,93.37L187.57,96.51L180.32,96.51L180.32,99.85L187.48,99.85L186.99,102.98L180.32,102.98L180.32,106.98L187.97,106.98L187.97,110.12L176.5,110.12Z" style="fill:rgb(175,175,175);fill-rule:nonzero;"/>
        <path d="M204.91,110.12L201.87,98.56L198.85,110.12L193.8,110.12L190.1,93.37L194.26,93.37L196.46,106.05L199.71,93.89L204.04,93.89L207.29,106.05L209.49,93.37L213.63,93.37L209.93,110.12L204.9,110.12L204.91,110.12Z" style="fill:rgb(175,175,175);fill-rule:nonzero;"/>
        <path d="M227.68,109.34C226.65,109.67 223.89,110.32 221.39,110.32C217.25,110.32 215.63,109.03 215.63,105.06L215.63,98.86C215.63,94.91 216.96,93.15 221.39,93.15C223.24,93.15 225.46,93.36 227.49,93.76L226.81,96.73C224.33,96.33 223.19,96.21 221.9,96.21C219.66,96.21 219.44,97.15 219.44,99.14L219.44,104.99C219.44,106.72 219.81,107.26 221.78,107.26C223.32,107.26 224.92,107.02 226.72,106.46L227.68,109.34Z" style="fill:rgb(175,175,175);fill-rule:nonzero;"/>
        <path d="M236.11,110.33C231.76,110.33 229.65,108.43 229.65,104.53L229.65,98.96C229.65,95.05 231.76,93.16 236.11,93.16L236.67,93.16C241.02,93.16 243.12,95.05 243.12,98.96L243.12,104.53C243.12,108.44 241.02,110.33 236.67,110.33L236.11,110.33ZM239.31,98.73C239.31,96.79 238.54,96.11 236.55,96.11L236.22,96.11C234.23,96.11 233.46,96.79 233.46,98.73L233.46,104.77C233.46,106.73 234.21,107.39 236.22,107.39L236.55,107.39C238.56,107.39 239.31,106.73 239.31,104.77L239.31,98.73Z" style="fill:rgb(175,175,175);fill-rule:nonzero;"/>
        <path d="M260.47,110.12L260.47,99.07L256.42,107.54L253.96,107.54L249.91,99.07L249.91,110.12L246.21,110.12L246.21,93.37L250.84,93.37L255.17,102.71L259.52,93.37L264.15,93.37L264.15,110.12L260.46,110.12L260.47,110.12Z" style="fill:rgb(175,175,175);fill-rule:nonzero;"/>
        <path d="M267.59,110.12L267.59,93.37L279.14,93.37L278.65,96.51L271.4,96.51L271.4,99.85L278.56,99.85L278.07,102.98L271.4,102.98L271.4,106.98L279.05,106.98L279.05,110.12L267.59,110.12Z" style="fill:rgb(175,175,175);fill-rule:nonzero;"/>
        <path d="M291.2,110.12L288.11,103.4L285.89,103.4L285.89,110.12L282.08,110.12L282.08,93.37L288.53,93.37C291.97,93.37 294.61,93.91 294.61,98.26L294.61,98.96C294.61,101.07 293.72,102.37 291.85,103.05L295.5,110.12L291.2,110.12ZM290.8,97.93C290.8,96.9 290.31,96.43 288.77,96.43L285.89,96.43L285.89,100.53L289.12,100.53C290.32,100.53 290.8,100.04 290.8,99.01L290.8,97.93Z" style="fill:rgb(175,175,175);fill-rule:nonzero;"/>
    </g>
    <g>
        <path d="M158.44,184.02L158.44,175.71C158.44,167.4 159.84,165.06 166.92,161.32C168.73,160.33 173.47,157.93 175.11,156.99C176.28,156.35 177.45,155.53 177.45,153.66L177.45,152.43C177.45,150.03 175.58,149.39 172.95,149.39C169.44,149.39 163.88,150.33 160.61,150.97L158.04,143.66C162.95,142.55 168.75,141.61 173.89,141.61C182.26,141.61 186.99,144.24 186.99,151.91L186.99,153.96C186.99,158.82 184.36,161.33 180.32,163.55C178.39,164.6 172.95,167.41 171.02,168.58C168.62,169.98 167.98,171.97 167.98,174.49L167.98,176.24L187.29,176.24L187.29,184.02L158.44,184.02Z" style="fill:rgb(175,175,175);fill-rule:nonzero;"/>
        <path d="M208.34,184.54C196.82,184.54 192.78,179.92 192.78,170.09L192.78,156.05C192.78,146.22 196.82,141.6 208.34,141.6L209.28,141.6C220.8,141.6 224.84,146.22 224.84,156.05L224.84,170.09C224.84,179.92 220.8,184.54 209.28,184.54L208.34,184.54ZM215.3,156.11C215.3,150.9 214.42,149.21 209.57,149.21L208.05,149.21C203.19,149.21 202.32,150.91 202.32,156.11L202.32,170.03C202.32,175.24 203.2,176.93 208.05,176.93L209.57,176.93C214.43,176.93 215.3,175.23 215.3,170.03L215.3,156.11Z" style="fill:rgb(175,175,175);fill-rule:nonzero;"/>
        <path d="M230.75,184.02L230.75,175.71C230.75,167.4 232.15,165.06 239.23,161.32C241.04,160.33 245.78,157.93 247.42,156.99C248.59,156.35 249.76,155.53 249.76,153.66L249.76,152.43C249.76,150.03 247.89,149.39 245.26,149.39C241.75,149.39 236.19,150.33 232.92,150.97L230.35,143.66C235.26,142.55 241.06,141.61 246.2,141.61C254.57,141.61 259.3,144.24 259.3,151.91L259.3,153.96C259.3,158.82 256.67,161.33 252.63,163.55C250.7,164.6 245.26,167.41 243.33,168.58C240.93,169.98 240.29,171.97 240.29,174.49L240.29,176.24L259.6,176.24L259.6,184.02L230.75,184.02Z" style="fill:rgb(175,175,175);fill-rule:nonzero;"/>
        <path d="M295.86,172.49C295.86,181.68 289.43,184.54 280.24,184.54C273.98,184.54 269.24,183.43 266.08,182.61L268.13,175.3C271.35,176.12 276.5,176.94 279.3,176.94C284.21,176.94 286.38,175.77 286.38,172.61L286.38,169.28C286.38,166.88 285.68,164.78 281.7,164.78C278.66,164.78 274.74,165.42 271.05,166.3L267.42,161.44L267.42,142.13L294.45,142.13L294.45,149.79L276.78,149.79L276.78,157.8C278.83,157.33 280.93,157.04 283.21,157.04C292.28,157.04 295.85,160.84 295.85,168.86L295.85,172.49L295.86,172.49Z" style="fill:rgb(175,175,175);fill-rule:nonzero;"/>
    </g>
    <g>
        <path d="M171.7,137.17L163.9,123.73L163.9,137.17L159.18,137.17L159.18,115.78L163.87,115.78L171.85,129.04L171.85,115.78L176.6,115.78L176.6,137.17L171.7,137.17Z" style="fill:rgb(175,175,175);fill-rule:nonzero;"/>
        <path d="M189.03,137.44C183.47,137.44 180.78,135.02 180.78,130.03L180.78,122.92C180.78,117.93 183.47,115.51 189.03,115.51L189.75,115.51C195.31,115.51 197.99,117.93 197.99,122.92L197.99,130.03C197.99,135.02 195.3,137.44 189.75,137.44L189.03,137.44ZM193.12,122.62C193.12,120.14 192.13,119.27 189.59,119.27L189.17,119.27C186.63,119.27 185.64,120.14 185.64,122.62L185.64,130.33C185.64,132.84 186.6,133.68 189.17,133.68L189.59,133.68C192.16,133.68 193.12,132.84 193.12,130.33L193.12,122.62Z" style="fill:rgb(175,175,175);fill-rule:nonzero;"/>
        <path d="M220.36,137.17L220.36,123.07L215.19,133.88L212.05,133.88L206.88,123.07L206.88,137.17L202.16,137.17L202.16,115.78L208.08,115.78L213.61,127.7L219.17,115.78L225.09,115.78L225.09,137.17L220.36,137.17Z" style="fill:rgb(175,175,175);fill-rule:nonzero;"/>
        <rect x="229.8" y="115.78" width="4.87" height="21.39" style="fill:rgb(175,175,175);fill-rule:nonzero;"/>
        <path d="M251.91,137.17L244.11,123.73L244.11,137.17L239.39,137.17L239.39,115.78L244.08,115.78L252.06,129.04L252.06,115.78L256.81,115.78L256.81,137.17L251.91,137.17Z" style="fill:rgb(175,175,175);fill-rule:nonzero;"/>
        <path d="M261.52,137.17L261.52,115.78L276.28,115.78L275.65,119.78L266.39,119.78L266.39,124.05L275.53,124.05L274.9,128.05L266.39,128.05L266.39,133.16L276.16,133.16L276.16,137.16L261.52,137.16L261.52,137.17Z" style="fill:rgb(175,175,175);fill-rule:nonzero;"/>
        <path d="M280.28,137.17L280.28,115.78L295.04,115.78L294.41,119.78L285.15,119.78L285.15,124.05L294.29,124.05L293.66,128.05L285.15,128.05L285.15,133.16L294.92,133.16L294.92,137.16L280.28,137.16L280.28,137.17Z" style="fill:rgb(175,175,175);fill-rule:nonzero;"/>
    </g>
</svg>
