<?xml version="1.0" encoding="UTF-8" standalone="no"?>
<!DOCTYPE svg PUBLIC "-//W3C//DTD SVG 1.1//EN" "http://www.w3.org/Graphics/SVG/1.1/DTD/svg11.dtd">
<svg width="100%" height="100%" viewBox="0 0 9000 4000" version="1.1" xmlns="http://www.w3.org/2000/svg" xmlns:xlink="http://www.w3.org/1999/xlink" xml:space="preserve" xmlns:serif="http://www.serif.com/" style="fill-rule:evenodd;clip-rule:evenodd;stroke-linecap:round;stroke-linejoin:round;stroke-miterlimit:1.5;">
    <g>
        <clipPath id="_clip1">
            <rect x="0" y="-0" width="4000" height="4000"/>
        </clipPath>
        <g clip-path="url(#_clip1)">
            <g id="Boden" transform="matrix(3.99998,0,0,3.99998,-6408.65,-7099.96)">
                <g transform="matrix(0.810432,-0.467903,0.305266,0.176246,2137.18,1362.29)">
                    <rect x="-2000" y="2165.06" width="3100" height="2526.71" style="fill:rgb(121,208,87);"/>
                </g>
                <g transform="matrix(0.805133,-0.464844,0.242525,0.140022,1857.17,924.5)">
                    <rect x="-2000" y="2165.06" width="3100" height="2526.71" style="fill:rgb(79,185,84);"/>
                </g>
                <g transform="matrix(0.805133,-0.464844,0.242525,0.140022,3206.95,1806.32)">
                    <rect x="-2000" y="2165.06" width="3100" height="2526.71" style="fill:rgb(79,185,84);"/>
                </g>
                <g transform="matrix(0.866025,-0.5,1.14506,0.661103,-527.654,-304.641)">
                    <rect x="-201.524" y="3032.41" width="501.524" height="604.979" style="fill:rgb(221,204,153);"/>
                </g>
                <g id="Straßen">
                    <g transform="matrix(3.64969,-2.10715,2,1.1547,-2760.43,-7306.26)">
                        <rect x="-2000" y="4763.14" width="1322.26" height="173.205" style="fill:rgb(205,205,205);"/>
                    </g>
                    <g transform="matrix(1.73205,-1,1.05205,0.607401,1817.02,-1150.94)">
                        <rect x="-2300" y="1695.2" width="200" height="3327.74" style="fill:rgb(205,205,205);"/>
                    </g>
                </g>
                <g transform="matrix(0.172679,-0.0996961,3.87031,2.23452,-9799.48,-5397.91)">
                    <rect x="-201.524" y="3032.41" width="501.524" height="604.979" style="fill:rgb(182,178,166);"/>
                </g>
                <g transform="matrix(0.172679,-0.0996961,3.87031,2.23452,-9234.93,-5672.11)">
                    <rect x="-201.524" y="3032.41" width="501.524" height="604.979" style="fill:rgb(182,178,166);"/>
                </g>
                <g transform="matrix(-0.172679,-0.0996961,3.87031,-2.23452,-9624.1,9816.29)">
                    <rect x="-201.524" y="3032.41" width="501.524" height="604.979" style="fill:rgb(182,178,166);"/>
                </g>
                <g transform="matrix(-0.172679,-0.0996961,3.26983,-1.88784,-8244.65,8119.87)">
                    <rect x="-201.524" y="3032.41" width="501.524" height="604.979" style="fill:rgb(182,178,166);"/>
                </g>
                <g transform="matrix(-0.170374,-0.0983653,1.50307,-0.867799,-3468.02,5260.78)">
                    <rect x="-201.524" y="3032.41" width="501.524" height="604.979" style="fill:rgb(182,178,166);"/>
                </g>
            </g>
            <g id="Unicampus" transform="matrix(3.99998,0,0,3.99998,-6408.65,-7099.96)">
                <g>
                    <g>
                        <g transform="matrix(0.433114,0.250058,-8.80063e-18,0.781534,1818.19,920.556)">
                            <rect x="3800" y="-606.218" width="800" height="259.808" style="fill:rgb(186,197,237);stroke:black;stroke-width:5.69px;"/>
                        </g>
                        <g transform="matrix(0.108253,-0.0625,1.11022e-16,0.7698,3399.23,2304.21)">
                            <rect x="3800" y="-606.218" width="800" height="259.808" style="fill:rgb(186,197,237);stroke:black;stroke-width:8.89px;"/>
                        </g>
                    </g>
                    <g transform="matrix(0.108253,-0.0625,1.11022e-16,0.7698,3399.23,2304.21)">
                        <rect x="3800" y="-606.218" width="800" height="259.808" style="fill-opacity:0.15;stroke:black;stroke-width:8.89px;"/>
                    </g>
                </g>
                <g transform="matrix(1,-5.55112e-17,-1.11022e-16,1,1645.45,950)">
                    <g transform="matrix(0.0838089,-0.0483871,0.271015,0.156471,1572.71,415.888)">
                        <rect x="-2000" y="2165.06" width="3100" height="2556.39" style="fill:rgb(120,190,227);stroke:black;stroke-width:17.16px;"/>
                    </g>
                    <g transform="matrix(0.866025,0.5,-5.12788e-17,1.43925,-2.27374e-13,-49.2846)">
                        <rect x="2300" y="-173.205" width="800" height="346.41" style="fill:rgb(120,190,227);stroke:black;stroke-width:3px;"/>
                    </g>
                </g>
                <g>
                    <g>
                        <g transform="matrix(0.866025,0.5,-5.55112e-17,1.1547,0,0)">
                            <rect x="1600" y="346.41" width="300" height="433.013" style="fill:rgb(186,197,237);stroke:black;stroke-width:3.41px;"/>
                        </g>
                        <g transform="matrix(0.742307,-0.428571,5.55112e-17,1.1547,309.295,-178.571)">
                            <rect x="1800" y="1991.86" width="700" height="433.013" style="fill:rgb(186,197,237);stroke:black;stroke-width:6.13px;"/>
                        </g>
                    </g>
                    <g transform="matrix(0.742307,-0.428571,5.55112e-17,1.1547,309.295,-178.571)">
                        <rect x="1800" y="1991.86" width="700" height="433.013" style="fill-opacity:0.15;stroke:black;stroke-width:6.13px;"/>
                    </g>
                </g>
                <g>
                    <g transform="matrix(-0.791799,-0.435665,0.698609,-0.878557,5386.9,3751.59)">
                        <path d="M4026.5,273.587C4006,271.412 3956.4,261.708 3941.12,283.556C3931.59,297.194 3963.09,304.899 3958.51,318.696C3946.73,354.214 3950.97,364.902 3979.95,364.902C3981.86,364.902 3998.72,360.071 3999.78,361.238C4009.32,371.701 4003.77,390.863 4023.68,388.015C4039.47,385.756 4048.93,361.199 4052.52,348.582C4057.34,331.644 4067.32,315.621 4064.14,296.61C4062.07,284.224 4041.13,275.139 4026.5,273.587Z" style="fill:rgb(56,166,142);stroke:black;stroke-width:4.83px;"/>
                    </g>
                    <g transform="matrix(-0.846761,0.531973,-0.531973,-0.846761,5421.26,-159.369)">
                        <path d="M4026.5,273.587C4006,271.412 3956.4,261.708 3941.12,283.556C3931.59,297.194 3963.09,304.899 3958.51,318.696C3946.73,354.214 3950.97,364.902 3979.95,364.902C3981.86,364.902 3998.72,360.071 3999.78,361.238C4009.32,371.701 4003.77,390.863 4023.68,388.015C4039.47,385.756 4048.93,361.199 4052.52,348.582C4057.34,331.644 4067.32,315.621 4064.14,296.61C4062.07,284.224 4041.13,275.139 4026.5,273.587Z" style="fill:rgb(50,188,117);stroke:black;stroke-width:4.5px;"/>
                    </g>
                    <g transform="matrix(-0.616337,-0.787482,0.787482,-0.616337,4465.05,5249.51)">
                        <path d="M4026.5,273.587C4006,271.412 3956.4,261.708 3941.12,283.556C3931.59,297.194 3963.09,304.899 3958.51,318.696C3946.73,354.214 3950.97,364.902 3979.95,364.902C3981.86,364.902 3998.72,360.071 3999.78,361.238C4009.32,371.701 4003.77,390.863 4023.68,388.015C4039.47,385.756 4048.93,361.199 4052.52,348.582C4057.34,331.644 4067.32,315.621 4064.14,296.61C4062.07,284.224 4041.13,275.139 4026.5,273.587Z" style="fill:rgb(30,130,111);stroke:black;stroke-width:4.5px;"/>
                    </g>
                    <g transform="matrix(0.283104,-0.959089,0.959089,0.283104,512.252,5628.23)">
                        <path d="M4026.5,273.587C4006,271.412 3956.4,261.708 3941.12,283.556C3931.59,297.194 3963.09,304.899 3958.51,318.696C3946.73,354.214 3950.97,364.902 3979.95,364.902C3981.86,364.902 3998.72,360.071 3999.78,361.238C4009.32,371.701 4003.77,390.863 4023.68,388.015C4039.47,385.756 4048.93,361.199 4052.52,348.582C4057.34,331.644 4067.32,315.621 4064.14,296.61C4062.07,284.224 4041.13,275.139 4026.5,273.587Z" style="fill:rgb(68,224,143);stroke:black;stroke-width:4.5px;"/>
                    </g>
                    <g transform="matrix(0.992479,-0.122418,0.122418,0.992479,-1824.81,2001.32)">
                        <path d="M4026.5,273.587C4006,271.412 3956.4,261.708 3941.12,283.556C3931.59,297.194 3963.09,304.899 3958.51,318.696C3946.73,354.214 3950.97,364.902 3979.95,364.902C3981.86,364.902 3998.72,360.071 3999.78,361.238C4009.32,371.701 4003.77,390.863 4023.68,388.015C4039.47,385.756 4048.93,361.199 4052.52,348.582C4057.34,331.644 4067.32,315.621 4064.14,296.61C4062.07,284.224 4041.13,275.139 4026.5,273.587Z" style="fill:rgb(50,188,117);stroke:black;stroke-width:4.5px;"/>
                    </g>
                    <g transform="matrix(-0.778861,-0.627197,0.627197,-0.778861,5009.67,4559.86)">
                        <path d="M4026.5,273.587C4006,271.412 3956.4,261.708 3941.12,283.556C3931.59,297.194 3963.09,304.899 3958.51,318.696C3946.73,354.214 3950.97,364.902 3979.95,364.902C3981.86,364.902 3998.72,360.071 3999.78,361.238C4009.32,371.701 4003.77,390.863 4023.68,388.015C4039.47,385.756 4048.93,361.199 4052.52,348.582C4057.34,331.644 4067.32,315.621 4064.14,296.61C4062.07,284.224 4041.13,275.139 4026.5,273.587Z" style="fill:rgb(60,204,130);stroke:black;stroke-width:4.5px;"/>
                    </g>
                    <g transform="matrix(0.984161,0.177277,-0.177277,0.984161,-1961.91,732.625)">
                        <path d="M4026.5,273.587C4006,271.412 3956.4,261.708 3941.12,283.556C3931.59,297.194 3963.09,304.899 3958.51,318.696C3946.73,354.214 3950.97,364.902 3979.95,364.902C3981.86,364.902 3998.72,360.071 3999.78,361.238C4009.32,371.701 4003.77,390.863 4023.68,388.015C4039.47,385.756 4048.93,361.199 4052.52,348.582C4057.34,331.644 4067.32,315.621 4064.14,296.61C4062.07,284.224 4041.13,275.139 4026.5,273.587Z" style="fill:rgb(56,166,142);stroke:black;stroke-width:4.5px;"/>
                    </g>
                    <g transform="matrix(-0.357938,0.933746,-0.933746,-0.357938,3739.52,-1832.26)">
                        <path d="M4026.5,273.587C4006,271.412 3956.4,261.708 3941.12,283.556C3931.59,297.194 3963.09,304.899 3958.51,318.696C3946.73,354.214 3950.97,364.902 3979.95,364.902C3981.86,364.902 3998.72,360.071 3999.78,361.238C4009.32,371.701 4003.77,390.863 4023.68,388.015C4039.47,385.756 4048.93,361.199 4052.52,348.582C4057.34,331.644 4067.32,315.621 4064.14,296.61C4062.07,284.224 4041.13,275.139 4026.5,273.587Z" style="fill:rgb(68,224,96);stroke:black;stroke-width:4.5px;"/>
                    </g>
                    <g transform="matrix(0.984161,0.177277,-0.177277,0.984161,-2023.42,801.414)">
                        <path d="M4026.5,273.587C4006,271.412 3956.4,261.708 3941.12,283.556C3931.59,297.194 3963.09,304.899 3958.51,318.696C3946.73,354.214 3950.97,364.902 3979.95,364.902C3981.86,364.902 3998.72,360.071 3999.78,361.238C4009.32,371.701 4003.77,390.863 4023.68,388.015C4039.47,385.756 4048.93,361.199 4052.52,348.582C4057.34,331.644 4067.32,315.621 4064.14,296.61C4062.07,284.224 4041.13,275.139 4026.5,273.587Z" style="fill:rgb(145,224,68);stroke:black;stroke-width:4.5px;"/>
                    </g>
                    <g transform="matrix(0.914782,0.403949,-0.403949,0.914782,-1588.73,-83.5153)">
                        <path d="M4026.5,273.587C4006,271.412 3956.4,261.708 3941.12,283.556C3931.59,297.194 3963.09,304.899 3958.51,318.696C3946.73,354.214 3950.97,364.902 3979.95,364.902C3981.86,364.902 3998.72,360.071 3999.78,361.238C4009.32,371.701 4003.77,390.863 4023.68,388.015C4039.47,385.756 4048.93,361.199 4052.52,348.582C4057.34,331.644 4067.32,315.621 4064.14,296.61C4062.07,284.224 4041.13,275.139 4026.5,273.587Z" style="fill:rgb(30,130,111);stroke:black;stroke-width:4.5px;"/>
                    </g>
                    <g transform="matrix(0.202446,0.979293,-0.979293,0.202446,1718.77,-2280.89)">
                        <path d="M4026.5,273.587C4006,271.412 3956.4,261.708 3941.12,283.556C3931.59,297.194 3963.09,304.899 3958.51,318.696C3946.73,354.214 3950.97,364.902 3979.95,364.902C3981.86,364.902 3998.72,360.071 3999.78,361.238C4009.32,371.701 4003.77,390.863 4023.68,388.015C4039.47,385.756 4048.93,361.199 4052.52,348.582C4057.34,331.644 4067.32,315.621 4064.14,296.61C4062.07,284.224 4041.13,275.139 4026.5,273.587Z" style="fill:rgb(68,224,143);stroke:black;stroke-width:4.5px;"/>
                    </g>
                    <g transform="matrix(-0.817575,0.575822,-0.575822,-0.817575,5489.61,-183.963)">
                        <path d="M4026.5,273.587C4006,271.412 3956.4,261.708 3941.12,283.556C3931.59,297.194 3963.09,304.899 3958.51,318.696C3946.73,354.214 3950.97,364.902 3979.95,364.902C3981.86,364.902 3998.72,360.071 3999.78,361.238C4009.32,371.701 4003.77,390.863 4023.68,388.015C4039.47,385.756 4048.93,361.199 4052.52,348.582C4057.34,331.644 4067.32,315.621 4064.14,296.61C4062.07,284.224 4041.13,275.139 4026.5,273.587Z" style="fill:rgb(50,188,117);stroke:black;stroke-width:4.5px;"/>
                    </g>
                    <g transform="matrix(0.982554,0.185976,-0.185976,0.982554,-1743.93,781.434)">
                        <path d="M4026.5,273.587C4006,271.412 3956.4,261.708 3941.12,283.556C3931.59,297.194 3963.09,304.899 3958.51,318.696C3946.73,354.214 3950.97,364.902 3979.95,364.902C3981.86,364.902 3998.72,360.071 3999.78,361.238C4009.32,371.701 4003.77,390.863 4023.68,388.015C4039.47,385.756 4048.93,361.199 4052.52,348.582C4057.34,331.644 4067.32,315.621 4064.14,296.61C4062.07,284.224 4041.13,275.139 4026.5,273.587Z" style="fill:rgb(60,204,130);stroke:black;stroke-width:4.5px;"/>
                    </g>
                    <g transform="matrix(-0.951517,0.307596,-0.307596,-0.951517,6208.59,870.296)">
                        <path d="M4026.5,273.587C4006,271.412 3956.4,261.708 3941.12,283.556C3931.59,297.194 3963.09,304.899 3958.51,318.696C3946.73,354.214 3950.97,364.902 3979.95,364.902C3981.86,364.902 3998.72,360.071 3999.78,361.238C4009.32,371.701 4003.77,390.863 4023.68,388.015C4039.47,385.756 4048.93,361.199 4052.52,348.582C4057.34,331.644 4067.32,315.621 4064.14,296.61C4062.07,284.224 4041.13,275.139 4026.5,273.587Z" style="fill:rgb(56,166,142);stroke:black;stroke-width:4.5px;"/>
                    </g>
                    <g transform="matrix(-0.124502,-0.992219,0.992219,-0.124502,2389.51,5820)">
                        <path d="M4026.5,273.587C4006,271.412 3956.4,261.708 3941.12,283.556C3931.59,297.194 3963.09,304.899 3958.51,318.696C3946.73,354.214 3950.97,364.902 3979.95,364.902C3981.86,364.902 3998.72,360.071 3999.78,361.238C4009.32,371.701 4003.77,390.863 4023.68,388.015C4039.47,385.756 4048.93,361.199 4052.52,348.582C4057.34,331.644 4067.32,315.621 4064.14,296.61C4062.07,284.224 4041.13,275.139 4026.5,273.587Z" style="fill:rgb(68,224,96);stroke:black;stroke-width:4.5px;"/>
                    </g>
                    <g transform="matrix(-0.951517,0.307596,-0.307596,-0.951517,6230.42,780.63)">
                        <path d="M4026.5,273.587C4006,271.412 3956.4,261.708 3941.12,283.556C3931.59,297.194 3963.09,304.899 3958.51,318.696C3946.73,354.214 3950.97,364.902 3979.95,364.902C3981.86,364.902 3998.72,360.071 3999.78,361.238C4009.32,371.701 4003.77,390.863 4023.68,388.015C4039.47,385.756 4048.93,361.199 4052.52,348.582C4057.34,331.644 4067.32,315.621 4064.14,296.61C4062.07,284.224 4041.13,275.139 4026.5,273.587Z" style="fill:rgb(145,224,68);stroke:black;stroke-width:4.5px;"/>
                    </g>
                </g>
                <g transform="matrix(0.881524,-0.472139,0.472139,0.881524,479.841,2064.83)">
                    <g transform="matrix(0.125725,0.90998,-1.04842,0.365517,2054.22,-2257.42)">
                        <path d="M4026.5,273.587C4006,271.412 3956.4,261.708 3941.12,283.556C3931.59,297.194 3963.09,304.899 3958.51,318.696C3946.73,354.214 3950.97,364.902 3979.95,364.902C3981.86,364.902 3998.72,360.071 3999.78,361.238C4009.32,371.701 4003.77,390.863 4023.68,388.015C4039.47,385.756 4048.93,361.199 4052.52,348.582C4057.34,331.644 4067.32,315.621 4064.14,296.61C4062.07,284.224 4041.13,275.139 4026.5,273.587Z" style="fill:rgb(30,130,111);stroke:black;stroke-width:4.04px;"/>
                    </g>
                    <g transform="matrix(-0.780463,0.82605,-0.71125,-0.528496,5831.24,-1534.95)">
                        <path d="M4026.5,273.587C4006,271.412 3956.4,261.708 3941.12,283.556C3931.59,297.194 3963.09,304.899 3958.51,318.696C3946.73,354.214 3950.97,364.902 3979.95,364.902C3981.86,364.902 3998.72,360.071 3999.78,361.238C4009.32,371.701 4003.77,390.863 4023.68,388.015C4039.47,385.756 4048.93,361.199 4052.52,348.582C4057.34,331.644 4067.32,315.621 4064.14,296.61C4062.07,284.224 4041.13,275.139 4026.5,273.587Z" style="fill:rgb(68,224,143);stroke:black;stroke-width:4.18px;"/>
                    </g>
                    <g transform="matrix(-0.963296,-0.155662,0.432505,-0.968213,5957.29,2519.2)">
                        <path d="M4026.5,273.587C4006,271.412 3956.4,261.708 3941.12,283.556C3931.59,297.194 3963.09,304.899 3958.51,318.696C3946.73,354.214 3950.97,364.902 3979.95,364.902C3981.86,364.902 3998.72,360.071 3999.78,361.238C4009.32,371.701 4003.77,390.863 4023.68,388.015C4039.47,385.756 4048.93,361.199 4052.52,348.582C4057.34,331.644 4067.32,315.621 4064.14,296.61C4062.07,284.224 4041.13,275.139 4026.5,273.587Z" style="fill:rgb(50,188,117);stroke:black;stroke-width:5.12px;"/>
                    </g>
                    <g transform="matrix(0.360205,0.803383,-0.992598,0.562354,1185.01,-1756.55)">
                        <path d="M4026.5,273.587C4006,271.412 3956.4,261.708 3941.12,283.556C3931.59,297.194 3963.09,304.899 3958.51,318.696C3946.73,354.214 3950.97,364.902 3979.95,364.902C3981.86,364.902 3998.72,360.071 3999.78,361.238C4009.32,371.701 4003.77,390.863 4023.68,388.015C4039.47,385.756 4048.93,361.199 4052.52,348.582C4057.34,331.644 4067.32,315.621 4064.14,296.61C4062.07,284.224 4041.13,275.139 4026.5,273.587Z" style="fill:rgb(60,204,130);stroke:black;stroke-width:4.23px;"/>
                    </g>
                    <g transform="matrix(-0.791799,-0.435665,0.698609,-0.878557,5386.9,3751.59)">
                        <path d="M4026.5,273.587C4006,271.412 3956.4,261.708 3941.12,283.556C3931.59,297.194 3963.09,304.899 3958.51,318.696C3946.73,354.214 3950.97,364.902 3979.95,364.902C3981.86,364.902 3998.72,360.071 3999.78,361.238C4009.32,371.701 4003.77,390.863 4023.68,388.015C4039.47,385.756 4048.93,361.199 4052.52,348.582C4057.34,331.644 4067.32,315.621 4064.14,296.61C4062.07,284.224 4041.13,275.139 4026.5,273.587Z" style="fill:rgb(56,166,142);stroke:black;stroke-width:4.83px;"/>
                    </g>
                    <g transform="matrix(0.834179,-0.781748,0.647415,0.592061,-1165.53,4610.8)">
                        <path d="M4026.5,273.587C4006,271.412 3956.4,261.708 3941.12,283.556C3931.59,297.194 3963.09,304.899 3958.51,318.696C3946.73,354.214 3950.97,364.902 3979.95,364.902C3981.86,364.902 3998.72,360.071 3999.78,361.238C4009.32,371.701 4003.77,390.863 4023.68,388.015C4039.47,385.756 4048.93,361.199 4052.52,348.582C4057.34,331.644 4067.32,315.621 4064.14,296.61C4062.07,284.224 4041.13,275.139 4026.5,273.587Z" style="fill:rgb(68,224,96);stroke:black;stroke-width:4.26px;"/>
                    </g>
                    <g transform="matrix(-0.791799,-0.435665,0.698609,-0.878557,5480.1,3703.59)">
                        <path d="M4026.5,273.587C4006,271.412 3956.4,261.708 3941.12,283.556C3931.59,297.194 3963.09,304.899 3958.51,318.696C3946.73,354.214 3950.97,364.902 3979.95,364.902C3981.86,364.902 3998.72,360.071 3999.78,361.238C4009.32,371.701 4003.77,390.863 4023.68,388.015C4039.47,385.756 4048.93,361.199 4052.52,348.582C4057.34,331.644 4067.32,315.621 4064.14,296.61C4062.07,284.224 4041.13,275.139 4026.5,273.587Z" style="fill:rgb(145,224,68);stroke:black;stroke-width:4.83px;"/>
                    </g>
                    <g transform="matrix(0.892243,0.451556,-0.451556,0.892243,-1652.56,-431.773)">
                        <path d="M4026.5,273.587C4006,271.412 3956.4,261.708 3941.12,283.556C3931.59,297.194 3963.09,304.899 3958.51,318.696C3946.73,354.214 3950.97,364.902 3979.95,364.902C3981.86,364.902 3998.72,360.071 3999.78,361.238C4009.32,371.701 4003.77,390.863 4023.68,388.015C4039.47,385.756 4048.93,361.199 4052.52,348.582C4057.34,331.644 4067.32,315.621 4064.14,296.61C4062.07,284.224 4041.13,275.139 4026.5,273.587Z" style="fill:rgb(30,130,111);stroke:black;stroke-width:4.5px;"/>
                    </g>
                    <g transform="matrix(0.1506,0.988595,-0.988595,0.1506,1766.06,-2451.94)">
                        <path d="M4026.5,273.587C4006,271.412 3956.4,261.708 3941.12,283.556C3931.59,297.194 3963.09,304.899 3958.51,318.696C3946.73,354.214 3950.97,364.902 3979.95,364.902C3981.86,364.902 3998.72,360.071 3999.78,361.238C4009.32,371.701 4003.77,390.863 4023.68,388.015C4039.47,385.756 4048.93,361.199 4052.52,348.582C4057.34,331.644 4067.32,315.621 4064.14,296.61C4062.07,284.224 4041.13,275.139 4026.5,273.587Z" style="fill:rgb(68,224,143);stroke:black;stroke-width:4.5px;"/>
                    </g>
                    <g transform="matrix(-0.846761,0.531973,-0.531973,-0.846761,5421.26,-159.369)">
                        <path d="M4026.5,273.587C4006,271.412 3956.4,261.708 3941.12,283.556C3931.59,297.194 3963.09,304.899 3958.51,318.696C3946.73,354.214 3950.97,364.902 3979.95,364.902C3981.86,364.902 3998.72,360.071 3999.78,361.238C4009.32,371.701 4003.77,390.863 4023.68,388.015C4039.47,385.756 4048.93,361.199 4052.52,348.582C4057.34,331.644 4067.32,315.621 4064.14,296.61C4062.07,284.224 4041.13,275.139 4026.5,273.587Z" style="fill:rgb(50,188,117);stroke:black;stroke-width:4.5px;"/>
                    </g>
                    <g transform="matrix(0.971399,0.237455,-0.237455,0.971399,-1853.09,423.804)">
                        <path d="M4026.5,273.587C4006,271.412 3956.4,261.708 3941.12,283.556C3931.59,297.194 3963.09,304.899 3958.51,318.696C3946.73,354.214 3950.97,364.902 3979.95,364.902C3981.86,364.902 3998.72,360.071 3999.78,361.238C4009.32,371.701 4003.77,390.863 4023.68,388.015C4039.47,385.756 4048.93,361.199 4052.52,348.582C4057.34,331.644 4067.32,315.621 4064.14,296.61C4062.07,284.224 4041.13,275.139 4026.5,273.587Z" style="fill:rgb(60,204,130);stroke:black;stroke-width:4.5px;"/>
                    </g>
                    <g transform="matrix(-0.966394,0.257067,-0.257067,-0.966394,6083.72,931.287)">
                        <path d="M4026.5,273.587C4006,271.412 3956.4,261.708 3941.12,283.556C3931.59,297.194 3963.09,304.899 3958.51,318.696C3946.73,354.214 3950.97,364.902 3979.95,364.902C3981.86,364.902 3998.72,360.071 3999.78,361.238C4009.32,371.701 4003.77,390.863 4023.68,388.015C4039.47,385.756 4048.93,361.199 4052.52,348.582C4057.34,331.644 4067.32,315.621 4064.14,296.61C4062.07,284.224 4041.13,275.139 4026.5,273.587Z" style="fill:rgb(56,166,142);stroke:black;stroke-width:4.5px;"/>
                    </g>
                    <g transform="matrix(-0.0720833,-0.997399,0.997399,-0.0720833,2009.31,5673.03)">
                        <path d="M4026.5,273.587C4006,271.412 3956.4,261.708 3941.12,283.556C3931.59,297.194 3963.09,304.899 3958.51,318.696C3946.73,354.214 3950.97,364.902 3979.95,364.902C3981.86,364.902 3998.72,360.071 3999.78,361.238C4009.32,371.701 4003.77,390.863 4023.68,388.015C4039.47,385.756 4048.93,361.199 4052.52,348.582C4057.34,331.644 4067.32,315.621 4064.14,296.61C4062.07,284.224 4041.13,275.139 4026.5,273.587Z" style="fill:rgb(68,224,96);stroke:black;stroke-width:4.5px;"/>
                    </g>
                    <g transform="matrix(-0.966394,0.257067,-0.257067,-0.966394,6110.24,842.894)">
                        <path d="M4026.5,273.587C4006,271.412 3956.4,261.708 3941.12,283.556C3931.59,297.194 3963.09,304.899 3958.51,318.696C3946.73,354.214 3950.97,364.902 3979.95,364.902C3981.86,364.902 3998.72,360.071 3999.78,361.238C4009.32,371.701 4003.77,390.863 4023.68,388.015C4039.47,385.756 4048.93,361.199 4052.52,348.582C4057.34,331.644 4067.32,315.621 4064.14,296.61C4062.07,284.224 4041.13,275.139 4026.5,273.587Z" style="fill:rgb(145,224,68);stroke:black;stroke-width:4.5px;"/>
                    </g>
                    <g transform="matrix(-0.616337,-0.787482,0.787482,-0.616337,4465.05,5249.51)">
                        <path d="M4026.5,273.587C4006,271.412 3956.4,261.708 3941.12,283.556C3931.59,297.194 3963.09,304.899 3958.51,318.696C3946.73,354.214 3950.97,364.902 3979.95,364.902C3981.86,364.902 3998.72,360.071 3999.78,361.238C4009.32,371.701 4003.77,390.863 4023.68,388.015C4039.47,385.756 4048.93,361.199 4052.52,348.582C4057.34,331.644 4067.32,315.621 4064.14,296.61C4062.07,284.224 4041.13,275.139 4026.5,273.587Z" style="fill:rgb(30,130,111);stroke:black;stroke-width:4.5px;"/>
                    </g>
                    <g transform="matrix(0.283104,-0.959089,0.959089,0.283104,512.252,5628.23)">
                        <path d="M4026.5,273.587C4006,271.412 3956.4,261.708 3941.12,283.556C3931.59,297.194 3963.09,304.899 3958.51,318.696C3946.73,354.214 3950.97,364.902 3979.95,364.902C3981.86,364.902 3998.72,360.071 3999.78,361.238C4009.32,371.701 4003.77,390.863 4023.68,388.015C4039.47,385.756 4048.93,361.199 4052.52,348.582C4057.34,331.644 4067.32,315.621 4064.14,296.61C4062.07,284.224 4041.13,275.139 4026.5,273.587Z" style="fill:rgb(68,224,143);stroke:black;stroke-width:4.5px;"/>
                    </g>
                    <g transform="matrix(0.992479,-0.122418,0.122418,0.992479,-1824.81,2001.32)">
                        <path d="M4026.5,273.587C4006,271.412 3956.4,261.708 3941.12,283.556C3931.59,297.194 3963.09,304.899 3958.51,318.696C3946.73,354.214 3950.97,364.902 3979.95,364.902C3981.86,364.902 3998.72,360.071 3999.78,361.238C4009.32,371.701 4003.77,390.863 4023.68,388.015C4039.47,385.756 4048.93,361.199 4052.52,348.582C4057.34,331.644 4067.32,315.621 4064.14,296.61C4062.07,284.224 4041.13,275.139 4026.5,273.587Z" style="fill:rgb(50,188,117);stroke:black;stroke-width:4.5px;"/>
                    </g>
                    <g transform="matrix(-0.778861,-0.627197,0.627197,-0.778861,5009.67,4559.86)">
                        <path d="M4026.5,273.587C4006,271.412 3956.4,261.708 3941.12,283.556C3931.59,297.194 3963.09,304.899 3958.51,318.696C3946.73,354.214 3950.97,364.902 3979.95,364.902C3981.86,364.902 3998.72,360.071 3999.78,361.238C4009.32,371.701 4003.77,390.863 4023.68,388.015C4039.47,385.756 4048.93,361.199 4052.52,348.582C4057.34,331.644 4067.32,315.621 4064.14,296.61C4062.07,284.224 4041.13,275.139 4026.5,273.587Z" style="fill:rgb(60,204,130);stroke:black;stroke-width:4.5px;"/>
                    </g>
                    <g transform="matrix(0.984161,0.177277,-0.177277,0.984161,-1961.91,732.625)">
                        <path d="M4026.5,273.587C4006,271.412 3956.4,261.708 3941.12,283.556C3931.59,297.194 3963.09,304.899 3958.51,318.696C3946.73,354.214 3950.97,364.902 3979.95,364.902C3981.86,364.902 3998.72,360.071 3999.78,361.238C4009.32,371.701 4003.77,390.863 4023.68,388.015C4039.47,385.756 4048.93,361.199 4052.52,348.582C4057.34,331.644 4067.32,315.621 4064.14,296.61C4062.07,284.224 4041.13,275.139 4026.5,273.587Z" style="fill:rgb(56,166,142);stroke:black;stroke-width:4.5px;"/>
                    </g>
                    <g transform="matrix(-0.357938,0.933746,-0.933746,-0.357938,3739.52,-1832.26)">
                        <path d="M4026.5,273.587C4006,271.412 3956.4,261.708 3941.12,283.556C3931.59,297.194 3963.09,304.899 3958.51,318.696C3946.73,354.214 3950.97,364.902 3979.95,364.902C3981.86,364.902 3998.72,360.071 3999.78,361.238C4009.32,371.701 4003.77,390.863 4023.68,388.015C4039.47,385.756 4048.93,361.199 4052.52,348.582C4057.34,331.644 4067.32,315.621 4064.14,296.61C4062.07,284.224 4041.13,275.139 4026.5,273.587Z" style="fill:rgb(68,224,96);stroke:black;stroke-width:4.5px;"/>
                    </g>
                    <g transform="matrix(0.984161,0.177277,-0.177277,0.984161,-2023.42,801.414)">
                        <path d="M4026.5,273.587C4006,271.412 3956.4,261.708 3941.12,283.556C3931.59,297.194 3963.09,304.899 3958.51,318.696C3946.73,354.214 3950.97,364.902 3979.95,364.902C3981.86,364.902 3998.72,360.071 3999.78,361.238C4009.32,371.701 4003.77,390.863 4023.68,388.015C4039.47,385.756 4048.93,361.199 4052.52,348.582C4057.34,331.644 4067.32,315.621 4064.14,296.61C4062.07,284.224 4041.13,275.139 4026.5,273.587Z" style="fill:rgb(145,224,68);stroke:black;stroke-width:4.5px;"/>
                    </g>
                    <g transform="matrix(0.914782,0.403949,-0.403949,0.914782,-1588.73,-83.5153)">
                        <path d="M4026.5,273.587C4006,271.412 3956.4,261.708 3941.12,283.556C3931.59,297.194 3963.09,304.899 3958.51,318.696C3946.73,354.214 3950.97,364.902 3979.95,364.902C3981.86,364.902 3998.72,360.071 3999.78,361.238C4009.32,371.701 4003.77,390.863 4023.68,388.015C4039.47,385.756 4048.93,361.199 4052.52,348.582C4057.34,331.644 4067.32,315.621 4064.14,296.61C4062.07,284.224 4041.13,275.139 4026.5,273.587Z" style="fill:rgb(30,130,111);stroke:black;stroke-width:4.5px;"/>
                    </g>
                    <g transform="matrix(0.202446,0.979293,-0.979293,0.202446,1718.77,-2280.89)">
                        <path d="M4026.5,273.587C4006,271.412 3956.4,261.708 3941.12,283.556C3931.59,297.194 3963.09,304.899 3958.51,318.696C3946.73,354.214 3950.97,364.902 3979.95,364.902C3981.86,364.902 3998.72,360.071 3999.78,361.238C4009.32,371.701 4003.77,390.863 4023.68,388.015C4039.47,385.756 4048.93,361.199 4052.52,348.582C4057.34,331.644 4067.32,315.621 4064.14,296.61C4062.07,284.224 4041.13,275.139 4026.5,273.587Z" style="fill:rgb(68,224,143);stroke:black;stroke-width:4.5px;"/>
                    </g>
                    <g transform="matrix(-0.817575,0.575822,-0.575822,-0.817575,5489.61,-183.963)">
                        <path d="M4026.5,273.587C4006,271.412 3956.4,261.708 3941.12,283.556C3931.59,297.194 3963.09,304.899 3958.51,318.696C3946.73,354.214 3950.97,364.902 3979.95,364.902C3981.86,364.902 3998.72,360.071 3999.78,361.238C4009.32,371.701 4003.77,390.863 4023.68,388.015C4039.47,385.756 4048.93,361.199 4052.52,348.582C4057.34,331.644 4067.32,315.621 4064.14,296.61C4062.07,284.224 4041.13,275.139 4026.5,273.587Z" style="fill:rgb(50,188,117);stroke:black;stroke-width:4.5px;"/>
                    </g>
                    <g transform="matrix(0.982554,0.185976,-0.185976,0.982554,-1743.93,781.434)">
                        <path d="M4026.5,273.587C4006,271.412 3956.4,261.708 3941.12,283.556C3931.59,297.194 3963.09,304.899 3958.51,318.696C3946.73,354.214 3950.97,364.902 3979.95,364.902C3981.86,364.902 3998.72,360.071 3999.78,361.238C4009.32,371.701 4003.77,390.863 4023.68,388.015C4039.47,385.756 4048.93,361.199 4052.52,348.582C4057.34,331.644 4067.32,315.621 4064.14,296.61C4062.07,284.224 4041.13,275.139 4026.5,273.587Z" style="fill:rgb(60,204,130);stroke:black;stroke-width:4.5px;"/>
                    </g>
                    <g transform="matrix(-0.951517,0.307596,-0.307596,-0.951517,6208.59,870.296)">
                        <path d="M4026.5,273.587C4006,271.412 3956.4,261.708 3941.12,283.556C3931.59,297.194 3963.09,304.899 3958.51,318.696C3946.73,354.214 3950.97,364.902 3979.95,364.902C3981.86,364.902 3998.72,360.071 3999.78,361.238C4009.32,371.701 4003.77,390.863 4023.68,388.015C4039.47,385.756 4048.93,361.199 4052.52,348.582C4057.34,331.644 4067.32,315.621 4064.14,296.61C4062.07,284.224 4041.13,275.139 4026.5,273.587Z" style="fill:rgb(56,166,142);stroke:black;stroke-width:4.5px;"/>
                    </g>
                    <g transform="matrix(-0.124502,-0.992219,0.992219,-0.124502,2389.51,5820)">
                        <path d="M4026.5,273.587C4006,271.412 3956.4,261.708 3941.12,283.556C3931.59,297.194 3963.09,304.899 3958.51,318.696C3946.73,354.214 3950.97,364.902 3979.95,364.902C3981.86,364.902 3998.72,360.071 3999.78,361.238C4009.32,371.701 4003.77,390.863 4023.68,388.015C4039.47,385.756 4048.93,361.199 4052.52,348.582C4057.34,331.644 4067.32,315.621 4064.14,296.61C4062.07,284.224 4041.13,275.139 4026.5,273.587Z" style="fill:rgb(68,224,96);stroke:black;stroke-width:4.5px;"/>
                    </g>
                    <g transform="matrix(-0.951517,0.307596,-0.307596,-0.951517,6230.42,780.63)">
                        <path d="M4026.5,273.587C4006,271.412 3956.4,261.708 3941.12,283.556C3931.59,297.194 3963.09,304.899 3958.51,318.696C3946.73,354.214 3950.97,364.902 3979.95,364.902C3981.86,364.902 3998.72,360.071 3999.78,361.238C4009.32,371.701 4003.77,390.863 4023.68,388.015C4039.47,385.756 4048.93,361.199 4052.52,348.582C4057.34,331.644 4067.32,315.621 4064.14,296.61C4062.07,284.224 4041.13,275.139 4026.5,273.587Z" style="fill:rgb(145,224,68);stroke:black;stroke-width:4.5px;"/>
                    </g>
                </g>
                <g>
                    <g transform="matrix(0.167618,-0.0967742,0.237138,0.136912,601.24,1460.03)">
                        <rect x="-2000" y="2165.06" width="3100" height="2556.39" style="fill:rgb(179,201,219);stroke:black;stroke-width:15.65px;"/>
                    </g>
                    <g transform="matrix(0.438305,-0.253056,0.998,0.576196,-1401.9,2208.33)">
                        <rect x="3400" y="866.025" width="500" height="433.013" style="fill-opacity:0.15;stroke:black;stroke-width:4.32px;"/>
                    </g>
                </g>
                <g>
                    <g transform="matrix(0.866025,-0.5,0.998,0.576196,-166.557,4000.16)">
                        <rect x="3400" y="866.025" width="500" height="433.013" style="fill-opacity:0.15;stroke:black;stroke-width:3.41px;"/>
                    </g>
                    <g>
                        <g transform="matrix(0.195554,-0.112903,0.169384,0.0977941,2968.87,2262.46)">
                            <rect x="-2000" y="2165.06" width="3100" height="2556.39" style="fill:rgb(148,227,193);stroke:black;stroke-width:17.42px;"/>
                        </g>
                        <g transform="matrix(0.866025,0.5,-5.55112e-17,1.1547,0,0)">
                            <rect x="3400" y="866.025" width="500" height="433.013" style="fill:rgb(148,227,193);stroke:black;stroke-width:3.41px;"/>
                        </g>
                        <g transform="matrix(1.01036,-0.583333,5.55112e-17,1.1547,-562.917,326)">
                            <rect x="3900" y="4243.52" width="600" height="433.013" style="fill:rgb(148,227,193);stroke:black;stroke-width:5.48px;"/>
                        </g>
                    </g>
                    <g transform="matrix(1.01036,-0.583333,5.55112e-17,1.1547,-562.917,326)">
                        <rect x="3900" y="4243.52" width="600" height="433.013" style="fill-opacity:0.15;stroke:black;stroke-width:5.48px;"/>
                    </g>
                </g>
                <g>
                    <g transform="matrix(-0.866025,-0.5,0.964432,-0.556815,2640.39,4175.57)">
                        <rect x="1300" y="1125.83" width="1100" height="606.218" style="fill-opacity:0.15;stroke:black;stroke-width:6px;"/>
                    </g>
                    <g>
                        <g transform="matrix(0.866025,-0.5,5.55112e-17,1.1547,0,0)">
                            <rect x="2400" y="3204.29" width="600" height="606.218" style="fill:rgb(221,153,166);stroke:black;stroke-width:5.86px;"/>
                        </g>
                        <g transform="matrix(0.167618,-0.0967742,0.372646,0.215147,654.267,1290.64)">
                            <rect x="-2000" y="2165.06" width="3100" height="2556.39" style="fill:rgb(221,153,166);stroke:black;stroke-width:11.51px;"/>
                        </g>
                        <g transform="matrix(0.866025,0.5,-5.55112e-17,1.1547,0,0)">
                            <rect x="1300" y="1125.83" width="1100" height="606.218" style="fill:rgb(221,153,166);stroke:black;stroke-width:3.41px;"/>
                        </g>
                    </g>
                    <g transform="matrix(0.866025,-0.5,5.55112e-17,1.1547,0,0)">
                        <rect x="2400" y="3204.29" width="600" height="606.218" style="fill-opacity:0.15;stroke:black;stroke-width:5.86px;"/>
                    </g>
                    <g transform="matrix(0.472377,0.272727,-1.35946e-17,0.329914,944.755,1974.03)">
                        <rect x="1300" y="1125.83" width="1100" height="606.218" style="fill-opacity:0.15;stroke:black;stroke-width:8.31px;"/>
                    </g>
                </g>
                <g>
                    <g>
                        <g transform="matrix(0.111745,-0.0645161,0.304892,0.176029,1728.44,2239.85)">
                            <rect x="-2000" y="2165.06" width="3100" height="2556.39" style="fill:rgb(168,214,217);stroke:black;stroke-width:14.76px;"/>
                        </g>
                        <g transform="matrix(0.866025,0.5,-5.55112e-17,1.1547,0,0)">
                            <rect x="2500" y="1299.04" width="900" height="433.013" style="fill:rgb(168,214,217);stroke:black;stroke-width:3.41px;"/>
                        </g>
                    </g>
                </g>
            </g>
            <g transform="matrix(1.73205,-1,2,1.1547,-2771.28,-2600)">
                <path d="M-597.687,2769.22L-600,2598.08L-1400.03,2598.08L-1400.03,3548.11L-200,3548.11L-200.03,2771.25L-597.687,2769.22Z" style="fill:rgb(255,101,101);stroke:black;stroke-width:6.82px;"/>
            </g>
            <g transform="matrix(0.876182,-0.505864,5.69311e-17,1.18424,-10.157,-50.4127)">
                <path d="M1000,1567.49L11.592,1567.49L406.955,1905.26L1000,1905.26L1000,1567.49Z" style="fill:white;stroke:black;stroke-width:22.97px;"/>
            </g>
            <g transform="matrix(1.73205,-1,1.1714e-16,2.43667,-2771.28,-2930.64)">
                <path d="M2400,2598.08L1600,2598.08L1800,2762.24L2400,2762.24L2400,2598.08Z" style="fill-opacity:0.15;"/>
            </g>
            <g transform="matrix(0.866025,-0.5,5.85702e-17,2.43667,346.413,-4330.64)">
                <rect x="1600" y="2598.08" width="800" height="164.159" style="fill-opacity:0.15;"/>
            </g>
            <g transform="matrix(1.73205,-1,2,1.1547,-2771.28,-2210.48)">
                <path d="M-605.243,2775.77L-605.148,2602.59L-1205.24,2602.62L-1206.27,3382.87L-207.273,3382.04L-205.277,2775.82L-605.243,2775.77Z" style="fill:rgb(255,101,101);stroke:black;stroke-width:6.82px;"/>
            </g>
            <g transform="matrix(0.866025,-0.5,1,0.57735,0,0)">
                <rect x="-1800" y="1905.26" width="600" height="692.82" style="fill:white;stroke:black;stroke-width:13.63px;"/>
            </g>
            <g transform="matrix(0.51857,-0.299397,0.597893,0.345194,766.55,924.125)">
                <rect x="-2201.83" y="2943.47" width="1001.56" height="870.776" style="fill:rgb(255,67,115);stroke:black;stroke-width:22.78px;"/>
            </g>
            <g transform="matrix(1.73205,-1,2,1.1547,-2771.28,-2210.48)">
                <path d="M-605.243,2775.77L-605.148,2602.59L-1205.24,2602.62L-1206.27,3382.87L-207.273,3382.04L-205.277,2775.82L-605.243,2775.77Z" style="fill-opacity:0.24;"/>
            </g>
            <g transform="matrix(1.73205,-1,0,2.3094,-2598.07,-2500)">
                <rect x="3000" y="3117.69" width="400" height="173.205" style="fill:rgb(255,101,101);stroke:black;stroke-width:11.72px;"/>
            </g>
            <g transform="matrix(0.866025,-0.5,5.85702e-17,2.43667,1212.44,-3830.64)">
                <rect x="1600" y="2598.08" width="800" height="164.159" style="fill-opacity:0.15;"/>
            </g>
            <g transform="matrix(2,0,0,2.0774,-3111.21,-2943.04)">
                <path d="M2248.43,1898.16L2248.43,2090.62" style="fill:none;stroke:black;stroke-width:8.83px;"/>
            </g>
            <g transform="matrix(2,0,0,2.07838,-2072.04,-3145.13)">
                <path d="M2248.43,1898.16L2248.43,2090.62" style="fill:none;stroke:black;stroke-width:8.83px;"/>
            </g>
            <g transform="matrix(2,0,0,2,-2771.28,-2600)">
                <path d="M433.013,1849.97L1385.64,2399.97" style="fill:none;stroke:black;stroke-opacity:0.16;stroke-width:9px;"/>
            </g>
            <g transform="matrix(2,0,0,2,-2771.28,-2600)">
                <path d="M1385.64,2200L1385.64,2400L2338.27,2950L3377.5,2350" style="fill:none;stroke:black;stroke-opacity:0.4;stroke-width:9px;"/>
            </g>
            <g transform="matrix(1.73205,1,-1.11022e-16,2.3094,-2771.28,-2600)">
                <path d="M3500,519.615L2400,519.615L2400,692.82L3300,692.82L3500,519.615Z" style="fill:rgb(255,101,101);stroke:black;stroke-width:6.82px;"/>
            </g>
            <g transform="matrix(0.866025,0.5,-5.55112e-17,1.1547,0,0)">
                <rect x="1000" y="692.82" width="1200" height="346.41" style="fill:white;stroke:black;stroke-width:13.63px;"/>
            </g>
            <g transform="matrix(1.73205,1,-1.11022e-16,2.3094,-3290.89,-2300)">
                <path d="M3500,519.615L3000,519.615L3000,692.82L3300,692.82L3500,519.615Z" style="fill:rgb(255,67,115);stroke:black;stroke-width:6.82px;"/>
            </g>
            <g transform="matrix(2.16506,-1.25,-2.77556e-17,2.3094,-5455.96,-1050)">
                <path d="M3400,3117.69L3000,3117.69L3160,3290.9L3400,3290.9L3400,3117.69Z" style="fill:rgb(255,67,115);stroke:black;stroke-width:10.56px;"/>
            </g>
            <g transform="matrix(1.08253,-0.625,4.39277e-17,2.43667,-692.817,-2930.64)">
                <path d="M2400,2598.08L1600,2598.08L1920,2762.24L2400,2762.24L2400,2598.08Z" style="fill-opacity:0.15;"/>
            </g>
            <g transform="matrix(1,0,0,1,-1051.97,-45.6006)">
                <g transform="matrix(0.821816,0,0,0.821816,-297.189,351.378)">
                    <circle cx="2739.75" cy="1914.26" r="61.054" style="fill:rgb(232,43,91);"/>
                </g>
                <path d="M1918.83,2160.85L1913.81,2160.85C1889.58,2160.85 1869.9,2141.17 1869.9,2116.93L1869.9,2026.4C1869.9,2002.16 1889.58,1982.48 1913.81,1982.48L2001.65,1982.48C2025.88,1982.48 2045.56,2002.16 2045.56,2026.4L2045.56,2116.93C2045.56,2141.17 2025.88,2160.85 2001.65,2160.85L1996.63,2160.85L1996.63,2268.19C1996.63,2278.92 1987.92,2287.64 1977.18,2287.64L1938.28,2287.64C1927.54,2287.64 1918.83,2278.92 1918.83,2268.19L1918.83,2160.85Z" style="fill:rgb(232,43,91);"/>
            </g>
            <g transform="matrix(1,0,0,1,-56.3138,497.892)">
                <g transform="matrix(0.821816,0,0,0.821816,-297.189,351.378)">
                    <circle cx="2739.75" cy="1914.26" r="61.054" style="fill:white;"/>
                </g>
                <path d="M1918.83,2160.85L1913.81,2160.85C1889.58,2160.85 1869.9,2141.17 1869.9,2116.93L1869.9,2026.4C1869.9,2002.16 1889.58,1982.48 1913.81,1982.48L2001.65,1982.48C2025.88,1982.48 2045.56,2002.16 2045.56,2026.4L2045.56,2116.93C2045.56,2141.17 2025.88,2160.85 2001.65,2160.85L1996.63,2160.85L1996.63,2268.19C1996.63,2278.92 1987.92,2287.64 1977.18,2287.64L1938.28,2287.64C1927.54,2287.64 1918.83,2278.92 1918.83,2268.19L1918.83,2160.85Z" style="fill:white;"/>
            </g>
            <g transform="matrix(1,0,0,1,-129.953,-18.9067)">
                <g transform="matrix(1,0,0,1,-475.608,-516.03)">
                    <path d="M1989.13,1914.2L2097.36,1946.15C2126.53,1958.87 2162.24,1970.29 2197.48,1961.02" style="fill:none;stroke:white;stroke-width:14px;"/>
                </g>
                <g transform="matrix(1,0,0,1,-475.608,-516.03)">
                    <path d="M2366.85,2132.28C2366.85,2132.28 2391.07,2165.63 2359.68,2172.87C2343.65,2176.57 2277.89,2110.9 2277.89,2110.9" style="fill:none;stroke:white;stroke-width:14px;"/>
                </g>
                <g transform="matrix(1,0,0,1,-475.608,-516.03)">
                    <path d="M2341.82,2166.88C2341.82,2166.88 2348.22,2178.39 2332.86,2188.34C2307.46,2204.78 2228.89,2128.31 2228.89,2128.31" style="fill:none;stroke:white;stroke-width:14px;"/>
                </g>
                <g transform="matrix(1,0,0,1,-475.608,-516.03)">
                    <path d="M2298.55,2182.6C2298.55,2182.6 2310.94,2205.08 2285.12,2208.67C2246.78,2214 2173.53,2145.96 2173.53,2145.96" style="fill:none;stroke:white;stroke-width:14px;"/>
                </g>
                <g transform="matrix(1,0,0,1,-475.608,-516.03)">
                    <path d="M2236.02,2193.28C2236.02,2193.28 2276.92,2209.17 2227.37,2217.39C2172.99,2226.42 2051.01,2084.15 2051.01,2084.15L1947.86,2075.41" style="fill:none;stroke:white;stroke-width:14px;"/>
                </g>
                <g transform="matrix(1,0,0,1,-475.608,-516.03)">
                    <path d="M2475.61,1961.33C2475.61,1961.33 2343.54,1976.73 2331.71,1970.45C2309.03,1958.41 2271.72,1941.66 2247.12,1946.42C2209.69,1953.67 2105.08,1988.31 2143.99,2028.6C2161.62,2046.85 2239.99,2018.66 2239.99,2018.66L2365.82,2131.68L2400.99,2106.93L2491.1,2093.07" style="fill:none;stroke:white;stroke-width:14px;"/>
                </g>
            </g>
            <g transform="matrix(0.955458,0,0,0.960738,40.6621,64.793)">
                <g transform="matrix(1.04662,-0,-0,1.04087,-42.5577,-67.4409)">
                    <path d="M1815.9,2234.68L1861.06,2274.75L1866.02,2214.59L1815.9,2234.68Z" style="fill:url(#_Linear2);"/>
                    <path d="M1099.56,1792.69L1039.23,1790.27L1077.36,1743.46L1099.56,1792.69Z" style="fill:url(#_Linear3);"/>
                    <path d="M1844.98,2234.66C1645.02,1743.89 1465.91,1604.87 1078.61,1772.51" style="fill:none;stroke:url(#_Linear4);stroke-width:18px;"/>
                </g>
            </g>
        </g>
    </g>
    <g transform="matrix(1,0,0,1,5000,-9.09495e-13)">
        <clipPath id="_clip5">
            <rect x="-0" y="0" width="4000" height="4000"/>
        </clipPath>
        <g clip-path="url(#_clip5)">
            <g id="Unicampus1" serif:id="Unicampus" transform="matrix(7.99996,0,0,7.99996,-14635.8,-16449.8)">
                <g>
                    <g transform="matrix(-0.866025,-0.5,0.964432,-0.556815,2640.39,4175.57)">
                        <rect x="1300" y="1125.83" width="1100" height="606.218" style="fill-opacity:0.15;stroke:black;stroke-width:3px;"/>
                    </g>
                    <g>
                        <g transform="matrix(0.866025,-0.5,5.55112e-17,1.1547,0,0)">
                            <rect x="2400" y="3204.29" width="600" height="606.218" style="fill:rgb(221,153,166);stroke:black;stroke-width:2.93px;"/>
                        </g>
                        <g transform="matrix(0.167618,-0.0967742,0.372646,0.215147,654.267,1290.64)">
                            <rect x="-2000" y="2165.06" width="3100" height="2556.39" style="fill:rgb(221,153,166);stroke:black;stroke-width:5.75px;"/>
                        </g>
                        <g transform="matrix(0.866025,0.5,-5.55112e-17,1.1547,0,0)">
                            <rect x="1300" y="1125.83" width="1100" height="606.218" style="fill:rgb(221,153,166);stroke:black;stroke-width:1.7px;"/>
                        </g>
                    </g>
                    <g transform="matrix(0.866025,-0.5,5.55112e-17,1.1547,0,0)">
                        <rect x="2400" y="3204.29" width="600" height="606.218" style="fill-opacity:0.15;stroke:black;stroke-width:2.93px;"/>
                    </g>
                </g>
            </g>
            <g transform="matrix(3.4641,-2,4,2.3094,-7361.04,-7449.9)">
                <path d="M-597.687,2769.22L-600,2598.08L-1400.03,2598.08L-1400.03,3548.11L-200,3548.11L-200.03,2771.25L-597.687,2769.22Z" style="fill:rgb(255,101,101);stroke:black;stroke-width:3.41px;"/>
            </g>
            <g transform="matrix(3.4641,-2,2.34281e-16,4.87333,-7361.04,-8111.18)">
                <path d="M2400,2598.08L1600,2598.08L1800,2762.24L2400,2762.24L2400,2598.08Z" style="fill-opacity:0.15;"/>
            </g>
            <g transform="matrix(1.73205,-0.999999,1.1714e-16,4.87333,-1125.66,-10911.2)">
                <rect x="1600" y="2598.08" width="800" height="164.159" style="fill-opacity:0.15;"/>
            </g>
            <g transform="matrix(3.4641,-2,4,2.3094,-7361.04,-6670.87)">
                <path d="M-605.243,2775.77L-605.148,2602.59L-1205.24,2602.62L-1206.27,3382.87L-207.273,3382.04L-205.277,2775.82L-605.243,2775.77Z" style="fill:rgb(255,101,101);stroke:black;stroke-width:3.41px;"/>
            </g>
            <g transform="matrix(1.73515,-1.00179,2,1.1547,-1814.76,-2252.05)">
                <rect x="-1800" y="1905.26" width="600" height="692.82" style="fill:white;stroke:black;stroke-width:6.81px;"/>
            </g>
            <g transform="matrix(1.03714,-0.598793,1.19578,0.690387,-285.386,-401.653)">
                <rect x="-2201.83" y="2943.47" width="1001.56" height="870.776" style="fill:rgb(255,67,115);stroke:black;stroke-width:11.39px;"/>
            </g>
            <g transform="matrix(3.4607,-1.99804,4,2.3094,-7361.73,-6670.47)">
                <path d="M-605.243,2775.77L-605.148,2602.59L-1205.24,2602.62L-1206.27,3382.87L-207.273,3382.04L-205.277,2775.82L-605.243,2775.77Z" style="fill-opacity:0.24;"/>
            </g>
            <g transform="matrix(4,0,0,4.15479,-8040.91,-8135.97)">
                <path d="M2248.43,1898.16L2248.43,2090.62" style="fill:none;stroke:black;stroke-width:4.41px;"/>
            </g>
            <g transform="matrix(4,0,0,4,-7361.04,-7449.9)">
                <path d="M1385.64,2200L1385.64,2400L2338.27,2950L3377.5,2350" style="fill:none;stroke:black;stroke-opacity:0.4;stroke-width:4.5px;"/>
            </g>
            <g transform="matrix(3.4641,-2,0,4.6188,-7014.63,-7249.9)">
                <rect x="3000" y="3117.69" width="400" height="173.205" style="fill:rgb(255,101,101);stroke:black;stroke-width:5.86px;"/>
            </g>
            <g transform="matrix(1.73205,-0.999999,0,4.87333,606.392,-9911.18)">
                <rect x="1600" y="2598.08" width="800" height="164.159" style="fill-opacity:0.15;"/>
            </g>
            <path d="M2511.47,1450L952.802,550.099L952.802,-249.901L4763.31,1950.1L4070.49,2350.1L3897.11,2250L3897.11,1650L3637.31,1500L3637.31,2100L2771.28,1600L2771.28,1000L2511.47,850L2511.47,1450Z" style="fill:rgb(255,101,101);stroke:black;stroke-width:18px;"/>
            <path d="M779.423,1650L779.423,1050L519.615,900L519.615,1500L-86.434,1150.09L-86.434,350.095L1992.03,1550.09L1992.03,2350.09L779.423,1650Z" style="fill:white;stroke:black;stroke-width:18px;"/>
            <g transform="matrix(3.4641,2,-2.22044e-16,4.6188,-8400.27,-6849.9)">
                <path d="M3500,519.615L3000,519.615L3000,692.82L3300,692.82L3500,519.615Z" style="fill:rgb(255,67,115);stroke:black;stroke-width:3.41px;"/>
            </g>
            <g transform="matrix(4.33012,-2.5,-5.55111e-17,4.6188,-12730.4,-4349.9)">
                <path d="M3400,3117.69L3000,3117.69L3160,3290.9L3400,3290.9L3400,3117.69Z" style="fill:rgb(255,67,115);stroke:black;stroke-width:5.28px;"/>
            </g>
            <g transform="matrix(2.16506,-1.25,8.78552e-17,4.87333,-3204.12,-8111.18)">
                <path d="M2400,2598.08L1600,2598.08L1920,2762.24L2400,2762.24L2400,2598.08Z" style="fill-opacity:0.15;"/>
            </g>
            <g transform="matrix(0.904469,0.522195,-5.55112e-17,1.1547,-21.0382,387.854)">
                <rect x="2800" y="173.205" width="287.249" height="519.615" style="fill:rgb(255,251,194);stroke:black;stroke-width:13.36px;"/>
            </g>
            <g transform="matrix(0.904469,0.522195,-5.55112e-17,1.1547,-2012.9,-762.146)">
                <rect x="2800" y="173.205" width="287.249" height="519.615" style="fill:rgb(255,251,194);stroke:black;stroke-width:13.36px;"/>
            </g>
        </g>
    </g>
    <defs>
        <linearGradient id="_Linear2" x1="0" y1="0" x2="1" y2="0" gradientUnits="userSpaceOnUse" gradientTransform="matrix(948.172,0,0,700.278,912.884,1924.62)"><stop offset="0" style="stop-color:rgb(232,43,91);stop-opacity:1"/><stop offset="0.54" style="stop-color:rgb(237,89,127);stop-opacity:1"/><stop offset="1" style="stop-color:white;stop-opacity:1"/></linearGradient>
        <linearGradient id="_Linear3" x1="0" y1="0" x2="1" y2="0" gradientUnits="userSpaceOnUse" gradientTransform="matrix(948.172,0,0,700.278,912.884,1924.62)"><stop offset="0" style="stop-color:rgb(232,43,91);stop-opacity:1"/><stop offset="0.54" style="stop-color:rgb(237,89,127);stop-opacity:1"/><stop offset="1" style="stop-color:white;stop-opacity:1"/></linearGradient>
        <linearGradient id="_Linear4" x1="0" y1="0" x2="1" y2="0" gradientUnits="userSpaceOnUse" gradientTransform="matrix(948.172,0,0,700.278,912.884,1924.62)"><stop offset="0" style="stop-color:rgb(232,43,91);stop-opacity:1"/><stop offset="0.54" style="stop-color:rgb(237,89,127);stop-opacity:1"/><stop offset="1" style="stop-color:white;stop-opacity:1"/></linearGradient>
    </defs>
</svg>
