<?xml version="1.0" encoding="UTF-8" standalone="no"?>
<!DOCTYPE svg PUBLIC "-//W3C//DTD SVG 1.1//EN" "http://www.w3.org/Graphics/SVG/1.1/DTD/svg11.dtd">
<svg width="100%" height="100%" viewBox="0 0 9449 2363" version="1.1" xmlns="http://www.w3.org/2000/svg" xmlns:xlink="http://www.w3.org/1999/xlink" xml:space="preserve" xmlns:serif="http://www.serif.com/" style="fill-rule:evenodd;clip-rule:evenodd;stroke-linecap:round;stroke-linejoin:round;stroke-miterlimit:1.5;">
    <g transform="matrix(1.70765,0,0,1.70765,-51.0678,-549.349)">
        <path d="M2492.28,1324.73C2490.46,1322.4 2484.8,1322.2 2484.8,1322.2L2396.48,1322.2L2379.4,1210.27L2371.84,1210.26C2385.95,1280.25 2389.93,1349.99 2379.44,1419.21L2386.3,1419.21L2397.35,1334.59L2484.29,1334.03L2490.09,1419.21L2494.82,1419.21L2494.82,1332.89C2494.82,1332.89 2494.5,1327.58 2492.28,1324.73Z" style="fill:white;stroke:black;stroke-width:2px;"/>
    </g>
    <g transform="matrix(-1.39407,0,0,1.70765,8089.27,-547.999)">
        <path d="M2538.56,1324.73C2536.74,1322.4 2531.08,1322.2 2531.08,1322.2L2457.58,1322.2L2440.34,1210.26L2379.4,1210.27L2371.84,1210.26C2385.95,1280.25 2390.16,1349.2 2379.67,1418.42L2386.53,1418.42L2397.35,1334.59L2433.33,1334.43C2434.65,1363.19 2431.98,1390.5 2428.18,1418.42L2435.53,1418.42L2446.55,1334.38L2485.16,1334.21L2489.43,1418.42L2494.33,1418.42L2494.33,1334.18L2530.57,1334.03L2537.2,1418.21L2541.93,1418.21L2541.09,1332.89C2541.09,1332.89 2540.78,1327.58 2538.56,1324.73Z" style="fill:white;stroke:black;stroke-width:2.19px;"/>
    </g>
    <g transform="matrix(1.70765,0,0,1.70765,851.195,815.418)">
        <g transform="matrix(1.51671,0,0,1.51671,-189.929,-403.034)">
            <g transform="matrix(1.93319,0,0,1.93319,-279.79,-728.2)">
                <path d="M300.034,779.407C304.321,775.658 306.98,773.875 308.184,769.815C311.469,758.739 309.257,713.982 309.552,700.491C309.999,679.978 314.059,667.376 309.579,653.936C303.306,635.12 298.299,625.36 287.565,616.964C276.831,608.568 262.249,585.46 260,580C258.36,576.018 275.942,578.458 279.222,581.249C285.099,586.249 289.161,601.501 296.297,608.002C303.432,614.503 308.278,618.521 311.519,624.69C315.696,632.639 317.045,639.707 320,640C322.955,640.293 321.589,632.508 329.624,623.847C337.659,615.185 347.902,595.776 352.902,588.639C355.114,585.481 360,580.057 360,583.913C360,590.896 352.892,610.053 347.729,621.867C342.893,632.933 334.618,635.869 342.556,634.813C349.758,633.855 357.332,622.24 369.466,621.363C381.601,620.485 389.6,623.544 410,600C411.666,598.077 417.214,602.671 415.897,604.848C413.204,609.298 407.227,624.655 393.843,626.699C380.46,628.743 370.892,627.5 358.074,637.26C347.454,645.348 340.54,642.654 337.383,648.451C333.752,655.117 334.27,662.667 334.279,680.834C334.289,699.522 334.279,705.418 334.279,717.561C334.279,729.704 330.665,768.295 338.709,771.884C346.754,775.473 349.513,780.161 358.322,780.161" style="fill:white;stroke:black;stroke-width:0.68px;"/>
            </g>
            <g transform="matrix(1,0,0,1,-87.5638,10.3272)">
                <path d="M413.641,57.107C415.197,51.442 435.876,24.359 445.043,23.574C449.401,23.201 464.452,20.934 467.806,24.141C471.113,27.303 465.846,36.933 466.761,36.356C474.672,31.362 480.468,22.329 489,18.355C489.454,18.144 490.164,17.852 490.495,18.227C494.771,23.066 491.712,41.918 489.562,46.892C487.63,51.359 481.1,56.589 480.318,61.177C479.477,66.11 488.025,71.536 490.238,75.491C493.914,82.057 491.186,90.202 500.359,91.002C509.221,91.775 520.337,76.648 519.281,68.016C518.818,64.228 511.741,62.796 509.769,59.793C503,49.488 527.312,46 531.854,45.815C536.158,45.64 551.196,42.193 554.334,46.266C559.224,52.614 567.74,72.806 563.541,80.773C560.138,87.231 554.18,93.767 548.224,97.844C547.923,98.051 545.113,99.476 545.741,100.505C548.186,104.513 566.219,95.47 570.344,97.913C580.662,104.025 585.075,117 593.344,124.1C594.239,124.868 606.125,130.893 603.765,133.035C601.101,135.453 593.877,137.98 591.059,139.232C586.784,141.132 568.811,150.408 563.56,146.737C555.093,140.817 550.248,131.103 537.064,134.755C532.631,135.984 531.4,141.447 529.427,144.97C519.52,162.657 527.683,171.659 544.065,182.151C549.63,185.716 556.067,194.443 561.428,196.82C567.429,199.482 591.473,180.692 598.186,175.304C601.618,172.55 612.836,178.14 613.872,174.497C615.913,167.323 616.452,136.212 620.963,132.803C624.387,130.216 645.551,136.831 653.396,132.922C660.991,129.136 660.765,112.506 670.29,117.975C687.217,127.695 678.388,134.665 688.057,144.791C691.049,147.925 701.926,153.123 701.833,158.192C701.768,161.767 689.811,167.679 690.076,168.26C693.418,175.584 707.227,179.701 713.576,183.949C713.609,183.971 717.085,186.374 716.944,186.61C715.209,189.499 711.597,192.839 709.294,195.076C696.018,207.977 690.877,182.672 676.077,193.89C665.786,201.691 684.114,211.563 683.243,213.355C681.175,217.61 667.635,210.263 664.741,216.228C660.488,224.996 669.153,232.559 669.015,241.256C668.972,243.905 662.01,256.235 662.8,257.099C671.342,266.43 678.22,263.462 682.146,277.289C684.267,284.76 675.446,283.974 676.105,289.675C676.13,289.89 692.809,286.364 694.308,278.643C695.838,270.765 684.197,250.165 688.893,249.082C698.185,246.939 711.815,244.061 719.936,250.421C727.735,256.528 714.736,282.455 740.396,270.426C742.056,269.648 746.739,241.881 746.932,240.995C747.771,237.141 748.365,233.237 749.214,229.385C749.417,228.468 749.932,226.032 750.417,226.837C757.067,237.874 773.099,257.08 771.253,271.093C770.112,279.75 761.254,283.041 763.74,293.259C767.178,307.393 781.088,315.961 783.914,330.116C785.094,336.029 775.437,335.617 778.938,343.583C782.416,351.495 800.154,354.349 807.092,359.554C810.548,362.146 814.514,367.16 818.713,368.508C821.04,369.256 824.666,366.379 826.489,367.458C828.413,368.598 827.065,379.507 827.065,381.388C827.065,394.92 828.636,413.409 826.202,426.61C825.639,429.663 811.47,426.904 810.09,425.485C807.793,423.123 807,413.733 804.363,412.874C800.615,411.654 796.251,413.686 792.498,412.139C788.058,410.308 788.56,404.884 782.856,404.233C780.82,404 769.93,405.442 768.92,403.856C765.919,399.143 773.833,388.87 775.814,384.738C776.02,384.308 776.613,382.938 775.775,382.763C754.371,378.29 766.108,420.71 761.011,423.612C750.723,429.467 741.037,418.975 735.232,421.558C730.802,423.529 736.976,434.801 728.332,434.543C724.794,434.437 703.544,426.779 701.669,429.429C698.496,433.916 686.503,430.399 688.178,434.333C693.13,445.962 699.546,464.207 690.18,475.918C686.854,480.077 681.931,467.263 681.652,466.664C674.974,452.334 675.669,446.899 660.246,450.403C658.278,450.85 653.416,451.283 652.03,453.199C647.134,459.968 662.077,472.133 660.059,478.776C659.759,479.764 647.55,480.02 646.451,480.256C640.929,481.442 629.224,487.782 623.767,486.346C622.915,486.122 620.159,479.871 618.631,481.743C615.024,486.161 615.99,516.35 607.797,514.109C597.332,511.247 605.014,504.025 594.769,501.015C589.825,499.563 588.048,510.401 585,509C581.868,507.561 556.083,520.376 550.652,505.314C546.152,492.834 560.276,496.229 567.928,496.229C587.78,496.229 600.63,489.321 608.702,470.413C609.861,467.697 612.326,462.559 611.204,459.404C610.477,457.358 606.03,455.248 604.22,454.379C584.588,444.96 589.022,465.104 574.579,467.377C571.259,467.9 572.648,452.339 568.921,450.118C564.765,447.641 545.881,460.683 538.845,453.956C533.268,448.624 539.703,441.333 539.056,436.538C538.431,431.9 529.684,428.584 532.552,423.337C535.635,417.696 546.705,411.851 546.666,405.577C546.604,395.631 535.358,395.693 529.637,393.46C528.068,392.848 530.364,382.044 529.36,380.15C527.025,375.746 518.114,385.47 517.293,386.492C511.822,393.3 508.521,408.122 500.733,412.697C493.937,416.69 486.219,412.545 479.599,415.28C473.738,417.701 469.446,428.637 461.41,425.448C458.058,424.118 458.72,418.122 458.696,415.483C458.69,414.792 459.128,413.062 458.534,413.415C451.173,417.788 450.841,431.121 442.255,433.961C429.082,438.317 425.171,422.401 417.977,415.965C416.086,414.274 419.572,408.685 416.266,406.531C408.052,401.179 402.767,426.946 395.103,426.946C389.21,426.946 383.574,427.932 378.996,423.678C377.304,422.106 373.123,414.228 371.043,413.59C368.805,412.904 368.652,416.886 366.61,416.125C362.094,414.443 364.007,404.607 356.682,405.879C352.975,406.522 352.593,414.149 350,417.318C347.738,420.083 378.634,459.618 378.634,481.821L380,491.218C380,500.415 390.847,502.644 386.984,513.026C381.927,526.618 360.813,512.359 357.172,505.006C355.291,501.207 356.407,496.839 352.646,494.156C348.094,490.908 338.467,490.941 336.848,484.739C333.511,471.953 346.837,448.586 340.711,437.831C338.007,433.085 322.06,433.823 317.519,434.674C315.05,435.137 312.516,446.439 311.465,448.654C308.093,455.755 300.083,464.216 302.737,472.706C307.203,486.993 323.847,488.567 315.751,506.644C310.02,519.439 299.225,519.554 287.526,514.011C285.444,513.024 274.006,504.886 271.302,507.158C267.398,510.439 264.633,533.954 258.064,534.97C249.963,536.222 241.734,533.051 233.599,534.062C222.599,535.428 209.538,546.492 202.693,530.028C200.393,524.496 206.389,503.943 203.867,502.208C198.14,498.266 177.348,497.918 172.139,502.607C170.828,503.787 172.57,499.054 173.284,497.442C175.045,493.466 177.219,490.17 179.877,486.721C187.916,476.291 188.069,449.837 182.265,454.335C178.51,457.244 170.201,457.295 165.75,458.26C160.73,459.348 155.936,460.165 150.783,460.302C146.238,460.423 139.233,461.526 135.422,459.342C135.421,459.341 135.422,461.475 135.422,469.309C135.422,477.575 135.414,501.883 135.124,502.045C129.306,505.298 110.288,491.485 108.417,486.454C102.516,470.584 113.749,461.652 115.666,447.608C116.343,442.654 113.281,434.664 115.385,430.904C119.033,424.387 133.922,413.498 133.348,409.946C130.94,395.057 121.117,383.431 111.785,372.848C110.702,371.62 115.677,356.159 115.838,354.17C116.092,351.025 116.64,346.679 115.595,343.593C115.228,342.508 111.632,340.251 112.609,338.911C113.678,337.444 123.751,339.774 123.958,338.265C124.328,335.585 114.234,328.82 112.567,326.823C104.368,316.997 105.805,307.354 112.59,296.439C116.613,289.967 131.941,306.965 135.675,296.068C138.028,289.203 117.875,267.137 121.8,263.934C123.933,262.193 140.915,256.527 142.752,259.584C147.548,267.562 145.59,284.595 144.595,293.379C144.543,293.84 141.543,301.828 142.309,302.467C155.588,313.547 178.466,314.73 186.548,295.155C188.439,290.573 188.237,283.558 187.115,278.834C182.755,260.475 156.244,268.328 161.917,246.591C164.678,236.009 179.457,242.075 186.427,244.113C189.431,244.992 194.176,246.066 195.288,249.538C195.507,250.222 196.016,252.051 195.397,251.688C189.462,248.209 186.818,232.096 183.024,226.122C174.524,212.739 157.866,217.83 167.049,204.534C168.568,202.335 169.565,200.88 171.703,199.328C177.409,195.187 215.113,195.058 221.942,198.154C224.741,199.423 226.909,204.222 229.757,204.762C236.575,206.053 250.084,196.813 250.202,197.104C257.995,216.45 233.595,236.475 257.63,249.601C261.634,251.788 265.91,253.701 270.354,254.792C276.067,256.194 281.029,255.23 285.917,252.011C292.888,247.42 288.4,228.795 288.165,222.663C287.891,215.501 291.022,216.335 288.908,215.193C286.086,213.668 282.185,211.729 279.616,209.922C271.6,204.281 260.889,191.29 262.111,180.599C262.445,177.681 267.769,182.292 270.381,183.634C275.46,186.241 281.16,187.908 286.767,188.907C300.592,191.37 300.971,186.795 301.616,172.901C301.822,168.449 302.59,162.262 301.504,157.835C299.586,150.012 277.985,153.418 272.435,151.101C262.988,147.158 266.305,135.015 262.121,127.836C260.515,125.081 256.709,127.86 255.208,125.422C253.985,123.434 254.212,118.426 254.851,116.353C264.627,84.639 292.267,118.129 305.535,114.301C311.985,112.44 308.623,92.817 325.066,91.752C332.838,91.249 340.776,91.661 346.345,97.825C349.192,100.976 351.792,109.831 356.269,111.032C375.988,116.322 383.233,94.795 399.017,92.395C410.364,90.669 418.722,105.409 428.924,102.45C431.221,101.784 439.88,91.049 438.428,88.581C434.871,82.534 429.749,84.113 424.687,80.256C414.527,72.514 411.631,66.377 398.175,63.792C395.923,63.36 388.744,62.868 387.428,60.26C386.187,57.8 390.08,56.433 390.08,58.01L413.641,57.107Z" style="fill:white;stroke:black;stroke-width:1.32px;"/>
            </g>
        </g>
        <g id="Busch" transform="matrix(1.57663,0,0,1.29226,-432.658,-720.736)">
            <g transform="matrix(0.668787,0,0,0.815958,71.485,489.048)">
                <path d="M295.995,823.13C298.61,820.987 303.435,799.169 308.79,790.424C317.141,776.787 321.589,767.505 333.577,757.678C346.006,747.491 343.317,691.562 336.011,685.574C324.841,676.419 324.169,697.592 328.69,697.592C337.328,697.592 324.414,725.119 323.793,725.632C318.1,730.335 329.504,748.976 323.784,753.665C311.952,763.362 300.479,792.795 296.904,795.725C293.397,798.6 288.525,809.642 289.352,813.709C290.847,821.063 279.859,823.808 279.742,823.908C281.332,816.867 268.194,817.926 275.136,812.236C281.114,807.336 272.477,791.705 272.477,787.722C272.477,775.507 292.9,749.264 281.22,739.69C273.381,733.265 270.034,697.5 270.033,697.592C269.915,722.32 269.858,763.315 264.967,763.33L263.49,789.926C263.49,796.248 260.514,797.429 264.967,804.701C268.074,809.774 257.605,819.951 257.58,823.908C256.541,819.433 242.545,804.265 240.71,799.739C238.759,794.929 240.734,786.826 240.71,781.713C240.563,750.911 229.933,713.995 223.604,703.6C221.188,699.632 185.135,709.609 186.959,709.609C209.012,709.609 197.607,721.94 210.299,732.303C214.316,735.582 215.091,740.678 218.727,743.658C223.027,747.183 222.443,750.807 229.507,765.85C234.973,777.491 222.234,800.611 233.388,809.753C237.391,813.034 226.53,820.952 228.03,823.908C227.028,823.394 214.075,820.057 199.957,792.881C196.535,786.295 185.696,758.653 184.497,757.671C175.493,750.291 187.522,715.61 184.497,715.61C181.142,715.61 164.249,691.575 155.173,691.575L167.391,715.61C160.954,715.631 174.732,753.692 174.732,765.69C174.732,769.928 177.302,779.902 179.628,783.716C190.793,802.018 200.713,824.412 205.804,823.908" style="fill:white;stroke:black;stroke-width:1.9px;"/>
            </g>
            <path d="M137.929,916.228C137.929,916.228 135.011,921.195 137.933,921.195C140.155,921.195 143.455,921.745 144.884,923.18C147.588,925.894 144.849,933.082 146.865,935.09C148.92,937.136 153.239,937.489 154.809,939.06C156.634,940.884 154.717,947.992 157.787,947.992C159.11,947.992 157.783,950.639 157.783,951.962C157.783,954.861 155.798,955.017 155.798,957.917C155.798,963.819 144.185,959.149 146.705,964.169C148.513,967.77 150.455,963.861 147.126,970.517C146.306,972.158 139.198,977.5 141.175,981.439C143.349,985.769 144.296,995.477 147.13,998.311C149.893,1001.07 154.844,1003.04 157.059,1005.26C160.515,1008.71 145.848,1026.38 144.152,1028.09C143.889,1028.35 144.152,1030.65 144.152,1031.06C144.152,1032.43 149.748,1042.25 151.104,1044.96C152.887,1048.53 148.378,1059.12 151.1,1061.83C153.537,1064.26 154.818,1065.29 157.059,1069.77C158.242,1072.14 156.208,1079.85 158.047,1081.68C160.066,1083.69 161.654,1087.27 163.01,1088.63C163.648,1089.27 186.117,1088.53 188.819,1087.64C191.133,1086.87 199.886,1080.84 202.714,1083.67C204.988,1085.94 206.459,1088.02 209.661,1089.62C214.827,1092.2 220.058,1085.39 224.549,1087.64C236.623,1093.66 228.138,1096.41 230.322,1100.76C231.875,1103.86 235.378,1104.82 237.273,1106.72C240.034,1109.48 237.002,1118.37 239.254,1120.61C240.518,1121.87 245.549,1119.79 247.198,1120.61C250.398,1122.21 253.149,1129.54 253.149,1129.54C253.149,1129.54 253.619,1128.08 254.142,1127.56C256.021,1125.68 259.038,1120.75 260.1,1118.63C263.964,1110.9 263.582,1100.78 268.04,1091.83C270.416,1087.06 271.49,1099.4 277.151,1096.57C283.245,1093.52 284.497,1102.32 290.053,1099.55C292.837,1098.15 295.15,1095.02 297.993,1093.59C298.947,1093.11 302.19,1094.35 302.952,1093.59C306.309,1090.23 331.539,1080.61 337.641,1080.61C337.972,1080.61 337.638,1079.95 337.637,1079.62C337.626,1076.87 335.583,1073.86 336.644,1070.69C338.57,1064.93 342.623,1060.89 342.599,1054.81C342.59,1052.4 337.352,1054.52 335.648,1052.82C334.15,1051.32 327.691,1036.89 326.72,1033.97C325.116,1029.14 330.707,1024.6 330.69,1020.07C330.681,1017.95 328.267,1017.34 327.712,1015.11C326.332,1009.57 328.726,1003.82 328.705,998.236C328.696,995.942 325.603,993.633 326.72,990.296C334.889,965.881 330.119,983.054 341.659,971.514C342.903,970.27 351.677,964.659 347.614,960.596C345.685,958.666 341.6,964.507 339.67,962.577C336.125,959.032 338.686,951.668 335.704,948.686C334.981,947.963 331.735,948.7 328.757,942.731C328.305,941.825 330.756,925.603 330.742,921.889C330.741,921.789 327.847,920.979 325.779,918.911C323.807,916.939 322.644,912.798 320.817,910.971C319.676,909.831 309.422,909.157 305.922,907.99C303.726,907.258 301.384,904.024 298.982,904.024C295.598,904.024 287.046,909.953 286.076,908.983C281.099,904.006 287.808,883.181 282.11,883.181C269.391,883.181 253.113,899.275 249.357,903.031C247.637,904.752 244.017,915.248 239.428,914.937C235.22,914.653 225.253,914.182 215.608,910.968C209.281,908.858 195.405,918.554 192.781,915.93C190.563,913.713 192.027,912.198 189.807,909.979C188.705,908.877 184.007,912.039 179.878,909.975C175.678,907.875 172.028,903.031 168.965,903.031C166.823,903.031 156.385,920.399 154.801,921.191C153.504,921.84 153.999,920.202 152.82,920.202C149.565,920.202 146.662,918.213 143.884,918.213C141.585,918.213 137.933,915.189 137.929,916.228Z" style="fill:white;stroke:black;stroke-width:1.39px;"/>
        </g>
        <g transform="matrix(1.95145,0,0,1.36801,-242.083,-707.408)">
            <path d="M335.44,1087.28C335.771,1087.28 337.638,1079.95 337.637,1079.62C337.626,1076.87 335.583,1073.86 336.644,1070.69C338.57,1064.93 342.623,1060.89 342.599,1054.81C342.59,1052.4 342.269,1054.52 340.565,1052.82C339.066,1051.32 332.608,1036.89 331.636,1033.97C330.033,1029.14 335.624,1024.6 335.606,1020.07C335.598,1017.95 333.184,1017.34 332.629,1015.11C331.249,1009.57 333.643,1003.82 333.621,998.236C333.612,995.942 330.519,993.633 331.636,990.296C339.806,965.881 330.119,983.054 341.659,971.514C342.903,970.27 351.677,964.659 347.614,960.596C345.685,958.666 341.6,964.507 339.67,962.577C336.125,959.032 338.686,951.668 335.704,948.686C334.981,947.963 331.735,948.7 328.757,942.731C328.305,941.825 330.756,925.603 330.742,921.889C330.741,921.789 327.847,920.979 325.779,918.911C323.807,916.939 322.644,912.798 320.817,910.971C319.676,909.831 309.422,909.157 305.922,907.99C303.726,907.258 301.384,904.024 298.982,904.024C295.598,904.024 287.046,909.953 286.076,908.983C281.099,904.006 287.808,883.181 282.11,883.181C269.391,883.181 253.113,899.275 249.357,903.031C247.637,904.752 244.017,915.248 239.428,914.937C235.22,914.653 225.253,914.182 215.608,910.968C209.281,908.858 195.405,918.554 192.781,915.93C190.563,913.713 192.027,912.198 189.807,909.979C188.705,908.877 184.007,912.039 179.878,909.975C175.678,907.875 172.028,903.031 168.965,903.031C166.823,903.031 156.385,920.399 154.801,921.191C153.504,921.84 153.999,920.202 152.82,920.202C149.565,920.202 146.662,918.213 143.884,918.213C141.585,918.213 137.933,915.189 137.929,916.228C137.929,916.228 135.011,921.195 137.933,921.195C140.155,921.195 143.455,921.745 144.884,923.18C147.588,925.894 144.849,933.082 146.865,935.09C148.92,937.136 153.239,937.489 154.809,939.06C156.634,940.884 154.717,947.992 157.787,947.992C159.11,947.992 157.783,950.639 157.783,951.962C157.783,954.861 155.798,955.017 155.798,957.917C155.798,963.819 144.185,959.149 146.705,964.169C148.513,967.77 150.455,963.861 147.126,970.517C146.306,972.158 139.198,977.5 141.175,981.439C143.349,985.769 144.296,995.477 147.13,998.311C149.893,1001.07 154.844,1003.04 157.059,1005.26C160.515,1008.71 145.848,1026.38 144.152,1028.09C143.889,1028.35 144.152,1030.65 144.152,1031.06C144.152,1032.43 149.748,1042.25 151.104,1044.96C152.887,1048.53 148.378,1059.12 151.1,1061.83C153.537,1064.26 154.818,1065.29 157.059,1069.77C158.242,1072.14 156.208,1079.85 158.047,1081.68C160.066,1083.69 161.654,1087.27 163.01,1088.63" style="fill:white;stroke:black;stroke-width:1.19px;"/>
        </g>
        <g id="Busch1" serif:id="Busch" transform="matrix(-0.85691,0,0,0.702353,756.247,-35.6629)">
            <g transform="matrix(0.668787,0,0,0.815958,71.485,489.048)">
                <path d="M295.995,823.13C298.61,820.987 303.435,799.169 308.79,790.424C317.141,776.787 321.589,767.505 333.577,757.678C346.006,747.491 343.317,691.562 336.011,685.574C324.841,676.419 324.169,697.592 328.69,697.592C337.328,697.592 324.414,725.119 323.793,725.632C318.1,730.335 329.504,748.976 323.784,753.665C311.952,763.362 300.479,792.795 296.904,795.725C293.397,798.6 288.525,809.642 289.352,813.709C290.847,821.063 279.859,823.808 279.742,823.908C281.332,816.867 268.194,817.926 275.136,812.236C281.114,807.336 272.477,791.705 272.477,787.722C272.477,775.507 292.9,749.264 281.22,739.69C273.381,733.265 270.034,697.5 270.033,697.592C269.915,722.32 269.858,763.315 264.967,763.33L263.49,789.926C263.49,796.248 260.514,797.429 264.967,804.701C268.074,809.774 257.605,819.951 257.58,823.908C256.541,819.433 242.545,804.265 240.71,799.739C238.759,794.929 240.734,786.826 240.71,781.713C240.563,750.911 229.933,713.995 223.604,703.6C221.188,699.632 185.135,709.609 186.959,709.609C209.012,709.609 197.607,721.94 210.299,732.303C214.316,735.582 215.091,740.678 218.727,743.658C223.027,747.183 222.443,750.807 229.507,765.85C234.973,777.491 222.234,800.611 233.388,809.753C237.391,813.034 226.53,820.952 228.03,823.908C227.028,823.394 214.075,820.057 199.957,792.881C196.535,786.295 185.696,758.653 184.497,757.671C175.493,750.291 187.522,715.61 184.497,715.61C181.142,715.61 164.249,691.575 155.173,691.575L167.391,715.61C160.954,715.631 174.732,753.692 174.732,765.69C174.732,769.928 177.302,779.902 179.628,783.716C190.793,802.018 200.713,824.412 205.804,823.908" style="fill:white;stroke:black;stroke-width:3.49px;"/>
            </g>
            <path d="M137.929,916.228C137.929,916.228 135.011,921.195 137.933,921.195C140.155,921.195 143.455,921.745 144.884,923.18C147.588,925.894 144.849,933.082 146.865,935.09C148.92,937.136 153.239,937.489 154.809,939.06C156.634,940.884 154.717,947.992 157.787,947.992C159.11,947.992 157.783,950.639 157.783,951.962C157.783,954.861 155.798,955.017 155.798,957.917C155.798,963.819 144.185,959.149 146.705,964.169C148.513,967.77 150.455,963.861 147.126,970.517C146.306,972.158 139.198,977.5 141.175,981.439C143.349,985.769 144.296,995.477 147.13,998.311C149.893,1001.07 154.844,1003.04 157.059,1005.26C160.515,1008.71 145.848,1026.38 144.152,1028.09C143.889,1028.35 144.152,1030.65 144.152,1031.06C144.152,1032.43 149.748,1042.25 151.104,1044.96C152.887,1048.53 148.378,1059.12 151.1,1061.83C153.537,1064.26 154.818,1065.29 157.059,1069.77C158.242,1072.14 156.208,1079.85 158.047,1081.68C160.066,1083.69 161.654,1087.27 163.01,1088.63C163.648,1089.27 186.117,1088.53 188.819,1087.64C191.133,1086.87 199.886,1080.84 202.714,1083.67C204.988,1085.94 206.459,1088.02 209.661,1089.62C214.827,1092.2 220.058,1085.39 224.549,1087.64C236.623,1093.66 228.138,1096.41 230.322,1100.76C231.875,1103.86 235.378,1104.82 237.273,1106.72C240.034,1109.48 237.002,1118.37 239.254,1120.61C240.518,1121.87 245.549,1119.79 247.198,1120.61C250.398,1122.21 253.149,1129.54 253.149,1129.54C253.149,1129.54 253.619,1128.08 254.142,1127.56C256.021,1125.68 259.038,1120.75 260.1,1118.63C263.964,1110.9 263.582,1100.78 268.04,1091.83C270.416,1087.06 271.49,1099.4 277.151,1096.57C283.245,1093.52 284.497,1102.32 290.053,1099.55C292.837,1098.15 295.15,1095.02 297.993,1093.59C298.947,1093.11 302.19,1094.35 302.952,1093.59C306.309,1090.23 331.539,1080.61 337.641,1080.61C337.972,1080.61 337.638,1079.95 337.637,1079.62C337.626,1076.87 335.583,1073.86 336.644,1070.69C338.57,1064.93 342.623,1060.89 342.599,1054.81C342.59,1052.4 337.352,1054.52 335.648,1052.82C334.15,1051.32 327.691,1036.89 326.72,1033.97C325.116,1029.14 330.707,1024.6 330.69,1020.07C330.681,1017.95 328.267,1017.34 327.712,1015.11C326.332,1009.57 328.726,1003.82 328.705,998.236C328.696,995.942 325.603,993.633 326.72,990.296C334.889,965.881 330.119,983.054 341.659,971.514C342.903,970.27 351.677,964.659 347.614,960.596C345.685,958.666 341.6,964.507 339.67,962.577C336.125,959.032 338.686,951.668 335.704,948.686C334.981,947.963 331.735,948.7 328.757,942.731C328.305,941.825 330.756,925.603 330.742,921.889C330.741,921.789 327.847,920.979 325.779,918.911C323.807,916.939 322.644,912.798 320.817,910.971C319.676,909.831 309.422,909.157 305.922,907.99C303.726,907.258 301.384,904.024 298.982,904.024C295.598,904.024 287.046,909.953 286.076,908.983C281.099,904.006 287.808,883.181 282.11,883.181C269.391,883.181 253.113,899.275 249.357,903.031C247.637,904.752 244.017,915.248 239.428,914.937C235.22,914.653 225.253,914.182 215.608,910.968C209.281,908.858 195.405,918.554 192.781,915.93C190.563,913.713 192.027,912.198 189.807,909.979C188.705,908.877 184.007,912.039 179.878,909.975C175.678,907.875 172.028,903.031 168.965,903.031C166.823,903.031 156.385,920.399 154.801,921.191C153.504,921.84 153.999,920.202 152.82,920.202C149.565,920.202 146.662,918.213 143.884,918.213C141.585,918.213 137.933,915.189 137.929,916.228Z" style="fill:white;stroke:black;stroke-width:2.55px;"/>
        </g>
        <g transform="matrix(1.95145,0,0,1.36801,-730.51,-707.408)">
            <path d="M335.44,1087.28C335.771,1087.28 337.638,1079.95 337.637,1079.62C337.626,1076.87 335.583,1073.86 336.644,1070.69C338.57,1064.93 342.623,1060.89 342.599,1054.81C342.59,1052.4 342.269,1054.52 340.565,1052.82C339.066,1051.32 332.608,1036.89 331.636,1033.97C330.033,1029.14 335.624,1024.6 335.606,1020.07C335.598,1017.95 333.184,1017.34 332.629,1015.11C331.249,1009.57 333.643,1003.82 333.621,998.236C333.612,995.942 330.519,993.633 331.636,990.296C339.806,965.881 330.119,983.054 341.659,971.514C342.903,970.27 351.677,964.659 347.614,960.596C345.685,958.666 341.6,964.507 339.67,962.577C336.125,959.032 338.686,951.668 335.704,948.686C334.981,947.963 331.735,948.7 328.757,942.731C328.305,941.825 330.756,925.603 330.742,921.889C330.741,921.789 327.847,920.979 325.779,918.911C323.807,916.939 322.644,912.798 320.817,910.971C319.676,909.831 309.422,909.157 305.922,907.99C303.726,907.258 301.384,904.024 298.982,904.024C295.598,904.024 287.046,909.953 286.076,908.983C281.099,904.006 287.808,883.181 282.11,883.181C269.391,883.181 253.113,899.275 249.357,903.031C247.637,904.752 244.017,915.248 239.428,914.937C235.22,914.653 225.253,914.182 215.608,910.968C209.281,908.858 195.405,918.554 192.781,915.93C190.563,913.713 192.027,912.198 189.807,909.979C188.705,908.877 184.007,912.039 179.878,909.975C175.678,907.875 172.028,903.031 168.965,903.031C166.823,903.031 156.385,920.399 154.801,921.191C153.504,921.84 153.999,920.202 152.82,920.202C149.565,920.202 146.662,918.213 143.884,918.213C141.585,918.213 137.933,915.189 137.929,916.228C137.929,916.228 135.011,921.195 137.933,921.195C140.155,921.195 143.455,921.745 144.884,923.18C147.588,925.894 144.849,933.082 146.865,935.09C148.92,937.136 153.239,937.489 154.809,939.06C156.634,940.884 154.717,947.992 157.787,947.992C159.11,947.992 157.783,950.639 157.783,951.962C157.783,954.861 155.798,955.017 155.798,957.917C155.798,963.819 144.185,959.149 146.705,964.169C148.513,967.77 150.455,963.861 147.126,970.517C146.306,972.158 139.198,977.5 141.175,981.439C143.349,985.769 144.296,995.477 147.13,998.311C149.893,1001.07 154.844,1003.04 157.059,1005.26C160.515,1008.71 145.848,1026.38 144.152,1028.09C143.889,1028.35 144.152,1030.65 144.152,1031.06C144.152,1032.43 149.748,1042.25 151.104,1044.96C152.887,1048.53 148.378,1059.12 151.1,1061.83C153.537,1064.26 154.818,1065.29 157.059,1069.77C158.242,1072.14 156.208,1079.85 158.047,1081.68C160.066,1083.69 161.654,1087.27 163.01,1088.63" style="fill:white;stroke:black;stroke-width:1.19px;"/>
        </g>
    </g>
    <g transform="matrix(1.70765,0,0,1.70765,435.329,-549.349)">
        <path d="M2417,1240L2236,1240L2236,1255L2321,1255L2321,1419.21L2333,1419.21L2333,1255L2417,1255L2417,1240Z" style="fill:white;stroke:black;stroke-width:2px;"/>
    </g>
    <g transform="matrix(1.78898,0,0,1.78898,-16.2745,-487.298)">
        <path d="M2270.89,1048.47C2278.41,1048.61 2291.84,1056.36 2291.89,1061.72C2291.91,1064.14 2290.69,1067.82 2291.39,1070.72C2292.2,1074.06 2289.98,1076.46 2290.89,1078.22C2292.56,1081.43 2294.08,1084.67 2292.63,1085.22C2290.2,1086.14 2288.89,1086.22 2288.89,1086.22C2288.89,1086.22 2289.45,1087.08 2290.21,1089.72C2290.53,1090.83 2288.58,1091.04 2288.39,1091.91C2288.16,1093 2288.88,1094.25 2287.89,1095.22C2286.1,1096.98 2286.49,1100.1 2284.89,1101.86C2283.29,1103.63 2276.3,1100.19 2275.89,1103.22C2275.47,1106.25 2274.95,1112.41 2278.89,1114.2C2282.83,1116 2302.95,1128.56 2304.89,1135.22C2305.82,1138.39 2320.3,1153.59 2322.47,1152.93C2324.63,1152.28 2328.74,1151.04 2335.98,1155.93C2339.52,1158.33 2335.64,1166.03 2335.99,1171.71C2336.34,1177.4 2337.06,1174.28 2341,1176.46C2344.94,1178.65 2345.53,1178.06 2349,1178C2352.47,1177.94 2399.77,1176.45 2405,1180.53C2410.23,1184.61 2430.12,1211.64 2435,1214.5C2439.88,1217.36 2448.99,1227.54 2449.43,1230C2449.87,1232.46 2456.65,1237.34 2458,1238C2459.35,1238.66 2452.59,1239.83 2455,1242C2457.41,1244.17 2463.69,1247.85 2467.47,1249C2471.24,1250.15 2472.09,1246.85 2474,1249.46C2475.91,1252.08 2482.07,1254.21 2488,1254C2493.93,1253.79 2501.38,1249.81 2504,1251.51C2506.62,1253.2 2509.75,1255.26 2508,1257C2506.25,1258.74 2494.93,1268.67 2491,1270C2487.07,1271.33 2462.12,1280.09 2458,1279C2453.89,1277.91 2452.1,1272.46 2452,1269C2451.9,1265.54 2452.53,1262.1 2450,1260C2447.47,1257.9 2445.92,1252.96 2444.55,1254C2443.17,1255.04 2440.83,1259.82 2438,1257C2435.17,1254.18 2435.41,1250.32 2432,1248C2428.59,1245.68 2422.46,1236.64 2422,1235C2421.54,1233.36 2412.5,1226 2412.5,1226C2412.5,1226 2413.75,1244.75 2414,1249C2414.25,1253.26 2414.34,1259.84 2415,1263.39C2415.66,1266.93 2416.98,1273.64 2417,1277C2417.02,1280.36 2420.76,1282.57 2419,1285C2417.24,1287.43 2414,1288 2414,1288C2414,1288 2414.48,1295.55 2417,1296C2419.52,1296.45 2423.17,1295.97 2425,1299C2426.83,1302.03 2426.05,1302.48 2431,1303C2435.95,1303.52 2444.87,1306.24 2448.56,1308C2452.24,1309.76 2451.23,1316.29 2449,1316C2446.77,1315.71 2440.53,1319.85 2437,1319.75C2433.47,1319.65 2418.23,1320.03 2415,1320C2411.77,1319.97 2403.7,1318.7 2400,1318C2396.3,1317.3 2393.58,1319.19 2394,1315C2394.42,1310.81 2394.92,1302.85 2396,1301.56C2397.08,1300.27 2398.37,1293.26 2397,1292C2395.63,1290.74 2393.15,1289.28 2393,1285C2392.85,1280.72 2392.68,1278.72 2392.42,1275C2392.15,1271.28 2391.76,1265.04 2390,1262C2388.24,1258.96 2386.56,1249.73 2387,1247C2387.44,1244.27 2389.95,1236.65 2389,1235C2388.05,1233.35 2388.16,1232 2385,1232C2381.84,1232 2381.39,1232.52 2377,1232.45C2372.61,1232.38 2359.93,1229.55 2356.48,1229C2353.04,1228.45 2346.42,1229.04 2343,1229C2339.58,1228.96 2330.92,1226.97 2329,1227C2327.08,1227.03 2337.54,1237.66 2338,1240C2338.46,1242.34 2340.69,1248.16 2340,1250.46C2339.31,1252.75 2337.38,1254.81 2335,1256C2332.62,1257.19 2322.86,1259.18 2322,1257C2321.29,1255.19 2325.73,1253.12 2325,1250C2324.27,1246.88 2318.87,1240.5 2319,1238C2319.13,1235.5 2318,1234 2318,1234L2316,1236C2316,1236 2314.96,1228.98 2309.71,1225.12C2308.23,1224.04 2306.42,1222.64 2304.52,1221.18C2299.68,1217.44 2294.32,1213.32 2292.71,1213.12C2290.47,1212.86 2289.29,1215.02 2283.71,1212.12C2278.12,1209.24 2269.55,1179.85 2265.89,1176.22C2262.24,1172.59 2249.61,1148.1 2247.39,1146.22C2245.17,1144.34 2240.36,1131.05 2241.89,1125.22C2243.42,1119.38 2246.76,1116.05 2247.89,1113.22C2249.02,1110.39 2253,1099.51 2252.89,1096.22C2252.78,1092.93 2251.14,1096.06 2248.39,1094.72C2246.82,1093.96 2243.09,1087.74 2244.07,1081.22C2244.79,1076.4 2243.13,1071.59 2243.89,1069.22C2246.38,1061.42 2250.05,1055.37 2253.89,1053.22C2257.73,1051.07 2263.37,1048.34 2270.89,1048.47Z" style="fill:white;stroke:black;stroke-width:1.91px;"/>
    </g>
    <g transform="matrix(1.70765,0,0,1.70765,683.459,-599.602)">
        <path d="M1956.86,810.657L2323.78,717.242L2324.01,712.951C2324.01,712.951 2360.53,698.49 2372.99,696.32C2385.45,694.149 2419.22,687.985 2423.99,684.765C2428.75,681.545 2442.11,680.679 2442.11,680.679C2442.11,680.679 2439.46,673.42 2439.76,670.191C2440.73,659.51 2457.97,662.075 2458,670.453C2458.01,675.1 2455.06,680.519 2455.06,680.519C2455.06,680.519 2468.6,679.465 2472.85,682.264C2477.09,685.062 2483.32,690.839 2514.79,694.583C2536.58,697.174 2551.13,700.196 2558.01,704.615C2566.06,709.779 2572.87,714.497 2572.87,714.497L2573.07,717.453L2941.7,807.497L2937.16,819.835L2918.79,814.901C2903.02,820.888 2469.56,844.349 2469.56,844.349L2456.55,844.318L2456.5,1448.64L2438.48,1448.64L2440.41,844.452L2426.4,844.129L2053.14,828.047L1979.56,816.524L1960.86,820.769L1956.86,810.657Z" style="fill:none;stroke:black;stroke-width:2px;"/>
    </g>
    <g transform="matrix(2.34801,7.84224e-17,-7.84224e-17,-1.70765,-1070.82,3653.17)">
        <path d="M2296,1239L2280,1239L2282.63,1223L2293.37,1223L2296,1239Z" style="fill:white;stroke:black;stroke-width:1.25px;"/>
    </g>
    <g transform="matrix(1.70765,0,0,1.70765,378.977,-549.349)">
        <rect x="2280" y="1236" width="33" height="4" style="fill:white;stroke:black;stroke-width:1.5px;"/>
    </g>
    <g transform="matrix(1.70765,0,0,1.70765,418.281,-551.198)">
        <path d="M1596,1321C1592.45,1308.84 1561.55,1308.84 1558,1321C1551.67,1342.67 1553.67,1418.33 1560,1440C1563.55,1452.16 1596.45,1447.16 1600,1435C1606.33,1413.33 1602.33,1342.67 1596,1321Z" style="fill:white;stroke:black;stroke-width:2px;"/>
        <g transform="matrix(1,0,0,1,-2,3)">
            <path d="M1581,1101C1562.88,1100.77 1557.73,1117.98 1557.5,1124C1557.27,1130.02 1562.5,1131 1562.5,1131L1562,1136C1562,1136 1559.98,1135.49 1559.51,1138C1559.03,1140.51 1563,1149 1563,1149C1563,1149 1546.42,1155.02 1540,1158C1533.58,1160.98 1529.57,1166.35 1530,1172C1530.43,1177.65 1530.55,1176.89 1530,1179C1529.45,1181.11 1528.79,1187.88 1529,1194C1529.21,1200.12 1527.07,1212.41 1528,1216C1528.93,1219.59 1529.07,1219.88 1529,1226C1528.93,1232.12 1527,1234.16 1527,1240C1527,1245.84 1529.46,1263.33 1528,1266C1526.54,1268.67 1518.57,1268.54 1519,1272C1519.43,1275.46 1521.75,1283.91 1523,1287C1524.25,1290.09 1526.95,1292.08 1530,1291C1533.05,1289.92 1535.11,1287.48 1538,1286C1540.89,1284.52 1539.82,1282.1 1542,1282C1544.18,1281.9 1544.3,1301 1544.3,1301C1544.3,1301 1543.84,1307.82 1545.3,1311C1546.77,1314.18 1548.02,1323.07 1548.3,1327C1548.59,1330.93 1542.9,1347.52 1543.3,1353C1543.71,1358.48 1547,1377.08 1547.3,1381C1547.6,1384.92 1551.38,1403.58 1550.3,1407C1549.23,1410.42 1543.03,1427.16 1543.3,1432C1543.57,1436.84 1544.21,1440.39 1549.3,1441C1554.4,1441.61 1558.44,1441.53 1562.3,1440C1565.69,1438.66 1566.87,1414.12 1566.3,1410C1565.83,1406.57 1560.84,1389.12 1563.3,1383C1564.89,1379.06 1566.89,1361.53 1567.3,1357C1568.33,1345.74 1570.56,1346.36 1573.3,1326C1574.35,1318.28 1572.59,1301.88 1573.3,1295C1574.3,1285.47 1577.73,1281.65 1580.3,1281C1581.9,1280.6 1591.49,1286.04 1592.3,1295C1593.05,1303.28 1589.02,1305.95 1589.3,1313C1589.53,1318.81 1591.11,1324.91 1591.3,1331C1591.54,1338.53 1587.27,1345.05 1587.3,1352C1587.32,1357.05 1588.6,1360.86 1588.8,1364.5C1589.35,1374.35 1589.38,1379.78 1591.3,1381C1594.63,1383.11 1607.15,1386.82 1609.3,1375C1610.29,1369.59 1602.02,1350.93 1602.3,1347C1602.59,1343.07 1610.35,1328.19 1611.3,1322C1613.41,1308.3 1623,1286 1623,1286C1623,1286 1625.94,1289.92 1628.98,1291C1632.03,1292.08 1634.74,1290.09 1635.98,1287C1637.23,1283.91 1639.56,1275.46 1639.98,1272C1640.41,1268.54 1632.44,1268.67 1630.98,1266C1629.53,1263.33 1631.98,1245.84 1631.98,1240C1631.98,1234.16 1630.06,1232.12 1629.98,1226C1629.91,1219.88 1630.06,1219.59 1630.98,1216C1631.91,1212.41 1629.77,1200.12 1629.98,1194C1630.19,1187.88 1629.54,1181.11 1628.98,1179C1628.43,1176.89 1628.55,1177.65 1628.98,1172C1629.41,1166.35 1625.4,1160.98 1618.98,1158C1612.56,1155.02 1595.98,1149 1595.98,1149C1595.98,1149 1599.48,1140.51 1599,1138C1598.53,1135.49 1596.98,1136 1596.98,1136L1596.98,1132C1596.98,1132 1603.23,1131.02 1603,1125C1602.77,1118.98 1598.53,1101.23 1581,1101Z" style="fill:white;stroke:black;stroke-width:2px;"/>
        </g>
        <g transform="matrix(1,0,0,1,-2,3)">
            <path d="M1577,1340L1586,1340L1586,1281L1619,1281C1619,1281 1618,1279 1618,1278C1618,1277 1619,1275 1619,1275L1538,1275C1538,1275 1536.17,1277 1536,1278C1535.83,1279 1537,1281 1537,1281L1577,1281L1577,1340Z" style="fill:white;stroke:black;stroke-width:2px;"/>
        </g>
        <g transform="matrix(0.784853,0,0,1,340.1,0.2502)">
            <path d="M1586.16,1340L1572.14,1340C1572.14,1340 1569.59,1393.43 1569.59,1419.75C1569.59,1445.81 1573.42,1497.92 1573.42,1497.92L1586.16,1497.92C1586.16,1497.92 1588.71,1445.81 1588.71,1419.75C1588.71,1393.43 1586.16,1340 1586.16,1340Z" style="fill:white;stroke:black;stroke-width:2.22px;"/>
        </g>
    </g>
    <g transform="matrix(-1.70765,0,0,1.70765,9843.94,-549.349)">
        <path d="M2492.28,1324.73C2490.46,1322.4 2484.8,1322.2 2484.8,1322.2L2396.48,1322.2L2379.4,1210.27L2371.84,1210.26C2385.95,1280.25 2389.93,1349.99 2379.44,1419.21L2386.3,1419.21L2397.35,1334.59L2484.29,1334.03L2490.09,1419.21L2494.82,1419.21L2494.82,1332.89C2494.82,1332.89 2494.5,1327.58 2492.28,1324.73Z" style="fill:white;stroke:black;stroke-width:2px;"/>
    </g>
    <g transform="matrix(1.39407,0,0,1.70765,1703.61,-547.999)">
        <path d="M2538.56,1324.73C2536.74,1322.4 2531.08,1322.2 2531.08,1322.2L2457.58,1322.2L2440.34,1210.26L2379.4,1210.27L2371.84,1210.26C2385.95,1280.25 2390.16,1349.2 2379.67,1418.42L2386.53,1418.42L2397.35,1334.59L2433.33,1334.43C2434.65,1363.19 2431.98,1390.5 2428.18,1418.42L2435.53,1418.42L2446.55,1334.38L2485.16,1334.21L2489.43,1418.42L2494.33,1418.42L2494.33,1334.18L2530.57,1334.03L2537.2,1418.21L2541.93,1418.21L2541.09,1332.89C2541.09,1332.89 2540.78,1327.58 2538.56,1324.73Z" style="fill:white;stroke:black;stroke-width:2.19px;"/>
    </g>
    <g transform="matrix(-1.70765,0,0,1.70765,9357.55,-549.349)">
        <path d="M2417,1240L2236,1240L2236,1255L2321,1255L2321,1419.21L2333,1419.21L2333,1255L2417,1255L2417,1240Z" style="fill:white;stroke:black;stroke-width:2px;"/>
    </g>
    <g transform="matrix(1.70765,0,0,1.70765,-747.707,-13561.7)">
        <path d="M5076.99,9116.98C5075.03,9160.68 5038.93,9195.55 4994.75,9195.55C4949.31,9195.55 4912.43,9158.67 4912.43,9113.23C4912.43,9067.79 4949.31,9030.9 4994.75,9030.9C5011.68,9030.9 5027.42,9036.02 5040.51,9044.8L5068.06,9007.42C5068.2,9007.23 5068.36,9007.05 5068.53,9006.89L5059.5,8983.44C5051.93,8983.73 5047.43,8983.29 5043.89,8981.96C5039.59,8980.35 5036.48,8977.45 5031.55,8972.07C5029.31,8969.63 5029.48,8965.83 5031.92,8963.6C5034.36,8961.36 5038.16,8961.52 5040.4,8963.97C5043.6,8967.46 5045.32,8969.68 5048.11,8970.73C5051.13,8971.86 5055.13,8971.71 5062.45,8971.29C5073.68,8970.64 5080.92,8970.92 5085.59,8972.14C5090.22,8973.35 5093.01,8975.48 5094.85,8978.21C5096.7,8980.95 5095.97,8984.69 5093.23,8986.54C5090.48,8988.39 5086.75,8987.66 5084.9,8984.92C5084.22,8983.9 5082.84,8983.72 5080.79,8983.4C5077.56,8982.89 5073.22,8982.82 5067.39,8983.06L5076.19,9005.89L5193.49,9005.89L5186.56,8978.66C5186.28,8977.54 5186.52,8976.36 5187.22,8975.45C5187.93,8974.54 5189.01,8974 5190.15,8973.98L5230.49,8973.53C5230.52,8973.53 5230.55,8973.53 5230.58,8973.53C5239.19,8973.65 5244.8,8979.61 5246.72,8986.75C5248.41,8993.05 5247.1,9000.17 5242.72,9004.69C5239.74,9007.78 5235.33,9009.79 5229.31,9009.43C5227.24,9009.3 5225.67,9007.52 5225.79,9005.46C5225.92,9003.39 5227.7,9001.81 5229.76,9001.94C5233.13,9002.14 5235.66,9001.21 5237.33,8999.48C5239.95,8996.77 5240.49,8992.46 5239.47,8988.7C5238.39,8984.66 5235.37,8981.12 5230.52,8981.03C5230.52,8981.03 5195.01,8981.43 5195.01,8981.43L5201.9,9008.54C5202.51,9010.22 5207.41,9023.68 5212.67,9038.18C5223,9033.51 5234.46,9030.9 5246.53,9030.9C5291.97,9030.9 5328.86,9067.79 5328.86,9113.23C5328.86,9158.67 5291.97,9195.55 5246.53,9195.55C5201.09,9195.55 5164.2,9158.67 5164.2,9113.23C5164.2,9082.55 5181.02,9055.76 5205.94,9041.6C5202.52,9032.19 5199.23,9023.13 5197.11,9017.33L5134.39,9098.54C5137.36,9102.68 5139.11,9107.75 5139.11,9113.23C5139.11,9127.14 5127.82,9138.42 5113.92,9138.42C5113.16,9138.42 5112.41,9138.39 5111.68,9138.33L5102.43,9171.64C5102.07,9172.95 5100.87,9173.85 5099.52,9173.84L5083.47,9173.69C5081.81,9173.68 5080.48,9172.32 5080.49,9170.67C5080.51,9169.01 5081.87,9167.68 5083.52,9167.69C5083.52,9167.69 5097.27,9167.82 5097.27,9167.82L5105.79,9137.08C5097.01,9134.09 5090.41,9126.38 5089,9116.98L5076.99,9116.98ZM5033.39,9054.47C5022.3,9047.16 5009.02,9042.9 4994.75,9042.9C4955.94,9042.9 4924.43,9074.42 4924.43,9113.23C4924.43,9152.04 4955.94,9183.55 4994.75,9183.55C5032.31,9183.55 5063.03,9154.05 5064.98,9116.98L4994.75,9116.98C4993.34,9116.98 4992.04,9116.18 4991.4,9114.92C4990.77,9113.66 4990.89,9112.14 4991.73,9111.01L5033.39,9054.47ZM5071.7,9015.11L5046.55,9049.26C5064.26,9063.62 5075.9,9085.19 5076.99,9109.48L5089,9109.48C5090.15,9101.82 5094.74,9095.29 5101.15,9091.51L5071.7,9015.11ZM5190.67,9013.39L5079.08,9013.39L5108.11,9088.71C5109.98,9088.27 5111.92,9088.03 5113.92,9088.03C5115.75,9088.03 5117.53,9088.23 5119.25,9088.6L5128.03,9056.93C5128.39,9055.66 5129.51,9054.77 5130.82,9054.73L5144.49,9054.26C5146.15,9054.21 5147.54,9055.51 5147.59,9057.16C5147.65,9058.82 5146.35,9060.21 5144.7,9060.26L5133.23,9060.65L5124.93,9090.56C5126.4,9091.28 5127.8,9092.14 5129.09,9093.12L5190.67,9013.39ZM5210.1,9053.08C5189.78,9065.42 5176.2,9087.75 5176.2,9113.23C5176.2,9152.04 5207.72,9183.55 5246.53,9183.55C5285.34,9183.55 5316.86,9152.04 5316.86,9113.23C5316.86,9074.42 5285.34,9042.9 5246.53,9042.9C5235.9,9042.9 5225.82,9045.27 5216.78,9049.5C5219.43,9056.81 5221.9,9063.67 5223.69,9068.64C5229.37,9084.48 5235.33,9101.15 5248.63,9110.12C5250.34,9111.28 5250.8,9113.61 5249.64,9115.33C5248.48,9117.04 5246.15,9117.5 5244.43,9116.34C5229.86,9106.51 5222.86,9088.53 5216.63,9071.18C5214.93,9066.44 5212.6,9060 5210.1,9053.08ZM5113.73,9130.92C5113.79,9130.92 5113.86,9130.92 5113.92,9130.92C5123.69,9130.92 5131.61,9123 5131.61,9113.23C5131.61,9108.6 5129.83,9104.38 5126.91,9101.22C5126.87,9101.18 5126.83,9101.14 5126.8,9101.1C5125.65,9099.88 5124.33,9098.82 5122.87,9097.97L5113.73,9130.92ZM5096.22,9113.23C5096.22,9120.85 5101.05,9127.35 5107.81,9129.84L5117.24,9095.84C5116.16,9095.64 5115.05,9095.53 5113.92,9095.53C5104.15,9095.53 5096.22,9103.46 5096.22,9113.23ZM5064.98,9109.48C5063.91,9089.14 5054.18,9071.09 5039.42,9058.93L5002.17,9109.48L5064.98,9109.48Z" style="fill:none;stroke:black;stroke-width:2px;stroke-linecap:butt;stroke-miterlimit:2;"/>
    </g>
    <g transform="matrix(1.70765,0,0,1.70765,-714.969,-13828)">
        <path d="M5101.47,9351.51L5101.47,9247.83C5101.47,9225.18 5119.49,9202.42 5144.84,9202.31C5170.98,9202.2 5191.2,9224.48 5191.2,9247.83L5191.2,9351.51" style="fill:none;stroke:black;stroke-width:11.13px;stroke-linecap:butt;"/>
        <path d="M5101.47,9351.51L5101.47,9247.83C5101.47,9225.18 5119.49,9202.42 5144.84,9202.31C5170.98,9202.2 5191.2,9224.48 5191.2,9247.83L5191.2,9351.51" style="fill:none;stroke:rgb(217,217,217);stroke-width:15px;stroke-linecap:butt;stroke-miterlimit:2;"/>
    </g>
    <g transform="matrix(1.70765,0,0,1.70765,1301.11,900.8)">
        <path d="M519.177,730.791C560.441,730.791 658.736,650 700,650L1300,650" style="fill:none;stroke:rgb(217,217,217);stroke-width:15px;"/>
    </g>
    <g transform="matrix(1.44751,0,0,1.70765,1639.28,900.784)">
        <path d="M1300,650C1359.88,650 1440.33,570 1500.21,570L3015.01,570C3074.89,570 3155.34,650 3215.22,650" style="fill:none;stroke:rgb(185,209,255);stroke-width:16.18px;"/>
    </g>
    <g transform="matrix(-1.70765,0,0,1.70765,8513.3,900.8)">
        <path d="M519.177,730.791C560.441,730.791 658.736,650 700,650L1300,650" style="fill:none;stroke:rgb(217,217,217);stroke-width:15px;"/>
    </g>
    <g transform="matrix(2.19482,0,0,1.70765,-2723.49,-13828)">
        <path d="M4715.75,9355.99L5519.03,9355.99" style="fill:none;stroke:rgb(53,129,255);stroke-width:13.03px;"/>
    </g>
    <g transform="matrix(1.70765,0,0,1.70765,378.977,-563.507)">
        <path d="M0,1579.21L1059.18,1580" style="fill:none;stroke:rgb(33,199,96);stroke-width:15px;stroke-dasharray:0,30,0,0;"/>
        <g transform="matrix(1,0,0,1,-14.1766,15.7909)">
            <path d="M0,1579.21L1059.18,1580" style="fill:none;stroke:rgb(33,199,96);stroke-width:15px;stroke-dasharray:0,30,0,0;"/>
        </g>
    </g>
</svg>
